<?xml version="1.0" standalone="no"?>
<!DOCTYPE svg PUBLIC "-//W3C//DTD SVG 1.1//EN" "http://www.w3.org/Graphics/SVG/1.1/DTD/svg11.dtd" >
<svg>
<metadata>
Created by FontForge 20120731 at Thu Mar 20 23:10:00 2025
 By www
Copyright 2017 Maria Grnlund
</metadata>
<defs>
<font id="AbeloneRegular" horiz-adv-x="800" >
  <font-face 
    font-family="Abelone"
    font-weight="400"
    font-stretch="normal"
    units-per-em="1000"
    panose-1="0 0 0 0 0 0 0 0 0 0"
    ascent="800"
    descent="-200"
    cap-height="700"
    bbox="49.3333 -409 1450 1049.6"
    underline-thickness="0"
    underline-position="0"
    unicode-range="U+000A-F002"
  />
<missing-glyph horiz-adv-x="501" 
 />
    <glyph glyph-name=".notdef" horiz-adv-x="501" 
 />
    <glyph glyph-name=".notdef" horiz-adv-x="501" 
 />
    <glyph glyph-name=".null" horiz-adv-x="0" 
 />
    <glyph glyph-name="nonmarkingreturn" horiz-adv-x="333" 
 />
    <glyph glyph-name="LF" unicode="&#xa;" horiz-adv-x="0" 
 />
    <glyph glyph-name="controlCR" unicode="&#xd;" horiz-adv-x="0" 
 />
    <glyph glyph-name="space" unicode=" " horiz-adv-x="315" 
 />
    <glyph glyph-name="exclam" unicode="!" horiz-adv-x="333" 
d="M283 608.5v-1.5v-1.5v-2v-2v-1.5v-1.5v-2v-2v-1.5v-2v-2v-1.5v-1.5v-2v-2v-1.5v-1.5v-2v-2v-1.5v-2v-2v-1.5v-1.5v-2v-2v-1.5v-1.5v-2v-2v-2v-1.5v-1.5v-2v-2v-2v-1.5v-1.5v-2v-2v-1.5v-1.5v-2v-2v-1.5v-2v-2v-1.5v-1.5v-2v-2v-1.5v-1.5v-2v-2v-1.5v-2v-2v-1.5v-1.5v-2
v-2v-1.5v-1.5v-2v-2v-2v-1.5v-1.5v-2v-2v-2v-1.5v-1.5v-2v-2v-1.5v-1.5v-2v-2v-1.5v-2v-2v-1.5v-1.5v-2v-2v-1.5v-1.5v-2v-2v-1.5v-2v-2v-1.5v-1.5v-2v-2v-1.5v-1.5v-2v-2v-2v-2v-1.5v-1.5v-2v-2v-1.5v-1.5v-2v-2v-1.5v-1.5v-2v-2v-1.5v-2v-2v-1.5v-1.5v-2v-2v-1.5v-1.5v-2
v-2v-1.5v-2v-2v-1.5v-1.5v-2v-2v-1.5v-1.5v-2v-2v-2v-2v-1.5v-1.5v-2v-2v-1.5v-1.5v-2v-2v-1.5v-2v-2v-1.5v-1.5v-2v-2v-1.5v-1.5v-2v-2v-1.5v-2v-1.5q0 -33 -16 -60t-44 -42q28 -15 44 -42.5t16 -59.5q0 -49 -34 -83t-82.5 -34t-82.5 34t-34 83q0 32 16.5 59.5t43.5 42.5
q-27 15 -43.5 42t-16.5 60v1.5v2v1.5v2v2v1.5v1.5v2v2v1.5v1.5v2v2v1.5v2v2v1.5v1.5v2v2v1.5v1.5v2v2v2v2v1.5v1.5v2v2v1.5v1.5v2v2v1.5v1.5v2v2v1.5v2v2v1.5v1.5v2v2v1.5v2v2v1.5v1.5v2v2v1.5v1.5v2v2v1.5v1.5v2v2v2v2v1.5v1.5v2v2v1.5v1.5v2v2v1.5v2v2v1.5v1.5v2v2v1.5
v1.5v2v2v1.5v2v2v1.5v1.5v2v2v1.5v1.5v2v2v1.5v1.5v2v2v2v2v1.5v1.5v2v2v1.5v1.5v2v2v1.5v2v2v1.5v1.5v2v2v1.5v1.5v2v2v1.5v2v2v1.5v1.5v2v2v1.5v1.5v2v2v2v2v1.5v1.5v2v2v1.5v1.5v2v2v1.5v1.5v2v2v1.5v2v2v1.5v1.5v2v2v1.5v2v2v1.5v1.5v2v2v1.5v1.5v2v2v1.5v1.5v2v1.5
q0 49 34 83t82.5 34t82.5 -34t34 -83v-1.5v-2z" />
    <glyph glyph-name="quotedbl" unicode="&#x22;" horiz-adv-x="508" 
d="M137.5 820q36.5 0 62 -26t25.5 -62v-2v-1.5v-1.5v-2v-2.5v-1.5v-1.5v-2v-2v-1.5v-1.5v-2v-2v-2v-1.5v-2v-2v-1.5v-2v-2v-2v-1.5v-1.5v-2v-2v-1.5v-1.5v-2.5v-2v-1.5v-1.5v-2v-2.5v-1.5v-1.5v-2v-2v-1.5v-1.5v-2v-2v-2v-1.5v-2v-2v-1.5v-2v-2v-2v-1.5v-1.5v-2v-2v-2v-1.5
v-2v-2v-1.5v-1.5v-2v-2.5v-1.5v-1.5v-1.5q0 -37 -25.5 -62.5t-62 -25.5t-62 25.5t-25.5 62.5v1.5v2v1.5v2v2v1.5v1.5v2v2v1.5v2v2v2v1.5v1.5v2v2v2v1.5v2v2v1.5v2v2v2v1.5v1.5v2v2v1.5v1.5v2.5v2v1.5v1.5v2v2.5v1.5v1.5v2v2v1.5v1.5v2v2v2v1.5v2v2v1.5v2v2v2v1.5v1.5v2v2
v1.5v1.5v2.5v2v1.5v1.5v2q0 36 25.5 62t62 26zM458 728.5v-1.5v-2v-2v-1.5v-2v-2v-2v-1.5v-1.5v-2v-2v-2v-1.5v-2v-2v-1.5v-2v-2v-2v-1.5v-1.5v-2v-2v-2v-1.5v-2v-2v-1.5v-1.5v-2v-2v-1.5v-2v-2v-2v-1.5v-1.5v-2v-2v-2v-1.5v-2v-2v-1.5v-2v-2v-2v-1.5v-1.5v-2v-2v-2v-1.5v-2
v-2v-1.5v-2v-2v-1.5v-1.5v-2v-1.5q0 -37 -25.5 -62.5t-61.5 -25.5t-62 25.5t-26 62.5l0.5 1.5l0.5 1.5l-0.5 1.5t-0.5 2.5t0.5 2t0.5 1.5t-0.5 1.5t-0.5 2t0.5 2t0.5 1.5t-0.5 2t-0.5 2t0.5 2l0.5 1.5l-0.5 1.5t-0.5 2t0.5 2t0.5 2t-0.5 1.5t-0.5 2t0.5 2t0.5 1.5t-0.5 2
t-0.5 2t0.5 2l0.5 1.5l-0.5 1.5t-0.5 2t0.5 2l0.5 1.5l-0.5 1.5t-0.5 2.5t0.5 2t0.5 1.5t-0.5 1.5t-0.5 2t0.5 2.5l0.5 1.5l-0.5 1.5t-0.5 2t0.5 2l0.5 1.5l-0.5 1.5t-0.5 2t0.5 2t0.5 2t-0.5 1.5t-0.5 2t0.5 2t0.5 1.5t-0.5 2t-0.5 2t0.5 2l0.5 1.5l-0.5 1.5t-0.5 2t0.5 2
l0.5 1.5l-0.5 1.5t-0.5 2.5t0.5 2t0.5 1.5t-0.5 1.5t-0.5 2q0 36 26 62t62 26t61.5 -26t25.5 -62v-2v-1.5z" />
    <glyph glyph-name="numbersign" unicode="#" horiz-adv-x="1033" 
d="M870 702q48 -1 80.5 -35t32.5 -81q0 -49 -34 -83t-82 -34h-3h-2.5h-2h-2.5h-2.5h-2h-2h-2.5h-2.5h-2h-2.5h-3h-2.5h-2h-2h-2.5h-2.5h-2h-2.5h-2.5h-2.5h-2.5h-2h-2.5h-2.5h-2h-2h-2.5h-2.5h-2.5h-1.5h-1.5l-1 -1v-1q-1 -5 -4 -13q-2 -6 -5 -13v-1q-1 -5 -4 -13
q-2 -6 -5 -13v-1q0 -1 -0.5 -2.5t-0.5 -2.5q40 -8 67 -40t27 -74q0 -48 -34.5 -82.5t-82.5 -34.5q-4 0 -9 1q-6 -1 -10 -1t-9 1q-6 -1 -9.5 -1t-9.5 1q-2 0 -5 -1l-4 -10v-1l-4 -12q0 -1 -0.5 -1t-0.5 -1q-1 -5 -4 -12v-1q-2 -6 -4 -13q0 -1 -1 -1q-1 -6 -4 -13v-1l-4 -12
v-1v-1q-2 -6 -5 -12v-1q-1 -6 -4 -13v-1q-2 -6 -5 -13v-1q-1 -6 -4 -12v-1q-2 -6 -4 -13q-1 0 -1 -1q-1 -6 -4 -13v-1q-2 -6 -4 -13l-0.5 -0.5l-0.5 -0.5q-1 -6 -4 -12v-1q-13 -47 -54.5 -71t-88.5 -11.5t-71 54t-11 88.5q1 6 4 13v1l4 12v1q2 6 5 13v1q2 6 4 13v1q2 6 5 13
v1q1 6 4 12v1q2 6 5 13v1q1 6 4 13v1l4 12l1 1v0.5t2 5.5h-2h-2q-4 0 -9 1q-6 -1 -9.5 -1t-9.5 1q-6 -1 -10 -1h-1.5h-1.5l-4 -12l-1 -1q-1 -6 -4 -12v-1q-2 -6 -4 -13v-1q-2 -6 -5 -13v0q-2 -6 -4 -13v-1q-2 -6 -5 -13v-1l-4 -12v-1q-2 -6 -5 -13v-1q-2 -6 -4 -13v0
q-2 -7 -5 -13v-1q-1 -6 -4 -13v-1q-2 -6 -5 -12v-1q-1 -6 -4 -13v-1q-2 -6 -5 -13v0q-12 -47 -54 -71t-88.5 -11.5t-71 54t-11.5 88.5q2 6 4 13v0q2 7 5 13v1q2 6 4 13v1q2 6 5 13v0q2 7 4 13v1q2 6 5 13v1q1 6 4 12v1q2 6 5 13v1q1 6 4 13v0q1 2 3 7q-47 2 -80 36t-33 81
q0 48 34 82.5t83 34.5q3 0 9 -1q6 1 9 1q4 0 10 -1q6 1 9 1q4 0 10 -1q5 1 9 1t9 -1h7q1 4 1.5 4.5l0.5 0.5q1 7 4 13v1q2 6 5 13v1q1 6 4 12v1q2 7 5 13v1v1q-40 9 -66 41t-26 74q0 48 34 82t82 34h2.5h2.5h2.5h2.5h2.5h2h2h2.5h2.5h2h2.5h2.5h2.5h2.5h2h2.5h2.5h2h2h2.5
h2.5h2.5q1 4 2 6v1q2 6 5 13v1q2 6 4 13l0.5 0.5l0.5 0.5q1 6 4 13v1q2 6 5 13v1q1 6 4 13v1q2 6 5 13v1l4 14h1v1q1 6 4 13v1q2 6 5 13v1q2 6 4 13l0.5 0.5l0.5 0.5q1 6 4 13v1q2 6 5 13v1q2 6 4 13v1q13 47 55 71t88.5 11.5t70.5 -54.5t12 -89q-2 -5 -4 -12l-0.5 -0.5
l-0.5 -0.5q-1 -6 -4 -13v-1v-1q-2 -6 -5 -13v-1q-2 -6 -4 -13l-1 -1q-1 -6 -4 -13v-1q-2 -6 -5 -13v-1q-1 -6 -4 -13v-1q-2 -6 -5 -13v-1q-2 -6 -5 -13v-1t-0.5 -2l-0.5 -1h2.5h2h2.5h2.5h2h2.5h2.5h2h2h2.5h2.5h2.5h2.5h2.5h2.5h2h2h2.5h2h1v1q2 6 5 13v1q1 6 4 13
q2 6 5 13v1q1 5 4 13q2 6 5 13v1q1 6 4 13q2 6 5 13q1 6 4 13v1q2 6 5 13q1 7 4 13v1q2 6 4 13h1q1 6 4 13v1q2 6 4 13h1q1 6 4 13v1q13 47 54.5 71t88.5 11.5t71 -54.5t11 -88q-1 -6 -4 -13v-1q-2 -6 -5 -13q-1 -6 -4 -13v-1q-2 -6 -4 -13h-1q-1 -6 -4 -13v-1q-2 -6 -4 -13
h-1q-1 -6 -4 -13v-1q-2 -6 -4 -13q-2 -6 -5 -13v-1q-1 -2 -3 -8zM487 411q3 0 9 -1q6 1 9 1q4 0 10 -1q6 1 9 1q1 0 2.5 -0.5l1.5 -0.5q2 5 3 8v1l4 12q0 1 0.5 1t0.5 1q1 5 4 12v1q2 6 4 13v0.5t1 0.5q0 3 2 9h-2.5h-2h-2.5h-2.5h-2.5h-2.5h-2h-2.5h-2.5h-2h-2h-2.5h-3
h-2.5h-2h-2.5h-2.5h-2.5l-0.5 -1l-0.5 -1v-1q-2 -7 -5 -13v-1q-2 -6 -4 -13l-1 -1q-1 -7 -4 -13v-1q-2 -6 -5 -14q1 0 1.5 0.5t1.5 0.5z" />
    <glyph glyph-name="dollar" unicode="$" horiz-adv-x="712" 
d="M608 83q-9 -11 -19 -20q-9 -10 -20 -17q-10 -8 -22 -14q-11 -8 -24 -13q-13 -6 -27 -9q-13 -5 -27 -7q-14 -3 -26 -3h-1h-1q-6 -1 -12 -1v-1.5v-2v-2v-2v-2v-2v-2v-2v-2v-2v-2v-2v-2v-2v-2v-2v-2v-2v-2v-2v-2v-1.5q0 -37 -25.5 -62.5t-62 -25.5t-62 25.5t-25.5 62.5v1.5
v2.5v1.5v2v2v2v2v2v2v2v2v2v2v2v2v2v2v2v2v2v2v2.5l-2 -0.5t-3 -0.5l-7 1l-6 -1q-1 0 -7 1q-6 -1 -7 -1t-7 1q-6 -1 -7 -1l-7 1q-6 -1 -7 -1l-7 1q-6 -1 -7 -1l-6 1q-6 -1 -7 -1q-49 0 -83 34.5t-34 82.5t34 82.5t83 34.5q1 0 7 -1q5 1 6 1t7 -1q6 1 7 1t7 -1q6 1 7 1t7 -1
q6 1 7 1l7 -1q5 1 7 1l6 -1q6 1 7 1t3 -0.5l2 -0.5v1.5v1.5q-13 1 -24 4q-14 3 -25 8q-13 3 -24 10q-11 4 -22 12q-11 6 -22 15q-10 8 -19 18q-10 9 -17 19q-9 10 -15 21q-8 11 -13 23q-6 11 -9 23q-5 12 -8 26q-3 13 -4 27q-2 10 -2 19q0 2 1 8q0 1 -0.5 3t-0.5 3
q0 11 2 22q1 14 5 26q3 13 8 25q4 12 10 23q5 12 13 23q7 11 16 21q8 11 17 19q10 10 20 17q10 9 21 15q10 7 22 12q11 6 25 9q12 5 25 8q11 2 20 3v1v2.5v2v1.5v2v2v1.5v2v2v2v1.5v1.5v2v2v2v1.5v2v2v1.5v2v2v2v2v1.5v2q0 36 25.5 62t62 26t62 -26t25.5 -62v-2v-1.5v-2v-2
v-2v-2v-1.5v-2v-2v-1.5v-2v-1.5v-4v-1.5v-2v-2v-2v-1.5v-2v-2.5v-1.5v-1v-2h1h1h7h3.5h2.5h7h3.5h2.5h7h3.5h2.5h7h3.5h3.5h6h4.5h2.5h6h4.5h2.5h7q48 0 82 -34t34 -82.5t-34 -82.5t-82 -34h-7h-6.5h-6.5h-6.5h-6.5h-7h-7h-6h-7h-6.5h-6.5h-6.5h-6.5h-2q5 0 7 -1q1 0 2 0.5
l1 0.5q12 0 25 -3q13 -1 26 -6q13 -2 26 -8q13 -5 25 -12q13 -6 23 -15q12 -7 21 -16q10 -9 18 -19q10 -9 17 -21q9 -11 15 -24q7 -12 11 -25q6 -12 9 -26q4 -12 5 -26q2 -12 2 -24v-2.5v-2.5v-9q0 -9 -1 -20q-1 -15 -5 -28q-3 -14 -8 -26q-4 -12 -10 -24q-5 -12 -14 -24
q-7 -12 -16 -22zM429 233v0v0v0z" />
    <glyph glyph-name="percent" unicode="%" horiz-adv-x="859" 
d="M774.5 724q34.5 -34 34.5 -82.5t-34 -82.5q-1 0 -1.5 -0.5l-0.5 -0.5l-0.5 -1t-1 -1t-1.5 -1l-1.5 -1.5l-0.5 -0.5l-0.5 -0.5l-1 -1l-1 -1t-0.5 -1t-1 -1l-1 -0.5l-0.5 -0.5l-1 -1l-1 -1l-0.5 -0.5l-0.5 -1t-1 -1t-1 -0.5l-1 -1l-1 -1l-0.5 -0.5l-0.5 -0.5l-1.5 -1.5
t-1 -1.5t-1 -1l-1 -0.5l-0.5 -0.5l-1 -1l-1 -1l-0.5 -0.5l-0.5 -1t-1 -1t-1 -0.5t-0.5 -1t-0.5 -1t-1 -0.5t-1 -1t-1 -1t-1 -0.5t-0.5 -1t-0.5 -1t-1 -0.5t-1 -0.5l-1 -1l-1 -1l-0.5 -0.5l-0.5 -1t-1 -1t-1 -1t-1 -1.5t-1 -0.5t-1 -0.5l-1 -1l-1 -1t-0.5 -1t-0.5 -1t-1 -0.5
t-1 -0.5l-1 -1l-1 -1l-0.5 -0.5l-0.5 -1t-1 -1t-1 -0.5t-0.5 -1t-0.5 -1t-1 -0.5t-1 -0.5l-1 -1l-1 -1t-0.5 -1t-1 -1l-1 -0.5l-0.5 -0.5t-0.5 -1t-1 -1l-1 -0.5l-0.5 -1t-1 -1t-1 -0.5t-0.5 -1t-0.5 -1t-1 -0.5t-1 -0.5l-1 -1l-1 -1t-0.5 -1t-0.5 -1t-1 -0.5t-1 -0.5
t-0.5 -1t-1 -1l-1 -0.5l-0.5 -0.5l-1 -1l-1 -1t-0.5 -1t-0.5 -1t-1 -0.5t-1 -0.5l-1 -1l-1 -1t-0.5 -1t-0.5 -1t-1 -0.5t-1 -0.5t-0.5 -1t-1 -1l-1 -0.5l-0.5 -0.5l-1 -1l-1 -1t-0.5 -1t-0.5 -1t-1 -0.5t-1 -0.5l-1 -1l-1 -1t-0.5 -1t-0.5 -1t-1 -0.5t-1 -0.5t-0.5 -1t-1 -1
l-1 -0.5l-0.5 -0.5l-1 -1l-1 -1l-0.5 -0.5l-0.5 -1t-1 -1t-1.5 -1l-1.5 -1.5l-0.5 -0.5q-4 -5 -10 -9l-1.5 -1.5l-0.5 -0.5l-0.5 -0.5l-1 -1l-1 -1t-1 -0.5t-1 -1l-0.5 -1l-0.5 -0.5l-1 -1l-1 -1l-0.5 -0.5l-1 -0.5t-1 -1t-0.5 -1l-1 -1l-1 -1l-0.5 -0.5l-0.5 -0.5l-1 -1
l-1 -1t-1 -0.5t-1 -0.5t-0.5 -1t-0.5 -1t-1 -0.5t-1 -1l-0.5 -1l-1 -0.5t-1 -1t-0.5 -1t-1 -0.5t-1 -1l-0.5 -1l-0.5 -0.5l-1 -1l-1 -1t-1 -0.5t-1 -0.5t-0.5 -1t-0.5 -1t-1 -0.5t-1 -1l-0.5 -1l-1 -0.5t-1 -1t-0.5 -1t-1 -0.5t-1 -0.5t-0.5 -1t-0.5 -1l-1 -1l-1 -1t-1 -0.5
t-1 -0.5t-0.5 -1t-1 -1l-1 -0.5l-0.5 -0.5t-0.5 -1t-1 -1t-1 -1t-0.5 -1t-1 -0.5t-1 -0.5l-1 -1t-0.5 -1t-0.5 -0.5t-1 -1t-1 -1t-1 -0.5t-0.5 -1t-1 -1l-1 -0.5l-0.5 -0.5l-1 -1l-1 -1l-0.5 -0.5l-0.5 -0.5l-1 -1l-1 -1l-1 -1t-0.5 -1t-0.5 -0.5t-1 -0.5l-1.5 -1.5t-1 -1.5
t-1 -1l-1 -0.5l-1 -1l-1.5 -1.5l-0.5 -0.5l-0.5 -0.5l-1 -1l-1 -1l-1 -1l-1 -1l-0.5 -0.5l-0.5 -0.5l-1.5 -1.5l-1 -1l-1 -1l-1 -1l-0.5 -0.5l-1 -1l-1 -1l-0.5 -0.5l-0.5 -0.5l-1 -1l-1 -1t-1 -0.5t-1 -0.5t-0.5 -1t-0.5 -1l-1 -1l-1 -1l-0.5 -0.5l-1 -0.5t-1 -1t-0.5 -1
t-1 -0.5t-1 -1l-0.5 -1l-0.5 -0.5l-1 -1l-1 -1t-1 -0.5t-1 -0.5t-0.5 -1t-0.5 -1l-1 -1l-1 -1l-0.5 -0.5l-1 -0.5t-1 -1t-0.5 -1t-1 -0.5t-1 -0.5l-1 -1t-0.5 -1t-0.5 -1l-1 -1t-1 -0.5t-1 -0.5t-0.5 -1t-1 -1l-1 -0.5l-0.5 -0.5l-1 -1l-1 -1t-0.5 -1t-0.5 -1t-1 -0.5
t-1 -0.5l-1 -1t-0.5 -1t-0.5 -1l-1 -1t-1 -0.5t-1 -0.5t-0.5 -1t-1 -1l-1 -0.5l-0.5 -0.5l-1 -1l-1 -1t-0.5 -1t-0.5 -1t-1 -0.5t-1 -0.5l-1 -1l-1 -1l-0.5 -0.5l-0.5 -0.5l-1 -1l-1 -1t-0.5 -1t-0.5 -1t-1 -0.5t-1 -0.5l-1 -1l-1 -1l-0.5 -0.5l-0.5 -1t-1 -1t-1 -0.5
t-0.5 -1t-0.5 -1t-1 -0.5t-1 -0.5t-0.5 -1t-1 -1t-1 -1t-0.5 -1t-1 -0.5t-1 -0.5t-0.5 -1t-0.5 -1t-1 -0.5t-1 -1t-1 -1t-1 -0.5t-0.5 -1t-0.5 -1t-1 -0.5t-1 -0.5t-0.5 -1t-0.5 -1l-1 -1l-1 -1t-1 -0.5t-1 -0.5t-0.5 -1t-0.5 -1t-1 -0.5t-1 -1t-1 -1t-1 -0.5t-0.5 -1
t-0.5 -1t-1 -0.5t-1 -0.5t-0.5 -1t-0.5 -1l-1 -1l-1 -1l-0.5 -0.5l-1 -0.5t-1 -1t-0.5 -1t-1 -0.5t-1 -1l-0.5 -1l-0.5 -0.5l-1 -1l-1 -1t-1 -0.5t-1 -0.5t-0.5 -1t-0.5 -1l-1 -1l-1 -1l-0.5 -0.5l-0.5 -0.5l-1 -1l-1 -1t-1 -0.5t-1 -1l-0.5 -1l-0.5 -0.5l-1 -1l-1 -1l-1 -1
t-1 -0.5t-0.5 -0.5t-0.5 -1l-1 -1l-1 -1l-0.5 -0.5l-0.5 -0.5l-1.5 -1.5l-1 -1l-1 -1l-1 -1l-1 -1l-1.5 -1.5t-0.5 -1t-0.5 -0.5t-1 -0.5l-1 -1l-1 -1l-1 -1l-0.5 -0.5l-0.5 -0.5l-1.5 -1.5l-1 -1l-1 -1l-1 -1l-1 -1l-1.5 -1.5t-0.5 -1t-0.5 -1t-1 -0.5t-1 -0.5l-1 -1l-1 -1
l-0.5 -0.5l-0.5 -1t-1 -1t-1 -0.5t-0.5 -1t-0.5 -1t-1 -0.5t-1.5 -1l-1.5 -1.5t-0.5 -1t-0.5 -1t-1 -0.5t-1 -0.5t-0.5 -1t-0.5 -1t-1 -0.5t-1 -1t-1 -1t-1 -0.5t-0.5 -1t-0.5 -1t-1 -0.5t-1 -0.5t-0.5 -1t-1 -1t-1 -1t-0.5 -1t-1 -0.5t-1 -0.5t-0.5 -1t-0.5 -1t-1 -0.5
t-1 -1t-1 -1t-1 -0.5t-0.5 -1t-0.5 -1t-1 -0.5t-1 -0.5t-0.5 -1t-0.5 -1l-1 -1l-1 -1t-1 -0.5t-1 -0.5t-0.5 -1t-0.5 -1t-1 -0.5t-1 -1l-0.5 -1l-1 -0.5t-1 -1t-0.5 -1l-0.5 -0.5q-5 -6 -10 -11l-1 -1l-0.5 -0.5l-1 -1l-1.5 -1.5l-1.5 -1.5l-0.5 -0.5l-1 -0.5t-1 -1.5
l-1.5 -1.5l-1 -1l-0.5 -0.5l-0.5 -0.5l-1 -1l-1 -1l-0.5 -0.5l-0.5 -0.5l-1 -1l-1.5 -1.5l-1.5 -1.5l-0.5 -0.5l-0.5 -0.5l-1.5 -1.5l-1.5 -1.5l-1 -1l-0.5 -0.5l-1 -1l-1.5 -1.5l-0.5 -0.5l-0.5 -0.5l-1 -1l-1.5 -1.5l-1.5 -1.5l-0.5 -0.5l-0.5 -0.5l-1.5 -1.5l-1.5 -1.5
l-1 -1l-0.5 -0.5l-1 -1l-1.5 -1.5l-0.5 -0.5l-0.5 -0.5l-1 -1l-1 -1l-1 -1l-1 -1l-0.5 -0.5l-0.5 -0.5l-1 -1l-1 -1l-0.5 -0.5l-1 -1l-1 -1l-1 -1l-1.5 -1.5l-0.5 -0.5l-0.5 -0.5l-1 -1l-1.5 -1.5q-1 0 -1.5 -1l-0.5 -1l-0.5 -0.5l-1 -1l-1 -1l-0.5 -0.5l-1 -0.5t-1 -1
t-1 -1.5l-1.5 -1.5l-0.5 -0.5l-0.5 -0.5l-1.5 -1.5t-1.5 -1t-1 -1l-0.5 -1l-0.5 -0.5l-1 -1l-1 -1l-0.5 -0.5l-1 -0.5t-1 -1t-0.5 -1l-1 -1l-1 -1l-0.5 -0.5l-0.5 -0.5l-1.5 -1.5t-1.5 -1t-1 -1l-0.5 -1l-0.5 -0.5l-1 -1l-1 -1l-0.5 -0.5l-1 -0.5t-1 -1t-0.5 -1l-1 -1l-1 -1
l-0.5 -0.5l-0.5 -0.5l-1.5 -1.5t-1.5 -1t-1 -1l-0.5 -1l-0.5 -0.5l-1 -1l-1 -1l-0.5 -0.5l-1 -0.5t-1 -1.5l-1.5 -1.5l-1 -1l-0.5 -0.5l-0.5 -0.5l-1.5 -1.5t-1.5 -1t-1 -1l-0.5 -1q-34 -34 -82.5 -34t-82.5 34t-34 82.5t34 82.5q1 0 1.5 1l0.5 1l1 1l1.5 1.5l0.5 0.5
l0.5 0.5l1 1l1 1t1 0.5t1 1l0.5 1l1 0.5t1 1t0.5 1t1 0.5t1 1l0.5 1l1 1l1.5 1.5l0.5 0.5l0.5 0.5l1 1l1 1t1 0.5t1 1l0.5 1l0.5 0.5l1 1l1 1l0.5 0.5l1 0.5t1 1t1 1.5l1.5 1.5l0.5 0.5l0.5 0.5l1 1l1 1t1 0.5t1 1l0.5 1l0.5 0.5l1 1l1 1l0.5 0.5l1 1l1 1l0.5 0.5l1 1l1 1
l0.5 0.5l0.5 0.5l1.5 1.5t1.5 1t1 1l0.5 1l0.5 0.5l1 1l1 1l0.5 0.5l1 0.5t1 1t0.5 1l1 1l1 1l0.5 0.5l0.5 0.5l1.5 1.5t1.5 1t1 1l0.5 1l0.5 0.5l1 1l1 1l0.5 0.5l1 0.5t1 1t0.5 1l1 1l1 1l0.5 0.5l0.5 0.5l1.5 1.5t1.5 1t1 0.5t0.5 1t0.5 1l1 1l1 1l0.5 0.5l0.5 0.5l1 1
l1 1l1 1l1 1l0.5 0.5l0.5 0.5l1.5 1.5t1.5 1t1 0.5t0.5 1t1 1.5l1.5 1.5l0.5 0.5l1 0.5t1 1.5l1.5 1.5l1 1l0.5 0.5l0.5 0.5l1 1l1 1l0.5 0.5l0.5 0.5l1 1l1.5 1.5q1 0 1.5 1l0.5 1q5 6 9 10q0 1 0.5 1t1 0.5l1 1l1 1l1 1l0.5 0.5l0.5 0.5l1.5 1.5l1 1l1 1l1 1l1 1l1.5 1.5
t0.5 1t0.5 0.5t1 0.5l1 1l1 1l1 1l0.5 0.5l0.5 0.5l1 1l1 1l0.5 0.5l0.5 1t1 1t1.5 1q0 1 1 1.5t1 1t0.5 1t1 0.5t1 0.5t0.5 1t0.5 1t1 0.5t1 1t1 1t1 0.5l0.5 0.5l0.5 1t1 1t1 0.5t0.5 1t0.5 1l1 1l1 1t1 0.5t1 0.5t0.5 1t0.5 1t1 0.5t1 1t1 1t1 0.5t0.5 1t0.5 1t1 0.5
t1 0.5t0.5 1t0.5 1l1 1l1 1l0.5 0.5l1 0.5t1 1t0.5 1t1 0.5t1 1l0.5 1l1 0.5t1 1t0.5 1t1 0.5t1 0.5t0.5 1t0.5 1l1 1l1 1l0.5 0.5l1 0.5t1 1t0.5 1t1 0.5t1 1l0.5 1l0.5 0.5l1 1l1 1t1 0.5t1 0.5t0.5 1t0.5 1l1 1l1 1l0.5 0.5l0.5 0.5l1 1l1 1t1 0.5t1 1l0.5 1l1 1l1.5 1.5
l0.5 0.5l0.5 0.5l1.5 1.5l1.5 1.5l1 1l0.5 0.5l0.5 0.5l1.5 1.5l1 1l1 1l1 1l1 1l1.5 1.5t0.5 1t0.5 0.5t1 0.5l1 1l1 1l1 1l0.5 0.5l0.5 0.5l1 1l1 1l0.5 0.5l0.5 1t1 1t1.5 1q0 1 1 1.5t1 1t0.5 1t1 0.5t1 0.5t0.5 1t1 1l1 0.5l0.5 1t1 1t1 0.5t0.5 1t0.5 1t1 0.5t1 0.5
t0.5 1t1 1t1 1t0.5 0.5t1 0.5l1 1t0.5 1t0.5 1t1 0.5t1 1t1 1t1 0.5l0.5 0.5l0.5 1t1 1t1 0.5t0.5 1t0.5 1l1 1l1 1t1 0.5t1 0.5t0.5 1t0.5 1t1 0.5t1 1t1 1t1 0.5t0.5 1t0.5 1t1 0.5t1 1t1 1t1 0.5t0.5 1t0.5 1t1 0.5t1 0.5t0.5 1t1 1l1 0.5l0.5 1t1 1t1 0.5t0.5 1t0.5 1
t1 0.5t1 0.5l1 1l1 1t0.5 1t0.5 1t1 0.5t1 0.5t0.5 1t1 1l1 0.5l0.5 0.5l1 1l1 1t0.5 1t0.5 1t1 0.5t1 0.5l1 1l1 1l0.5 0.5l0.5 0.5l1 1l1 1t0.5 1t1 1l1 0.5l0.5 0.5l1 1l1 1l0.5 0.5l0.5 0.5l1 1l1 1l1 1l1 1l0.5 0.5l0.5 0.5l1.5 1.5t1 1.5t1 1l1 0.5l1 1l1.5 1.5t1 0.5
t0.5 0.5t0.5 1l1 1l1 1l1 1l0.5 0.5l1 0.5t1 1.5q1 1 1.5 1t1 0.5t0.5 1t1 1.5l1.5 1.5t1 0.5t0.5 0.5t0.5 1l1 1t1 0.5t1 1l0.5 1l1 0.5t1 1t0.5 1t1 0.5t1 0.5t0.5 1t0.5 1l1 1l1 1t1 0.5t1 0.5t0.5 1t0.5 1t1 0.5t1 0.5t0.5 1t1 1t1 1t0.5 1t1 0.5t1 0.5t0.5 1t0.5 1
t1 0.5t1 1t1 1t1 0.5t0.5 1t0.5 1t1 0.5t1 0.5t0.5 1t1 1l1 0.5l0.5 0.5l1 1l1 1t0.5 1t0.5 1t1 0.5t1 0.5l1.5 1.5t1 1.5t0.5 1t1 0.5t1 0.5t0.5 1t1 1l1 0.5l0.5 0.5l1 1l1 1l1 1t0.5 1t0.5 0.5t1 0.5l1.5 1.5l1 1l1 1l1 1l1 1l1.5 1.5l0.5 0.5l0.5 0.5l1 1l1 1t1 0.5
t0.5 1t0.5 1t1 0.5l1 1l1 1l0.5 0.5l1 0.5t1 1t0.5 1l1 1l1 1l0.5 0.5l0.5 0.5l1 1l1 1t1 0.5t1 0.5t0.5 1t0.5 1l1 1l1 1l0.5 0.5l1 0.5t1 1t0.5 1l0.5 0.5q5 4 10 9h1q0 1 0.5 1.5t1 0.5t1 0.5t0.5 1t0.5 1t1 0.5t1 0.5t0.5 1t1 1l1 0.5l0.5 1t1 1t1 0.5t0.5 1t0.5 1l1 1
l1 1t1 0.5t1 0.5t0.5 1t0.5 1t1 0.5t1 0.5t0.5 1t1 1l1 0.5l0.5 1t1 1t1 0.5t0.5 1t0.5 1t1 0.5t1 0.5t0.5 1t1 1t1 1t0.5 1t1 0.5t1 0.5t0.5 1t1 1l1 0.5l0.5 1t1 1t1 0.5t0.5 1t0.5 1t1 0.5t1 0.5t0.5 1t0.5 1l1 1l1 1t1 0.5t1 0.5t0.5 1t0.5 1t1 0.5t1 1t1 1t1 0.5t0.5 1
t0.5 1t1 0.5t1 0.5t0.5 1t0.5 1l1 1l1 1t1 0.5t1 0.5t0.5 1t1 1l1 0.5l0.5 1t1 1t1 0.5t0.5 1t0.5 1t1 0.5t1 0.5t0.5 1t0.5 1l1 1l1 1t1 0.5t1 0.5t0.5 1t0.5 1t1 0.5t1 1t1 1t1 0.5t0.5 1t0.5 1t1 0.5t1 0.5t0.5 1t0.5 1l1 1l1 1t1 0.5t1 0.5t0.5 1t0.5 1t1 0.5t1 0.5l1 1
l1 1t0.5 1t0.5 1t1 0.5t1 0.5t0.5 1t0.5 1l1 1l1 1t1 0.5t1 0.5t0.5 1t0.5 1t1 0.5t1 1l0.5 1l1 0.5t1 1t0.5 1t1 0.5t1 0.5t0.5 1t0.5 1t1.5 0.5q34 34 82 34t82.5 -34zM255 496q-48 0 -82.5 34t-34.5 82.5t34.5 82.5t82.5 34t82.5 -34t34.5 -82.5t-34.5 -82.5t-82.5 -34z
M604.5 29q-48.5 0 -82.5 34t-34 82.5t34 82.5t82.5 34t82.5 -34t34 -82.5t-34 -82.5t-82.5 -34z" />
    <glyph glyph-name="ampersand" unicode="&#x26;" horiz-adv-x="754" 
d="M632 204q40 -35 40 -87q0 -49 -34 -83t-82 -34q-56 0 -91 43l-13 13h-1q-13 -13 -30 -21q-16 -11 -34 -17q-17 -8 -35 -11q-18 -6 -37 -6l-1 0.5l-1 0.5q-10 -2 -18 -2q-10 0 -20 2h-1q-19 0 -38 6q-19 4 -36 12q-17 6 -32 17q-18 9 -31 22q-15 11 -25 26q-14 13 -23 30
q-11 14 -17 32q-9 17 -13 36q-6 18 -7 37q-2 11 -2 23q0 7 1 16v2.5v2.5q0 18 5 34q3 19 11 36q5 18 16 34q8 17 20 30q4 6 8 10q-8 9 -15 20q-12 15 -19 32q-10 16 -14 34q-8 18 -9 38q-4 14 -4 28q0 5 1 10q-1 6 -1 11q0 14 4 28q1 20 9 38q4 18 14 33q7 18 19 33
q10 15 23 27q12 15 28 25q14 13 30 20q16 11 35 16q17 8 36 10q17 5 33 5q1 0 3 -0.5l2 -0.5q9 2 15 2q13 0 25 -3q19 -1 37 -7q19 -4 35 -13q18 -7 32 -18q17 -9 30 -23q15 -11 25 -26q13 -13 22 -30q11 -16 17 -34q8 -16 11 -35q6 -18 6 -37v-0.5v-1.5q2 -10 2 -18.5
t-2 -19.5v-1q0 -19 -6 -37q-3 -19 -12 -36q-5 -18 -17 -33q-8 -17 -21 -31q-12 -16 -28 -28q1 0 3 -2q6 6 12 11q7 8 15 14q7 7 14 13q35 39 87 39q48 0 82.5 -34t34.5 -82q0 -57 -45 -92l-14 -14t-15 -13q-4 -5 -9 -10q6 -5 10 -11zM284.5 564.5q0.5 -0.5 0.5 -1.5l3 -3
q4 -4 6 -7l1 1h1q6 6 12 10v1l0.5 1t0.5 2v1v1v1.5v0.5v1.5t-0.5 1t-0.5 1.5t-0.5 1t-0.5 0.5t-1 1.5l-1 1l-1 1l-3 1q0 1 -1 1q-2 0 -2.5 0.5t-1.5 0.5q-1 -1 -1.5 -1h-1h-1.5l-1 -1q-1 0 -2 -0.5l-1 -0.5l-0.5 -0.5l-0.5 -0.5q0 -1 -2 -2v-1q-1 -1 -1 -2v-1l-1 -1v-1.5v-1
v-1v-1t1 -1.5v-1.5t0.5 -1z" />
    <glyph glyph-name="quotesingle" unicode="'" horiz-adv-x="275" 
d="M225 664.5v-1.5v-1.5v-1.5v-1.5v-1v-1v-1.5v-1.5v-1.5v-1.5v-1.5v-1.5v-1.5v-1.5v-1v-1v-1.5v-1.5v-1.5v-1.5v-1.5v-1.5v-1.5v-1v-1v-1.5v-1.5v-1.5v-1.5v-1.5v-1.5v-1v-1v-1.5v-1.5v-1.5v-1.5v-1.5v-1.5v-1.5v-1v-1v-1.5v-1.5v-1.5v-1.5v-1.5v-1.5v-1.5v-1.5v-1v-1v-1.5
v-1.5v-1.5v-1.5v-1.5v-1.5v-1.5v-1v-1v-1.5v-1.5v-1.5v-1.5v-1.5v-1.5v-1v-1v-1.5v-1.5v-1.5v-1.5v-1.5v-1.5v-1.5v-1v-1v-1.5v-1.5v-1.5v-1q0 -37 -25.5 -62.5t-62 -25.5t-62 25.5t-25.5 62.5v1v1.5v1.5v1.5v1v1v1.5v1.5v1.5v1.5v1.5v1.5v1.5v1v1v1.5v1.5v1.5v1.5v1.5v1.5
v1v1v1.5v1.5v1.5v1.5v1.5v1.5v1.5v1v1v1.5v1.5v1.5v1.5v1.5v1.5v1.5v1.5v1v1v1.5v1.5v1.5v1.5v1.5v1.5v1.5v1v1v1.5v1.5v1.5v1.5v1.5v1.5v1v1v1.5v1.5v1.5v1.5v1.5v1.5v1.5v1v1v1.5v1.5v1.5v1.5v1.5v1.5v1.5v1.5v1v1v1.5v1.5v1.5v1.5v1.5v1q0 36 25.5 62t62 26t62 -26
t25.5 -62v-1v-1.5z" />
    <glyph glyph-name="parenleft" unicode="(" horiz-adv-x="581" 
d="M411 233q50 2 86 -34q34 -34 34 -82.5t-34 -82.5q-39 -39 -95 -33q-11 -1 -23 1q-11 1 -22 3q-12 1 -24 5q-10 1 -21 5q-11 2 -21 7q-11 3 -22 9q-9 3 -19 8t-20 11q-9 5 -18 12q-9 5 -17 12q-10 7 -19 15q-7 5 -11 10l-2.5 2.5l-1.5 1.5l-7 7l-9 9l-0.5 0.5t-0.5 1.5
q-7 6 -13 15q-7 8 -13 17q-7 9 -13 19q-6 9 -10 18q-6 10 -11 20t-8 21q-5 10 -8 20q-4 11 -6 23q-4 10 -5 22q-3 10 -4 22q-2 11 -2 24q-1 11 -1 23q0 11 1 22q0 13 2 25q1 11 4 22q1 11 5 22q2 11 6 22q3 11 8 20q3 11 8 21t11 20q4 10 10 18q6 10 13 20q6 8 13 16
q6 9 13 16l0.5 0.5l0.5 0.5q5 6 9 10q3 2 7 6l2 2l2 2q5 5 11 10q9 9 19 15q7 7 17 12q9 7 18 12q10 6 20 11q9 5 19 9q11 5 22 8q10 5 21 7q11 4 21 6q12 3 24 4q11 3 22 3q12 2 23 2q56 5 95 -34q34 -34 34 -82.5t-34 -82.5q-36 -36 -86 -34h-9q-6 -1 -9 -2q-4 0 -7 -1
t-9 -2q-5 -2 -8 -3q-2 -1 -6 -2l-8 -4t-7 -4q-2 -1 -7 -4q-4 -3 -7 -5q-2 -2 -5 -4q-2 -3 -7 -6q0 -1 -1 -2.5t-2 -1.5l-0.5 -0.5l-1.5 -1.5q-1 -2 -5 -6q-3 -4 -5 -6l-4 -6l-4 -8q-3 -4 -4 -7q-1 -2 -3 -7t-3 -8q-1 -4 -2 -7q0 -3 -2 -8q0 -5 -1 -9q0 -3 -1 -7v-9v-9
q1 -4 1 -8q1 -3 1 -8q2 -5 2 -9l2 -6q1 -4 3 -9q2 -4 3 -7q1 -2 4 -7l4 -8q3 -3 4 -5q2 -3 5 -7q4 -4 5 -6q1 0 1.5 -0.5t0.5 -1.5q1 0 2 -2l1 -1q5 -4 7 -7q3 -2 5 -4q3 -1 7 -5q5 -2 7 -4q2 -1 7 -3q5 -3 8 -4l6 -3q3 -1 8 -3q6 -1 9 -2q3 0 7 -1q3 0 9 -1q5 0 9 -1z" />
    <glyph glyph-name="parenright" unicode=")" horiz-adv-x="581" 
d="M531 365q1 -12 -1 -23q0 -12 -2 -24q-1 -12 -4 -22q-1 -12 -5 -22q-2 -12 -6 -23q-3 -10 -8 -20q-3 -11 -8 -21t-11 -20q-4 -9 -10 -18q-6 -10 -13 -19q-6 -9 -13 -17q-6 -9 -13 -15q0 -1 -0.5 -1.5l-0.5 -0.5q-5 -5 -9 -10q-3 -2 -7 -6q-3 -4 -4 -4q-4 -5 -11 -10
q-9 -8 -19 -15q-8 -7 -17 -12q-9 -7 -18 -12q-10 -6 -20 -11t-19 -8q-10 -6 -22 -9q-10 -5 -21 -7q-11 -4 -21 -5q-12 -4 -24 -5q-11 -2 -22 -3q-12 -2 -23 -1q-56 -6 -95 33q-34 34 -34 82.5t34 82.5q36 36 86 34q4 1 9 1q6 1 9 1q4 1 7 1q4 1 9 2q5 2 8 3l6 3q4 1 9 3
q4 3 6 4q2 2 7 4q4 4 7 5q2 2 5 4q2 3 7 7l1 1.5t2 1.5q0 1 0.5 1.5t1.5 0.5q1 2 5 6q3 5 5 7q1 2 4 5l4 8t4 7q1 2 3 7t3 9l2 6q0 3 2 9q0 5 1 8q0 4 1 8v9v9q-1 4 -1 7q-1 3 -1 9q-2 5 -2 8q-1 3 -2 7q-1 3 -3 8t-3 7q-1 3 -4 7l-4 8q-3 4 -4 6q-2 2 -5 6q-4 5 -5 6
l-1.5 1.5l-0.5 0.5q-1 0 -2 1.5t-1 2.5q-4 3 -7 6q-3 2 -5 4q-3 1 -7 5q-5 3 -7 4q-3 1 -7 4q-5 2 -8 4q-4 1 -6 2q-4 1 -8 3q-6 1 -9 2q-4 1 -7 1q-3 1 -9 2h-9q-50 -2 -86 34q-34 34 -34 82.5t34 82.5q39 39 95 34q11 0 23 -2q11 0 22 -3q12 -1 24 -4q10 -2 21 -6
q11 -2 21 -7q11 -3 22 -8q10 -4 19 -9q10 -5 20 -11q9 -5 18 -12q10 -5 17 -12q10 -6 19 -15q7 -5 11 -10q1 -1 3 -2q1 -1 1 -2q4 -3 7 -6q4 -5 9 -10l0.5 -0.5l0.5 -0.5q7 -7 13 -16q7 -8 13 -16q7 -9 13 -20q6 -8 10 -18q6 -9 11 -20q5 -10 8 -21q5 -10 8 -20q4 -11 6 -23
q4 -10 5 -21q3 -11 4 -22q2 -12 2 -25q2 -11 1 -22z" />
    <glyph glyph-name="asterisk" unicode="*" 
d="M681 363q31 -14 50 -42.5t19 -63.5q0 -49 -34 -83t-83 -34q-30 0 -57 15q-4 2 -9 4q-4 3 -9 5q-4 2 -9 4q-5 3 -8 5q-5 2 -9 4q-6 3 -9 5q-4 1 -6 3v-1.5v-0.5q0 -1 -0.5 -3.5l-0.5 -2.5l0.5 -2t0.5 -3.5t-0.5 -3.5l-0.5 -2l0.5 -2.5t0.5 -3.5t-0.5 -3t-0.5 -2.5
t0.5 -2.5t0.5 -3t-0.5 -3t-0.5 -2.5t0.5 -2.5t0.5 -3t-0.5 -3.5l-0.5 -2.5l0.5 -2t0.5 -3.5t-0.5 -3.5l-0.5 -2l0.5 -2.5t0.5 -3.5t-0.5 -3t-0.5 -2.5t0.5 -2.5t0.5 -3t-0.5 -3t-0.5 -2.5t0.5 -2.5t0.5 -3t-0.5 -3t-0.5 -2.5t0.5 -2.5t0.5 -3q0 -49 -34.5 -83t-82.5 -34
t-82.5 34t-34.5 83q0 1 0.5 3t0.5 2.5t-0.5 2.5t-0.5 3t0.5 3t0.5 2.5t-0.5 2.5t-0.5 3t0.5 3t0.5 2.5t-0.5 2.5t-0.5 3t0.5 3.5l0.5 2.5l-0.5 2t-0.5 3.5t0.5 3.5l0.5 2l-0.5 2.5t-0.5 3.5t0.5 3t0.5 2.5t-0.5 2.5t-0.5 3t0.5 3t0.5 2.5t-0.5 2.5t-0.5 3t0.5 3.5l0.5 2.5
l-0.5 2t-0.5 3.5t0.5 3.5l0.5 2l-0.5 2.5t-0.5 3.5v0.5v1.5q-2 -2 -6 -3q-3 -2 -9 -5q-4 -2 -9 -4q-3 -2 -8 -5q-4 -2 -9 -4t-9 -5q-4 -2 -9 -4q-27 -15 -57 -15q-49 0 -83 34t-34 83q0 35 19 63.5t50 42.5q3 2 9 4q4 3 9 5q1 1 2 1l-2 2q-5 2 -9 4q-5 3 -9 5
q-31 14 -50 42.5t-19 63.5q0 48 34 82.5t83 34.5q30 0 57 -15q4 -2 9 -5q5 -2 9 -4q5 -2 9 -5q5 -2 8 -4q5 -2 9 -5q6 -2 9 -4l6 -3v1v1q0 1 0.5 3t0.5 2.5t-0.5 2.5t-0.5 3t0.5 3.5l0.5 2.5l-0.5 2t-0.5 3.5t0.5 3.5l0.5 2l-0.5 2.5t-0.5 3.5t0.5 3t0.5 2.5t-0.5 2.5
t-0.5 3t0.5 3t0.5 2.5t-0.5 2.5t-0.5 3t0.5 3t0.5 2.5t-0.5 2.5t-0.5 3t0.5 3.5l0.5 2.5l-0.5 2t-0.5 3.5t0.5 3.5l0.5 2l-0.5 2.5t-0.5 3.5t0.5 3t0.5 2.5t-0.5 2.5t-0.5 3q0 48 34.5 82.5t82.5 34.5t82.5 -34.5t34.5 -82.5q0 -1 -0.5 -3t-0.5 -2.5t0.5 -2.5t0.5 -3
t-0.5 -3.5l-0.5 -2.5l0.5 -2t0.5 -3.5t-0.5 -3.5l-0.5 -2l0.5 -2.5t0.5 -3.5t-0.5 -3t-0.5 -2.5t0.5 -2.5t0.5 -3t-0.5 -3t-0.5 -2.5t0.5 -2.5t0.5 -3t-0.5 -3t-0.5 -2.5t0.5 -2.5t0.5 -3t-0.5 -3.5l-0.5 -2.5l0.5 -2t0.5 -3.5t-0.5 -3.5l-0.5 -2l0.5 -2.5t0.5 -3.5t-0.5 -3
t-0.5 -2.5t0.5 -2.5t0.5 -3v-1v-1l6 3q3 2 9 4q4 3 9 5q3 2 9 4q3 2 8 5q4 2 9 4q5 3 9 5q27 15 57 15q49 0 83 -34.5t34 -82.5q0 -35 -19 -63.5t-50 -42.5q-4 -2 -9 -5q-4 -2 -9 -4q-2 -1 -2 -2q1 -1 2 -1q5 -2 9 -5q5 -2 9 -4z" />
    <glyph glyph-name="plus" unicode="+" 
d="M633 490q49 0 83 -34.5t34 -82.5t-34 -82.5t-83 -34.5h-3l-2 1q-1 0 -3 -0.5t-3 -0.5h-4q-1 1 -2 1l-2 -0.5t-3.5 -0.5h-3.5q-1 1 -2 1l-2.5 -0.5t-3.5 -0.5h-4q-1 1 -2 1l-2 -0.5t-3 -0.5h-4q-1 1 -2 1l-2 -0.5t-3.5 -0.5h-3.5l-2 1l-2.5 -0.5t-3.5 -0.5h-4q-1 1 -2 1
l-2 -0.5t-3.5 -0.5h-3.5q-1 1 -2 1l-2.5 -0.5t-3.5 -0.5h-3l-2 1q-1 0 -3 -0.5t-3 -0.5h-4q-1 1 -2 1l-2 -0.5t-3 -0.5h-2h-1v-1v-2l-1 -5l0.5 -2.5t0.5 -3.5l-1 -6l1 -5l-1 -6l1 -6l-1 -5l0.5 -2.5t0.5 -3.5l-1 -6l1 -5l-1 -6l1 -6l-1 -5l1 -6l-1 -6l1 -6l-1 -5l0.5 -2.5
t0.5 -3.5l-1 -6l0.5 -2t0.5 -3q0 -49 -34.5 -83t-82.5 -34t-82.5 34t-34.5 83l1 5l-1 6l1 6q-1 5 -1 5.5t1 5.5q-1 5 -1 5.5t1 6.5q-1 5 -1 5.5t1 5.5q-1 5 -1 5.5t1 5.5l-1 6l1 6q-1 5 -1 5.5t1 5.5q-1 5 -1 5.5t1 5.5l-1 6l1 6l-1 5v2t1 1h-2h-2h-3l-2 1l-2.5 -0.5
t-3.5 -0.5h-4q-1 1 -2 1l-2 -0.5t-3.5 -0.5h-3.5q-1 1 -2 1l-2.5 -0.5t-3.5 -0.5h-3l-2 1l-2.5 -0.5t-3.5 -0.5h-4q-1 1 -2 1l-2 -0.5t-3.5 -0.5h-3.5q-1 1 -2 1l-2.5 -0.5t-3.5 -0.5h-4l-1 1q-1 0 -3 -0.5t-3 -0.5h-4q-1 1 -2 1l-2 -0.5t-3.5 -0.5h-3.5l-2 1l-2.5 -0.5
t-3.5 -0.5h-4q-1 1 -2 1l-2 -0.5t-3 -0.5q-49 0 -83 34.5t-34 82.5t34 82.5t83 34.5q1 0 3 -1h2q1 0 3 0.5t3 0.5t4 -1h2l2 0.5t3.5 0.5t3.5 -1h2l2.5 0.5t3.5 0.5t4 -1h2l2 0.5t3 0.5t4 -1h2l2 0.5t3.5 0.5t3.5 -1h2l2.5 0.5t3.5 0.5t4 -1h2l2 0.5t3.5 0.5t3.5 -1h2
l2.5 0.5t3.5 0.5t3 -1h2q1 0 3 0.5t3 0.5t4 -1h2l2 0.5t3 0.5h2h2q-1 0 -1 1v2l1 5l-1 6l1 6q-1 5 -1 5.5t1 5.5q-1 5 -1 5.5t1 5.5l-1 6l1 6l-1 5l1 6l-1 6l1 5l-1 6l1 6l-1 6l1 5l-1 6l1 6l-1 5q0 49 34.5 83t82.5 34t82.5 -34t34.5 -83l-1 -5l1 -6l-1 -6q1 -5 1 -5.5
t-1 -5.5q1 -5 1 -5.5t-1 -6.5q1 -5 1 -5.5t-1 -5.5q1 -5 1 -6l-1 -5l1 -6l-1 -6l1 -5l-1 -6l1 -6l-1 -5l1 -6l-1 -6l0.5 -2t0.5 -3v-2v-1h1h2t3 -1h2l2.5 0.5t3.5 0.5t4 -1h2l2 0.5t3.5 0.5t3.5 -1h2l2.5 0.5t3.5 0.5t3 -1h2q1 0 3 0.5t3 0.5t4 -1h2l2 0.5t3.5 0.5t3.5 -1h2
l2.5 0.5t3.5 0.5t4 -1h1q1 0 3 0.5t3 0.5t4 -1h2l2 0.5t3.5 0.5t3.5 -1h2l2.5 0.5t3.5 0.5t3 -0.5t2.5 -0.5t2.5 0.5t3 0.5z" />
    <glyph glyph-name="comma" unicode="," horiz-adv-x="275" 
d="M225 110.5v-1.5v-2v-2.5v-1.5v-1.5v-2v-2v-1.5v-1.5v-2v-2v-2v-1.5v-2v-2v-1.5v-2v-2v-2v-1.5v-1.5v-2v-2v-1.5v-1.5v-2.5v-2v-1.5v-1.5v-2v-2.5v-1.5v-1.5v-2v-2v-1.5v-1.5v-2v-2v-2v-1.5v-2v-2v-1.5v-2v-2v-2v-1.5v-1.5v-2v-2v-2v-1.5v-2v-2v-1.5v-1.5v-2v-2.5v-1.5
v-1.5v-2.5q0 -36 -25.5 -61.5t-62 -25.5t-62 25.5t-25.5 61.5v2.5v2v1.5v2v2v1.5v1.5v2v2v1.5v2v2v2v1.5v1.5v2v2v2v1.5v2v2v1.5v2v2v2v1.5v1.5v2v2v1.5v1.5v2.5v2v1.5v1.5v2v2.5v1.5v1.5v2v2v1.5v1.5v2v2v2v1.5v2v2v1.5v2v2v2v1.5v1.5v2v2v1.5v1.5v2.5v2v1.5v1.5v2
q0 36 25.5 62t62 26t62 -26t25.5 -62v-2v-1.5z" />
    <glyph glyph-name="hyphen" unicode="-" 
d="M633 434q49 0 83 -34.5t34 -82.5t-34 -82.5t-83 -34.5q-3 0 -9 1q-5 -1 -8.5 -1t-9.5 1q-5 -1 -8.5 -1t-9.5 1q-5 -1 -8.5 -1t-8.5 1q-6 -1 -9.5 -1t-8.5 1q-6 -1 -9.5 -1t-8.5 1q-6 -1 -9.5 -1t-8.5 1q-6 -1 -9.5 -1t-8.5 1q-6 -1 -9.5 -1t-8.5 1q-6 -1 -9.5 -1t-8.5 1
q-6 -1 -9.5 -1t-8.5 1q-6 -1 -9.5 -1t-8.5 1q-6 -1 -9 -1t-9 1q-6 -1 -9 -1t-9 1q-6 -1 -9 -1t-9 1q-5 -1 -8.5 -1t-9.5 1q-5 -1 -8.5 -1t-9.5 1q-5 -1 -8.5 -1t-9.5 1q-5 -1 -8.5 -1t-9.5 1q-5 -1 -8.5 -1t-9.5 1q-5 -1 -8.5 -1t-9.5 1q-5 -1 -8.5 -1t-9.5 1q-5 -1 -8.5 -1
t-9.5 1q-5 -1 -8.5 -1t-8.5 1q-6 -1 -9.5 -1t-8.5 1q-6 -1 -9.5 -1t-8.5 1q-6 -1 -9 -1q-49 0 -83 34.5t-34 82.5t34 82.5t83 34.5q3 0 9 -1q5 1 8.5 1t9.5 -1q5 1 8.5 1t9.5 -1q5 1 8.5 1t8.5 -1q6 1 9.5 1t8.5 -1q6 1 9.5 1t8.5 -1q6 1 9.5 1t8.5 -1q6 1 9.5 1t8.5 -1
q6 1 9.5 1t8.5 -1q6 1 9 1t9 -1q6 1 9 1t9 -1q6 1 9 1t9 -1q6 1 9 1t9 -1q6 1 9 1t9 -1q6 1 9 1t9 -1q6 1 9 1t9 -1q6 1 9 1t9 -1q6 1 9 1t9 -1q5 1 8.5 1t9.5 -1q5 1 8.5 1t9.5 -1q5 1 8.5 1t9.5 -1q5 1 8.5 1t9.5 -1q5 1 8.5 1t9.5 -1q5 1 8.5 1t8.5 -1q6 1 9.5 1t8.5 -1
q6 1 9.5 1t8.5 -1q6 1 9 1z" />
    <glyph glyph-name="period" unicode="." horiz-adv-x="333" 
d="M166.5 0q-48.5 0 -82.5 34t-34 82.5t34 82.5t82.5 34t82.5 -34t34 -82.5t-34 -82.5t-82.5 -34z" />
    <glyph glyph-name="slash" unicode="/" horiz-adv-x="683" 
d="M575 830q42 -24 54.5 -70.5t-11.5 -88.5q-1 0 -1.5 -1t-0.5 -1.5t-0.5 -1.5t-1 -1.5t-1 -1.5t-1 -1.5t-1 -1.5t-1 -1.5t-1 -1.5t-0.5 -1.5t-0.5 -1.5t-1 -1.5t-1 -1.5t-1 -1.5t-1 -1.5t-0.5 -1.5t-1 -1.5t-1 -1.5t-0.5 -1.5t-1 -1.5t-1 -1.5t-0.5 -1.5t-1 -1.5t-1 -1.5
t-0.5 -1.5t-1 -1.5t-1 -1.5t-1 -1.5t-1 -1.5t-0.5 -1.5t-0.5 -1.5t-1 -1.5t-1 -1.5t-1 -1.5t-1 -1.5t-1 -1.5t-1 -1.5t-0.5 -1.5t-0.5 -1.5t-1 -1.5t-1 -1.5t-1 -1.5t-1 -1.5t-0.5 -1.5t-1 -1.5t-1 -1.5t-0.5 -1.5t-1 -1.5t-1 -1.5t-1 -1.5t-1 -1.5t-0.5 -1.5t-0.5 -1.5
t-1 -1.5t-1 -1.5t-1 -1.5t-1 -1.5t-0.5 -1.5t-1 -1.5t-1 -1.5t-0.5 -1.5t-1 -1.5t-1 -1.5t-1 -1.5t-1 -1.5t-0.5 -1.5t-0.5 -1.5t-1 -1.5t-1 -1.5t-1 -1.5t-1 -1.5t-0.5 -1.5t-1 -1.5t-1 -1.5t-0.5 -1.5t-1 -1.5t-1 -1.5t-1 -1.5t-1 -1.5t-0.5 -1.5t-0.5 -1.5t-1 -1.5
t-1 -1.5t-1 -1.5t-1 -1.5t-0.5 -1.5t-1 -1.5t-1 -1.5t-0.5 -1.5t-1 -1.5t-1 -1.5t-1 -1.5t-1 -1.5t-0.5 -1.5t-0.5 -1.5t-1 -1.5t-1 -1.5t-1 -1.5t-1 -1.5t-0.5 -1.5t-1 -1.5t-1 -1.5t-0.5 -1.5t-1 -1.5t-1 -1.5t-1 -1.5t-1 -1.5t-0.5 -1.5t-1 -1.5t-1 -1.5t-0.5 -1.5
t-1 -1.5t-1 -1.5t-0.5 -1.5t-1 -1.5t-1 -1.5t-0.5 -1.5t-1 -1.5t-1 -1.5l-1 -2t-1 -1.5t-0.5 -1t-0.5 -1.5t-1 -1.5t-1 -1.5t-1 -1.5t-1 -1.5t-0.5 -1.5t-1 -1.5t-1 -1.5t-0.5 -1.5l-1 -2t-1 -1.5l-1 -1t-1 -1.5t-0.5 -2t-1 -1.5t-1 -1t-0.5 -1.5l-1 -2t-1 -1.5t-0.5 -1
t-1 -1.5t-1 -2t-0.5 -1.5l-1 -1t-1 -1.5l-1 -2t-1 -1.5t-0.5 -1t-0.5 -1.5l-1 -2t-1 -1.5l-1 -1t-1 -1.5t-0.5 -2t-1 -1.5t-1 -1t-0.5 -1.5l-1 -2t-1 -1.5l-1 -1t-1 -1.5t-0.5 -2t-1 -1.5t-1 -1t-0.5 -1.5l-1 -2t-1 -1.5t-0.5 -1t-1 -1.5t-1 -2t-0.5 -1.5l-1 -1t-1 -1.5
l-1 -2t-1 -1.5t-0.5 -1t-0.5 -2t-1 -2l-1 -1l-1 -1t-1 -2t-0.5 -2t-1 -1t-1 -1t-0.5 -2t-1 -2l-1 -1l-1 -1t-1 -2t-0.5 -2t-1 -1t-1 -1t-0.5 -2t-1 -2l-1 -1t-0.5 -1t-1 -2t-1 -2t-0.5 -1l-1 -1t-1 -2t-1 -2l-1 -1t-0.5 -1t-0.5 -2t-1 -2l-1 -1l-1 -1t-1 -2t-1 -2l-1 -1
t-0.5 -1t-0.5 -2t-1 -2l-1 -1l-1 -1t-1 -2t-0.5 -2t-1 -1t-1 -1t-0.5 -2t-1 -2l-1 -1t-0.5 -1t-1 -2t-1 -2t-0.5 -1l-1 -1t-1 -2t-1 -2l-1 -1t-0.5 -1t-0.5 -2t-1 -2t-1 -1.5t-1 -1t-1 -1.5t-1 -2l-1 -1t-0.5 -1t-0.5 -2t-1 -2t-1 -1.5t-1 -1t-1 -1.5t-0.5 -2t-1 -1.5l-1 -1
l-0.5 -1.5t-1 -2t-1 -1.5l-0.5 -1l-1 -1.5t-1 -2t-0.5 -1.5t-1 -1t-1 -1.5t-1 -2t-1 -1.5l-0.5 -1l-0.5 -1.5t-1 -2t-1 -1.5t-1 -1t-1 -1.5t-1 -2t-1 -1.5l-0.5 -1l-0.5 -1.5t-1 -2t-1 -1.5t-1 -1t-1 -1.5t-0.5 -2t-1 -1.5l-1 -1l-0.5 -1.5t-1 -2t-1 -1.5l-0.5 -1l-1 -1.5
t-1 -2t-0.5 -1.5t-1 -1t-1 -1.5t-1 -2t-1 -1.5l-0.5 -1l-0.5 -1.5t-1 -2t-1 -1.5t-1 -1t-1 -1.5t-1 -2t-1 -1.5l-0.5 -1l-0.5 -1.5t-1 -2t-1 -1.5t-1 -1t-1 -1.5t-0.5 -2t-1 -1.5l-1 -1l-0.5 -1.5t-1 -2t-1 -1.5t-0.5 -1.5t-1 -1.5t-1 -1.5t-0.5 -1.5t-1 -1.5t-1 -1.5
t-1 -1.5t-1 -1.5l-0.5 -1l-0.5 -1.5t-1 -2t-1 -1.5t-1 -1t-1 -1.5t-1 -2t-1 -1.5t-0.5 -1.5t-0.5 -1.5t-1 -1.5t-1 -1.5t-1 -1.5t-1 -1.5t-0.5 -1.5t-1 -1.5t-1 -1.5t-0.5 -1.5t-1 -1.5t-1 -1.5t-1 -1.5t-1 -1.5t-0.5 -1.5t-1 -1.5t-1 -1.5t-0.5 -1.5t-1 -1.5t-1 -1.5
t-0.5 -1.5t-0.5 -1.5t-1 -1.5t-1 -1.5t-1 -1.5t-1 -1.5t-1 -1.5t-1 -1.5t-0.5 -1.5t-0.5 -1.5t-1 -1.5t-1 -1.5t-1 -1.5t-1 -1.5t-0.5 -1.5t-1 -1.5t-1 -1.5t-0.5 -1.5t-1 -1.5t-1 -1.5t-0.5 -1.5t-1 -1.5t-1 -1.5t-0.5 -1.5t-1 -1.5t-1 -1.5t-1 -1.5t-1 -1.5t-0.5 -1.5
t-0.5 -1.5t-1 -1.5t-1 -1.5t-1 -1.5t-1 -1.5t-1 -1.5t-1 -1.5t-0.5 -1.5t-0.5 -1.5t-1 -1.5t-1 -1.5t-1 -1.5t-1 -1.5t-0.5 -1.5t-1 -1.5t-1 -1.5t-0.5 -1.5t-1 -1.5t-1 -1.5t-1 -1.5t-1 -1.5t-0.5 -1.5t-1 -1.5t-1 -1.5t-0.5 -1.5t-1 -1.5t-1 -1.5t-0.5 -1.5t-1 -1.5
t-1 -1.5t-0.5 -1.5t-1 -1.5t-1 -1.5t-0.5 -2q-24 -41 -71 -53.5t-89 11.5t-54.5 70.5t12.5 88.5q0 1 0.5 1.5l1 1t1 1.5t0.5 2t1 1.5t1 1t0.5 1.5l1 2t1 1.5t0.5 1t1 1.5t1 2t0.5 1.5l1 1t1 1.5l1 2t1 1.5t0.5 1t0.5 1.5l1 2t1 1.5l1 1t1 1.5l1 2t1 1.5t0.5 1t0.5 1.5l1 2
l1 2l0.5 1q1 0 1.5 1t0.5 2t1 1.5t1 1t0.5 1.5l1 2t1 1.5t0.5 1t1 1.5t1 2t0.5 1.5l1 1t1 1.5l1 2t1 1.5t0.5 1t0.5 1.5l1 2t1 1.5l1 1t1 1.5l1 2t1 1.5t0.5 1t0.5 1.5l1 2t1 1.5l1 1t1 1.5t0.5 2t1 1.5t1 1t0.5 1.5l1 2t1 1.5t0.5 1t1 1.5t1 2q1 2 2 2q0 1 0.5 2t1 1.5
t1 1.5t0.5 1.5t1 1.5t1 1.5t0.5 1.5t1 1.5t1 1.5t1 1.5t1 1.5t0.5 1.5t0.5 1.5t1 1.5t1 1.5t1 1.5t1 1.5t1 1.5t1 1.5t0.5 1.5t0.5 1.5t1 1.5t1 1.5t1 1.5t1 1.5t0.5 1.5t1 1.5t1 1.5t0.5 1.5t1 1.5t1 1.5t0.5 1.5t1 1.5t1 1.5t0.5 1.5t1 1.5t1 1.5t1 1.5t1 1.5t0.5 1.5
t0.5 1.5t1 1.5t1 1.5t1 1.5t1 1.5t1 1.5t1 1.5t0.5 1.5t0.5 1.5t1 1.5t1 1.5t1 1.5t1 1.5t0.5 1.5t1 1.5t1 1.5t0.5 1.5t1 1.5t1 1.5t1 1.5t1 1.5t0.5 1.5t0.5 1.5t1 1.5t1 1.5t1 1.5t1 1.5t0.5 1.5t0.5 1.5t1 1.5t1 1.5t1 1.5t1 1.5t1 1.5t1 1.5t0.5 1.5t0.5 1.5t1 1.5
t1 1.5t1 1.5t1 1.5t0.5 1.5t1 1.5t1 1.5t0.5 1.5t1 1.5t1 1.5t0.5 1.5t1 1.5t1 2t1 1.5t1 1t0.5 1.5l1 2t1 1.5t0.5 1t1 1.5t1 2t0.5 1.5l1 1t1 1.5l1 2t1 1.5t0.5 1t0.5 1.5l1 2t1 1.5l1 1t1 1.5t0.5 2t1 1.5t1 1t0.5 1.5l1 2t1 1.5l1 1t1 1.5t0.5 2t0.5 1.5l1 1t1 1.5l1 2
t1 1.5t0.5 1t1 1.5t1 2t0.5 1.5l1 1t1 1.5l1 2t1 1.5t0.5 1t0.5 1.5l1 2t1 1.5l1 1t1 1.5t0.5 2t1 1.5t1 1t0.5 1.5l1 2t1 1.5l1 1t1 1.5t0.5 2t0.5 1.5l1 1t1 2t1 2l1 1t0.5 1t1 2t1 2t0.5 1l1 1t1 2t1 2l1 1t0.5 1t0.5 2t1 2l1 1l1 1t1 2t0.5 2t1 1t1 1t0.5 2t1 2l1 1l1 1
t1 2t0.5 2t1 1t1 1t0.5 2t1 2l1 1t0.5 1t1 2t1 2t0.5 1l1 1t1 2t1 2l1 1t0.5 1t0.5 2t1 2l1 1l1 1t1 2t0.5 2t1 1.5l1 1l0.5 1.5t1 2l1 1l1 1t1 2t0.5 2t1 1.5l1 1l0.5 1.5t1 2t1 1.5l0.5 1l1 1.5t1 2t0.5 1.5t1 1t1 1.5t1 2t1 1.5l0.5 1l0.5 1.5t1 2t1 1.5t1 1t1 1.5t0.5 2
t1 1.5l1 1l0.5 1.5t1 2t1 1.5t1 1t1 1.5t0.5 2t1 1.5l1 1l0.5 1.5t1 2t1 1.5l0.5 1l1 1.5t1 2t0.5 1.5t1 1t1 1.5t1 2t1 1.5l0.5 1l0.5 1.5t1 2t1 1.5t1 1t1 1.5t0.5 2t1 1.5l1 1l0.5 1.5t1 2t1 1.5t1 1t1 1.5t0.5 2t1 1.5l1 1l0.5 1.5t1 2t1 1.5l0.5 1l1 1.5t1 2t0.5 1.5
t1 1t1 1.5t1 2t1 1.5l0.5 1l0.5 1.5t1 2t1 1.5t1 1t1 1.5t1 2t1 1.5l0.5 1l0.5 1.5t1 2t1 1.5t1 1t1 1.5t0.5 2t1 1.5l1 1l0.5 1.5t1 2t1 1.5l0.5 1l1 1.5t1 2t0.5 1.5t1 1.5t1 1.5t1 1.5t1 1.5t0.5 1.5t0.5 1.5t1 1.5t1 1.5t1 1t1 1.5t1 2t1 1.5l0.5 1l0.5 1.5t1 2t1 1.5
t1 1t1 1.5t0.5 2t1 1.5l1 1l0.5 1.5t1 2t1 1.5l0.5 1l1 1.5t1 2t0.5 1.5t1 1.5t1 1.5t1 1.5t1 1.5t0.5 1.5t0.5 1.5t1 1.5t1 1.5t1 1.5t1 1.5t1 1.5t1 1.5t0.5 1.5t0.5 1.5t1.5 1q24 42 70.5 54.5t88.5 -11.5z" />
    <glyph glyph-name="zero" unicode="0" 
d="M691 156q-6 -9 -12 -17q-6 -9 -14 -17q-5 -7 -10 -12q-1 -1 -2.5 -2l-1.5 -1q-4 -5 -6 -7q-4 -4 -9 -8l-1 -1q-7 -7 -15 -13q-8 -7 -17 -12q-8 -7 -18 -13q-8 -6 -17 -10q-10 -6 -20 -10q-9 -5 -20 -8q-9 -5 -19 -7q-10 -4 -22 -7q-10 -3 -21 -4q-10 -3 -21 -4
q-11 -2 -23 -2q-11 -1 -22 -1t-22 1q-12 0 -23 2q-11 1 -21 4q-11 1 -21 4q-12 3 -22 7q-10 2 -19 7q-11 3 -20 8q-10 4 -20 10q-9 4 -17 10q-10 6 -19 13q-8 5 -16 12q-8 6 -15 13l-1 1q-5 4 -9 8q-2 2 -6 7l-1.5 1t-2.5 2q-5 5 -10 12q-8 8 -14 17q-6 8 -12 17
q-6 8 -11 17q-6 9 -10 20q-5 8 -9 18q-5 10 -8 21q-4 9 -7 20q-3 10 -5 20q-3 11 -4 23q-3 10 -3 21q-2 11 -1 22q-2 12 0 24q-1 11 1 22q0 10 3 21q1 12 4 23q2 10 5 20q3 11 7 20q3 11 8 21q4 10 9 18q4 11 10 20q5 9 11 17q6 9 12 17q6 9 14 17q5 7 10 12l4 3q4 5 6 7
q4 4 9 8q1 0 1 1q7 7 15 13q8 7 16 12q9 7 19 13q8 6 17 10q10 6 20 10q9 5 20 8q9 5 19 7q10 4 22 7q10 3 21 4q10 3 21 4q11 2 23 2q11 1 22 0q11 1 22 0q12 0 23 -2q11 -1 21 -4q11 -1 21 -4q12 -3 22 -7q10 -2 19 -7q11 -3 20 -8q10 -4 20 -10q9 -5 17 -10q10 -6 19 -13
q8 -5 16 -12q8 -6 15 -13l1 -1q5 -4 9 -8q2 -2 6 -7l1.5 -1t2.5 -2q5 -5 10 -12q8 -8 14 -17q6 -8 12 -17q6 -8 11 -17q6 -9 10 -20q5 -8 9 -18q5 -10 8 -21q4 -9 7 -20q3 -10 5 -20q3 -11 4 -23q3 -11 3 -21q2 -11 1 -22q2 -12 0 -24q1 -11 -1 -22q0 -10 -3 -21
q-1 -12 -4 -23q-2 -10 -5 -20q-3 -11 -7 -20q-3 -11 -8 -21q-4 -10 -9 -18q-4 -11 -10 -20q-5 -9 -11 -17zM443 241q5 2 7 3t5 3q4 3 7 4q4 3 5 4q2 1 7 4l5 5l1 1l2 2t2 1q2 4 5 6q2 3 3 5q2 1 5 6t4 6l3 6t4 7q1 4 2 6q0 2 2 7q1 6 2 8q1 3 1 6q1 3 1 8q1 5 1 8v6
q-1 3 -1 8q-1 5 -1 8t-1 6q-1 2 -2 8q-2 5 -2 7q-1 2 -2 6q-2 3 -4 7l-3 6t-4 6q-3 5 -5 6q-1 2 -3 5q-2 2 -5 6q-1 0 -2 1l-2 2l-0.5 0.5l-0.5 0.5l-5 5q-5 3 -7 4q-1 1 -5 4q-3 1 -7 4q-3 2 -5 3q-2 0 -7 3q-5 1 -8 2q-2 1 -5 2q-3 0 -8 2q-5 0 -8 1q-3 0 -6 1h-8h-8
q-3 -1 -6 -1q-3 -1 -8 -1q-5 -2 -8 -2q-3 -1 -5 -2q-3 -1 -8 -2q-5 -3 -7 -3l-6 -3q-3 -3 -7 -4l-4 -4q-2 -1 -7 -4l-5 -5l-1 -1l-2 -2t-2 -1q-3 -4 -5 -6q-2 -3 -4 -5q-1 -1 -4 -6t-4 -6l-3 -6t-4 -7q-1 -4 -2 -6t-2 -7t-2 -8t-1 -6q-1 -2 -1 -8q-1 -5 -1 -8v-6t1 -8
q0 -6 1 -8q0 -3 1 -6t2 -8t2 -7t2 -6q2 -3 4 -7l3 -6t4 -6q3 -5 4 -6q2 -2 4 -5q2 -2 5 -6l1.5 -1t2.5 -2l1 -1l5 -5q5 -3 7 -4l4 -4q3 -1 7 -4l6 -3t7 -3q5 -1 8 -2t5 -2q2 0 8 -2q5 -1 8 -1q2 0 6 -1h8h8q3 1 6 1t8 1q6 2 8 2q2 1 5 2t8 2z" />
    <glyph glyph-name="one" unicode="1" horiz-adv-x="450" 
d="M400 578v-2v-3v-2.5v-2v-2v-2.5v-3v-2.5v-2v-2.5v-3v-2v-2v-3v-2.5v-2v-2.5v-2.5v-2.5v-2.5v-2v-2.5v-3v-2v-2v-3v-2.5v-2v-2.5v-3v-2.5v-2v-2v-2.5v-3v-2.5v-2v-2.5v-3v-2v-2v-3v-2.5v-2v-2.5v-2.5v-2.5v-2.5v-2v-2.5v-3v-2v-2v-3v-2.5v-2v-2.5v-3v-2.5v-2v-2v-2.5v-3
v-2.5v-2v-2.5v-3v-2v-2v-3v-2.5v-2v-2.5v-2.5v-2.5v-2.5v-2v-2.5v-3v-2v-2v-3v-2.5v-2v-2.5v-3v-2.5v-2v-2v-2.5v-3v-2.5v-2v-2.5v-3v-2v-2v-3v-2.5v-2v-2.5v-3v-2.5v-2v-2v-2.5v-3v-2.5v-2v-2.5v-2.5v-2v-2.5v-3v-2.5v-2v-2v-2.5v-3v-2.5v-2v-2.5v-3v-2v-2v-3v-2.5v-2v-2.5
v-3v-2.5v-2v-2v-2.5v-3v-2.5v-2v-2.5v-3v-2v-2v-3v-2.5v-2v-2v-2.5v-3v-2.5v-2v-2.5v-3v-2v-2v-3v-2.5v-2v-2.5v-3v-2.5v-2v-2v-2.5v-3v-2.5v-2v-2.5v-3v-2v-2v-3v-2.5v-2v-2.5v-2.5v-2.5v-2.5v-2v-2.5v-3v-2v-2v-3v-2.5v-2v-2.5v-3v-2.5v-2v-2v-2.5q0 -49 -34 -83
t-82.5 -34t-82.5 34t-34 83v2.5v2v2v2.5v3v2.5v2v2.5v3v2v2v3v2.5v2v2.5v2.5v2.5v2.5v2v2.5v3v2v2v3v3v2v2v3v2.5v2v2v2.5v3v2.5v2v2.5v3v2v2v3v2.5v2v2.5v3v2.5v2v2v2.5v3v2v2v3v3v2v2v3v2.5v2v2v2.5v3v2.5v2v2.5v3v2v2v3v2.5v2v2.5v3v2.5v2v2v2.5v3v2v2v3v3v2v2v3v2.5v2v2
v2.5v3v2.5v2v2.5v3v2v2v3q-49 0 -83 34t-34 83q0 51 38 85q3 4 7 7q3 4 7 7q3 4 6 7l7 7q4 3 7 7l7 7l7 7q3 3 7 6q3 4 7 7q3 4 6 7l7 7l7 7q4 3 7 7l7 7l7 7t8 7q34 37 84 37q49 0 83 -34.5t34 -82.5v-2.5v-2.5z" />
    <glyph glyph-name="two" unicode="2" horiz-adv-x="623" 
d="M474 232q42 -7 70.5 -39.5t28.5 -75.5q0 -49 -34 -83t-83 -34h-2.5h-2h-2.5h-3h-2.5h-2h-2.5h-3h-2.5h-2h-2.5h-3h-2.5h-2h-2.5h-3h-2.5h-2h-2.5h-3h-2.5h-2h-2.5h-3h-2.5h-2h-2.5h-3h-2.5h-2h-2.5h-3h-2.5h-2h-2.5h-3h-2.5h-2h-2.5h-3h-2.5h-2h-2.5h-3h-2.5h-2h-2.5h-3
h-2.5h-2h-2.5h-3h-2.5h-2h-2.5h-3h-2.5h-2h-2.5h-3h-2.5h-2h-2.5h-2.5h-2.5h-2.5h-2h-2.5h-3h-2.5h-2h-2.5h-3h-2.5h-2h-2.5h-3h-2.5h-2h-2.5h-3h-2.5h-2h-2.5h-3h-2.5h-2h-2.5h-3h-2.5h-2h-2.5h-3h-2.5h-2h-2.5h-3h-2.5h-2h-2.5h-3h-2.5h-2h-2.5h-3h-2.5h-2h-2.5h-3h-2.5
h-2h-2.5h-3h-2.5h-2h-2.5q-49 0 -83 34t-34 83q0 37 22 68q11 16 26 28l7 7l8 6l7 7l8 6l7 7l8 6l7 7l8 6l7 7q4 4 8 7l8 6l7 7l8 6q3 4 7 7l8 6l7 7l8 6q3 4 7 7q4 4 8 6l7 7q4 4 8 7q4 4 8 7q4 4 9 7l8 8t9 7q4 4 8 7q4 4 9 8q3 3 7 6l4 4t4 5l4 4q1 2 3 4q2 3 3 5l3 4
l0.5 1.5t0.5 2.5l2 3q0 1 0.5 1.5t0.5 1.5v1v1v1v1v1.5t-0.5 1t-0.5 1v1.5v1l-0.5 1l-0.5 1q0 1 -1 2l-0.5 0.5t-0.5 1.5q-1 1 -1 2q-1 0 -1 0.5t-0.5 1l-1.5 1.5l-2 2t-1.5 1t-1 0.5t-1 0.5t-1 0.5l-0.5 0.5l-1 0.5l-1 0.5l-1 0.5l-1 0.5q-1 0 -2 1h-1.5h-1t-2.5 1h-1h-1
h-1h-1.5h-1t-1 -0.5t-2.5 -0.5h-2t-1.5 -0.5t-1 -0.5t-1 -0.5t-1 -0.5t-1 -0.5t-1 -0.5t-1 -0.5l-0.5 -0.5q-1 -1 -2 -1q0 -1 -0.5 -1.5t-1.5 -0.5q-34 -35 -82 -35q-49 0 -83 34.5t-34 82.5q0 54 42 90q6 6 15 12q7 7 16 12q8 6 16 10q9 6 18 10q8 4 18 7q9 4 19 7t20 5
t20 3q11 2 20 2q7 1 13 1h9h1h2q8 0 17 -2q11 0 21 -3q11 -1 20 -4q10 -2 19 -6q9 -3 18 -7q10 -4 18 -9q10 -4 17 -10q9 -5 17 -11q7 -5 15 -12q7 -6 14 -14q8 -7 14 -14q7 -8 12 -16q6 -7 11 -16q5 -8 10 -17t8 -18q5 -9 7 -19q4 -10 6 -19q3 -9 4 -20q3 -10 3 -20
q1 -10 1 -17v-2v-2q1 -6 1 -7q0 -7 -1 -14q-1 -11 -3 -20q-1 -9 -3 -17q-2 -9 -5 -19q-3 -9 -7 -17q-3 -9 -7 -17q-3 -8 -8 -16q-4 -8 -9 -15q-5 -8 -11 -16q-5 -8 -11 -15q-5 -8 -12 -14q-5 -7 -13 -14q-4 -5 -9 -9z" />
    <glyph glyph-name="three" unicode="3" horiz-adv-x="582" 
d="M501 139q-5 -11 -12 -20q-6 -10 -14 -19q-6 -10 -15 -18q-7 -9 -17 -16q-8 -8 -18 -15q-9 -7 -20 -13q-10 -7 -21 -11q-10 -6 -22 -10q-11 -5 -23 -7q-11 -4 -23 -6t-24 -3q-9 -1 -17 -1h-8h-2.5h-3.5q-8 0 -19 2q-12 0 -24 4q-12 1 -23 5q-12 3 -23 8q-11 4 -21 10
q-11 4 -20 11q-11 6 -20 14q-10 6 -18 15q-43 35 -43 90q0 49 34 83t83 34t83 -35l0.5 -0.5l1 -1l1 -1t1 -0.5t1.5 -0.5t1.5 -1t1 -0.5t1 -0.5t1.5 -0.5t1.5 -0.5t1.5 -0.5h1q1 0 3 -1h2.5h1.5h1.5t1.5 0.5t1.5 0.5h1.5t1.5 0.5t1 0.5h1t1.5 0.5l1 0.5q1 1 2 1q0 1 2 2
l0.5 0.5t1 0.5t1 1t1 1t1 1t1 1t1 1l0.5 1q0 1 2 2q0 1 1 3l0.5 1t0.5 2v2l1 3v2v1v1v1.5v1.5v1q-1 2 -1 2.5t-1 2.5v1t-0.5 1.5t-0.5 1t-0.5 1t-1 1.5l-0.5 1l-0.5 1t-1 1.5l-1 1t-1.5 0.5q0 1 -2 2l-0.5 0.5l-1.5 1.5l-2 1l-1 0.5t-2 0.5q-2 1 -2.5 1t-1.5 0.5l-1 0.5
q-3 0 -5 1q-44 5 -74 38t-30 78q0 31 16 59h-1q-48 0 -82 34t-34 82.5t34 82.5t82 34h7h7h6h7h7h6h7h6.5h6.5h7h6h7h7h6h7h7h6h7h7h6h7h7h6h7h7h6h7h7h6h7h7h6h7h7h6v0q49 0 83 -34.5t34 -82.5q0 -42 -27 -74q0 -1 -0.5 -1.5l-0.5 -0.5q0 -1 -1.5 -2.5t-1.5 -2.5
q-4 -5 -5 -6l-6 -8q-3 -5 -8 -10q-3 -5 -8 -11q-4 -6 -9 -12q-4 -5 -7 -10q6 -5 11 -13q8 -8 15 -18q7 -9 12 -20q7 -9 11 -21q6 -10 9 -22q5 -11 8 -23t5 -24q2 -13 2 -25q1 -8 1 -14v-11v-1.5v-1.5q0 -11 -2 -22q-1 -12 -4 -24q-2 -12 -7 -23q-3 -11 -8 -22
q-4 -11 -10 -21z" />
    <glyph glyph-name="four" unicode="4" horiz-adv-x="623" 
d="M573 579v-2.5v-2.5v-2.5v-2v-2v-2.5v-2.5v-2v-2v-2.5v-2.5v-2v-2.5v-2.5v-2v-2v-2.5v-2.5v-2.5v-2.5v-2v-2.5v-2.5v-2v-2v-2.5v-2.5v-2v-2v-2.5v-2.5v-2v-2v-2.5v-2.5v-2v-2v-2.5v-2.5v-2v-2.5v-2.5v-2.5v-2.5v-2v-2v-2.5v-2.5v-2v-2.5v-2.5v-2v-2v-2.5v-2.5v-2v-2v-2.5
v-2.5v-2v-2v-2.5v-2.5v-2v-2v-2.5v-2.5v-2v-2.5v-2.5v-2.5v-2.5v-2v-2v-2.5v-2.5v-2v-2.5v-2.5v-2v-2v-2.5v-2.5v-2v-2v-2.5v-2.5v-2v-2v-2.5v-2.5v-2v-2v-2.5v-2.5v-2v-2.5v-2.5v-2.5v-2.5v-2v-2.5v-2.5v-2v-2v-2.5v-2.5v-2v-2v-2.5v-2.5v-2v-2v-2.5v-2.5v-2v-2v-2.5v-2.5
v-2v-2v-2.5v-2.5v-2v-2v-1.5v-0.5v-0.5v-1v-2v-2.5v-2v-2.5v-2.5v-2v-2v-2.5v-2.5v-2v-2v-2.5v-2.5v-2v-2v-2.5v-2.5v-2v-2v-2.5v-2.5v-2v-2.5v-2.5v-2v-2v-2.5v-2.5v-2.5v-2.5v-2v-2.5v-2.5v-2v-2v-2.5v-2.5v-2v-2v-2.5v-2.5v-2v-2v-2.5v-2.5v-2v-2v-2.5v-2.5v-2v-2.5v-2.5
v-2v-2.5v-2.5v-2v-2.5v-2.5v-2v-2.5v-2.5v-2v-2v-2.5v-2.5v-2v-2v-2.5v-2.5v-2v-2v-2.5v-2.5v-2v-2v-2.5q0 -49 -34 -83t-82.5 -34t-82.5 34t-34 83v2.5v2v2v2.5v2.5v2v2v2.5v2.5v2v2v2.5v2.5v2v2v2.5v2.5v2v2.5v2.5v2v2.5v2.5v2v2v1.5h-1h-7h-7h-6h-7h-7h-7h-7h-7h-7h-7h-7
h-7h-6h-7h-7h-7h-7h-7h-7h-7h-7h-7h-7h-6h-7q-49 0 -83 34t-34 83q0 43 29 77q7 10 17 18q5 6 10 10q4 5 10 10q4 5 9 10t10 9q5 6 10 10l10 10q4 5 9 10t10 9q5 6 10 10l10 10q4 5 9 10l10 10t10 9l10 10q4 5 10 10q4 5 9 10t10 9q5 6 10 10q4 5 10 10q4 5 9 10t10 9
q5 6 10 10l10 10q4 5 9 10t10 9q5 6 10 10q4 5 10 10q4 5 9 10q35 39 88 39q48 0 82 -34t34 -83v-2.5v-1.5z" />
    <glyph glyph-name="five" unicode="5" horiz-adv-x="567" 
d="M483 134q-5 -9 -11 -17q-5 -9 -12 -17q-6 -8 -13 -15q-6 -8 -14 -14q-7 -7 -16 -14q-7 -6 -16 -12q-8 -6 -17 -10q-9 -6 -18 -10q-10 -5 -19 -8q-10 -4 -20 -6q-10 -4 -21 -5q-10 -3 -20 -4q-11 -2 -20 -2q-1 0 -1.5 0.5l-0.5 0.5q-6 -1 -10 -1q-6 0 -11 1h-1
q-10 0 -21 1q-10 1 -20 4q-11 1 -20 5q-11 2 -19 6q-36 12 -58.5 42.5t-22.5 68.5q0 48 34 82.5t82 34.5q25 0 47 -10l1 -0.5l1 -0.5h2q2 -1 2.5 -1h1h1.5h1h1.5h1h1.5l2 1h1h1.5t1 0.5t1.5 0.5q1 1 1.5 1t1 0.5t1 0.5t1.5 1h0.5t1 0.5t0.5 1.5l2 1l2 2l0.5 0.5t0.5 1t0.5 1
t1.5 0.5q0 1 1 2l0.5 1l0.5 1v1t0.5 1.5t0.5 1v1t0.5 1t0.5 1.5v2v1.5v1v1.5v1v1v1.5v2.5q-1 1 -1 2q0 2 -1 2v1t-0.5 1.5t-0.5 1t-0.5 1l-1 1t-0.5 1t-0.5 1l-0.5 0.5l-0.5 0.5l-1 1l-1.5 1.5t-1.5 1t-0.5 0.5t-1 1l-1 0.5l-2 1q-1 1 -1.5 1t-1.5 0.5l-1 0.5q-1 0 -2 1
h-1.5h-1t-2.5 1h-2h-1.5h-1t-1.5 -0.5l-1 -0.5h-1h-1.5h-1t-1 -0.5t-1.5 -0.5h-1l-0.5 -0.5t-1.5 -0.5l-2 -2h-1q-2 -2 -5 -3q-30 -21 -66 -21q-49 0 -83 34t-34 82v1v1v1.5v1v1v1v1.5v1v1v1.5v2v2v1.5v1.5v2v2v2v2.5v2.5v2v2v2.5v3v2.5v2.5v3v3v2.5v2.5v3v6v5.5v6.5v6v6
v6.5v6.5v6v6v6v7v6v6v6v5v6v3v2.5v2.5v3v2.5v2v2v2.5v2.5v2v2v2.5v2v1.5v1.5v2v2v1.5v1v1v1.5v1v1v1v0.5v1.5v1q0 39 23.5 70t60.5 42q17 5 35 5h2h1.5h2h2.5h2.5h2h2h2h2h2h2h2.5h2.5h2h2h2h2h2h2h2.5h2.5h2h1.5h2h2.5h2h2h2h2h2h2h2.5h2.5h2h2h2h2h2h2h2.5h2.5h2h2h2h2h2
h2h2.5h2h2h2h2h2.5h2h2h2h2h2h2h2.5h2.5h2h2h2h2h2h2h2.5h2.5h2h2h2h2h2h2h2.5h2h1.5h2h2.5h2.5h2h2h2h2h2h2h2.5h2.5h2h2h2h2h2h2h2.5q48 0 82.5 -34t34.5 -83q0 -37 -22 -67t-56 -42l3 -3q9 -6 16 -13q8 -6 15 -14q7 -7 13 -16q7 -7 12 -16q7 -8 11 -17q6 -9 10 -18
q5 -9 8 -19q4 -9 7 -19q4 -10 5 -21q3 -10 4 -21q2 -11 2 -21q1 -6 1 -12q0 -4 -1 -10v-1v-1q0 -9 -1 -19q-1 -11 -4 -21q-1 -11 -4 -21t-7 -19q-3 -10 -8 -19q-4 -10 -9 -19z" />
    <glyph glyph-name="six" unicode="6" horiz-adv-x="625" 
d="M558 172q-5 -19 -15 -34q-8 -17 -20 -31q-10 -15 -23 -27q-12 -15 -28 -25q-13 -12 -30 -20q-15 -11 -33 -16q-17 -8 -36 -11q-18 -6 -37 -6h-1q-10 -2 -20 -2q-8 0 -18 1h-1.5h-2.5q-17 0 -34 5q-18 2 -36 11q-18 4 -33 14q-17 7 -31 20q-16 9 -28 23q-14 12 -25 27
q-12 14 -20 30q-11 16 -16 34q-9 16 -11 35q-7 18 -7 38q-2 11 -2 21q0 7 1 16v2v4q0 14 4 29q1 17 7 33q3 16 11 31q5 15 13 29q6 13 15 25q6 10 13 19q4 9 11 18q5 8 11 17q5 9 12 17q4 9 11 18q5 9 11 17q5 9 12 17q5 9 11 18q5 9 11 17q5 9 12 17q5 9 11 18q5 8 12 17
q15 28 42.5 45t60.5 17q48 0 82 -34t34 -83q0 -40 -25 -72q-3 -6 -7 -12q7 -4 13 -7q17 -8 30 -20q16 -10 28 -24q14 -11 24 -27q12 -14 20 -30q10 -16 15 -34q9 -17 11 -35q6 -18 6 -37v-0.5v-1.5q2 -10 2 -19t-2 -19l0.5 -1t0.5 -2q0 -18 -6 -35q-2 -18 -10 -35zM336 280
q-2 3 -3 3q0 1 -1 2t-1.5 1t-2 1t-2.5 1q0 1 -3 2l-4 1q-2 0 -4 1h-1h-2q-9 0 -20 2q-2 -3 -4 -8q-1 -2 -3 -7q0 -2 -1 -7q0 -4 -1 -7v-6l1 -3q1 -5 1.5 -5t1.5 -3q2 -2 3 -4l2 -2l3 -3q1 -1 2 -1.5l1 -0.5q1 -1 2.5 -1.5t2 -0.5t2 -0.5t2.5 -0.5t2 -0.5t2 -0.5h1.5h2h1.5
l3 1t5 1q1 1 3 2q1 1 4 2q1 2 2 3l3 3l1 1.5t1.5 2t1 2l0.5 1.5l1 5l0.5 1.5t0.5 2v1.5v2v1q-1 1 -1 4q-1 2 -1 4q-1 2 -2 3q0 1 -2 4z" />
    <glyph glyph-name="seven" unicode="7" horiz-adv-x="654" 
d="M365 78q-2 -5 -4 -9q-14 -31 -43 -50t-64 -19q-48 0 -82 34t-34 83q0 30 15 57q2 5 4 9q2 5 5 9q2 5 4 9q2 5 5 9q2 5 4 9l5 10q2 5 5 9q2 5 4 9q2 5 5 9q2 5 4 9q3 5 5 9q2 5 4 9l5 10q2 5 5 9q2 5 4 9q2 5 5 9q2 5 4 9q3 5 5 9q2 5 4 9q3 5 5 10t5 9q2 5 4 9q2 5 5 9
q2 5 4 9q3 5 5 9l4 10q3 5 5 9q2 5 5 9q2 5 4 9q2 5 5 9q2 5 4 9q3 5 5 9v1h-2h-1.5h-1.5h-1.5h-1.5h-1.5h-1.5h-1.5h-1.5h-1.5h-1.5h-2h-2h-1.5h-1.5h-1.5h-1.5h-1.5h-1.5h-1.5h-1.5h-1.5h-1.5h-2h-2h-1.5h-1.5h-1.5h-1.5h-1.5h-1.5h-1.5h-1.5h-1.5h-1.5h-1.5h-1.5h-1.5h-2
h-2h-1.5h-1.5h-1.5h-1.5h-1.5h-1.5h-1.5h-1.5h-1.5h-1.5h-1.5h-2h-2h-1.5h-1.5h-1.5h-1.5h-1.5h-1.5h-1.5h-1.5h-1.5h-1.5h-1.5h-2h-1.5h-1.5h-2h-1.5h-1.5h-1.5h-1.5h-1.5h-1.5h-1.5h-1.5h-1.5h-1.5h-1.5h-2h-2h-1.5h-1.5h-1q-49 0 -83 34t-34 82.5t34 82.5t83 34h1h1.5
h1.5h2h2h1h1.5h2h1.5h1.5h1.5h1.5h1.5h1.5h1.5h1.5h2h1.5h1.5h2h1.5h1.5h1.5h1.5h1.5h1.5h1.5h1.5h1.5h1.5h1.5h2h2h1.5h1.5h1.5h1.5h1.5h1.5h1.5h1.5h1.5h1.5h1.5h2h1.5h1.5h2h1.5h1.5h1.5h1.5h1.5h1.5h1.5h1.5h2h1.5h1h2h2h1.5h1.5h1.5h1.5h1.5h1.5h1.5h1.5h1.5h1.5h2h2h1
h1.5h2h1.5h1.5h1.5h1.5h1.5h1.5h1.5h1.5h2h1.5h1h2h2h1.5h1.5h1.5h1.5h1.5h1.5h1.5h1.5h1.5h1.5h2h2h1h1.5h2h1.5h1.5h1.5h1.5h1.5h1.5h1.5h1.5h2h1.5h1.5h2h1.5h1.5h1.5h1.5h1.5h1.5h1.5h1.5h1.5h1.5h1.5h2h2h1.5h1.5h1.5h1.5h1.5h1.5h1.5h1.5h1.5h1.5h1.5h2h1.5h1.5h2h1.5
h1.5h1.5h1.5h1.5h1.5h1.5h1.5h1.5h1.5h1.5h2h2h1.5h1.5h1.5h1.5h1.5h1.5h1.5h1.5h1.5h1.5h2h2h1h1.5h2h1.5h1.5h1.5h1.5h1.5h1.5h1.5h1.5h2h1.5h1h2h2h1.5h1.5h1.5h1.5h1.5h1.5h1.5h1.5h1.5h1.5h2h2h1h1.5h2h1.5h1.5h1.5h2q48 0 82 -34t34 -83q0 -30 -15 -57q-2 -5 -4 -9
q-3 -5 -5 -9q-2 -5 -5 -9q-2 -5 -4 -9q-2 -6 -5 -9q-2 -6 -4 -10t-5 -9q-2 -5 -4 -9q-3 -5 -5 -9q-2 -5 -5 -9q-2 -5 -4 -9q-2 -5 -5 -9l-4 -10q-3 -5 -5 -9q-2 -5 -4 -9q-3 -5 -5 -9q-2 -5 -5 -9q-2 -5 -4 -9q-2 -6 -5 -10q-2 -5 -4 -9q-3 -5 -5 -9q-2 -5 -4 -9
q-3 -5 -5 -9q-2 -5 -5 -9q-2 -5 -4 -9q-2 -6 -5 -10q-2 -5 -4 -9q-3 -5 -5 -9q-2 -5 -4 -9q-3 -5 -5 -9q-2 -5 -5 -9q-2 -5 -4 -9q-2 -5 -5 -10q-2 -5 -4 -9q-3 -5 -5 -9q-2 -5 -4 -9q-3 -5 -5 -9q-2 -5 -5 -9q-2 -5 -4 -9q-2 -5 -5 -10q-2 -4 -4 -9t-5 -9q-2 -5 -4 -9
q-3 -5 -5 -9q-2 -5 -5 -9l-4 -10t-5 -9q-2 -5 -4 -9q-3 -5 -5 -9z" />
    <glyph glyph-name="eight" unicode="8" horiz-adv-x="567" 
d="M499 147q-5 -18 -16 -33q-8 -16 -21 -29q-10 -15 -24 -25q-13 -14 -29 -22q-14 -11 -30 -17q-17 -9 -35 -12q-18 -6 -36 -7q-11 -2 -22 -2q-7 0 -16 1h-1h-2q-18 0 -35 5q-17 3 -33 10q-18 6 -33 16q-16 8 -28 20q-15 10 -27 25q-13 12 -22 28q-11 14 -17 31
q-9 16 -13 34q-6 17 -7 35q-2 12 -2 24q0 6 1 15v1.5v2.5q0 16 5 33q2 18 10 34q5 18 15 34q1 0 1 1q-6 8 -9 17q-5 8 -8 18q-4 10 -7 20t-4 21q-3 11 -3 22q-1 8 -1 15v7v1.5v2.5q0 8 2 18q0 11 3 21q2 11 5 21t7 20t9 19q4 10 10 18q5 9 12 17q6 9 13 16q6 7 14 14
q7 7 16 13q8 7 17 12q8 6 18 11q9 5 19 8q10 5 20 7q10 4 21 6q10 2 21 3q10 2 18 2h2h2h8q6 0 14 -1q11 0 22 -3q11 -1 21 -4q9 -2 19 -6q9 -3 19 -8q10 -4 19 -10q9 -5 17 -11q9 -6 17 -13q8 -6 15 -14q7 -7 13 -16q7 -7 13 -16q6 -8 11 -18q5 -9 9 -19q5 -9 8 -19
q4 -10 6 -21q3 -10 4 -21q2 -11 2 -22v-7v-12q0 -12 -3 -26q-1 -18 -8 -35q-4 -18 -13 -34q-3 -7 -7 -14q7 -11 11 -24q9 -16 12 -35q7 -18 7 -37q2 -10 2 -19q0 -8 -2 -17v-1v-1q0 -18 -5 -36q-3 -17 -11 -33zM283 467v0v0zM283 233z" />
    <glyph glyph-name="nine" unicode="9" horiz-adv-x="625" 
d="M409 97q-5 -9 -11 -18q-5 -9 -12 -17q-15 -28 -42.5 -45t-60.5 -17q-48 0 -82 34t-34 83q0 40 25 72q3 6 7 12q-8 4 -13 7q-17 8 -30 20q-16 10 -28 24q-14 11 -24 27q-12 14 -20 30q-10 16 -16 34q-8 17 -10 35q-6 18 -6 37v0.5v1.5q-2 10 -2 19t2 19l-0.5 1t-0.5 2
q0 18 6 35q2 18 10 35q5 19 15 34q8 17 20 31q10 15 23 27q12 14 28 25q13 12 30 20q15 10 33 16q17 8 35 11q19 6 38 6h1q10 2 20 2q8 0 18 -1h1.5h2.5q17 0 34 -5q18 -2 36 -11q18 -4 33 -14q17 -7 31 -20q16 -9 28 -23q14 -12 25 -27q12 -14 20 -30q11 -16 16 -34
q9 -16 11 -35q7 -18 7 -38q2 -11 2 -21q0 -7 -1 -16v-2.5v-3.5q0 -14 -4 -29q-1 -17 -7 -33q-3 -16 -11 -31q-5 -15 -13 -29q-6 -13 -15 -25q-6 -10 -13 -19q-4 -9 -11 -18q-5 -9 -11 -17q-5 -9 -12 -17q-4 -9 -11 -18q-5 -9 -11 -17q-5 -9 -12 -17q-5 -9 -11 -18
q-5 -9 -12 -17q-4 -9 -11 -17zM289 420l2 -2q0 -1 1 -1q0 -1 1 -2t1.5 -1t2 -1t2.5 -1.5t2 -0.5l1 -1l4 -1q2 0 4 -1h1.5h1.5q9 0 20 -2q2 3 4 8q0 2 3 7q0 2 1 7q0 4 1 7v6l-0.5 1.5l-0.5 1.5q-1 4 -1 5q-1 1 -2 3t-3 4l-2 2l-3 3q-1 1 -2 1.5l-1 0.5q-1 1 -2.5 1.5
t-2.5 0.5l-1.5 0.5t-2.5 0.5l-4 1h-1.5h-2h-1.5q-1 -1 -3 -1q-3 -1 -5 -1q-2 -1 -3 -2t-4 -2q-1 -2 -2 -3q-1 0 -2 -1.5l-1 -1.5l-1 -1.5t-1.5 -2t-1 -2l-0.5 -1.5l-1 -5l-1 -3v-2v-2v-1q1 -2 1 -4q0 -1 1 -4q0 -1 0.5 -2t1 -1.5t1.5 -2z" />
    <glyph glyph-name="colon" unicode=":" horiz-adv-x="333" 
d="M166.5 437q-48.5 0 -82.5 34t-34 82.5t34 82.5t82.5 34t82.5 -34t34 -82.5t-34 -82.5t-82.5 -34zM166.5 87q-48.5 0 -82.5 34t-34 82.5t34 82.5t82.5 34t82.5 -34t34 -82.5t-34 -82.5t-82.5 -34z" />
    <glyph glyph-name="semicolon" unicode=";" horiz-adv-x="333" 
d="M166.5 210q48.5 0 82.5 -34t34 -82v-2.5v-2v-2v-2v-2v-2v-2v-2.5v-2.5v-2v-2v-2v-2v-2v-2v-2v-2v-2v-2v-2.5v-2.5v-2v-2v-2v-2v-2v-2v-2v-2v-2v-2v-2.5v-2.5v-2v-2v-2v-2v-2v-2v-2v-2v-2v-2v-2.5v-2.5v-2v-2v-2v-2v-2v-2v-2v-2v-2v-2v-2.5v-2.5v-2v-2v-2v-2v-2v-2v-2v-2
v-2v-2v-2.5v-2.5v-2v-2v-2v-2v-2v-2v-2v-2v-2v-2v-2.5v-2.5v-2v-2v-1.5q0 -49 -34 -83t-82.5 -34t-82.5 34t-34 83v1.5v2v2v2.5v2.5v2v2v2v2v2v2v2v2v2v2v2.5v2.5v2v2v2v2v2v2v2v2v2v2v2.5v2.5v2v2v2v2v2v2v2v2v2v2v2.5v2.5v2v2v2v2v2v2v2v2v2v2v2.5v2.5v2v2v2v2v2v2v2v2v2
v2v2.5v2.5v2v2v2v2v2v2v2v2v2v2v2.5v2.5v2v2v2v2v2v2v2.5q0 48 34 82t82.5 34zM166.5 269q-48.5 0 -82.5 34t-34 82.5t34 82.5t82.5 34t82.5 -34t34 -82.5t-34 -82.5t-82.5 -34z" />
    <glyph glyph-name="less" unicode="&#x3c;" horiz-adv-x="567" 
d="M449 342q31 -14 49.5 -42.5t18.5 -62.5q0 -49 -34.5 -83t-82.5 -34q-30 0 -57 15q-4 2 -7 3q-5 3 -8 4q-4 2 -7 4q-5 2 -8 4q-5 2 -7 4q-5 2 -8 3q-5 3 -7 4q-5 2 -8 4q-5 2 -7 4q-5 2 -8 3q-5 3 -8 4q-4 2 -7 4q-5 2 -8 4q-4 2 -7 3q-5 3 -8 4q-4 2 -7 4l-8 4q-5 2 -7 3
q-5 3 -8 4q-5 2 -7 4q-5 2 -8 4q-5 2 -7 4q-5 2 -8 3q-4 2 -7 4q-5 2 -8 4q-5 2 -7 4q-5 2 -8 3q-5 3 -7 4q-5 2 -8 4q-5 2 -8 4q-30 14 -48.5 42.5t-18.5 63t18.5 63t48.5 42.5q3 2 8 4q3 1 8 4q2 1 7 3q3 2 8 4q3 2 7 4q3 2 8 4q2 1 7 3q3 2 8 4q3 2 7 4q3 1 8 4q2 1 7 3
q3 2 8 4q3 2 7 4q3 2 8 4q3 1 7 3q3 2 8 4q3 2 7 4l8 4q3 1 7 4q3 1 8 3q3 2 8 4q3 2 7 4q3 1 8 4q2 1 7 3q3 2 8 4q3 2 7 4q3 1 8 4q2 1 7 3q3 2 8 4q3 2 7 4q27 15 57 15q48 0 82.5 -34.5t34.5 -82.5q0 -35 -18.5 -63.5t-49.5 -42.5q-3 -1 -7 -3q-3 -2 -8 -4q-2 -2 -7 -4
q5 -2 7 -3q5 -2 8 -4q4 -2 7 -4z" />
    <glyph glyph-name="equal" unicode="=" horiz-adv-x="742" 
d="M137 409q-36 0 -61.5 26t-25.5 62t25.5 61.5t61.5 25.5h5h4.5h4.5h4.5h4.5h4.5h5.5h4.5h4.5h4.5h4.5h4.5h4.5h4.5h4.5h4.5h4.5h4.5h4.5h5h5h4.5h4.5h4.5h4.5h4.5h4.5h4.5h4.5h4.5h4.5h4.5h4.5h5.5h4.5h4.5h4.5h4.5h4.5h4.5h4.5h4.5h4.5h4.5h4.5h4.5h5.5h4.5h4.5h4.5h4.5
h4.5h4.5h4.5h4.5h4.5h4.5h4.5h4.5h5h5h4.5h4.5h4.5h4.5h4.5h4.5h4.5h4.5h4.5h4.5h4.5h4.5h5.5h4.5h4.5h4.5h4.5h4.5h4.5h4.5h4.5h4.5h4.5h4.5h4.5h5.5h4.5h4.5h4.5h4.5h4.5h4.5h4.5h4.5h4.5h4.5h4.5h4.5h5.5h4.5h4q36 0 62 -25.5t26 -61.5t-26 -62t-62 -26l-5 1l-4 -1l-5 1
q-4 -1 -4.5 -1t-4.5 1q-4 -1 -4.5 -1t-4.5 1q-4 -1 -4.5 -1t-4.5 1q-4 -1 -4.5 -1t-4.5 1l-5 -1l-4 1l-5 -1l-5 1q-4 -1 -4.5 -1t-4.5 1q-4 -1 -4.5 -1t-4.5 1q-4 -1 -4.5 -1t-4.5 1q-4 -1 -4.5 -1t-4.5 1q-4 -1 -4.5 -1t-4.5 1l-5 -1l-5 1l-4 -1l-5 1q-4 -1 -4.5 -1t-4.5 1
q-4 -1 -4.5 -1t-4.5 1q-4 -1 -4.5 -1t-4.5 1q-4 -1 -4.5 -1t-4.5 1q-4 -1 -4.5 -1t-4.5 1l-5 -1l-5 1l-4 -1l-5 1q-4 -1 -4.5 -1t-4.5 1q-4 -1 -4.5 -1t-4.5 1q-4 -1 -4.5 -1t-4.5 1q-4 -1 -4.5 -1t-4.5 1l-5 -1l-4 1l-5 -1l-5 1l-4 -1l-5 1q-4 -1 -4.5 -1t-4.5 1
q-4 -1 -4.5 -1t-4.5 1q-4 -1 -4.5 -1t-4.5 1q-4 -1 -4.5 -1t-4.5 1l-5 -1l-4 1l-5 -1l-5 1q-4 -1 -4.5 -1t-4.5 1q-4 -1 -4.5 -1t-4.5 1q-4 -1 -4.5 -1t-4.5 1q-4 -1 -4.5 -1t-4.5 1q-4 -1 -4.5 -1t-4.5 1l-5 -1l-4 1l-5 -1l-5 1l-4 -1l-5 1q-4 -1 -4.5 -1t-4.5 1
q-4 -1 -4.5 -1t-4.5 1q-4 -1 -4.5 -1t-4.5 1q-4 -1 -4.5 -1t-4.5 1l-5 -1l-4 1l-5 -1l-5 1q-4 -1 -4.5 -1t-4.5 1q-4 -1 -4.5 -1t-4.5 1q-4 -1 -5 -1zM604 351q36 0 62 -25.5t26 -62t-26 -62t-62 -25.5h-5h-4.5h-4.5h-4.5h-4.5h-4.5h-4.5h-4.5h-4.5h-4.5h-4.5h-4.5h-4.5
h-5.5h-4.5h-4.5h-4.5h-4.5h-4.5h-4.5h-4.5h-4.5h-4.5h-4.5h-4.5h-4.5h-5.5h-4.5h-4.5h-4.5h-4.5h-4.5h-4.5h-4.5h-4.5h-4.5h-4.5h-4.5h-4.5h-4.5h-5.5h-4.5h-4.5h-4.5h-4.5h-4.5h-4.5h-4.5h-4.5h-4.5h-4.5h-4.5h-4.5h-4.5h-5.5h-4.5h-4.5h-4.5h-4.5h-4.5h-4.5h-4.5h-4.5
h-4.5h-4.5h-4.5h-4.5h-4.5h-5.5h-4.5h-4.5h-4.5h-4.5h-4.5h-4.5h-4.5h-4.5h-4.5h-4.5h-4.5h-4.5h-5.5h-4.5h-4.5h-4.5h-4.5h-4.5h-4.5h-4.5h-4.5h-4.5h-4.5h-4.5h-4.5h-4.5h-5.5h-4.5h-4.5h-4.5h-4.5h-4.5h-5q-36 0 -61.5 25.5t-25.5 62t25.5 62t61.5 25.5h5h4.5h4.5h4.5
h4.5h5h5h4h5h4.5h4.5h4.5h4.5h4.5h4.5h4.5h4.5h5h4h5h5h4h5h4.5h4.5h4.5h4.5h4.5h4.5h4.5h4.5h5h4h5h5h4h5h4.5h4.5h4.5h4.5h4.5h4.5h4.5h4.5h5h5h4h5h4.5h4.5h4.5h4.5h4.5h4.5h4.5h4.5h5h4h5h5h4h5h4.5h4.5h4.5h4.5h4.5h4.5h4.5h4.5h5h4h5h5h4.5h4.5h4.5h4.5h4.5h4.5h4.5
h4.5h4.5h4.5h5h5h4h5h4.5h4.5h4.5h4.5h4.5h4.5h4.5h4.5h5h4h5h5h4z" />
    <glyph glyph-name="greater" unicode="&#x3e;" horiz-adv-x="567" 
d="M238 146q-2 -1 -7 -3q-3 -2 -8 -4q-26 -15 -56 -15q-49 0 -83 34t-34 83q0 34 18.5 62.5t48.5 42.5q3 2 8 4q3 2 8 4l6 3q-4 2 -6 4q-5 2 -8 4q-5 2 -8 3q-30 14 -48.5 42.5t-18.5 63.5q0 48 34 82.5t83 34.5q30 0 56 -15q5 -2 8 -4q5 -2 7 -4q5 -2 8 -3q5 -2 7 -4
q5 -2 8 -4q5 -2 8 -4q4 -2 7 -3q5 -3 8 -4q4 -2 7 -4q5 -2 8 -4q4 -2 7 -3q5 -3 8 -4q4 -2 7 -4q5 -2 8 -4q5 -2 7 -4q5 -2 8 -3q4 -2 7 -4q5 -2 8 -4q4 -2 7 -4q5 -2 8 -3q4 -2 7 -4q5 -2 8 -4q4 -2 7 -4q5 -2 8 -3q5 -3 8 -4q4 -2 7 -4q5 -2 8 -4q4 -2 7 -3q5 -3 8 -4
q5 -3 7 -4q31 -14 49.5 -42.5t18.5 -63t-18.5 -63t-49.5 -42.5q-3 -2 -7 -4q-3 -2 -8 -4q-2 -1 -7 -4q-3 -1 -8 -3q-3 -2 -7 -4l-8 -4q-3 -1 -8 -4q-2 -1 -7 -3q-3 -2 -8 -4q-2 -2 -7 -4q-3 -2 -8 -4q-2 -1 -7 -3q-3 -2 -8 -4q-2 -2 -7 -4q-3 -2 -8 -4q-3 -1 -7 -4
q-3 -1 -8 -3q-3 -2 -7 -4q-3 -2 -8 -4q-3 -1 -7 -4q-3 -1 -8 -3q-3 -2 -7 -4q-3 -2 -8 -4q-3 -1 -7 -4q-3 -1 -8 -3q-3 -2 -8 -4q-2 -2 -7 -4q-3 -2 -8 -4z" />
    <glyph glyph-name="question" unicode="?" horiz-adv-x="582" 
d="M508 354q-5 -14 -14 -25q-6 -13 -16 -24q-9 -11 -19 -20q-9 -10 -20 -18q-9 -8 -19 -14q-9 -6 -20 -11q-9 -6 -19 -10q-9 -4 -18 -7q-8 -4 -18 -6q-9 -3 -16 -5l-8 -2q50 -35 50 -95q0 -49 -34.5 -83t-82.5 -34t-82.5 34t-34.5 83q0 32 16.5 59.5t44.5 42.5
q-28 15 -44 42t-16 60q0 48 34 82t82 34l1 1h5h2l5 1t6 2l5 1l1.5 0.5t2.5 1.5q1 0 4 1l4 2q1 0 2 0.5t1 1.5l2 1l1 1v0l1 2q1 1 1 1.5v1.5t1 4v1v1.5v0.5v2.5v1.5v1v2v2l-0.5 1t-0.5 1.5t-0.5 1t-0.5 1v1t-0.5 1t-1.5 2.5q0 1 -1 2l-0.5 0.5t-0.5 1t-0.5 1l-1 1l-1 1
l-0.5 0.5l-0.5 0.5t-1.5 0.5l-2 2l-2 1l-0.5 0.5t-1 0.5t-1 0.5t-1 0.5t-1.5 0.5l-1 0.5h-2t-1.5 0.5t-1 0.5h-1h-1h-0.5h-1.5h-0.5h-2h-1t-2 -1h-2.5t-1 -0.5l-0.5 -0.5q-2 0 -3 -1h-1q0 -1 -0.5 -1t-1 -0.5t-1.5 -0.5q-1 -1 -1.5 -1t-1 -1l-0.5 -1q-34 -35 -83 -35t-83 34
t-34 83q0 54 42 89q7 7 15 13q8 7 16 12q9 6 18 11q9 6 18 9q9 5 19 8q9 4 20 7q9 3 20 5q10 2 21 3q10 2 19 2h1.5h0.5h11h11h1q9 0 20 -2q11 -1 21 -4q11 -2 20 -5q11 -3 20 -7q10 -3 19 -8q9 -4 18 -9t17 -11q9 -6 16 -12q9 -6 16 -14q8 -6 14 -14q7 -7 13 -16
q6 -7 12 -16q6 -8 10 -17q6 -9 9 -19q5 -9 8 -19q4 -9 7 -19t4 -21q3 -10 3 -21q2 -10 2 -18v-2.5v-1.5v-10q0 -8 -1 -18v-1q0 -15 -4 -30q-2 -16 -8 -32q-4 -15 -11 -28z" />
    <glyph glyph-name="at" unicode="@" horiz-adv-x="1500" 
d="M1447 265q2 -9 2 -17q0 -15 -5 -31q1 -5 1 -7q0 -19 -7 -38q0 -22 -9 -43q-3 -21 -12 -39q-5 -21 -16 -38q-7 -19 -20 -34q-8 -18 -22 -31q-10 -16 -26 -28q-12 -14 -28 -24q-15 -13 -32 -20q-15 -9 -33 -14q-16 -8 -34 -10q-17 -5 -34 -5h-1.5h-0.5q-10 -2 -18 -2
q-7 0 -16 2h-2h-2q-15 0 -30 4q-18 1 -34 8q-17 4 -32 12q-15 6 -29 16q-16 7 -28 19q-15 9 -27 22q-13 10 -23 24q-13 13 -22 28q-12 14 -19 30q-8 11 -13 23q-4 8 -7 15q-5 8 -8 15q-4 7 -7 14h-2h-7h-7h-6h-7h-7h-6h-7h-7h-7h-6h-7h-7h-7h-6h-7h-7h-6h-7h-7h-7h-6h-7h-7
h-7h-6h-7h-7h-7h-6h-7h-1h-1l-7 -14q-3 -7 -8 -15q-3 -7 -7 -15q-14 -32 -43 -52.5t-65 -20.5q-49 0 -83 34.5t-34 82.5q0 32 16 59q3 7 8 15q3 8 7 15q3 7 8 15q3 8 7 15q3 8 8 15q3 8 7 15q3 7 7 14q2 5 5 10q1 3 3 7q3 7 8 15q3 7 7 15q3 7 8 15q3 7 8 15q3 7 7 15
q3 7 8 15q3 7 7 15q3 7 8 15q3 7 7 15q3 7 8 15q3 7 7 15q3 8 8 15q3 8 7 15q3 8 8 15q3 8 7 15q3 8 8 15q3 8 7 15q3 8 8 16q3 7 7 15q3 7 8 15q3 7 7 15q3 7 8 15q13 32 42.5 52t65.5 20t65.5 -20t42.5 -52q5 -8 8 -15q4 -8 7 -15q5 -8 8 -15q4 -8 7 -15q5 -8 8 -16
q4 -7 7 -15q5 -7 8 -15q4 -7 7 -15q5 -7 8 -15q4 -7 7 -15q5 -7 8 -15q4 -8 7 -15q5 -8 8 -15q4 -8 7 -15q5 -8 8 -15q4 -8 7 -15q5 -8 8 -15q4 -8 7 -15q5 -8 8 -15q5 -8 8 -15q4 -8 7 -15q5 -8 8 -15q2 -4 3 -7q3 -5 5 -10q4 -7 7 -14q4 -7 7 -15q5 -7 8 -15q4 -7 7 -15
q5 -7 8 -15q4 -7 7 -15q5 -8 8 -15q4 -7 6 -13q4 -5 7 -10q3 -4 7 -8q3 -4 7 -8q3 -2 7 -6q4 -2 7 -4q4 -2 7 -4q5 -2 7 -2q1 -1 4 -2h6h1h2h0.5h1h1.5h2l1.5 0.5t2.5 0.5q3 2 4 2q1 1 4 3q2 2 5 4l6 6q3 4 6 9q4 6 7 12q3 8 7 15q2 11 6 20q2 12 6 23q0 14 4 28q-1 6 -1 7
q0 13 3 25q-1 10 -1 17v11q-1 9 -1 16v2.5v2.5q-2 10 -2 20v1q-2 9 -2 19q-3 11 -4 20q-3 10 -4 20q-3 9 -5 19q-4 9 -6 20q-4 8 -7 18q-5 9 -7 18q-5 9 -8 18q-6 9 -9 17q-6 8 -10 18q-6 7 -10 16q-6 7 -11 16q-7 7 -12 16q-7 7 -12 15q-7 6 -13 14q-8 7 -14 14
q-7 6 -14 14l-14 12q-8 6 -15 13q-8 5 -16 11q-8 5 -16 12q-8 4 -16 10q-10 4 -17 9q-9 4 -18 9q-9 4 -17 8q-9 3 -19 8q-9 3 -18 7q-10 2 -20 6q-9 2 -19 5q-10 1 -19 4q-10 1 -20 4q-11 0 -20 2q-10 0 -21 2h-2h-3q-7 0 -15 1h-11h-13q-10 -1 -18 -1h-4h-2q-13 -3 -25 -3
q-12 -3 -24 -3q-12 -4 -24 -5q-11 -5 -22 -6q-12 -6 -24 -8q-10 -5 -21 -8q-11 -6 -22 -10q-10 -6 -21 -10q-10 -7 -21 -12q-9 -7 -19 -12q-9 -8 -19 -14q-9 -8 -19 -14q-8 -9 -17 -16q-8 -9 -17 -16q-7 -9 -16 -17q-7 -9 -15 -18q-6 -9 -14 -18q-6 -10 -14 -19
q-5 -11 -12 -20q-5 -11 -12 -21q-4 -11 -10 -20q-3 -12 -9 -23q-3 -11 -8 -21q-3 -12 -8 -24q-2 -11 -6 -22q-1 -13 -5 -25q0 -12 -3 -23v-0.5v-1.5q0 -12 -2 -23v-7q0 -8 -2 -18q1 -7 1 -13.5v-12.5q1 -10 1 -19v-4v-2q3 -13 3 -26v-1q3 -11 4 -24q4 -12 5 -25q4 -11 6 -23
q5 -12 7 -24q5 -11 8 -22q6 -11 10 -23q6 -10 10 -20q6 -10 11 -22q7 -9 12 -19q8 -9 13 -20q8 -8 14 -17q8 -8 15 -18q8 -7 15 -16q9 -7 16 -16q9 -6 17 -14q9 -6 18 -14q10 -5 19 -13q9 -5 18 -11q11 -5 21 -11q10 -4 20 -10q11 -3 21 -8q12 -3 22 -8q12 -2 22 -6
q12 -2 24 -5q12 -1 23 -4q13 0 25 -3h6q9 0 19 -1h13q48 0 82 -34t34 -82.5t-34 -82.5t-82 -34q-9 0 -19 2q-7 -1 -13 -1q-13 0 -25 3l-2.5 -0.5t-3.5 -0.5q-15 0 -31 5q-18 0 -37 6q-18 1 -35 7q-18 3 -35 10q-18 3 -34 12q-17 4 -33 13q-17 5 -32 15q-16 6 -30 17
q-17 7 -31 18q-15 8 -28 20q-16 8 -28 21q-15 10 -26 23q-15 10 -25 24q-14 11 -24 26q-13 11 -23 26q-13 12 -21 28q-12 13 -19 28q-12 14 -19 31q-10 13 -16 30q-10 15 -16 32q-9 15 -13 32q-9 16 -12 34q-8 16 -11 33q-7 17 -9 36q-6 17 -7 35q-5 17 -5 35v1q-4 15 -4 30
v4v2q-3 13 -3 26q0 6 1 12q-2 10 -2 19t2 18q-1 7 -1 14q0 12 2 24v6q0 15 4 29q0 1 -0.5 1.5l-0.5 0.5q0 18 6 35q1 18 7 35q2 18 9 35q3 18 11 34q3 18 12 34q5 17 14 31q5 18 16 33q6 16 16 30q7 16 19 30q8 16 20 28q8 16 21 28q9 15 23 26q10 15 24 26q10 14 25 24
q11 13 26 23q12 13 27 21q13 13 29 21q14 11 30 18q13 11 30 18q15 10 32 16q14 9 32 14q16 9 33 12q16 8 34 11q17 8 35 10q16 6 34 7q18 6 37 6q15 4 30 4h3.5t2.5 -1q13 3 25 3q6 0 13 -1q10 2 18 2q7 0 15 -1h11q10 0 21 -2q0 1 2 1h3q12 0 25 -3q15 0 30 -4
q16 -1 30 -5q15 -2 29 -7q16 -2 30 -8q14 -2 28 -8q14 -4 28 -11q14 -3 27 -11q13 -4 27 -12q14 -5 26 -13q13 -6 25 -15q14 -6 25 -15q13 -7 24 -17q13 -7 23 -17q13 -8 23 -18q12 -8 22 -20q12 -9 21 -20q11 -9 20 -21q11 -10 19 -22q10 -10 18 -22q10 -11 18 -24
q9 -10 16 -23q9 -11 15 -25q9 -12 15 -26q8 -11 13 -26q8 -13 13 -27q7 -12 11 -27q7 -13 10 -28q6 -13 8 -28q6 -14 8 -29q5 -14 7 -29q4 -14 5 -30q4 -15 4 -30v-1q3 -12 3 -25v-2.5v-2.5q1 -11 1 -20v-12q1 -8 1 -15q0 -12 -3 -25z" />
    <glyph glyph-name="A" unicode="A" 
d="M735 174q15 -27 15 -57q0 -49 -34 -83t-83 -34q-35 0 -63.5 19t-42.5 50q-2 4 -5 9q-2 4 -4 9q-2 4 -5 9l-4 10q-3 4 -5 9q-1 1 -1 2h-2h-1.5h-1.5h-1.5h-2h-2h-1.5h-1.5h-2h-2h-1.5h-1.5h-1.5h-2h-2h-1.5h-1.5h-2h-2h-1.5h-1.5h-1.5h-2h-2h-1.5h-1.5h-2h-2h-1.5h-1.5h-2
h-1.5h-1.5h-2h-1.5h-1.5h-2h-2h-1.5h-1.5h-1.5h-2h-2h-1.5h-1.5h-2h-2h-1.5h-1.5h-2h-2h-1.5h-1.5h-1.5h-2h-2h-1.5h-1.5h-2h-1.5h-1.5h-2h-1.5h-1.5h-2h-2h-1.5h-1.5h-2h-2h-1.5h-1.5h-1.5h-2h-2h-1.5h-1.5h-2h-2h-1.5h-1.5h-1.5h-2h-2h-1.5h-1.5h-2h-2h-1.5h-1.5h-1.5
h-1.5h-2h-2h-1.5h-1.5h-2h-2h-1.5h-1.5h-1.5h-2h-2h-1.5h-1.5h-2h-2h-1.5h-1.5h-1.5h-2h-2h-1.5h-1.5h-2h-2h-1.5h-1.5h-1.5h-2q0 -1 -0.5 -1.5l-0.5 -0.5q-2 -5 -5 -10q-2 -5 -4 -9q-3 -5 -5 -9q-2 -5 -4 -9q-3 -5 -5 -9q-14 -31 -42.5 -50t-63.5 -19q-49 0 -83 34t-34 83
q0 30 15 57q2 5 4 9q3 5 5 9q2 5 5 9q2 5 4 9q2 5 5 9q2 6 4 10q3 5 5 9q2 5 4 9q3 5 5 9q2 5 5 9q2 5 4 9q2 5 5 9q2 5 3 6q1 2 1 4q3 5 5 9q2 5 4 9q3 5 5 9q2 5 5 9q2 5 4 9q2 5 5 10q2 5 4 9q3 5 5 9q2 5 5 9q2 5 4 9q2 5 5 9q2 5 4 9q3 5 5 10t4 9q3 5 5 9q2 5 5 9
q2 5 4 9q2 5 5 9q2 5 4 9q3 5 5 10q2 4 4 9q3 5 5 9q2 5 5 9q2 5 4 9q2 5 5 9l4 10q3 5 5 9q2 5 4 9q3 5 5 9q2 5 5 9q2 5 4 9q2 5 5 9q2 6 4 10q3 5 5 9q2 5 4 9q3 5 5 9q2 5 5 9q14 31 42.5 50t63.5 19t63.5 -19t42.5 -50q3 -4 5 -9q2 -4 5 -9q2 -4 4 -9q3 -5 5 -10
q2 -4 4 -9q3 -4 5 -9q2 -4 4 -9q3 -4 5 -9t5 -9q2 -5 4 -9l5 -10q2 -4 4 -9q3 -4 5 -9q2 -4 4 -9q3 -4 5 -9q3 -5 5 -9q2 -5 4 -9q3 -5 5 -10q2 -4 4 -9q3 -4 5 -9q2 -4 4 -9q3 -4 5 -9q2 -4 5 -9q2 -5 4 -9q3 -5 5 -10q2 -4 4 -9q3 -4 5 -9q2 -4 4 -9q3 -4 5 -9q3 -5 5 -9
l4 -10q3 -4 5 -9q2 -4 4 -9q3 -4 5 -9q2 -4 5 -9q2 -4 4 -9t5 -9q0 -2 1 -4q1 -1 3 -6q2 -4 5 -9q2 -4 4 -9q3 -4 5 -9q2 -4 5 -9q2 -5 4 -9l5 -10q2 -4 4 -9q3 -4 5 -9q2 -4 4 -9q3 -4 5 -9q2 -4 5 -9q2 -5 4 -9z" />
    <glyph glyph-name="A" unicode="a" 
d="M735 174q15 -27 15 -57q0 -49 -34 -83t-83 -34q-35 0 -63.5 19t-42.5 50q-2 4 -5 9q-2 4 -4 9q-2 4 -5 9l-4 10q-3 4 -5 9q-1 1 -1 2h-2h-1.5h-1.5h-1.5h-2h-2h-1.5h-1.5h-2h-2h-1.5h-1.5h-1.5h-2h-2h-1.5h-1.5h-2h-2h-1.5h-1.5h-1.5h-2h-2h-1.5h-1.5h-2h-2h-1.5h-1.5h-2
h-1.5h-1.5h-2h-1.5h-1.5h-2h-2h-1.5h-1.5h-1.5h-2h-2h-1.5h-1.5h-2h-2h-1.5h-1.5h-2h-2h-1.5h-1.5h-1.5h-2h-2h-1.5h-1.5h-2h-1.5h-1.5h-2h-1.5h-1.5h-2h-2h-1.5h-1.5h-2h-2h-1.5h-1.5h-1.5h-2h-2h-1.5h-1.5h-2h-2h-1.5h-1.5h-1.5h-2h-2h-1.5h-1.5h-2h-2h-1.5h-1.5h-1.5
h-1.5h-2h-2h-1.5h-1.5h-2h-2h-1.5h-1.5h-1.5h-2h-2h-1.5h-1.5h-2h-2h-1.5h-1.5h-1.5h-2h-2h-1.5h-1.5h-2h-2h-1.5h-1.5h-1.5h-2q0 -1 -0.5 -1.5l-0.5 -0.5q-2 -5 -5 -10q-2 -5 -4 -9q-3 -5 -5 -9q-2 -5 -4 -9q-3 -5 -5 -9q-14 -31 -42.5 -50t-63.5 -19q-49 0 -83 34t-34 83
q0 30 15 57q2 5 4 9q3 5 5 9q2 5 5 9q2 5 4 9q2 5 5 9q2 6 4 10q3 5 5 9q2 5 4 9q3 5 5 9q2 5 5 9q2 5 4 9q2 5 5 9q2 5 3 6q1 2 1 4q3 5 5 9q2 5 4 9q3 5 5 9q2 5 5 9q2 5 4 9q2 5 5 10q2 5 4 9q3 5 5 9q2 5 5 9q2 5 4 9q2 5 5 9q2 5 4 9q3 5 5 10t4 9q3 5 5 9q2 5 5 9
q2 5 4 9q2 5 5 9q2 5 4 9q3 5 5 10q2 4 4 9q3 5 5 9q2 5 5 9q2 5 4 9q2 5 5 9l4 10q3 5 5 9q2 5 4 9q3 5 5 9q2 5 5 9q2 5 4 9q2 5 5 9q2 6 4 10q3 5 5 9q2 5 4 9q3 5 5 9q2 5 5 9q14 31 42.5 50t63.5 19t63.5 -19t42.5 -50q3 -4 5 -9q2 -4 5 -9q2 -4 4 -9q3 -5 5 -10
q2 -4 4 -9q3 -4 5 -9q2 -4 4 -9q3 -4 5 -9t5 -9q2 -5 4 -9l5 -10q2 -4 4 -9q3 -4 5 -9q2 -4 4 -9q3 -4 5 -9q3 -5 5 -9q2 -5 4 -9q3 -5 5 -10q2 -4 4 -9q3 -4 5 -9q2 -4 4 -9q3 -4 5 -9q2 -4 5 -9q2 -5 4 -9q3 -5 5 -10q2 -4 4 -9q3 -4 5 -9q2 -4 4 -9q3 -4 5 -9q3 -5 5 -9
l4 -10q3 -4 5 -9q2 -4 4 -9q3 -4 5 -9q2 -4 5 -9q2 -4 4 -9t5 -9q0 -2 1 -4q1 -1 3 -6q2 -4 5 -9q2 -4 4 -9q3 -4 5 -9q2 -4 5 -9q2 -5 4 -9l5 -10q2 -4 4 -9q3 -4 5 -9q2 -4 4 -9q3 -4 5 -9q2 -4 5 -9q2 -5 4 -9z" />
    <glyph glyph-name="B" unicode="B" horiz-adv-x="683" 
d="M612 329q8 -14 11 -30q6 -16 7 -33q3 -12 3 -24q0 -3 -1 -8q1 -5 1 -9q0 -12 -3 -25q-1 -16 -7 -32q-4 -16 -11 -30q-6 -15 -16 -29q-8 -15 -19 -26q-10 -13 -22 -23q-11 -11 -26 -20q-13 -10 -27 -16q-14 -8 -30 -12q-11 -4 -21 -6q-5 -1 -11 -2q-5 -1 -6 -1
q-12 -3 -25 -2q-11 -1 -22 -1h-16h-16h-17h-16h-16h-17h-16h-16h-17h-16h-16h-17h-16q-23 -1 -45 6l-1 0.5t-1.5 0.5t-1.5 0.5l-1 0.5q-29 11 -48 34q-3 3 -5 7l-6 8q-15 26 -16 58v0.5v1v1v1.5v7v18v18v18v18v18v18v18v17v18v18v18v18v7v1v1v1v1v7v18v18v18v18v18v18v18v18
v18v18v18v17v7v1.5v1v1v0.5q1 32 16 58l6 8q2 4 5 7q19 23 48 34l1 0.5t1.5 0.5t1.5 0.5l1 0.5q22 7 46 6h16h16h16h17h16h16h17h16h16h17h16h16h17q10 0 20 -1q17 1 33 -3q14 -2 28 -7q1 0 2 -0.5t2 -0.5q6 -2 11 -4q9 -3 18 -8q16 -7 28 -16q14 -8 25 -20q12 -10 22 -23
q11 -11 19 -26q10 -13 16 -28q8 -15 11 -31q6 -16 7 -32q3 -13 3 -25q0 -3 -1 -8q1 -5 1 -9q0 -12 -3 -24q-1 -17 -7 -33q-4 -15 -11 -29q-4 -11 -11 -22q7 -10 11 -21zM355 233h16h17h12v0q-6 0 -13 1q-8 -1 -16 0q-8 -1 -16 0q-8 -1 -17 0q-8 -1 -16 0q-8 -1 -16 0
q-8 -1 -17 0q-4 0 -6 -1h7h16h16h17h16zM306 467h-17h-6q3 -1 7 -1q8 1 16 0q8 1 16 0q8 1 17 0q8 1 16 0q8 1 16 0q8 1 17 0q6 1 12 1v0h-13h-16h-16h-17h-16h-16z" />
    <glyph glyph-name="B" unicode="b" horiz-adv-x="683" 
d="M612 329q8 -14 11 -30q6 -16 7 -33q3 -12 3 -24q0 -3 -1 -8q1 -5 1 -9q0 -12 -3 -25q-1 -16 -7 -32q-4 -16 -11 -30q-6 -15 -16 -29q-8 -15 -19 -26q-10 -13 -22 -23q-11 -11 -26 -20q-13 -10 -27 -16q-14 -8 -30 -12q-11 -4 -21 -6q-5 -1 -11 -2q-5 -1 -6 -1
q-12 -3 -25 -2q-11 -1 -22 -1h-16h-16h-17h-16h-16h-17h-16h-16h-17h-16h-16h-17h-16q-23 -1 -45 6l-1 0.5t-1.5 0.5t-1.5 0.5l-1 0.5q-29 11 -48 34q-3 3 -5 7l-6 8q-15 26 -16 58v0.5v1v1v1.5v7v18v18v18v18v18v18v18v17v18v18v18v18v7v1v1v1v1v7v18v18v18v18v18v18v18v18
v18v18v18v17v7v1.5v1v1v0.5q1 32 16 58l6 8q2 4 5 7q19 23 48 34l1 0.5t1.5 0.5t1.5 0.5l1 0.5q22 7 46 6h16h16h16h17h16h16h17h16h16h17h16h16h17q10 0 20 -1q17 1 33 -3q14 -2 28 -7q1 0 2 -0.5t2 -0.5q6 -2 11 -4q9 -3 18 -8q16 -7 28 -16q14 -8 25 -20q12 -10 22 -23
q11 -11 19 -26q10 -13 16 -28q8 -15 11 -31q6 -16 7 -32q3 -13 3 -25q0 -3 -1 -8q1 -5 1 -9q0 -12 -3 -24q-1 -17 -7 -33q-4 -15 -11 -29q-4 -11 -11 -22q7 -10 11 -21zM355 233h16h17h12v0q-6 0 -13 1q-8 -1 -16 0q-8 -1 -16 0q-8 -1 -17 0q-8 -1 -16 0q-8 -1 -16 0
q-8 -1 -17 0q-4 0 -6 -1h7h16h16h17h16zM306 467h-17h-6q3 -1 7 -1q8 1 16 0q8 1 16 0q8 1 17 0q8 1 16 0q8 1 16 0q8 1 17 0q6 1 12 1v0h-13h-16h-16h-17h-16h-16z" />
    <glyph glyph-name="C" unicode="C" horiz-adv-x="732" 
d="M565 302q48 0 82.5 -34.5t34.5 -82.5q0 -55 -43 -90q-8 -8 -17 -15q-8 -7 -17 -13q-9 -8 -19 -13q-9 -6 -19 -11q-9 -6 -19 -10q-10 -5 -20 -9t-20 -6q-10 -5 -20 -7q-10 -3 -21 -4q-10 -3 -20 -4q-11 -2 -23 -2q-8 -1 -15 -1h-5h-9q-6 0 -13 1h-1q-9 0 -20 2
q-10 0 -20 2q-11 2 -22 5q-10 2 -20 5q-11 3 -20 7q-11 3 -21 8q-10 4 -18 9q-11 5 -20 11q-10 5 -19 12q-9 6 -17 13q-9 6 -18 15q-9 7 -16 16q-8 7 -15 15q-8 9 -14 19q-8 8 -13 18q-6 8 -11 18q-6 9 -11 20q-5 9 -9 19t-7 19q-5 11 -7 22q-3 10 -5 20q-3 11 -4 21
q-2 10 -2 21q-2 10 -2 18l0.5 1t0.5 2q-1 6 -1 11t1 11q0 1 -0.5 2l-0.5 1q0 8 2 18q0 11 2 21q1 10 4 21q2 10 5 20q2 11 7 21q3 10 7 20t9 19q4 11 11 20q5 10 11 18q5 10 13 18q6 10 14 18q7 9 15 16q7 9 16 16q9 9 18 15q8 7 17 13q9 7 19 12q9 6 20 11q8 5 18 9
q10 5 21 8q9 4 20 7q10 3 20 5q10 3 22 5q9 2 20 2q11 2 20 2h1q7 1 13 1q3 0 9 -1q0 1 2 1h3q7 0 15 -1q12 0 23 -3q10 0 20 -3q11 -1 21 -4q10 -2 20 -7q10 -2 20 -6t20 -9q10 -4 19 -10q10 -5 19 -11q10 -5 19 -13q9 -6 17 -13q9 -7 17 -15q43 -35 43 -90
q0 -48 -34.5 -82.5t-82.5 -34.5q-50 0 -85 37q-2 2 -6 5t-6 5q-3 2 -5 3q-2 2 -7 5q-5 2 -7 3t-5 2t-8 3q-5 1 -7 2q-2 0 -6 2q-6 0 -8 1h-6t-8 1h-2.5h-3.5h-1q-2 -1 -7 -1q-5 -1 -8 -1q-2 -1 -5 -1q-3 -1 -8 -2q-5 -2 -7 -3q-2 0 -6 -2t-7 -4l-6 -3t-6 -4t-7 -5
q-3 -3 -5 -4l-5 -5q-4 -4 -6 -7q-3 -3 -4 -5q-1 -1 -4 -5q-3 -5 -5 -8t-3 -5q0 -2 -3 -7q-2 -5 -3 -7q0 -2 -1 -6q-1 -2 -2 -8q-1 -5 -1.5 -6.5t-0.5 -6.5q-1 -5 -1 -8v-2v-1.5v-1.5v-1q0 -2 1 -8v-7q1 -1 2 -6q1 -6 2 -8q1 -3 1 -6q1 -2 3 -7q3 -5 3 -7q1 -2 3 -5t5 -8
q3 -4 4 -5q1 -2 4 -6l6 -6l5 -5t5 -4t7 -6l6 -3l6 -3q3 -2 7 -4l6 -3q2 0 7 -2q6 -1 8 -2q3 -1 5 -1q3 0 8 -1q6 -1 7 -1h1h6h8q3 1 6 1q2 1 8 1q4 1 6 2q2 0 7 2q4 1 8 3q3 1 5 2t7 3q4 3 7 4q2 2 5 4q2 1 6 5q4 3 6 5q35 37 85 37z" />
    <glyph glyph-name="C" unicode="c" horiz-adv-x="732" 
d="M565 302q48 0 82.5 -34.5t34.5 -82.5q0 -55 -43 -90q-8 -8 -17 -15q-8 -7 -17 -13q-9 -8 -19 -13q-9 -6 -19 -11q-9 -6 -19 -10q-10 -5 -20 -9t-20 -6q-10 -5 -20 -7q-10 -3 -21 -4q-10 -3 -20 -4q-11 -2 -23 -2q-8 -1 -15 -1h-5h-9q-6 0 -13 1h-1q-9 0 -20 2
q-10 0 -20 2q-11 2 -22 5q-10 2 -20 5q-11 3 -20 7q-11 3 -21 8q-10 4 -18 9q-11 5 -20 11q-10 5 -19 12q-9 6 -17 13q-9 6 -18 15q-9 7 -16 16q-8 7 -15 15q-8 9 -14 19q-8 8 -13 18q-6 8 -11 18q-6 9 -11 20q-5 9 -9 19t-7 19q-5 11 -7 22q-3 10 -5 20q-3 11 -4 21
q-2 10 -2 21q-2 10 -2 18l0.5 1t0.5 2q-1 6 -1 11t1 11q0 1 -0.5 2l-0.5 1q0 8 2 18q0 11 2 21q1 10 4 21q2 10 5 20q2 11 7 21q3 10 7 20t9 19q4 11 11 20q5 10 11 18q5 10 13 18q6 10 14 18q7 9 15 16q7 9 16 16q9 9 18 15q8 7 17 13q9 7 19 12q9 6 20 11q8 5 18 9
q10 5 21 8q9 4 20 7q10 3 20 5q10 3 22 5q9 2 20 2q11 2 20 2h1q7 1 13 1q3 0 9 -1q0 1 2 1h3q7 0 15 -1q12 0 23 -3q10 0 20 -3q11 -1 21 -4q10 -2 20 -7q10 -2 20 -6t20 -9q10 -4 19 -10q10 -5 19 -11q10 -5 19 -13q9 -6 17 -13q9 -7 17 -15q43 -35 43 -90
q0 -48 -34.5 -82.5t-82.5 -34.5q-50 0 -85 37q-2 2 -6 5t-6 5q-3 2 -5 3q-2 2 -7 5q-5 2 -7 3t-5 2t-8 3q-5 1 -7 2q-2 0 -6 2q-6 0 -8 1h-6t-8 1h-2.5h-3.5h-1q-2 -1 -7 -1q-5 -1 -8 -1q-2 -1 -5 -1q-3 -1 -8 -2q-5 -2 -7 -3q-2 0 -6 -2t-7 -4l-6 -3t-6 -4t-7 -5
q-3 -3 -5 -4l-5 -5q-4 -4 -6 -7q-3 -3 -4 -5q-1 -1 -4 -5q-3 -5 -5 -8t-3 -5q0 -2 -3 -7q-2 -5 -3 -7q0 -2 -1 -6q-1 -2 -2 -8q-1 -5 -1.5 -6.5t-0.5 -6.5q-1 -5 -1 -8v-2v-1.5v-1.5v-1q0 -2 1 -8v-7q1 -1 2 -6q1 -6 2 -8q1 -3 1 -6q1 -2 3 -7q3 -5 3 -7q1 -2 3 -5t5 -8
q3 -4 4 -5q1 -2 4 -6l6 -6l5 -5t5 -4t7 -6l6 -3l6 -3q3 -2 7 -4l6 -3q2 0 7 -2q6 -1 8 -2q3 -1 5 -1q3 0 8 -1q6 -1 7 -1h1h6h8q3 1 6 1q2 1 8 1q4 1 6 2q2 0 7 2q4 1 8 3q3 1 5 2t7 3q4 3 7 4q2 2 5 4q2 1 6 5q4 3 6 5q35 37 85 37z" />
    <glyph glyph-name="D" unicode="D" horiz-adv-x="714" 
d="M597 145q-4 -6 -10 -12q-4 -6 -9 -11q-5 -6 -10 -11q-5 -6 -10 -11q-6 -6 -11 -10q-5 -5 -11 -9q-6 -5 -11 -9q-6 -5 -13 -9q-6 -5 -12 -8q-6 -5 -13 -8q-6 -4 -13 -7q-7 -4 -14 -7q-6 -3 -13 -6t-13 -5q-7 -3 -15 -5q-8 -3 -14 -4q-8 -3 -16 -4q-7 -2 -14 -3
q-8 -2 -16 -3q-7 -1 -15 -1q-9 -1 -16 -1h-1q-5 -1 -9 -1h-2.5h-2.5h-2.5h-3.5h-2.5h-2h-2.5h-3h-2.5h-2h-2.5h-3h-2.5h-2h-2.5h-3h-2.5h-2h-2.5h-3h-3h-2h-2h-3h-3h-2h-2h-3h-3h-2h-2h-3h-3h-2h-2h-3h-3h-2.5h-2h-2.5h-3h-2.5h-2h-2.5h-3h-2.5h-2h-2.5h-3h-2.5h-2h-2.5h-3
h-2.5h-2h-2.5h-3h-2.5h-2h-2.5q-49 0 -83 34t-34 83v2.5v2v2v2.5v2.5v2v2v2.5v2.5v2v2v2.5v2.5v2v2v2.5v2.5v2v2.5v2.5v2v2.5v2.5v2v2.5v2.5v2v2.5v2.5v2v2v2.5v2.5v2v2v2.5v2.5v2v2v2.5v2.5v2v2v2.5v2.5v2.5v2.5v2v2v2.5v2.5v2v2.5v2.5v2v2.5v2.5v2v2v2.5v2.5v2v2v2.5v2.5
v2v2v2.5v2.5v2v2.5v2.5v2v2.5v2.5v2v2.5v2.5v2v2.5v2.5v2v2v2.5v2.5v2v2v2.5v2.5v2v2v2.5v2.5v2v2v2.5v2.5v2v2.5v2.5v2v2.5v2.5v2v2.5v2.5v2v2.5v2.5v2v2v2.5v2.5v2v2v2.5v2.5v2v2v2.5v2.5v2v2v2.5v2.5v2.5v2.5v2v2v2.5v2.5v2.5v2.5v2v2v2.5v2.5v2v2v2.5v2.5v2v2v2.5v2.5v2
v2v2.5v2.5v2v2.5v2.5v2v2.5v2.5v2v2.5v2.5v2v2.5v2.5v2v2v2.5v2.5v2v2v2.5v2.5v2v2v2.5v2.5v2v2v2.5v2.5v2v2.5v2.5v2v2.5v2.5v2v2.5v2.5v2v2.5v2.5v2v2v2.5v2.5v2v2v2.5v2.5v2v2v2.5v2.5v2v2v2.5q0 49 34 83t83 34h2.5h2h2.5h3h2.5h2h2.5h3h2.5h2h2.5h3h2.5h2h2.5h3h2.5h2
h2.5h3h2.5h2h2.5h3h3h2h2h3h3h2h2h3h3h2h2h3h3h2h2h3h3h2.5h2h2.5h3h2.5h2h2.5h3h2.5h2h2.5h3h2.5h2h2.5h4h2h2h3q3 0 9 -1q1 0 1 0.5v0.5q7 0 16 -2q8 0 15 -1q8 -1 16 -3q7 -1 14 -3q8 -1 16 -4q6 -1 14 -4q8 -2 15 -5q6 -2 13 -5t13 -6q7 -3 14 -7q7 -3 13 -7q7 -3 13 -8
q6 -3 12 -8q7 -4 13 -9q5 -4 11 -9q6 -4 11 -9q5 -4 11 -10l10 -10l10 -12q5 -5 9 -11q6 -6 10 -12l8 -12q5 -7 8 -13q4 -6 7 -12q4 -7 7 -13q4 -6 7 -14q3 -7 5 -13q4 -8 6 -15l4 -14q3 -8 4 -15q2 -7 4 -15q2 -7 2 -14q2 -7 2 -16q2 -8 2 -15q1 -7 1 -13v-2v-1v-8v-8v-1
v-2q0 -6 -1 -13q0 -7 -2 -15q0 -9 -2 -16q0 -7 -2 -14q-2 -8 -4 -15q-1 -7 -4 -15l-4 -14t-6 -15q-2 -6 -5 -13q-3 -8 -7 -14q-3 -6 -7 -13q-3 -7 -7 -12q-3 -6 -8 -13zM283 233h2h2h3h2.5h2h2.5h3h2.5h2h2.5h2.5h2.5h2h4v0q1 0 5 1q4 0 5.5 0.5t4.5 0.5q2 0 5 1t4 1
q2 1 6 2l1.5 0.5t2.5 0.5l5 2q4 2 5 2l4 2q3 2 5 3l4 2q1 1 4 3l1.5 1t2 1.5t4.5 3.5t4 4q1 0 3 2l4 4q1 2 3 4q1 1 3 4l3 3q0 1 3 5l1 1t1.5 2l2.5 5q2 5 3 5q0 1 1 4q2 3 2.5 5t1.5 4t2 5t1 4t1 6t1 5.5t1 4.5v6v4v1v2v2v1v4.5v5.5q-1 4 -1 5l-1 5t-1 6t-1 4t-2 5t-1.5 4
t-2.5 5q-1 3 -1 4q-1 1 -3 5q0 1 -1 2.5t-2 2.5q0 1 -1 2l-1 1q-2 4 -3 5l-3 3q-2 3 -3 4q-2 2 -3 4l-4 4l-3 2l-4 4l-4 3q-1 1 -2.5 2l-1.5 1q-3 2 -4 3l-4 2t-5 3l-4 2q-1 0 -5 2t-5 2l-4 1q-5 2 -6 2t-4 1q-3 0 -5 1q-3 0 -5 1h-5q-1 0 -2.5 0.5t-2.5 0.5v0h-4h-2h-2.5
h-2.5h-2.5h-2h-2.5h-3h-2.5h-2h-2.5h-3h-2h-2v-1.5v-1.5v-2.5v-2v-2v-2.5v-2.5v-2v-2v-2.5v-2.5v-2v-2v-2.5v-2.5v-2v-2v-2.5v-2.5v-2v-2.5v-2.5v-2v-2.5v-2.5v-2v-2.5v-2.5v-2v-2.5v-2.5v-2v-2v-2.5v-2.5v-2v-2v-2.5v-2.5v-2v-2v-2.5v-2.5v-2v-2v-2.5v-2.5v-2v-2.5v-2.5v-2
v-2.5v-2.5v-2v-2.5v-2.5v-2v-2.5v-2.5v-2v-2v-2.5v-2.5v-2v-2v-2.5v-2.5v-2v-2v-2.5v-2.5v-2v-2v-2.5v-2.5v-2.5v-2.5v-2v-2v-2.5v-2.5v-2.5v-2.5v-2v-2v-2.5v-2.5v-2v-2v-2.5v-2.5v-2v-2v-2.5v-2.5v-2v-2v-2.5v-2.5v-2v-2.5v-2v-1.5v-1.5z" />
    <glyph glyph-name="D" unicode="d" horiz-adv-x="714" 
d="M597 145q-4 -6 -10 -12q-4 -6 -9 -11q-5 -6 -10 -11q-5 -6 -10 -11q-6 -6 -11 -10q-5 -5 -11 -9q-6 -5 -11 -9q-6 -5 -13 -9q-6 -5 -12 -8q-6 -5 -13 -8q-6 -4 -13 -7q-7 -4 -14 -7q-6 -3 -13 -6t-13 -5q-7 -3 -15 -5q-8 -3 -14 -4q-8 -3 -16 -4q-7 -2 -14 -3
q-8 -2 -16 -3q-7 -1 -15 -1q-9 -1 -16 -1h-1q-5 -1 -9 -1h-2.5h-2.5h-2.5h-3.5h-2.5h-2h-2.5h-3h-2.5h-2h-2.5h-3h-2.5h-2h-2.5h-3h-2.5h-2h-2.5h-3h-3h-2h-2h-3h-3h-2h-2h-3h-3h-2h-2h-3h-3h-2h-2h-3h-3h-2.5h-2h-2.5h-3h-2.5h-2h-2.5h-3h-2.5h-2h-2.5h-3h-2.5h-2h-2.5h-3
h-2.5h-2h-2.5h-3h-2.5h-2h-2.5q-49 0 -83 34t-34 83v2.5v2v2v2.5v2.5v2v2v2.5v2.5v2v2v2.5v2.5v2v2v2.5v2.5v2v2.5v2.5v2v2.5v2.5v2v2.5v2.5v2v2.5v2.5v2v2v2.5v2.5v2v2v2.5v2.5v2v2v2.5v2.5v2v2v2.5v2.5v2.5v2.5v2v2v2.5v2.5v2v2.5v2.5v2v2.5v2.5v2v2v2.5v2.5v2v2v2.5v2.5
v2v2v2.5v2.5v2v2.5v2.5v2v2.5v2.5v2v2.5v2.5v2v2.5v2.5v2v2v2.5v2.5v2v2v2.5v2.5v2v2v2.5v2.5v2v2v2.5v2.5v2v2.5v2.5v2v2.5v2.5v2v2.5v2.5v2v2.5v2.5v2v2v2.5v2.5v2v2v2.5v2.5v2v2v2.5v2.5v2v2v2.5v2.5v2.5v2.5v2v2v2.5v2.5v2.5v2.5v2v2v2.5v2.5v2v2v2.5v2.5v2v2v2.5v2.5v2
v2v2.5v2.5v2v2.5v2.5v2v2.5v2.5v2v2.5v2.5v2v2.5v2.5v2v2v2.5v2.5v2v2v2.5v2.5v2v2v2.5v2.5v2v2v2.5v2.5v2v2.5v2.5v2v2.5v2.5v2v2.5v2.5v2v2.5v2.5v2v2v2.5v2.5v2v2v2.5v2.5v2v2v2.5v2.5v2v2v2.5q0 49 34 83t83 34h2.5h2h2.5h3h2.5h2h2.5h3h2.5h2h2.5h3h2.5h2h2.5h3h2.5h2
h2.5h3h2.5h2h2.5h3h3h2h2h3h3h2h2h3h3h2h2h3h3h2h2h3h3h2.5h2h2.5h3h2.5h2h2.5h3h2.5h2h2.5h3h2.5h2h2.5h4h2h2h3q3 0 9 -1q1 0 1 0.5v0.5q7 0 16 -2q8 0 15 -1q8 -1 16 -3q7 -1 14 -3q8 -1 16 -4q6 -1 14 -4q8 -2 15 -5q6 -2 13 -5t13 -6q7 -3 14 -7q7 -3 13 -7q7 -3 13 -8
q6 -3 12 -8q7 -4 13 -9q5 -4 11 -9q6 -4 11 -9q5 -4 11 -10l10 -10l10 -12q5 -5 9 -11q6 -6 10 -12l8 -12q5 -7 8 -13q4 -6 7 -12q4 -7 7 -13q4 -6 7 -14q3 -7 5 -13q4 -8 6 -15l4 -14q3 -8 4 -15q2 -7 4 -15q2 -7 2 -14q2 -7 2 -16q2 -8 2 -15q1 -7 1 -13v-2v-1v-8v-8v-1
v-2q0 -6 -1 -13q0 -7 -2 -15q0 -9 -2 -16q0 -7 -2 -14q-2 -8 -4 -15q-1 -7 -4 -15l-4 -14t-6 -15q-2 -6 -5 -13q-3 -8 -7 -14q-3 -6 -7 -13q-3 -7 -7 -12q-3 -6 -8 -13zM283 233h2h2h3h2.5h2h2.5h3h2.5h2h2.5h2.5h2.5h2h4v0q1 0 5 1q4 0 5.5 0.5t4.5 0.5q2 0 5 1t4 1
q2 1 6 2l1.5 0.5t2.5 0.5l5 2q4 2 5 2l4 2q3 2 5 3l4 2q1 1 4 3l1.5 1t2 1.5t4.5 3.5t4 4q1 0 3 2l4 4q1 2 3 4q1 1 3 4l3 3q0 1 3 5l1 1t1.5 2l2.5 5q2 5 3 5q0 1 1 4q2 3 2.5 5t1.5 4t2 5t1 4t1 6t1 5.5t1 4.5v6v4v1v2v2v1v4.5v5.5q-1 4 -1 5l-1 5t-1 6t-1 4t-2 5t-1.5 4
t-2.5 5q-1 3 -1 4q-1 1 -3 5q0 1 -1 2.5t-2 2.5q0 1 -1 2l-1 1q-2 4 -3 5l-3 3q-2 3 -3 4q-2 2 -3 4l-4 4l-3 2l-4 4l-4 3q-1 1 -2.5 2l-1.5 1q-3 2 -4 3l-4 2t-5 3l-4 2q-1 0 -5 2t-5 2l-4 1q-5 2 -6 2t-4 1q-3 0 -5 1q-3 0 -5 1h-5q-1 0 -2.5 0.5t-2.5 0.5v0h-4h-2h-2.5
h-2.5h-2.5h-2h-2.5h-3h-2.5h-2h-2.5h-3h-2h-2v-1.5v-1.5v-2.5v-2v-2v-2.5v-2.5v-2v-2v-2.5v-2.5v-2v-2v-2.5v-2.5v-2v-2v-2.5v-2.5v-2v-2.5v-2.5v-2v-2.5v-2.5v-2v-2.5v-2.5v-2v-2.5v-2.5v-2v-2v-2.5v-2.5v-2v-2v-2.5v-2.5v-2v-2v-2.5v-2.5v-2v-2v-2.5v-2.5v-2v-2.5v-2.5v-2
v-2.5v-2.5v-2v-2.5v-2.5v-2v-2.5v-2.5v-2v-2v-2.5v-2.5v-2v-2v-2.5v-2.5v-2v-2v-2.5v-2.5v-2v-2v-2.5v-2.5v-2.5v-2.5v-2v-2v-2.5v-2.5v-2.5v-2.5v-2v-2v-2.5v-2.5v-2v-2v-2.5v-2.5v-2v-2v-2.5v-2.5v-2v-2v-2.5v-2.5v-2v-2.5v-2v-1.5v-1.5z" />
    <glyph glyph-name="E" unicode="E" horiz-adv-x="625" 
d="M575 350q0 -48 -34 -82.5t-83 -34.5q-1 0 -3 0.5t-2.5 0.5t-2.5 -0.5t-3 -0.5t-3 0.5t-2.5 0.5t-2.5 -0.5t-3 -0.5t-3 0.5t-2.5 0.5t-2.5 -0.5t-3 -0.5t-3 0.5t-2.5 0.5t-2.5 -0.5t-3.5 -0.5t-3.5 0.5t-2.5 0.5t-2.5 -0.5t-3 -0.5t-3 0.5t-2.5 0.5t-2.5 -0.5t-3 -0.5
t-3 0.5t-2.5 0.5t-2.5 -0.5t-3 -0.5t-3 0.5t-2.5 0.5t-2.5 -0.5t-3.5 -0.5t-3 0.5t-2.5 0.5t-3 -0.5t-3 -0.5t-3 0.5t-2.5 0.5t-2.5 -0.5t-3 -0.5t-3 0.5t-2.5 0.5t-2.5 -0.5t-3 -0.5t-3 0.5t-2.5 0.5t-2.5 -0.5t-3 -0.5t-3 0.5t-2.5 0.5t-2.5 -0.5t-3.5 -0.5t-3.5 0.5
t-2.5 0.5t-2.5 -0.5t-3 -0.5t-3 0.5t-2.5 0.5t-2.5 -0.5t-3 -0.5t-3 0.5t-3 0.5h-1v-1h3h2.5h2.5h3h2.5h2h2.5h3h3h2h2h3h3h2.5h2h3h3h2h2.5h3h3h2h2h3h3h2.5h2h2.5h3h2.5h2.5h3h2.5h2h2.5h3h3h2.5h2h2.5h3h2.5h2.5h3h2.5h2h2.5h3h3h2h2h3h3h2.5h2h2.5h3h2.5h2.5h3h3h2h2h3
h3h2.5h2h2.5q49 0 83 -34t34 -82.5t-34 -82.5t-83 -34h-2.5h-2h-2.5h-3h-3h-2.5h-2h-2.5h-3h-2.5h-2.5h-3h-2.5h-2h-2.5h-3h-3h-2h-2h-3h-3h-2.5h-2h-2.5h-3h-2.5h-2.5h-3h-2.5h-2h-2.5h-3h-3h-2.5h-2h-2.5h-3h-2.5h-2.5h-3h-2.5h-2h-2.5h-3h-3h-2h-2h-3h-3h-2.5h-2h-3h-3
h-2h-2.5h-3h-2.5h-2h-2.5h-3h-3h-2.5h-2h-2.5h-3h-2.5h-2.5h-3h-2.5h-2h-2.5h-3h-3h-2.5h-2h-2.5h-3h-2.5h-2.5h-3h-2.5h-2h-2.5h-3h-3h-2h-2h-3h-3h-2.5h-2h-2.5h-3h-2.5h-2.5h-3h-2.5h-2h-2.5h-3h-3h-2.5h-2h-2.5h-3h-2.5h-2.5h-3h-2.5h-2h-2.5h-3q-34 0 -62.5 18.5
t-42.5 48.5q-15 26 -15 57v2.5v2v2.5v3v2.5v2.5v2.5v2.5v3v2.5v2v2.5v3v2.5v2.5v3v2.5v2v2.5v3v3v2.5v2v2.5v3v2.5v2.5v3v2.5v2v2.5v3v2.5v2.5v2.5v2.5v3v2.5v2v2.5v3v2.5v2.5v3v2.5v2v2.5v3v3v2.5v2v2.5v3v2.5v2.5v3v2.5v2v2.5v3v3v2.5v2v2.5v3v2.5v2.5v3v2.5v2v2.5v3v2.5
v2.5v2.5v2.5v3v2.5v2v2.5v3v2.5v2.5v3v2.5v2v2.5v3v3v2.5v2v2.5v3v2.5v2.5v3v2.5v2v2.5v3v2.5v2.5v2.5v2.5v3v2.5v2v2.5v3v2.5v2.5v3v2.5v2v2.5v3v3v2.5v2v2.5v3v2.5v2.5v3v2.5v2v2.5v3v3v2.5v2v2.5v3v2.5v2.5v3v2.5v2v2.5v3v2.5v2.5v2.5v2.5v3v2.5v2v2.5v3v2.5v2.5v3v2.5v2
v2.5v3v3v2.5v2v2.5v3v2.5v2.5v3v2.5v2v2.5v3v2.5v2.5v2.5v2.5v3v2.5v2v2.5q0 31 15 57q14 30 42.5 48.5t62.5 18.5h3h2.5h2h2.5h3h2.5h2.5h3h2.5h2h2.5h3h3h2.5h2h2.5h3h2.5h2.5h3h2.5h2h2.5h3h3h2h2h3h3h2.5h2h2.5h3h2.5h2.5h3h2.5h2h2.5h3h3h2.5h2h2.5h3h2.5h2.5h3h2.5h2
h2.5h3h3h2.5h2h2.5h3h2.5h2h3h3h2h2.5h3h3h2h2h3h3h2.5h2h2.5h3h2.5h2.5h3h2.5h2h2.5h3h3h2.5h2h2.5h3h2.5h2.5h3h2.5h2h2.5h3h3h2h2h3h3h2.5h2h2.5h3h2.5h2.5h3h2.5h2h2.5h3h3h2.5h2h2.5q49 0 83 -34t34 -82.5t-34 -82.5t-83 -34h-2.5h-2h-2.5h-3h-3h-2h-2h-3h-3h-2.5h-2.5
h-3h-2.5h-2h-2.5h-3h-3h-2h-2h-3h-3h-2.5h-2h-2.5h-3h-2.5h-2.5h-3h-2.5h-2h-2.5h-3h-3h-2.5h-2h-2.5h-3h-2.5h-2.5h-3h-2.5h-2h-2.5h-3h-3h-2h-2h-3h-3h-2.5h-2h-3h-3h-2h-2.5h-3h-3h-2h-2h-3h-3h-2.5h-2h-2.5h-3h-2.5h-2.5h-3v-1h1t3 0.5t3 0.5t3 -0.5t2.5 -0.5t2.5 0.5
t3 0.5t3.5 -0.5l2.5 -0.5l2 0.5t3.5 0.5t3.5 -0.5t2.5 -0.5t2.5 0.5t3 0.5t3 -0.5t2.5 -0.5t2.5 0.5t3 0.5t3 -0.5t2.5 -0.5t2.5 0.5t3 0.5t3 -0.5t2.5 -0.5t2.5 0.5t3 0.5t3.5 -0.5l2.5 -0.5l2 0.5t3.5 0.5t3.5 -0.5t2.5 -0.5t2.5 0.5t3 0.5t3 -0.5t2.5 -0.5t2.5 0.5t3 0.5
t3 -0.5t2.5 -0.5t2.5 0.5t3 0.5t3.5 -0.5l2.5 -0.5l2 0.5t3.5 0.5t3.5 -0.5l2 -0.5l2.5 0.5t3.5 0.5t3 -0.5t2.5 -0.5t2.5 0.5t3 0.5t3 -0.5t2.5 -0.5t2.5 0.5t3 0.5t3 -0.5t2.5 -0.5t2.5 0.5t3 0.5q49 0 83 -34.5t34 -82.5z" />
    <glyph glyph-name="E" unicode="e" horiz-adv-x="625" 
d="M575 350q0 -48 -34 -82.5t-83 -34.5q-1 0 -3 0.5t-2.5 0.5t-2.5 -0.5t-3 -0.5t-3 0.5t-2.5 0.5t-2.5 -0.5t-3 -0.5t-3 0.5t-2.5 0.5t-2.5 -0.5t-3 -0.5t-3 0.5t-2.5 0.5t-2.5 -0.5t-3.5 -0.5t-3.5 0.5t-2.5 0.5t-2.5 -0.5t-3 -0.5t-3 0.5t-2.5 0.5t-2.5 -0.5t-3 -0.5
t-3 0.5t-2.5 0.5t-2.5 -0.5t-3 -0.5t-3 0.5t-2.5 0.5t-2.5 -0.5t-3.5 -0.5t-3 0.5t-2.5 0.5t-3 -0.5t-3 -0.5t-3 0.5t-2.5 0.5t-2.5 -0.5t-3 -0.5t-3 0.5t-2.5 0.5t-2.5 -0.5t-3 -0.5t-3 0.5t-2.5 0.5t-2.5 -0.5t-3 -0.5t-3 0.5t-2.5 0.5t-2.5 -0.5t-3.5 -0.5t-3.5 0.5
t-2.5 0.5t-2.5 -0.5t-3 -0.5t-3 0.5t-2.5 0.5t-2.5 -0.5t-3 -0.5t-3 0.5t-3 0.5h-1v-1h3h2.5h2.5h3h2.5h2h2.5h3h3h2h2h3h3h2.5h2h3h3h2h2.5h3h3h2h2h3h3h2.5h2h2.5h3h2.5h2.5h3h2.5h2h2.5h3h3h2.5h2h2.5h3h2.5h2.5h3h2.5h2h2.5h3h3h2h2h3h3h2.5h2h2.5h3h2.5h2.5h3h3h2h2h3
h3h2.5h2h2.5q49 0 83 -34t34 -82.5t-34 -82.5t-83 -34h-2.5h-2h-2.5h-3h-3h-2.5h-2h-2.5h-3h-2.5h-2.5h-3h-2.5h-2h-2.5h-3h-3h-2h-2h-3h-3h-2.5h-2h-2.5h-3h-2.5h-2.5h-3h-2.5h-2h-2.5h-3h-3h-2.5h-2h-2.5h-3h-2.5h-2.5h-3h-2.5h-2h-2.5h-3h-3h-2h-2h-3h-3h-2.5h-2h-3h-3
h-2h-2.5h-3h-2.5h-2h-2.5h-3h-3h-2.5h-2h-2.5h-3h-2.5h-2.5h-3h-2.5h-2h-2.5h-3h-3h-2.5h-2h-2.5h-3h-2.5h-2.5h-3h-2.5h-2h-2.5h-3h-3h-2h-2h-3h-3h-2.5h-2h-2.5h-3h-2.5h-2.5h-3h-2.5h-2h-2.5h-3h-3h-2.5h-2h-2.5h-3h-2.5h-2.5h-3h-2.5h-2h-2.5h-3q-34 0 -62.5 18.5
t-42.5 48.5q-15 26 -15 57v2.5v2v2.5v3v2.5v2.5v2.5v2.5v3v2.5v2v2.5v3v2.5v2.5v3v2.5v2v2.5v3v3v2.5v2v2.5v3v2.5v2.5v3v2.5v2v2.5v3v2.5v2.5v2.5v2.5v3v2.5v2v2.5v3v2.5v2.5v3v2.5v2v2.5v3v3v2.5v2v2.5v3v2.5v2.5v3v2.5v2v2.5v3v3v2.5v2v2.5v3v2.5v2.5v3v2.5v2v2.5v3v2.5
v2.5v2.5v2.5v3v2.5v2v2.5v3v2.5v2.5v3v2.5v2v2.5v3v3v2.5v2v2.5v3v2.5v2.5v3v2.5v2v2.5v3v2.5v2.5v2.5v2.5v3v2.5v2v2.5v3v2.5v2.5v3v2.5v2v2.5v3v3v2.5v2v2.5v3v2.5v2.5v3v2.5v2v2.5v3v3v2.5v2v2.5v3v2.5v2.5v3v2.5v2v2.5v3v2.5v2.5v2.5v2.5v3v2.5v2v2.5v3v2.5v2.5v3v2.5v2
v2.5v3v3v2.5v2v2.5v3v2.5v2.5v3v2.5v2v2.5v3v2.5v2.5v2.5v2.5v3v2.5v2v2.5q0 31 15 57q14 30 42.5 48.5t62.5 18.5h3h2.5h2h2.5h3h2.5h2.5h3h2.5h2h2.5h3h3h2.5h2h2.5h3h2.5h2.5h3h2.5h2h2.5h3h3h2h2h3h3h2.5h2h2.5h3h2.5h2.5h3h2.5h2h2.5h3h3h2.5h2h2.5h3h2.5h2.5h3h2.5h2
h2.5h3h3h2.5h2h2.5h3h2.5h2h3h3h2h2.5h3h3h2h2h3h3h2.5h2h2.5h3h2.5h2.5h3h2.5h2h2.5h3h3h2.5h2h2.5h3h2.5h2.5h3h2.5h2h2.5h3h3h2h2h3h3h2.5h2h2.5h3h2.5h2.5h3h2.5h2h2.5h3h3h2.5h2h2.5q49 0 83 -34t34 -82.5t-34 -82.5t-83 -34h-2.5h-2h-2.5h-3h-3h-2h-2h-3h-3h-2.5h-2.5
h-3h-2.5h-2h-2.5h-3h-3h-2h-2h-3h-3h-2.5h-2h-2.5h-3h-2.5h-2.5h-3h-2.5h-2h-2.5h-3h-3h-2.5h-2h-2.5h-3h-2.5h-2.5h-3h-2.5h-2h-2.5h-3h-3h-2h-2h-3h-3h-2.5h-2h-3h-3h-2h-2.5h-3h-3h-2h-2h-3h-3h-2.5h-2h-2.5h-3h-2.5h-2.5h-3v-1h1t3 0.5t3 0.5t3 -0.5t2.5 -0.5t2.5 0.5
t3 0.5t3.5 -0.5l2.5 -0.5l2 0.5t3.5 0.5t3.5 -0.5t2.5 -0.5t2.5 0.5t3 0.5t3 -0.5t2.5 -0.5t2.5 0.5t3 0.5t3 -0.5t2.5 -0.5t2.5 0.5t3 0.5t3 -0.5t2.5 -0.5t2.5 0.5t3 0.5t3.5 -0.5l2.5 -0.5l2 0.5t3.5 0.5t3.5 -0.5t2.5 -0.5t2.5 0.5t3 0.5t3 -0.5t2.5 -0.5t2.5 0.5t3 0.5
t3 -0.5t2.5 -0.5t2.5 0.5t3 0.5t3.5 -0.5l2.5 -0.5l2 0.5t3.5 0.5t3.5 -0.5l2 -0.5l2.5 0.5t3.5 0.5t3 -0.5t2.5 -0.5t2.5 0.5t3 0.5t3 -0.5t2.5 -0.5t2.5 0.5t3 0.5t3 -0.5t2.5 -0.5t2.5 0.5t3 0.5q49 0 83 -34.5t34 -82.5z" />
    <glyph glyph-name="F" unicode="F" horiz-adv-x="625" 
d="M458 470q49 0 83 -34.5t34 -82.5t-34 -82.5t-83 -34.5h-1h-1.5h-1.5h-1.5h-1.5h-1.5h-1.5h-1.5h-1.5h-1h-1h-1.5h-1.5h-1.5h-1.5h-1.5h-1.5h-1.5h-1.5h-1.5h-1.5h-1.5h-1h-1h-1.5h-1.5h-1.5h-1.5h-1.5h-1.5h-1.5h-1.5h-1.5h-1.5h-1.5h-1.5h-1.5h-1h-1h-1.5h-1.5h-1.5
h-1.5h-1.5h-1.5h-1.5h-1.5h-1.5h-1.5h-1.5h-1h-1.5h-1.5h-1h-1.5h-1.5h-1.5h-1.5h-1.5h-1.5h-1.5h-1.5h-1.5h-1.5h-1.5h-1h-1h-1.5h-1.5h-1.5h-1.5h-1.5h-1.5h-1.5h-1.5h-1.5h-1.5h-1.5h-1.5h-1.5h-1h-1h-1.5h-1.5h-1.5h-1.5h-1.5h-1.5h-1.5h-1.5h-1.5h-1.5h-1.5h-1h-1h-1.5
h-1.5h-1.5h-1.5h-1.5h-1.5h-1.5h-1.5h-1.5h-1.5h-1.5h-1.5h-1.5h-1.5h-1h-1h-1.5h-1.5h-1.5h-1.5h-1.5h-1.5h-1.5h-1.5h-1.5h-1.5h-1.5h-0.5v-7v-7.5v-7.5v-7.5v-7.5v-7.5v-7.5v-7.5v-7.5v-7.5v-7.5v-7.5v-7.5v-7.5v-7.5v-7q0 -49 -34 -83t-82.5 -34t-82.5 34t-34 83v7v7.5
v7.5v7.5v7.5v7.5v7.5v7.5v7.5v7.5v7.5v7.5v7.5v7.5v7.5v7.5v7.5v7v7v8v7v7.5v7.5v7.5v7.5v7.5v7.5v7.5v7.5v8v6v6v1v0.5v1.5v7v7.5v7.5v7.5v7.5v7.5v7.5v7.5v7.5v7.5v7.5v7v8v7v7v7.5v7.5v7.5v7.5v7.5v7.5v7.5v7.5v7.5v7.5v7.5v7.5v7.5v7.5v7q0 57 45 93q34 31 80 31h7h7.5
h7.5h7.5h7.5h7.5h7.5h7.5h7.5h7.5h7.5h7.5h7.5h7.5h7.5h7.5h7.5h7h8h7h7h8h7h8h7h8h7h7.5h7.5h7.5h7.5h7.5h7.5h7.5h7.5h7.5h7.5h7q49 0 83 -34t34 -82.5t-34 -82.5t-83 -34h-7h-7.5h-7.5h-7.5h-7.5h-7.5h-7.5h-7.5h-7.5h-7.5h-7.5h-7.5h-7.5h-7.5h-7.5h-7h-8h-7h-7h-8h-7
h-8h-7h-4v-1h0.5t1.5 0.5t1.5 0.5t1.5 -0.5t1.5 -0.5t1.5 0.5t1.5 0.5t1.5 -0.5t1.5 -0.5t1.5 0.5t1.5 0.5t1.5 -0.5l1 -0.5l1 0.5t1.5 0.5t1.5 -0.5t1.5 -0.5t1.5 0.5t1.5 0.5t1.5 -0.5t1.5 -0.5t1.5 0.5t1.5 0.5t1.5 -0.5t1.5 -0.5t1.5 0.5t1.5 0.5t1.5 -0.5l1 -0.5l1 0.5
t1.5 0.5t1.5 -0.5t1.5 -0.5t1.5 0.5t1.5 0.5t1.5 -0.5t1.5 -0.5t1.5 0.5t1.5 0.5t1.5 -0.5l1 -0.5l1 0.5t1.5 0.5t1.5 -0.5t1.5 -0.5t1.5 0.5t1.5 0.5t1.5 -0.5t1.5 -0.5t1.5 0.5t1.5 0.5t1.5 -0.5t1.5 -0.5t1.5 0.5t1.5 0.5t1.5 -0.5l1 -0.5l1 0.5t1.5 0.5t1.5 -0.5
t1.5 -0.5t1.5 0.5t1.5 0.5t1.5 -0.5t1.5 -0.5t1.5 0.5t1.5 0.5t1.5 -0.5l1 -0.5l1 0.5t2 0.5t1.5 -0.5t1 -0.5t1.5 0.5t1.5 0.5t1.5 -0.5t1.5 -0.5t1.5 0.5t1.5 0.5t1.5 -0.5t1.5 -0.5t1.5 0.5t1.5 0.5t1.5 -0.5l1 -0.5l1 0.5t1.5 0.5t1.5 -0.5t1.5 -0.5t1.5 0.5t1.5 0.5
t1.5 -0.5t1.5 -0.5t1.5 0.5t1.5 0.5t1.5 -0.5t1.5 -0.5t1 0.5t1.5 0.5t1.5 -0.5t1 -0.5t1.5 0.5t1.5 0.5t1.5 -0.5t1.5 -0.5t1.5 0.5t1.5 0.5t1.5 -0.5t1.5 -0.5t1.5 0.5t1.5 0.5t1.5 -0.5l1 -0.5l1 0.5t1.5 0.5t1.5 -0.5t1.5 -0.5t1.5 0.5t1.5 0.5t1.5 -0.5t1.5 -0.5
t1.5 0.5z" />
    <glyph glyph-name="F" unicode="f" horiz-adv-x="625" 
d="M458 470q49 0 83 -34.5t34 -82.5t-34 -82.5t-83 -34.5h-1h-1.5h-1.5h-1.5h-1.5h-1.5h-1.5h-1.5h-1.5h-1h-1h-1.5h-1.5h-1.5h-1.5h-1.5h-1.5h-1.5h-1.5h-1.5h-1.5h-1.5h-1h-1h-1.5h-1.5h-1.5h-1.5h-1.5h-1.5h-1.5h-1.5h-1.5h-1.5h-1.5h-1.5h-1.5h-1h-1h-1.5h-1.5h-1.5
h-1.5h-1.5h-1.5h-1.5h-1.5h-1.5h-1.5h-1.5h-1h-1.5h-1.5h-1h-1.5h-1.5h-1.5h-1.5h-1.5h-1.5h-1.5h-1.5h-1.5h-1.5h-1.5h-1h-1h-1.5h-1.5h-1.5h-1.5h-1.5h-1.5h-1.5h-1.5h-1.5h-1.5h-1.5h-1.5h-1.5h-1h-1h-1.5h-1.5h-1.5h-1.5h-1.5h-1.5h-1.5h-1.5h-1.5h-1.5h-1.5h-1h-1h-1.5
h-1.5h-1.5h-1.5h-1.5h-1.5h-1.5h-1.5h-1.5h-1.5h-1.5h-1.5h-1.5h-1.5h-1h-1h-1.5h-1.5h-1.5h-1.5h-1.5h-1.5h-1.5h-1.5h-1.5h-1.5h-1.5h-0.5v-7v-7.5v-7.5v-7.5v-7.5v-7.5v-7.5v-7.5v-7.5v-7.5v-7.5v-7.5v-7.5v-7.5v-7.5v-7q0 -49 -34 -83t-82.5 -34t-82.5 34t-34 83v7v7.5
v7.5v7.5v7.5v7.5v7.5v7.5v7.5v7.5v7.5v7.5v7.5v7.5v7.5v7.5v7.5v7v7v8v7v7.5v7.5v7.5v7.5v7.5v7.5v7.5v7.5v8v6v6v1v0.5v1.5v7v7.5v7.5v7.5v7.5v7.5v7.5v7.5v7.5v7.5v7.5v7v8v7v7v7.5v7.5v7.5v7.5v7.5v7.5v7.5v7.5v7.5v7.5v7.5v7.5v7.5v7.5v7q0 57 45 93q34 31 80 31h7h7.5
h7.5h7.5h7.5h7.5h7.5h7.5h7.5h7.5h7.5h7.5h7.5h7.5h7.5h7.5h7.5h7h8h7h7h8h7h8h7h8h7h7.5h7.5h7.5h7.5h7.5h7.5h7.5h7.5h7.5h7.5h7q49 0 83 -34t34 -82.5t-34 -82.5t-83 -34h-7h-7.5h-7.5h-7.5h-7.5h-7.5h-7.5h-7.5h-7.5h-7.5h-7.5h-7.5h-7.5h-7.5h-7.5h-7h-8h-7h-7h-8h-7
h-8h-7h-4v-1h0.5t1.5 0.5t1.5 0.5t1.5 -0.5t1.5 -0.5t1.5 0.5t1.5 0.5t1.5 -0.5t1.5 -0.5t1.5 0.5t1.5 0.5t1.5 -0.5l1 -0.5l1 0.5t1.5 0.5t1.5 -0.5t1.5 -0.5t1.5 0.5t1.5 0.5t1.5 -0.5t1.5 -0.5t1.5 0.5t1.5 0.5t1.5 -0.5t1.5 -0.5t1.5 0.5t1.5 0.5t1.5 -0.5l1 -0.5l1 0.5
t1.5 0.5t1.5 -0.5t1.5 -0.5t1.5 0.5t1.5 0.5t1.5 -0.5t1.5 -0.5t1.5 0.5t1.5 0.5t1.5 -0.5l1 -0.5l1 0.5t1.5 0.5t1.5 -0.5t1.5 -0.5t1.5 0.5t1.5 0.5t1.5 -0.5t1.5 -0.5t1.5 0.5t1.5 0.5t1.5 -0.5t1.5 -0.5t1.5 0.5t1.5 0.5t1.5 -0.5l1 -0.5l1 0.5t1.5 0.5t1.5 -0.5
t1.5 -0.5t1.5 0.5t1.5 0.5t1.5 -0.5t1.5 -0.5t1.5 0.5t1.5 0.5t1.5 -0.5l1 -0.5l1 0.5t2 0.5t1.5 -0.5t1 -0.5t1.5 0.5t1.5 0.5t1.5 -0.5t1.5 -0.5t1.5 0.5t1.5 0.5t1.5 -0.5t1.5 -0.5t1.5 0.5t1.5 0.5t1.5 -0.5l1 -0.5l1 0.5t1.5 0.5t1.5 -0.5t1.5 -0.5t1.5 0.5t1.5 0.5
t1.5 -0.5t1.5 -0.5t1.5 0.5t1.5 0.5t1.5 -0.5t1.5 -0.5t1 0.5t1.5 0.5t1.5 -0.5t1 -0.5t1.5 0.5t1.5 0.5t1.5 -0.5t1.5 -0.5t1.5 0.5t1.5 0.5t1.5 -0.5t1.5 -0.5t1.5 0.5t1.5 0.5t1.5 -0.5l1 -0.5l1 0.5t1.5 0.5t1.5 -0.5t1.5 -0.5t1.5 0.5t1.5 0.5t1.5 -0.5t1.5 -0.5
t1.5 0.5z" />
    <glyph glyph-name="G" unicode="G" horiz-adv-x="771" 
d="M721 125v-4v-2v-1v-1q0 -56 -25.5 -87.5t-91.5 -29.5q-45 2 -78 31q-7 -3 -13 -5q-7 -3 -15 -5q-8 -3 -15 -4q-7 -2 -16 -4q-8 -2 -15 -2q-7 -2 -16 -3q-8 -1 -15 -1q-8 -1 -16 -1h-16t-16 1q-7 0 -15 1q-9 1 -16 3q-7 0 -15 2l-16 4q-7 1 -15 4q-8 2 -15 5q-7 2 -14 6
q-8 3 -15 6t-14 7q-8 4 -14 8q-7 3 -14 8q-8 4 -14 9t-13 10t-13 11q-6 4 -10 9q-1 0 -1.5 1l-0.5 1q-5 4 -6 6q-2 1 -6 6l-1 0.5t-1 1.5q-5 4 -10 10t-10 13q-6 7 -10 13q-5 7 -9 14q-5 7 -9 14q-4 6 -7 14q-5 8 -7 14q-4 7 -6 15q-4 7 -6 14q-3 7 -5 16q-3 7 -4 14l-4 16
t-3 15l-2 16t-1 15q-1 8 -1 16v16t1 16q0 7 1 15l2 16q1 7 3 15q2 9 4 16q1 7 4 15q2 8 5 15q2 7 6 15q2 8 6 14q2 7 7 15q3 7 7 13q4 7 9 15q4 7 9 13q4 7 10 13q5 7 10 13t10 10q0 1 1 1.5l1 0.5q4 5 6 7q1 1 6 5l0.5 1t1.5 1q4 5 10 10t13 10q7 6 13 10q6 5 14 9
q7 5 14 9q6 4 13 7q8 5 15 7q7 4 15 7q7 3 14 5q7 3 15 5q8 3 15 4q7 2 16 4q8 2 15 3l16 2t15 1q8 1 16 1h16t16 -1q7 0 15 -1l16 -2q7 -1 15 -3q9 -1 16 -4q7 -1 15 -4q8 -2 15 -5q7 -2 14 -5q8 -3 15 -7q7 -2 15 -7q7 -3 13 -7q7 -4 14 -9q8 -4 14 -9q7 -4 13 -10
q7 -5 13 -10t10 -10q1 0 1.5 -1l0.5 -1q5 -4 6 -5q35 -35 35 -83t-34.5 -82.5t-82.5 -34.5t-83 35l-0.5 0.5l-1.5 1.5l-3 3t-5 4q-2 2 -3.5 3l-4.5 3q-1 0 -2.5 1t-2.5 1.5l-5 2.5q0 1 -1.5 1.5t-2.5 0.5q0 1 -5 3q-5 1 -5.5 1.5t-4.5 1.5t-5 2q-1 0 -5 1q-4 0 -5.5 0.5
t-4.5 0.5q-3 1 -5 1h-5h-6h-4q-3 0 -6 -1q-3 0 -4.5 -0.5t-5.5 -0.5l-4.5 -1.5t-5.5 -1.5t-4.5 -1.5t-5.5 -1.5l-2 -1l-3 -1.5t-2.5 -1t-1.5 -1.5q-4 -2 -5 -2q-1 -1 -5 -3q-3 -2 -4 -3t-4 -3t-5 -4l-3 -3l-1.5 -1.5l-1 -1l-1 -1t-1.5 -0.5q-2 -3 -3 -4q-2 -2 -4 -5t-2.5 -4
t-3.5 -4l-2.5 -5t-2.5 -4q0 -1 -1 -2.5t-1 -2.5l-3 -5l-1 -5q-1 -1 -2 -5t-1 -5q-1 0 -2 -5q0 -4 -1 -5v-5q0 -3 -1 -5v-5v-6v-4q1 -3 1 -6q0 -4 0.5 -4.5t0.5 -5.5l1.5 -4.5t1.5 -5.5t2 -5q0 -1 0.5 -3t1 -2t1 -2t1.5 -3l2 -4t3 -5q0 -1 2 -4q2 -4 3 -5t3 -4q3 -3 4 -5
q2 -1 3 -3l1.5 -1.5l1 -1l1 -1l1.5 -1.5l3 -3q2 -1 5 -4q2 -1 4 -3q1 0 4 -3q4 -2 4.5 -2.5t5.5 -2.5l1.5 -1t2.5 -1l5 -3l5 -1q1 -1 2.5 -1.5t2.5 -0.5q5 -1 5.5 -1.5t4.5 -1.5h5q2 -1 5 -1t5 -1h5h6q2 47 36 79t81 32h1.5h2h2h2h2h2h1.5h2h2.5h2h1.5h2h2.5h1.5h1.5h2.5
h2.5h1.5h1.5h2.5h2h1.5h2h2h2h2h2h2h2h2h2h2h2h2h1.5h2h2.5h1.5h1.5h2.5h2.5h1.5h1.5h2.5q43 0 76 -28t39 -71q3 -12 3 -24v-2.5v-2v-1.5v-2v-2.5v-2v-1.5v-2v-2.5v-2v-1.5v-2v-2.5v-2v-1.5v-2v-2v-2.5v-1.5v-1v-3v-2.5v-1.5v-1v-2.5v-2.5v-2v-1v-2.5v-2.5v-1v-2v-2.5v-2
v-1.5v-2v-2.5v-2.5v-1v-2v-2.5v-2.5v-1v-2v-2.5v-2v-1.5v-1v-3v-2.5v-1.5v-1z" />
    <glyph glyph-name="G" unicode="g" horiz-adv-x="771" 
d="M721 125v-4v-2v-1v-1q0 -56 -25.5 -87.5t-91.5 -29.5q-45 2 -78 31q-7 -3 -13 -5q-7 -3 -15 -5q-8 -3 -15 -4q-7 -2 -16 -4q-8 -2 -15 -2q-7 -2 -16 -3q-8 -1 -15 -1q-8 -1 -16 -1h-16t-16 1q-7 0 -15 1q-9 1 -16 3q-7 0 -15 2l-16 4q-7 1 -15 4q-8 2 -15 5q-7 2 -14 6
q-8 3 -15 6t-14 7q-8 4 -14 8q-7 3 -14 8q-8 4 -14 9t-13 10t-13 11q-6 4 -10 9q-1 0 -1.5 1l-0.5 1q-5 4 -6 6q-2 1 -6 6l-1 0.5t-1 1.5q-5 4 -10 10t-10 13q-6 7 -10 13q-5 7 -9 14q-5 7 -9 14q-4 6 -7 14q-5 8 -7 14q-4 7 -6 15q-4 7 -6 14q-3 7 -5 16q-3 7 -4 14l-4 16
t-3 15l-2 16t-1 15q-1 8 -1 16v16t1 16q0 7 1 15l2 16q1 7 3 15q2 9 4 16q1 7 4 15q2 8 5 15q2 7 6 15q2 8 6 14q2 7 7 15q3 7 7 13q4 7 9 15q4 7 9 13q4 7 10 13q5 7 10 13t10 10q0 1 1 1.5l1 0.5q4 5 6 7q1 1 6 5l0.5 1t1.5 1q4 5 10 10t13 10q7 6 13 10q6 5 14 9
q7 5 14 9q6 4 13 7q8 5 15 7q7 4 15 7q7 3 14 5q7 3 15 5q8 3 15 4q7 2 16 4q8 2 15 3l16 2t15 1q8 1 16 1h16t16 -1q7 0 15 -1l16 -2q7 -1 15 -3q9 -1 16 -4q7 -1 15 -4q8 -2 15 -5q7 -2 14 -5q8 -3 15 -7q7 -2 15 -7q7 -3 13 -7q7 -4 14 -9q8 -4 14 -9q7 -4 13 -10
q7 -5 13 -10t10 -10q1 0 1.5 -1l0.5 -1q5 -4 6 -5q35 -35 35 -83t-34.5 -82.5t-82.5 -34.5t-83 35l-0.5 0.5l-1.5 1.5l-3 3t-5 4q-2 2 -3.5 3l-4.5 3q-1 0 -2.5 1t-2.5 1.5l-5 2.5q0 1 -1.5 1.5t-2.5 0.5q0 1 -5 3q-5 1 -5.5 1.5t-4.5 1.5t-5 2q-1 0 -5 1q-4 0 -5.5 0.5
t-4.5 0.5q-3 1 -5 1h-5h-6h-4q-3 0 -6 -1q-3 0 -4.5 -0.5t-5.5 -0.5l-4.5 -1.5t-5.5 -1.5t-4.5 -1.5t-5.5 -1.5l-2 -1l-3 -1.5t-2.5 -1t-1.5 -1.5q-4 -2 -5 -2q-1 -1 -5 -3q-3 -2 -4 -3t-4 -3t-5 -4l-3 -3l-1.5 -1.5l-1 -1l-1 -1t-1.5 -0.5q-2 -3 -3 -4q-2 -2 -4 -5t-2.5 -4
t-3.5 -4l-2.5 -5t-2.5 -4q0 -1 -1 -2.5t-1 -2.5l-3 -5l-1 -5q-1 -1 -2 -5t-1 -5q-1 0 -2 -5q0 -4 -1 -5v-5q0 -3 -1 -5v-5v-6v-4q1 -3 1 -6q0 -4 0.5 -4.5t0.5 -5.5l1.5 -4.5t1.5 -5.5t2 -5q0 -1 0.5 -3t1 -2t1 -2t1.5 -3l2 -4t3 -5q0 -1 2 -4q2 -4 3 -5t3 -4q3 -3 4 -5
q2 -1 3 -3l1.5 -1.5l1 -1l1 -1l1.5 -1.5l3 -3q2 -1 5 -4q2 -1 4 -3q1 0 4 -3q4 -2 4.5 -2.5t5.5 -2.5l1.5 -1t2.5 -1l5 -3l5 -1q1 -1 2.5 -1.5t2.5 -0.5q5 -1 5.5 -1.5t4.5 -1.5h5q2 -1 5 -1t5 -1h5h6q2 47 36 79t81 32h1.5h2h2h2h2h2h1.5h2h2.5h2h1.5h2h2.5h1.5h1.5h2.5
h2.5h1.5h1.5h2.5h2h1.5h2h2h2h2h2h2h2h2h2h2h2h2h1.5h2h2.5h1.5h1.5h2.5h2.5h1.5h1.5h2.5q43 0 76 -28t39 -71q3 -12 3 -24v-2.5v-2v-1.5v-2v-2.5v-2v-1.5v-2v-2.5v-2v-1.5v-2v-2.5v-2v-1.5v-2v-2v-2.5v-1.5v-1v-3v-2.5v-1.5v-1v-2.5v-2.5v-2v-1v-2.5v-2.5v-1v-2v-2.5v-2
v-1.5v-2v-2.5v-2.5v-1v-2v-2.5v-2.5v-1v-2v-2.5v-2v-1.5v-1v-3v-2.5v-1.5v-1z" />
    <glyph glyph-name="H" unicode="H" horiz-adv-x="683" 
d="M633 578.5v-2v-2.5v-2.5v-2v-2v-2.5v-2.5v-2v-2v-2.5v-2.5v-2v-2v-2.5v-2.5v-2v-2.5v-2.5v-2.5v-2v-2v-3v-2.5v-2v-2v-2.5v-2.5v-2v-2v-2.5v-2.5v-2v-2v-2.5v-2.5v-2v-2v-2.5v-2.5v-2v-2v-2.5v-3v-2v-2v-2.5v-2.5v-2.5v-2v-2.5v-2.5v-2v-2v-2.5v-2.5v-2v-2v-2.5v-2.5v-2
v-2v-2.5v-2.5v-2v-2v-2.5v-2.5v-2v-2v-2.5v-3v-2v-2v-2.5v-2.5v-2.5v-2v-2.5v-2.5v-2v-2v-2.5v-2.5v-2v-2v-2.5v-2.5v-2v-2v-2.5v-2.5v-2v-2v-2.5v-2.5v-2v-2.5v-2v-1.5v-1v-1.5v-1v-1v-1.5v-1v-1.5v-2v-2.5v-2v-2.5v-2.5v-2v-2v-2.5v-2.5v-2v-2v-2.5v-2.5v-2v-2v-2.5v-2.5
v-2v-2.5v-2.5v-2.5v-2v-2v-2.5v-2.5v-2.5v-2v-2.5v-2.5v-2v-2v-2.5v-2.5v-2v-2v-2.5v-2.5v-2v-2v-2.5v-2.5v-2v-2v-2.5v-2.5v-2v-2.5v-2.5v-2.5v-2v-2v-2.5v-2.5v-2.5v-2v-2.5v-2.5v-2v-2v-2.5v-2.5v-2v-2v-2.5v-2.5v-2v-2v-2.5v-2.5v-2v-2v-2.5v-2.5v-2v-2.5v-2.5v-2.5v-2
v-2v-2.5v-2.5v-2.5v-2v-2.5v-2.5v-2v-2v-2.5v-2.5v-2v-2v-2.5v-2.5v-2v-2v-2.5v-2.5v-2v-2v-2.5q0 -49 -34 -83t-82.5 -34t-82.5 34t-34 83v2.5v2v2v2.5v2.5v2v2v2.5v2.5v2v2v2.5v2.5v2v2v2.5v2.5v2v2.5v2.5v2v2v2.5v2.5v2.5v2.5v2v2.5v2.5v2v2v2.5v2.5v2v2v2.5v2.5v2v2v2.5
v2.5v2v2v2.5v2.5v2v2.5v2.5v2.5v2v1v2l-2 -0.5t-2.5 -0.5t-6.5 1q-6 -1 -7 -1t-7 1q-6 -1 -6.5 -1t-6.5 1q-6 -1 -7 -1t-7 1q-6 -1 -6.5 -1t-6.5 1q-6 -1 -6.5 -1t-7.5 1q-6 -1 -6.5 -1t-6.5 1q-6 -1 -7 -1t-3.5 0.5l-2.5 0.5q-6 -1 -7 -1t-2.5 0.5t-2.5 0.5v-2v-1v-2.5v-2
v-2.5v-2.5v-2v-2.5v-2.5v-2v-2v-2.5v-2.5v-2v-2v-2.5v-2.5v-2v-2v-2.5v-2.5v-2v-2v-2.5v-2.5v-2v-2.5v-2.5v-2v-2.5v-2.5v-2v-2.5v-2.5v-2v-2.5v-2.5v-2v-2v-2.5v-2.5v-2v-2v-2.5v-2.5v-2v-2v-2.5v-2.5v-2v-2v-2.5q0 -49 -34 -83t-82.5 -34t-82.5 34t-34 83v2.5v2v2v2.5v2.5
v2v2v2.5v2.5v2v2v2.5v2.5v2v2v2.5v2.5v2v2.5v2.5v2v2v2.5v2.5v2.5v2.5v2v2.5v2.5v2v2v2.5v2.5v2v2v2.5v2.5v2v2v2.5v2.5v2v2v2.5v2.5v2v2.5v2.5v2.5v2.5v2v2.5v2.5v2v2v2.5v2.5v2v2v2.5v2.5v2v2v2.5v2.5v2v2v2.5v2.5v2v2v2.5v2.5v2v2.5v2.5v2.5v2.5v2v2.5v2.5v2v2v2.5v2.5v2
v2v2.5v2.5v2v2v2.5v2.5v2v2v2.5v2.5v2v2.5v2v1.5v1v1.5v1v1v1.5v1v1.5v2v2.5v2v2.5v2.5v2v2v2.5v2.5v2v2v2.5v2.5v2v2v2.5v2.5v2v2v2.5v2.5v2v2.5v2.5v2.5v2.5v2v2.5v2.5v2v2v2.5v2.5v2v2v2.5v2.5v2v2v2.5v2.5v2v2v2.5v2.5v2v2v2.5v2.5v2v2.5v2.5v2.5v2.5v2v2.5v2.5v2v2v2.5
v2.5v2v2v2.5v2.5v2v2v2.5v2.5v2v2v2.5v2.5v2v2.5v2.5v2.5v2.5v2v2v2.5v2.5v2v2.5v2.5v2v2v2.5v2.5v2v2v2.5v2.5v2v2v2.5v2.5v2v2v2.5q0 49 34 83t82.5 34t82.5 -34t34 -83v-2.5v-2v-2v-2.5v-2.5v-2v-2v-2.5v-2.5v-2v-2v-2.5v-2.5v-2v-2v-2.5v-2.5v-2v-2.5v-2.5v-2v-2.5v-2.5
v-2v-2.5v-2.5v-2v-2.5v-2.5v-2v-2v-2.5v-2.5v-2v-2v-2.5v-2.5v-2v-2v-2.5v-2.5v-2v-2v-2.5v-2.5v-2v-2.5v-2.5v-2v-2.5v-1v-2q1 0 2.5 0.5t2.5 0.5t7 -1q6 1 6.5 1t6.5 -1q6 1 6.5 1t6.5 -1q7 1 7.5 1t6.5 -1q6 1 6.5 1t6.5 -1q6 1 7 1t7 -1q6 1 6.5 1t6.5 -1q6 1 7 1t7 -1
q6 1 6.5 1t2 -0.5t2.5 -0.5v2v1v2.5v2v2.5v2.5v2v2.5v2.5v2v2v2.5v2.5v2v2v2.5v2.5v2v2v2.5v2.5v2v2v2.5v2.5v2v2.5v2.5v2v2.5v2.5v2v2.5v2.5v2v2.5v2.5v2v2v2.5v2.5v2v2v2.5v2.5v2v2v2.5v2.5v2v2v2.5q0 49 34 83t82.5 34t82.5 -34t34 -83v-2.5v-2z" />
    <glyph glyph-name="H" unicode="h" horiz-adv-x="683" 
d="M633 578.5v-2v-2.5v-2.5v-2v-2v-2.5v-2.5v-2v-2v-2.5v-2.5v-2v-2v-2.5v-2.5v-2v-2.5v-2.5v-2.5v-2v-2v-3v-2.5v-2v-2v-2.5v-2.5v-2v-2v-2.5v-2.5v-2v-2v-2.5v-2.5v-2v-2v-2.5v-2.5v-2v-2v-2.5v-3v-2v-2v-2.5v-2.5v-2.5v-2v-2.5v-2.5v-2v-2v-2.5v-2.5v-2v-2v-2.5v-2.5v-2
v-2v-2.5v-2.5v-2v-2v-2.5v-2.5v-2v-2v-2.5v-3v-2v-2v-2.5v-2.5v-2.5v-2v-2.5v-2.5v-2v-2v-2.5v-2.5v-2v-2v-2.5v-2.5v-2v-2v-2.5v-2.5v-2v-2v-2.5v-2.5v-2v-2.5v-2v-1.5v-1v-1.5v-1v-1v-1.5v-1v-1.5v-2v-2.5v-2v-2.5v-2.5v-2v-2v-2.5v-2.5v-2v-2v-2.5v-2.5v-2v-2v-2.5v-2.5
v-2v-2.5v-2.5v-2.5v-2v-2v-2.5v-2.5v-2.5v-2v-2.5v-2.5v-2v-2v-2.5v-2.5v-2v-2v-2.5v-2.5v-2v-2v-2.5v-2.5v-2v-2v-2.5v-2.5v-2v-2.5v-2.5v-2.5v-2v-2v-2.5v-2.5v-2.5v-2v-2.5v-2.5v-2v-2v-2.5v-2.5v-2v-2v-2.5v-2.5v-2v-2v-2.5v-2.5v-2v-2v-2.5v-2.5v-2v-2.5v-2.5v-2.5v-2
v-2v-2.5v-2.5v-2.5v-2v-2.5v-2.5v-2v-2v-2.5v-2.5v-2v-2v-2.5v-2.5v-2v-2v-2.5v-2.5v-2v-2v-2.5q0 -49 -34 -83t-82.5 -34t-82.5 34t-34 83v2.5v2v2v2.5v2.5v2v2v2.5v2.5v2v2v2.5v2.5v2v2v2.5v2.5v2v2.5v2.5v2v2v2.5v2.5v2.5v2.5v2v2.5v2.5v2v2v2.5v2.5v2v2v2.5v2.5v2v2v2.5
v2.5v2v2v2.5v2.5v2v2.5v2.5v2.5v2v1v2l-2 -0.5t-2.5 -0.5t-6.5 1q-6 -1 -7 -1t-7 1q-6 -1 -6.5 -1t-6.5 1q-6 -1 -7 -1t-7 1q-6 -1 -6.5 -1t-6.5 1q-6 -1 -6.5 -1t-7.5 1q-6 -1 -6.5 -1t-6.5 1q-6 -1 -7 -1t-3.5 0.5l-2.5 0.5q-6 -1 -7 -1t-2.5 0.5t-2.5 0.5v-2v-1v-2.5v-2
v-2.5v-2.5v-2v-2.5v-2.5v-2v-2v-2.5v-2.5v-2v-2v-2.5v-2.5v-2v-2v-2.5v-2.5v-2v-2v-2.5v-2.5v-2v-2.5v-2.5v-2v-2.5v-2.5v-2v-2.5v-2.5v-2v-2.5v-2.5v-2v-2v-2.5v-2.5v-2v-2v-2.5v-2.5v-2v-2v-2.5v-2.5v-2v-2v-2.5q0 -49 -34 -83t-82.5 -34t-82.5 34t-34 83v2.5v2v2v2.5v2.5
v2v2v2.5v2.5v2v2v2.5v2.5v2v2v2.5v2.5v2v2.5v2.5v2v2v2.5v2.5v2.5v2.5v2v2.5v2.5v2v2v2.5v2.5v2v2v2.5v2.5v2v2v2.5v2.5v2v2v2.5v2.5v2v2.5v2.5v2.5v2.5v2v2.5v2.5v2v2v2.5v2.5v2v2v2.5v2.5v2v2v2.5v2.5v2v2v2.5v2.5v2v2v2.5v2.5v2v2.5v2.5v2.5v2.5v2v2.5v2.5v2v2v2.5v2.5v2
v2v2.5v2.5v2v2v2.5v2.5v2v2v2.5v2.5v2v2.5v2v1.5v1v1.5v1v1v1.5v1v1.5v2v2.5v2v2.5v2.5v2v2v2.5v2.5v2v2v2.5v2.5v2v2v2.5v2.5v2v2v2.5v2.5v2v2.5v2.5v2.5v2.5v2v2.5v2.5v2v2v2.5v2.5v2v2v2.5v2.5v2v2v2.5v2.5v2v2v2.5v2.5v2v2v2.5v2.5v2v2.5v2.5v2.5v2.5v2v2.5v2.5v2v2v2.5
v2.5v2v2v2.5v2.5v2v2v2.5v2.5v2v2v2.5v2.5v2v2.5v2.5v2.5v2.5v2v2v2.5v2.5v2v2.5v2.5v2v2v2.5v2.5v2v2v2.5v2.5v2v2v2.5v2.5v2v2v2.5q0 49 34 83t82.5 34t82.5 -34t34 -83v-2.5v-2v-2v-2.5v-2.5v-2v-2v-2.5v-2.5v-2v-2v-2.5v-2.5v-2v-2v-2.5v-2.5v-2v-2.5v-2.5v-2v-2.5v-2.5
v-2v-2.5v-2.5v-2v-2.5v-2.5v-2v-2v-2.5v-2.5v-2v-2v-2.5v-2.5v-2v-2v-2.5v-2.5v-2v-2v-2.5v-2.5v-2v-2.5v-2.5v-2v-2.5v-1v-2q1 0 2.5 0.5t2.5 0.5t7 -1q6 1 6.5 1t6.5 -1q6 1 6.5 1t6.5 -1q7 1 7.5 1t6.5 -1q6 1 6.5 1t6.5 -1q6 1 7 1t7 -1q6 1 6.5 1t6.5 -1q6 1 7 1t7 -1
q6 1 6.5 1t2 -0.5t2.5 -0.5v2v1v2.5v2v2.5v2.5v2v2.5v2.5v2v2v2.5v2.5v2v2v2.5v2.5v2v2v2.5v2.5v2v2v2.5v2.5v2v2.5v2.5v2v2.5v2.5v2v2.5v2.5v2v2.5v2.5v2v2v2.5v2.5v2v2v2.5v2.5v2v2v2.5v2.5v2v2v2.5q0 49 34 83t82.5 34t82.5 -34t34 -83v-2.5v-2z" />
    <glyph glyph-name="I" unicode="I" horiz-adv-x="333" 
d="M283 578.5v-2v-2.5v-2.5v-2v-2v-2.5v-2.5v-2v-2v-2.5v-2.5v-2v-2v-2.5v-2.5v-2.5v-2.5v-2v-2v-2.5v-2.5v-2v-2.5v-2.5v-2v-2.5v-2.5v-2v-2v-2.5v-2.5v-2v-2v-2.5v-2.5v-2v-2v-2.5v-2.5v-2v-2v-2.5v-2.5v-2.5v-2.5v-2v-2v-2.5v-2.5v-2.5v-2.5v-2v-2v-2.5v-2.5v-2v-2v-2.5
v-2.5v-2v-2v-2.5v-2.5v-2v-2v-2.5v-2.5v-2v-2.5v-2.5v-2v-2.5v-2.5v-2v-2.5v-2.5v-2v-2.5v-2.5v-2v-2v-2.5v-2.5v-2v-2v-2.5v-2.5v-2v-2v-2.5v-2.5v-2v-2v-2.5v-2.5v-2v-2.5v-2.5v-2v-2.5v-2.5v-2v-2.5v-2.5v-2v-2.5v-2.5v-2v-2v-2.5v-2.5v-2v-2v-2.5v-2.5v-2v-2v-2.5v-2.5
v-2v-2.5v-2.5v-2v-2.5v-2.5v-2v-2.5v-2.5v-2v-2.5v-2.5v-2v-2v-2.5v-2.5v-2v-2v-2.5v-2.5v-2v-2v-2.5v-2.5v-2v-2v-2.5v-2.5v-2v-2.5v-2.5v-2v-2.5v-2.5v-2v-2.5v-2.5v-2v-2.5v-2.5v-2v-2v-2.5v-2.5v-2v-2v-2.5v-2.5v-2v-2v-2.5v-2.5v-2v-2v-2.5v-2.5v-2v-2.5v-2.5v-2v-2.5
v-2.5v-2v-2.5v-2.5v-2v-2.5v-2.5v-2v-2v-2.5v-2.5v-2v-2v-2.5v-2.5v-2v-2v-2.5v-2.5v-2v-2v-2.5q0 -49 -34 -83t-82.5 -34t-82.5 34t-34 83v2.5v2v2v2.5v2.5v2v2v2.5v2.5v2v2v2.5v2.5v2v2v2.5v2.5v2v2.5v2.5v2v2.5v2.5v2v2.5v2.5v2v2.5v2.5v2v2v2.5v2.5v2v2v2.5v2.5v2v2v2.5
v2.5v2v2v2.5v2.5v2v2.5v2.5v2v2.5v2.5v2v2.5v2.5v2v2.5v2.5v2v2v2.5v2.5v2v2v2.5v2.5v2v2v2.5v2.5v2v2.5v2.5v2v2.5v2.5v2v2.5v2.5v2v2.5v2.5v2v2v2.5v2.5v2v2v2.5v2.5v2v2v2.5v2.5v2v2v2.5v2.5v2v2.5v2.5v2v2.5v2.5v2v2.5v2.5v2v2.5v2.5v2v2v2.5v2.5v2v2v2.5v2.5v2v2v2.5
v2.5v2v2v2.5v2.5v2v2.5v2.5v2v2.5v2.5v2v2.5v2.5v2v2.5v2.5v2v2v2.5v2.5v2v2v2.5v2.5v2v2v2.5v2.5v2v2.5v2.5v2v2.5v2.5v2v2.5v2.5v2v2.5v2.5v2v2v2.5v2.5v2v2v2.5v2.5v2v2v2.5v2.5v2v2v2.5v2.5v2v2.5v2.5v2v2.5v2.5v2v2.5v2.5v2v2.5v2.5v2v2v2.5v2.5v2v2v2.5v2.5v2v2v2.5
v2.5v2v2v2.5q0 49 34 83t82.5 34t82.5 -34t34 -83v-2.5v-2z" />
    <glyph glyph-name="I" unicode="i" horiz-adv-x="333" 
d="M283 578.5v-2v-2.5v-2.5v-2v-2v-2.5v-2.5v-2v-2v-2.5v-2.5v-2v-2v-2.5v-2.5v-2.5v-2.5v-2v-2v-2.5v-2.5v-2v-2.5v-2.5v-2v-2.5v-2.5v-2v-2v-2.5v-2.5v-2v-2v-2.5v-2.5v-2v-2v-2.5v-2.5v-2v-2v-2.5v-2.5v-2.5v-2.5v-2v-2v-2.5v-2.5v-2.5v-2.5v-2v-2v-2.5v-2.5v-2v-2v-2.5
v-2.5v-2v-2v-2.5v-2.5v-2v-2v-2.5v-2.5v-2v-2.5v-2.5v-2v-2.5v-2.5v-2v-2.5v-2.5v-2v-2.5v-2.5v-2v-2v-2.5v-2.5v-2v-2v-2.5v-2.5v-2v-2v-2.5v-2.5v-2v-2v-2.5v-2.5v-2v-2.5v-2.5v-2v-2.5v-2.5v-2v-2.5v-2.5v-2v-2.5v-2.5v-2v-2v-2.5v-2.5v-2v-2v-2.5v-2.5v-2v-2v-2.5v-2.5
v-2v-2.5v-2.5v-2v-2.5v-2.5v-2v-2.5v-2.5v-2v-2.5v-2.5v-2v-2v-2.5v-2.5v-2v-2v-2.5v-2.5v-2v-2v-2.5v-2.5v-2v-2v-2.5v-2.5v-2v-2.5v-2.5v-2v-2.5v-2.5v-2v-2.5v-2.5v-2v-2.5v-2.5v-2v-2v-2.5v-2.5v-2v-2v-2.5v-2.5v-2v-2v-2.5v-2.5v-2v-2v-2.5v-2.5v-2v-2.5v-2.5v-2v-2.5
v-2.5v-2v-2.5v-2.5v-2v-2.5v-2.5v-2v-2v-2.5v-2.5v-2v-2v-2.5v-2.5v-2v-2v-2.5v-2.5v-2v-2v-2.5q0 -49 -34 -83t-82.5 -34t-82.5 34t-34 83v2.5v2v2v2.5v2.5v2v2v2.5v2.5v2v2v2.5v2.5v2v2v2.5v2.5v2v2.5v2.5v2v2.5v2.5v2v2.5v2.5v2v2.5v2.5v2v2v2.5v2.5v2v2v2.5v2.5v2v2v2.5
v2.5v2v2v2.5v2.5v2v2.5v2.5v2v2.5v2.5v2v2.5v2.5v2v2.5v2.5v2v2v2.5v2.5v2v2v2.5v2.5v2v2v2.5v2.5v2v2.5v2.5v2v2.5v2.5v2v2.5v2.5v2v2.5v2.5v2v2v2.5v2.5v2v2v2.5v2.5v2v2v2.5v2.5v2v2v2.5v2.5v2v2.5v2.5v2v2.5v2.5v2v2.5v2.5v2v2.5v2.5v2v2v2.5v2.5v2v2v2.5v2.5v2v2v2.5
v2.5v2v2v2.5v2.5v2v2.5v2.5v2v2.5v2.5v2v2.5v2.5v2v2.5v2.5v2v2v2.5v2.5v2v2v2.5v2.5v2v2v2.5v2.5v2v2.5v2.5v2v2.5v2.5v2v2.5v2.5v2v2.5v2.5v2v2v2.5v2.5v2v2v2.5v2.5v2v2v2.5v2.5v2v2v2.5v2.5v2v2.5v2.5v2v2.5v2.5v2v2.5v2.5v2v2.5v2.5v2v2v2.5v2.5v2v2v2.5v2.5v2v2v2.5
v2.5v2v2v2.5q0 49 34 83t82.5 34t82.5 -34t34 -83v-2.5v-2z" />
    <glyph glyph-name="J" unicode="J" horiz-adv-x="625" 
d="M574 576q1 -6 1 -8q0 -1 -0.5 -2t-0.5 -1.5t0.5 -2t0.5 -2t-0.5 -2t-0.5 -2t0.5 -1.5t0.5 -2t-0.5 -2t-0.5 -1.5t0.5 -2t0.5 -2t-0.5 -2t-0.5 -2t0.5 -2t0.5 -2t-0.5 -2t-0.5 -2t0.5 -1.5t0.5 -2t-0.5 -2t-0.5 -1.5t0.5 -2t0.5 -2t-0.5 -2t-0.5 -2t0.5 -2t0.5 -2t-0.5 -2
t-0.5 -2t0.5 -1.5t0.5 -2t-0.5 -2t-0.5 -1.5t0.5 -2t0.5 -2t-0.5 -2t-0.5 -2t0.5 -2t0.5 -2t-0.5 -2t-0.5 -2t0.5 -1.5t0.5 -2t-0.5 -2t-0.5 -1.5t0.5 -2t0.5 -2t-0.5 -2t-0.5 -2t0.5 -2t0.5 -2t-0.5 -2t-0.5 -2t0.5 -1.5t0.5 -2t-0.5 -2t-0.5 -1.5t0.5 -2t0.5 -2t-0.5 -2
t-0.5 -2t0.5 -2t0.5 -2t-0.5 -2t-0.5 -2t0.5 -1.5t0.5 -2t-0.5 -2t-0.5 -1.5t0.5 -2t0.5 -2t-0.5 -2t-0.5 -2t0.5 -1.5t0.5 -2t-0.5 -2.5l-0.5 -1.5l0.5 -1.5t0.5 -2.5t-0.5 -2t-0.5 -1.5t0.5 -2t0.5 -2t-0.5 -2t-0.5 -2t0.5 -1.5t0.5 -2t-0.5 -2.5l-0.5 -1.5l0.5 -1.5
t0.5 -2.5t-0.5 -2t-0.5 -1.5t0.5 -2t0.5 -2t-0.5 -2t-0.5 -2t0.5 -1.5t0.5 -2t-0.5 -2t-0.5 -1.5t0.5 -2t0.5 -2.5t-0.5 -2t-0.5 -1.5t0.5 -2t0.5 -2t-0.5 -2t-0.5 -2t0.5 -1.5t0.5 -2t-0.5 -2t-0.5 -1.5t0.5 -2t0.5 -2t-0.5 -2t-0.5 -2t0.5 -2t0.5 -2t-0.5 -2t-0.5 -2
t0.5 -1.5t0.5 -2t-0.5 -2t-0.5 -1.5t0.5 -2t0.5 -2t-0.5 -2t-0.5 -2t0.5 -2t0.5 -2t-0.5 -2t-0.5 -2t0.5 -1.5t0.5 -2t-0.5 -2t-0.5 -1.5t0.5 -2t0.5 -2t-0.5 -2t-0.5 -2t0.5 -2t0.5 -2t-0.5 -2t-0.5 -2t0.5 -1.5t0.5 -1.5t-1 -6.5v-1q0 -7 -1 -14q0 -5 -1 -11q0 -8 -2 -15
l-2 -10q-1 -8 -3 -15q-2 -5 -3 -10q-2 -6 -4 -11q-2 -6 -5 -14l-4 -10q-3 -6 -7 -13q-3 -6 -6 -11q-3 -6 -7 -12q-2 -4 -4 -6q-2 -3 -5 -7q-3 -5 -8 -11q-3 -3 -6 -7q-4 -5 -9 -10l-6 -6l-6 -6q-5 -5 -10 -9q-4 -3 -7 -6q-3 -2 -7 -5q-4 -4 -10 -8q-4 -2 -8 -5q-5 -4 -11 -7
q-4 -2 -7 -4t-8 -4q-5 -3 -12 -6q-4 -2 -7 -3t-8 -3q-6 -2 -13 -4q-3 -2 -7 -3q-3 -1 -8 -2q-6 -2 -13 -3l-8 -2l-14 -2q-4 -1 -7 -1q-4 -1 -8 -1q-8 -1 -14 -1h-3h-3h-1h-1h-1.5h-2.5h-2.5h-1.5h-0.5h-1.5q-6 0 -12 1h-8q-4 1 -8 1q-7 1 -13 2q-5 1 -8 2q-4 0 -8 1
q-7 2 -13 4q-5 1 -8 2q-4 1 -8 3q-6 1 -12 4q-5 2 -8 3q-3 2 -7 4q-6 2 -13 6q-3 1 -7 4q-6 3 -11 6q-4 3 -7 5q-4 2 -7 5q-6 4 -11 8q-4 3 -7 5q-3 3 -7 6q-5 4 -10 9q-37 35 -37 86q0 48 34 82t83 34t83 -35q1 0 1.5 -1t1 -1.5t1.5 -1t1.5 -1t1.5 -1l1 -0.5l1 -0.5t1 -1.5
q2 -1 3 -1l1 -0.5t1.5 -0.5t1.5 -0.5t1.5 -1t1.5 -0.5t1.5 -0.5t1.5 -0.5h1.5t1.5 -0.5l1 -0.5h1h1.5t2 -0.5l1.5 -0.5h1h1h1h3h2h3q1 0 1.5 0.5l0.5 0.5h4q0 1 1 1h1q3 1 3.5 1t1 0.5t1 0.5t1.5 0.5t1.5 1t1.5 0.5t1.5 0.5t1.5 1l1 0.5l3 2l1 0.5t1 1t1 1t1.5 1l1.5 1.5
t1 1.5t1 1t1 1.5l2 2l1 1l1 1l0.5 1.5t1.5 2.5t2 3q0 1 2 4q0 1 1 4q0 1 0.5 2.5l0.5 1.5v1v1q1 2 1 3v4v1v2v1.5v2v2v2v2v1.5v2v2.5v1.5v1.5v2.5v2v1.5v2v2v2v2v1.5v2v2v1.5v2v2.5v2v1.5v2v2v2v2v1.5v2v2v1.5v2v2v2v2v2v2v2v2v1.5v2v2v1.5v2v2v2v2v2v2v2v2v1.5v2v2v1.5v2v2
v2v2v2v2v2v2v1.5v2v2v1.5v2v2v2v2v2v2v2v2v1.5v2v2v1.5v2v2v2v2v2v2v2v2v1.5v2v2v1.5v2v2v2v2v1.5v2v2.5v1.5v1.5v2.5v2v1.5v2v2v2v2v1.5v2v2.5v1.5v1.5v2.5v2v1.5v2v2v2v2v1.5v2v2v1.5v2v2.5v2v1.5v2v2v2v2v1.5v2v2v1.5v2v2v2v2v2v2v1.5v2v12t1 13q2 46 35.5 78.5
t80.5 32.5q48 0 82.5 -34t34.5 -83q0 -1 -1 -7z" />
    <glyph glyph-name="J" unicode="j" horiz-adv-x="625" 
d="M574 576q1 -6 1 -8q0 -1 -0.5 -2t-0.5 -1.5t0.5 -2t0.5 -2t-0.5 -2t-0.5 -2t0.5 -1.5t0.5 -2t-0.5 -2t-0.5 -1.5t0.5 -2t0.5 -2t-0.5 -2t-0.5 -2t0.5 -2t0.5 -2t-0.5 -2t-0.5 -2t0.5 -1.5t0.5 -2t-0.5 -2t-0.5 -1.5t0.5 -2t0.5 -2t-0.5 -2t-0.5 -2t0.5 -2t0.5 -2t-0.5 -2
t-0.5 -2t0.5 -1.5t0.5 -2t-0.5 -2t-0.5 -1.5t0.5 -2t0.5 -2t-0.5 -2t-0.5 -2t0.5 -2t0.5 -2t-0.5 -2t-0.5 -2t0.5 -1.5t0.5 -2t-0.5 -2t-0.5 -1.5t0.5 -2t0.5 -2t-0.5 -2t-0.5 -2t0.5 -2t0.5 -2t-0.5 -2t-0.5 -2t0.5 -1.5t0.5 -2t-0.5 -2t-0.5 -1.5t0.5 -2t0.5 -2t-0.5 -2
t-0.5 -2t0.5 -2t0.5 -2t-0.5 -2t-0.5 -2t0.5 -1.5t0.5 -2t-0.5 -2t-0.5 -1.5t0.5 -2t0.5 -2t-0.5 -2t-0.5 -2t0.5 -1.5t0.5 -2t-0.5 -2.5l-0.5 -1.5l0.5 -1.5t0.5 -2.5t-0.5 -2t-0.5 -1.5t0.5 -2t0.5 -2t-0.5 -2t-0.5 -2t0.5 -1.5t0.5 -2t-0.5 -2.5l-0.5 -1.5l0.5 -1.5
t0.5 -2.5t-0.5 -2t-0.5 -1.5t0.5 -2t0.5 -2t-0.5 -2t-0.5 -2t0.5 -1.5t0.5 -2t-0.5 -2t-0.5 -1.5t0.5 -2t0.5 -2.5t-0.5 -2t-0.5 -1.5t0.5 -2t0.5 -2t-0.5 -2t-0.5 -2t0.5 -1.5t0.5 -2t-0.5 -2t-0.5 -1.5t0.5 -2t0.5 -2t-0.5 -2t-0.5 -2t0.5 -2t0.5 -2t-0.5 -2t-0.5 -2
t0.5 -1.5t0.5 -2t-0.5 -2t-0.5 -1.5t0.5 -2t0.5 -2t-0.5 -2t-0.5 -2t0.5 -2t0.5 -2t-0.5 -2t-0.5 -2t0.5 -1.5t0.5 -2t-0.5 -2t-0.5 -1.5t0.5 -2t0.5 -2t-0.5 -2t-0.5 -2t0.5 -2t0.5 -2t-0.5 -2t-0.5 -2t0.5 -1.5t0.5 -1.5t-1 -6.5v-1q0 -7 -1 -14q0 -5 -1 -11q0 -8 -2 -15
l-2 -10q-1 -8 -3 -15q-2 -5 -3 -10q-2 -6 -4 -11q-2 -6 -5 -14l-4 -10q-3 -6 -7 -13q-3 -6 -6 -11q-3 -6 -7 -12q-2 -4 -4 -6q-2 -3 -5 -7q-3 -5 -8 -11q-3 -3 -6 -7q-4 -5 -9 -10l-6 -6l-6 -6q-5 -5 -10 -9q-4 -3 -7 -6q-3 -2 -7 -5q-4 -4 -10 -8q-4 -2 -8 -5q-5 -4 -11 -7
q-4 -2 -7 -4t-8 -4q-5 -3 -12 -6q-4 -2 -7 -3t-8 -3q-6 -2 -13 -4q-3 -2 -7 -3q-3 -1 -8 -2q-6 -2 -13 -3l-8 -2l-14 -2q-4 -1 -7 -1q-4 -1 -8 -1q-8 -1 -14 -1h-3h-3h-1h-1h-1.5h-2.5h-2.5h-1.5h-0.5h-1.5q-6 0 -12 1h-8q-4 1 -8 1q-7 1 -13 2q-5 1 -8 2q-4 0 -8 1
q-7 2 -13 4q-5 1 -8 2q-4 1 -8 3q-6 1 -12 4q-5 2 -8 3q-3 2 -7 4q-6 2 -13 6q-3 1 -7 4q-6 3 -11 6q-4 3 -7 5q-4 2 -7 5q-6 4 -11 8q-4 3 -7 5q-3 3 -7 6q-5 4 -10 9q-37 35 -37 86q0 48 34 82t83 34t83 -35q1 0 1.5 -1t1 -1.5t1.5 -1t1.5 -1t1.5 -1l1 -0.5l1 -0.5t1 -1.5
q2 -1 3 -1l1 -0.5t1.5 -0.5t1.5 -0.5t1.5 -1t1.5 -0.5t1.5 -0.5t1.5 -0.5h1.5t1.5 -0.5l1 -0.5h1h1.5t2 -0.5l1.5 -0.5h1h1h1h3h2h3q1 0 1.5 0.5l0.5 0.5h4q0 1 1 1h1q3 1 3.5 1t1 0.5t1 0.5t1.5 0.5t1.5 1t1.5 0.5t1.5 0.5t1.5 1l1 0.5l3 2l1 0.5t1 1t1 1t1.5 1l1.5 1.5
t1 1.5t1 1t1 1.5l2 2l1 1l1 1l0.5 1.5t1.5 2.5t2 3q0 1 2 4q0 1 1 4q0 1 0.5 2.5l0.5 1.5v1v1q1 2 1 3v4v1v2v1.5v2v2v2v2v1.5v2v2.5v1.5v1.5v2.5v2v1.5v2v2v2v2v1.5v2v2v1.5v2v2.5v2v1.5v2v2v2v2v1.5v2v2v1.5v2v2v2v2v2v2v2v2v1.5v2v2v1.5v2v2v2v2v2v2v2v2v1.5v2v2v1.5v2v2
v2v2v2v2v2v2v1.5v2v2v1.5v2v2v2v2v2v2v2v2v1.5v2v2v1.5v2v2v2v2v2v2v2v2v1.5v2v2v1.5v2v2v2v2v1.5v2v2.5v1.5v1.5v2.5v2v1.5v2v2v2v2v1.5v2v2.5v1.5v1.5v2.5v2v1.5v2v2v2v2v1.5v2v2v1.5v2v2.5v2v1.5v2v2v2v2v1.5v2v2v1.5v2v2v2v2v2v2v1.5v2v12t1 13q2 46 35.5 78.5
t80.5 32.5q48 0 82.5 -34t34.5 -83q0 -1 -1 -7z" />
    <glyph glyph-name="K" unicode="K" horiz-adv-x="683" 
d="M589 208q44 -35 44 -91q0 -49 -34 -83t-82 -34q-49 0 -83 35q-6 4 -10 9q-6 4 -11 9q-5 4 -10 9q-6 5 -10 9q-6 5 -11 9q-5 5 -10 9q-6 5 -10 10q-6 4 -11 9q-5 4 -10 9q-6 4 -10 9q-6 5 -10 9q-6 5 -11 9q-6 5 -10 9q-6 5 -10 10q-3 2 -7 5v-1v-2.5v-2v-2.5v-2.5v-2
v-2.5v-2.5v-2v-2v-2.5v-2.5v-2v-2v-2.5v-2.5v-2v-2v-2.5v-2.5v-2v-2v-2.5q0 -49 -34 -83t-82.5 -34t-82.5 34t-34 83v2.5v2v2v2.5v2.5v2v2v2.5v2.5v2v2v2.5v2.5v2v2v2.5v2.5v2v2.5v2.5v2v2.5v2.5v2v2.5v2.5v2v2.5v2.5v2v2v2.5v2.5v2v2v2.5v2.5v2v2v2.5v2.5v2v2v2.5v2.5v2
v2.5v2.5v2v2.5v2.5v2v2.5v2.5v2v2.5v2.5v2v2v2.5v2.5v2v2v2.5v2.5v2v2v2.5v2.5v2v2.5v2.5v2v2.5v2.5v2v2.5v2.5v2v2.5v2.5v2v2v2.5v2.5v2v2v2.5v2.5v2v2v2.5v2.5v2v2v2.5v2.5v2v2.5v2.5v2v2.5v2.5v2v2.5v2.5v2v2.5v2.5v2v2v2.5v2.5v2v2v2.5v2.5v2v2v2.5v2.5v2v2v2.5v2.5v2
v2.5v2.5v2v2.5v2.5v2v2.5v2.5v2v2.5v2.5v2v2v2.5v2.5v2v2v2.5v2.5v2v2v2.5v2.5v2v2.5v2.5v2v2.5v2.5v2v2.5v2.5v2v2.5v2.5v2v2v2.5v2.5v2v2v2.5v2.5v2v2v2.5v2.5v2v2v2.5v2.5v2v2.5v2.5v2v2.5v2.5v2v2.5v2.5v2v2.5v2.5v2v2v2.5v2.5v2v2v2.5v2.5v2v2v2.5v2.5v2v2v2.5
q0 49 34 83t82.5 34t82.5 -34t34 -83v-2.5v-2v-2v-2.5v-2.5v-2v-2v-2.5v-2.5v-2v-2v-2.5v-2.5v-2v-2v-2.5v-2.5v-2v-2.5v-2.5v-2v-2.5v-1q4 3 7 5q4 5 10 10q5 4 10 9q5 4 11 9q4 5 10 9q5 5 10 9q5 5 10 9q5 5 11 9q4 5 10 10q5 4 10 9q5 4 11 9q4 4 10 9q5 5 10 9
q5 5 11 9q4 5 10 9q34 35 83 35q48 0 82 -34t34 -83q0 -56 -44 -91q-4 -5 -10 -9q-4 -5 -10 -9q-5 -5 -11 -9q-4 -5 -10 -10q-5 -4 -10 -9q-5 -4 -11 -9q-4 -4 -10 -9q-4 -4 -10 -9q-5 -5 -10 -9q-5 -5 -11 -9q-4 -5 -10 -10q-5 -4 -10 -9q-5 -4 -11 -9q-4 -5 -10 -9
q-5 -5 -10 -9l-5 -5l5 -5q6 -4 10 -9q6 -5 10 -9q6 -5 11 -9q6 -5 10 -9q6 -5 10 -10q6 -4 11 -9q5 -4 10 -9q6 -5 10 -9q6 -5 10 -9q6 -5 11 -9q6 -5 10 -9q6 -5 10 -10q6 -4 11 -9q6 -4 10 -9q6 -5 10 -9z" />
    <glyph glyph-name="K" unicode="k" horiz-adv-x="683" 
d="M589 208q44 -35 44 -91q0 -49 -34 -83t-82 -34q-49 0 -83 35q-6 4 -10 9q-6 4 -11 9q-5 4 -10 9q-6 5 -10 9q-6 5 -11 9q-5 5 -10 9q-6 5 -10 10q-6 4 -11 9q-5 4 -10 9q-6 4 -10 9q-6 5 -10 9q-6 5 -11 9q-6 5 -10 9q-6 5 -10 10q-3 2 -7 5v-1v-2.5v-2v-2.5v-2.5v-2
v-2.5v-2.5v-2v-2v-2.5v-2.5v-2v-2v-2.5v-2.5v-2v-2v-2.5v-2.5v-2v-2v-2.5q0 -49 -34 -83t-82.5 -34t-82.5 34t-34 83v2.5v2v2v2.5v2.5v2v2v2.5v2.5v2v2v2.5v2.5v2v2v2.5v2.5v2v2.5v2.5v2v2.5v2.5v2v2.5v2.5v2v2.5v2.5v2v2v2.5v2.5v2v2v2.5v2.5v2v2v2.5v2.5v2v2v2.5v2.5v2
v2.5v2.5v2v2.5v2.5v2v2.5v2.5v2v2.5v2.5v2v2v2.5v2.5v2v2v2.5v2.5v2v2v2.5v2.5v2v2.5v2.5v2v2.5v2.5v2v2.5v2.5v2v2.5v2.5v2v2v2.5v2.5v2v2v2.5v2.5v2v2v2.5v2.5v2v2v2.5v2.5v2v2.5v2.5v2v2.5v2.5v2v2.5v2.5v2v2.5v2.5v2v2v2.5v2.5v2v2v2.5v2.5v2v2v2.5v2.5v2v2v2.5v2.5v2
v2.5v2.5v2v2.5v2.5v2v2.5v2.5v2v2.5v2.5v2v2v2.5v2.5v2v2v2.5v2.5v2v2v2.5v2.5v2v2.5v2.5v2v2.5v2.5v2v2.5v2.5v2v2.5v2.5v2v2v2.5v2.5v2v2v2.5v2.5v2v2v2.5v2.5v2v2v2.5v2.5v2v2.5v2.5v2v2.5v2.5v2v2.5v2.5v2v2.5v2.5v2v2v2.5v2.5v2v2v2.5v2.5v2v2v2.5v2.5v2v2v2.5
q0 49 34 83t82.5 34t82.5 -34t34 -83v-2.5v-2v-2v-2.5v-2.5v-2v-2v-2.5v-2.5v-2v-2v-2.5v-2.5v-2v-2v-2.5v-2.5v-2v-2.5v-2.5v-2v-2.5v-1q4 3 7 5q4 5 10 10q5 4 10 9q5 4 11 9q4 5 10 9q5 5 10 9q5 5 10 9q5 5 11 9q4 5 10 10q5 4 10 9q5 4 11 9q4 4 10 9q5 5 10 9
q5 5 11 9q4 5 10 9q34 35 83 35q48 0 82 -34t34 -83q0 -56 -44 -91q-4 -5 -10 -9q-4 -5 -10 -9q-5 -5 -11 -9q-4 -5 -10 -10q-5 -4 -10 -9q-5 -4 -11 -9q-4 -4 -10 -9q-4 -4 -10 -9q-5 -5 -10 -9q-5 -5 -11 -9q-4 -5 -10 -10q-5 -4 -10 -9q-5 -4 -11 -9q-4 -5 -10 -9
q-5 -5 -10 -9l-5 -5l5 -5q6 -4 10 -9q6 -5 10 -9q6 -5 11 -9q6 -5 10 -9q6 -5 10 -10q6 -4 11 -9q5 -4 10 -9q6 -5 10 -9q6 -5 10 -9q6 -5 11 -9q6 -5 10 -9q6 -5 10 -10q6 -4 11 -9q6 -4 10 -9q6 -5 10 -9z" />
    <glyph glyph-name="L" unicode="L" horiz-adv-x="625" 
d="M458 233q49 0 83 -34t34 -82.5t-34 -82.5t-83 -34h-7h-7.5h-7.5h-7.5h-7.5h-7.5h-7.5h-7.5h-7.5h-7h-7h-7.5h-7.5h-7.5h-7.5h-7.5h-7.5h-7.5h-7.5h-7.5h-7.5h-7.5h-7.5h-7.5h-7.5h-7h-7h-7.5h-7.5h-7.5h-7.5h-7.5h-7.5h-7.5h-7.5h-7.5h-7.5h-7q-37 0 -67 21
q-27 15 -43 42t-16 59v8v7.5v7.5v7v8v7v7v8v7v7.5v7.5v7.5v7.5v7.5v7.5v7.5v7.5v7v8v7v8v7v7v8v7v7.5v7.5v7.5v7.5v7.5v7.5v7.5v7.5v7v8v7v7v8v7v8v7v7.5v7.5v7.5v7.5v7.5v7.5v7v8v7v8v7v7v8v7v7.5v7.5v7.5v7.5v7.5v7.5v7q0 49 34 83t82.5 34t82.5 -34t34 -83v-7v-7.5v-7.5
v-7.5v-7.5v-7v-8v-7v-8v-7v-7v-8v-7v-8v-7v-7.5v-7.5v-7.5v-7.5v-7.5v-7.5v-7v-8v-7v-8v-7v-7v-8v-7v-7.5v-7.5v-7.5v-7.5v-7.5v-7.5v-7.5v-7.5v-7.5v-7.5v-7v-7v-8v-7v-7.5v-7.5v-7.5v-7.5v-1h4h8h7h8h7h7.5h7.5h7h8h7h8h7h8h7h7h8h7h8h7h8h7h7h8h7z" />
    <glyph glyph-name="L" unicode="l" horiz-adv-x="625" 
d="M458 233q49 0 83 -34t34 -82.5t-34 -82.5t-83 -34h-7h-7.5h-7.5h-7.5h-7.5h-7.5h-7.5h-7.5h-7.5h-7h-7h-7.5h-7.5h-7.5h-7.5h-7.5h-7.5h-7.5h-7.5h-7.5h-7.5h-7.5h-7.5h-7.5h-7.5h-7h-7h-7.5h-7.5h-7.5h-7.5h-7.5h-7.5h-7.5h-7.5h-7.5h-7.5h-7q-37 0 -67 21
q-27 15 -43 42t-16 59v8v7.5v7.5v7v8v7v7v8v7v7.5v7.5v7.5v7.5v7.5v7.5v7.5v7.5v7v8v7v8v7v7v8v7v7.5v7.5v7.5v7.5v7.5v7.5v7.5v7.5v7v8v7v7v8v7v8v7v7.5v7.5v7.5v7.5v7.5v7.5v7v8v7v8v7v7v8v7v7.5v7.5v7.5v7.5v7.5v7.5v7q0 49 34 83t82.5 34t82.5 -34t34 -83v-7v-7.5v-7.5
v-7.5v-7.5v-7v-8v-7v-8v-7v-7v-8v-7v-8v-7v-7.5v-7.5v-7.5v-7.5v-7.5v-7.5v-7v-8v-7v-8v-7v-7v-8v-7v-7.5v-7.5v-7.5v-7.5v-7.5v-7.5v-7.5v-7.5v-7.5v-7.5v-7v-7v-8v-7v-7.5v-7.5v-7.5v-7.5v-1h4h8h7h8h7h7.5h7.5h7h8h7h8h7h8h7h7h8h7h8h7h8h7h7h8h7z" />
    <glyph glyph-name="M" unicode="M" horiz-adv-x="1091" 
d="M1030 167q13 -26 11.5 -55.5t-16.5 -54.5q-19 -32 -52.5 -47t-69.5 -8q-33 6 -57 29t-33 54q-4 9 -7 18q-4 9 -7 18q-4 9 -6 18q-4 9 -7 18q-4 9 -7 18q-4 9 -7 18q-4 8 -6 18q-4 9 -7 18q-4 8 -7 18q-4 8 -7 18q-2 4 -3 9q-3 -8 -7 -16l-8 -18q-3 -9 -8 -18
q-3 -9 -8 -18q-3 -9 -8 -17q-3 -10 -8 -18q-3 -10 -8 -18q-3 -10 -7 -18q-3 -10 -8 -18q-3 -10 -8 -18q-3 -9 -8 -18q-4 -12 -10 -22q-19 -32 -53 -47t-70 -8q-30 6 -54 27t-34 51q-4 8 -7 18q-5 8 -8 18q-5 8 -8 18q-5 8 -8 18q-5 8 -8 17q-5 9 -8 18l-8 18t-7 18
q-5 9 -8 18q-5 9 -8 18q-4 8 -7 15q-2 -6 -4 -10q-3 -10 -7 -18q-3 -10 -7 -18q-2 -9 -6 -18q-3 -9 -7 -18q-3 -9 -7 -18q-2 -9 -6 -18q-3 -9 -7 -18q-3 -9 -7 -18q-3 -9 -7 -18q-2 -9 -6 -18q-5 -15 -12 -27q-19 -32 -53 -47t-70 -8q-40 8 -67 40.5t-27 74.5q0 25 11 49
q3 9 7 18q3 9 7 18q2 9 6 18q3 9 7 18q3 9 7 18q2 9 6 18q3 9 7 18q3 9 7 18q3 9 7 18q2 9 6 17q3 10 7 18q3 10 7 18q3 10 7 18q2 10 6 18q3 10 7 18q3 10 7 18q3 10 7 18q2 10 6 18q3 9 7 18q3 9 7 18q2 9 6 18q3 9 7 18q3 9 7 18q3 9 7 18q2 9 6 18q8 26 27 47t45 31
q35 12 71 2.5t59 -37.5q14 -16 21 -37q4 -8 8 -18q4 -8 7 -18q5 -8 8 -18q5 -8 8 -18q5 -8 8 -17q5 -9 8 -18l8 -18t7 -18q5 -9 8 -18q5 -9 8 -18q5 -9 8 -18q5 -9 8 -18l6 12q3 9 8 18q3 9 8 17q3 10 7 18q3 9 8 18q3 9 8 17q3 10 8 18q3 9 7 17q3 10 8 18q3 9 8 18
q3 9 8 17q3 9 8 18q11 37 49 56.5t81.5 15t71.5 -32.5q17 -16 23 -40q4 -9 7 -18q4 -8 6 -18q4 -8 7 -18q4 -8 7 -17q4 -9 6 -18q5 -8 7 -18q4 -8 7 -18q4 -8 6 -17q5 -9 7 -18q4 -8 7 -18q4 -8 6 -18q5 -8 7 -17q4 -9 7 -18q4 -8 7 -18q4 -8 6 -18q4 -8 7 -17q4 -9 7 -18
q4 -8 6 -18q4 -8 7 -18q4 -8 7 -17q4 -9 6 -18q4 -8 7 -18q4 -8 7 -17q4 -9 6 -18q4 -9 7 -18z" />
    <glyph glyph-name="M" unicode="m" horiz-adv-x="1091" 
d="M1030 167q13 -26 11.5 -55.5t-16.5 -54.5q-19 -32 -52.5 -47t-69.5 -8q-33 6 -57 29t-33 54q-4 9 -7 18q-4 9 -7 18q-4 9 -6 18q-4 9 -7 18q-4 9 -7 18q-4 9 -7 18q-4 8 -6 18q-4 9 -7 18q-4 8 -7 18q-4 8 -7 18q-2 4 -3 9q-3 -8 -7 -16l-8 -18q-3 -9 -8 -18
q-3 -9 -8 -18q-3 -9 -8 -17q-3 -10 -8 -18q-3 -10 -8 -18q-3 -10 -7 -18q-3 -10 -8 -18q-3 -10 -8 -18q-3 -9 -8 -18q-4 -12 -10 -22q-19 -32 -53 -47t-70 -8q-30 6 -54 27t-34 51q-4 8 -7 18q-5 8 -8 18q-5 8 -8 18q-5 8 -8 18q-5 8 -8 17q-5 9 -8 18l-8 18t-7 18
q-5 9 -8 18q-5 9 -8 18q-4 8 -7 15q-2 -6 -4 -10q-3 -10 -7 -18q-3 -10 -7 -18q-2 -9 -6 -18q-3 -9 -7 -18q-3 -9 -7 -18q-2 -9 -6 -18q-3 -9 -7 -18q-3 -9 -7 -18q-3 -9 -7 -18q-2 -9 -6 -18q-5 -15 -12 -27q-19 -32 -53 -47t-70 -8q-40 8 -67 40.5t-27 74.5q0 25 11 49
q3 9 7 18q3 9 7 18q2 9 6 18q3 9 7 18q3 9 7 18q2 9 6 18q3 9 7 18q3 9 7 18q3 9 7 18q2 9 6 17q3 10 7 18q3 10 7 18q3 10 7 18q2 10 6 18q3 10 7 18q3 10 7 18q3 10 7 18q2 10 6 18q3 9 7 18q3 9 7 18q2 9 6 18q3 9 7 18q3 9 7 18q3 9 7 18q2 9 6 18q8 26 27 47t45 31
q35 12 71 2.5t59 -37.5q14 -16 21 -37q4 -8 8 -18q4 -8 7 -18q5 -8 8 -18q5 -8 8 -18q5 -8 8 -17q5 -9 8 -18l8 -18t7 -18q5 -9 8 -18q5 -9 8 -18q5 -9 8 -18q5 -9 8 -18l6 12q3 9 8 18q3 9 8 17q3 10 7 18q3 9 8 18q3 9 8 17q3 10 8 18q3 9 7 17q3 10 8 18q3 9 8 18
q3 9 8 17q3 9 8 18q11 37 49 56.5t81.5 15t71.5 -32.5q17 -16 23 -40q4 -9 7 -18q4 -8 6 -18q4 -8 7 -18q4 -8 7 -17q4 -9 6 -18q5 -8 7 -18q4 -8 7 -18q4 -8 6 -17q5 -9 7 -18q4 -8 7 -18q4 -8 6 -18q5 -8 7 -17q4 -9 7 -18q4 -8 7 -18q4 -8 6 -18q4 -8 7 -17q4 -9 7 -18
q4 -8 6 -18q4 -8 7 -18q4 -8 7 -17q4 -9 6 -18q4 -8 7 -18q4 -8 7 -17q4 -9 6 -18q4 -9 7 -18z" />
    <glyph glyph-name="N" unicode="N" horiz-adv-x="730" 
d="M680 577.5v-2.5v-3v-3v-2.5v-2.5v-3.5v-3.5v-2.5v-2.5v-3v-3v-2.5v-2.5v-3v-3.5v-2.5v-2v-3.5v-3.5v-2.5v-2.5v-3v-3v-2.5v-2.5v-3v-3.5v-2.5v-2.5v-3.5v-3v-2.5v-2.5v-3v-3v-2.5v-2.5v-3.5v-3.5v-2.5v-2.5v-3v-3v-2.5v-2.5v-3v-3.5v-2.5v-2.5v-3.5v-3v-2.5v-2.5v-3v-3
v-2.5v-2.5v-3.5v-3.5v-2v-2.5v-3.5v-3v-2.5v-2.5v-3v-3v-2.5v-2.5v-3.5v-3.5v-2.5v-2.5v-3v-3v-2.5v-2.5v-3v-3.5v-2.5v-2.5v-3.5v-3v-2.5v-2.5v-3v-3v-2.5v-2.5v-3.5v-3.5v-2.5v-2.5v-3v-3v-2.5v-2.5v-3v-3.5v-2.5v-2v-3.5v-3.5v-2.5v-2.5v-3v-3v-2.5v-2.5v-3v-3.5v-2.5
v-2.5v-3.5v-3v-2.5v-2.5v-3v-3v-2.5v-2.5v-3.5v-3.5v-2.5v-2.5v-3v-3v-2.5v-2.5v-3v-3.5v-2.5v-2.5v-3.5v-3v-2.5v-2.5v-3v-3v-2.5v-2.5v-3.5v-3.5v-2v-2.5v-3.5v-3v-2.5v-2.5v-3v-3v-2.5v-2.5v-3.5v-3.5v-2.5v-2.5v-3v-3v-2.5v-2.5v-3q0 -49 -34 -83t-83 -34q-58 0 -93 47
q-5 5 -9 11q-5 5 -10 11q-5 5 -10 12q-5 5 -9 11q-5 5 -10 12q-5 5 -10 11q-5 5 -10 11q-4 5 -9 12q-5 5 -10 11q-5 5 -10 11t-9 12q-5 5 -10 11q-5 5 -10 12q-4 5 -9 11q-5 5 -10 11q-5 5 -10 12q-4 5 -9 11q-5 5 -10 12q-5 4 -10 11l-3 3v-1.5v-5.5v-5.5v-5.5v-6v-6v-5.5
v-5.5v-6v-6v-5.5v-5.5v-5.5v-5.5v-6v-6v-5.5v-5.5v-5.5v-5.5v-6v-6v-5.5v-5.5v-6v-6v-5q0 -49 -34 -83t-82.5 -34t-82.5 34t-34 83v3v2v3v3v4v2v2v3.5v3.5v2v2.5v3.5v4v2v2v3v4v2v2v3.5v3.5v2v2.5v3.5v4v2v2v3.5v3.5v2v2.5v3.5v3v2v3v3v4v2v2v3.5v3.5v2v2.5v3.5v4v2v2v3.5
v3.5v2v2.5v3.5v3v2v2.5v3.5v4v2v2v3.5v3.5v2v2.5v3.5v4v1v3v3v4v2v2v3.5v3.5v2v2.5v3.5v4v2v2v3.5v3.5v2v2.5v3.5v3v2v3v3v4v2v2v3.5v3.5v2v2.5v3.5v4v2v2v3v4v2v2v3.5v3.5v2v2.5v3.5v4v2v2v3.5v3.5v2v2.5v3.5v4v1v3v3v4v2v2v3.5v3.5v2v2.5v3.5v4v2v2v3.5v3.5v2v2.5v3.5v3v2
v3v3v4v2v2v3.5v3.5v2v2.5v3.5v4v1v3v3v3.5v2.5v2v3.5v3.5v2.5v2.5v3v3v2.5v2.5v3q0 49 34 83t83 34q58 0 93 -47q5 -5 9 -11q5 -5 10 -11q5 -5 10 -12q5 -5 10 -11q4 -5 9 -12q5 -5 10 -11q5 -5 10 -11q4 -5 9 -12q5 -5 10 -11q5 -5 10 -11q4 -5 9 -12q5 -5 10 -11
q5 -5 10 -12q4 -5 9 -11q5 -5 10 -11q5 -5 10 -12q4 -5 9 -11q5 -5 10 -11q5 -5 10 -12l3 -3v1v4v2v2.5v3.5v3v2.5v2.5v3v3v2.5v2.5v3.5v3.5v2.5v2.5v3v3v2.5v2.5v3v3.5v2.5v2.5v3.5v3v2.5v2.5v3v3v2.5v2.5v3.5v3.5v2.5v2.5v3v3v2.5v2.5v3v3.5v2.5v2v3.5v3.5v2v6v6v5
q0 49 34 83t82.5 34t82.5 -34t34 -83v-3v-2.5z" />
    <glyph glyph-name="N" unicode="n" horiz-adv-x="730" 
d="M680 577.5v-2.5v-3v-3v-2.5v-2.5v-3.5v-3.5v-2.5v-2.5v-3v-3v-2.5v-2.5v-3v-3.5v-2.5v-2v-3.5v-3.5v-2.5v-2.5v-3v-3v-2.5v-2.5v-3v-3.5v-2.5v-2.5v-3.5v-3v-2.5v-2.5v-3v-3v-2.5v-2.5v-3.5v-3.5v-2.5v-2.5v-3v-3v-2.5v-2.5v-3v-3.5v-2.5v-2.5v-3.5v-3v-2.5v-2.5v-3v-3
v-2.5v-2.5v-3.5v-3.5v-2v-2.5v-3.5v-3v-2.5v-2.5v-3v-3v-2.5v-2.5v-3.5v-3.5v-2.5v-2.5v-3v-3v-2.5v-2.5v-3v-3.5v-2.5v-2.5v-3.5v-3v-2.5v-2.5v-3v-3v-2.5v-2.5v-3.5v-3.5v-2.5v-2.5v-3v-3v-2.5v-2.5v-3v-3.5v-2.5v-2v-3.5v-3.5v-2.5v-2.5v-3v-3v-2.5v-2.5v-3v-3.5v-2.5
v-2.5v-3.5v-3v-2.5v-2.5v-3v-3v-2.5v-2.5v-3.5v-3.5v-2.5v-2.5v-3v-3v-2.5v-2.5v-3v-3.5v-2.5v-2.5v-3.5v-3v-2.5v-2.5v-3v-3v-2.5v-2.5v-3.5v-3.5v-2v-2.5v-3.5v-3v-2.5v-2.5v-3v-3v-2.5v-2.5v-3.5v-3.5v-2.5v-2.5v-3v-3v-2.5v-2.5v-3q0 -49 -34 -83t-83 -34q-58 0 -93 47
q-5 5 -9 11q-5 5 -10 11q-5 5 -10 12q-5 5 -9 11q-5 5 -10 12q-5 5 -10 11q-5 5 -10 11q-4 5 -9 12q-5 5 -10 11q-5 5 -10 11t-9 12q-5 5 -10 11q-5 5 -10 12q-4 5 -9 11q-5 5 -10 11q-5 5 -10 12q-4 5 -9 11q-5 5 -10 12q-5 4 -10 11l-3 3v-1.5v-5.5v-5.5v-5.5v-6v-6v-5.5
v-5.5v-6v-6v-5.5v-5.5v-5.5v-5.5v-6v-6v-5.5v-5.5v-5.5v-5.5v-6v-6v-5.5v-5.5v-6v-6v-5q0 -49 -34 -83t-82.5 -34t-82.5 34t-34 83v3v2v3v3v4v2v2v3.5v3.5v2v2.5v3.5v4v2v2v3v4v2v2v3.5v3.5v2v2.5v3.5v4v2v2v3.5v3.5v2v2.5v3.5v3v2v3v3v4v2v2v3.5v3.5v2v2.5v3.5v4v2v2v3.5
v3.5v2v2.5v3.5v3v2v2.5v3.5v4v2v2v3.5v3.5v2v2.5v3.5v4v1v3v3v4v2v2v3.5v3.5v2v2.5v3.5v4v2v2v3.5v3.5v2v2.5v3.5v3v2v3v3v4v2v2v3.5v3.5v2v2.5v3.5v4v2v2v3v4v2v2v3.5v3.5v2v2.5v3.5v4v2v2v3.5v3.5v2v2.5v3.5v4v1v3v3v4v2v2v3.5v3.5v2v2.5v3.5v4v2v2v3.5v3.5v2v2.5v3.5v3v2
v3v3v4v2v2v3.5v3.5v2v2.5v3.5v4v1v3v3v3.5v2.5v2v3.5v3.5v2.5v2.5v3v3v2.5v2.5v3q0 49 34 83t83 34q58 0 93 -47q5 -5 9 -11q5 -5 10 -11q5 -5 10 -12q5 -5 10 -11q4 -5 9 -12q5 -5 10 -11q5 -5 10 -11q4 -5 9 -12q5 -5 10 -11q5 -5 10 -11q4 -5 9 -12q5 -5 10 -11
q5 -5 10 -12q4 -5 9 -11q5 -5 10 -11q5 -5 10 -12q4 -5 9 -11q5 -5 10 -11q5 -5 10 -12l3 -3v1v4v2v2.5v3.5v3v2.5v2.5v3v3v2.5v2.5v3.5v3.5v2.5v2.5v3v3v2.5v2.5v3v3.5v2.5v2.5v3.5v3v2.5v2.5v3v3v2.5v2.5v3.5v3.5v2.5v2.5v3v3v2.5v2.5v3v3.5v2.5v2v3.5v3.5v2v6v6v5
q0 49 34 83t82.5 34t82.5 -34t34 -83v-3v-2.5z" />
    <glyph glyph-name="O" unicode="O" 
d="M691 156q-6 -9 -12 -17q-6 -9 -14 -17q-5 -7 -10 -12l-2 -2t-2 -1q-4 -5 -6 -7q-4 -4 -9 -8l-1 -1q-7 -7 -15 -13q-8 -7 -16 -12q-9 -7 -19 -13q-8 -6 -17 -10q-10 -6 -20 -10q-9 -5 -20 -8q-9 -5 -19 -7q-10 -4 -22 -7q-10 -3 -21 -4q-10 -3 -21 -4q-11 -2 -23 -2
q-11 -1 -22 -1t-22 1q-12 0 -23 2q-11 1 -21 4q-11 1 -21 4q-12 3 -22 7q-10 2 -19 7q-11 3 -20 8q-10 4 -20 10q-9 4 -17 10q-10 6 -19 13q-8 5 -16 12q-8 6 -15 13l-1 1q-5 4 -9 8q-2 2 -6 7l-1.5 1t-2.5 2q-5 5 -10 12q-8 8 -14 17q-6 8 -12 17q-6 8 -11 17q-6 9 -10 20
q-5 8 -9 18q-5 10 -8 21q-4 9 -7 20q-3 10 -5 20q-3 11 -4 23q-3 11 -3 21q-2 11 -1 22q-2 12 0 24q-1 11 1 22q0 10 3 21q1 12 4 23q2 10 5 20q3 11 7 20q3 11 8 21q4 10 9 18q4 11 10 20q5 9 11 17q6 9 12 17q6 9 14 17q5 7 10 12q1 1 2.5 2l1.5 1q4 4 6 7q4 4 9 8l1 1
q7 7 15 13q8 7 16 12q9 7 19 13q8 6 17 10q10 6 20 10q9 5 20 8q9 5 19 7q10 4 22 7q10 3 21 4q10 3 21 4q11 2 23 2q11 1 22 1t22 -1q12 0 23 -2q11 -1 21 -4q11 -1 21 -4q12 -3 22 -7q10 -2 19 -7q11 -3 20 -8q10 -4 20 -10q9 -5 17 -10q10 -6 19 -13q8 -5 16 -12
q8 -6 15 -13l1 -1q5 -4 9 -8q2 -2 6 -7l1.5 -1t2.5 -2q5 -5 10 -12q8 -8 14 -17q6 -8 11 -17q7 -8 12 -17q6 -9 10 -20q5 -8 9 -18q5 -10 8 -21q4 -9 7 -20q3 -10 5 -20q3 -11 4 -23q3 -11 3 -21q2 -11 1 -22q2 -12 0 -24q1 -11 -1 -22q0 -11 -3 -21q-1 -12 -4 -23
q-2 -10 -5 -20q-3 -11 -7 -20q-3 -11 -8 -21q-4 -10 -9 -18q-4 -11 -10 -20q-5 -9 -11 -17zM443 241q5 3 7 3q2 1 5 3q4 3 7 4q4 3 5 4q2 1 7 4l5 5l0.5 0.5l0.5 0.5l2 2t2 1q3 4 5 6q2 3 3 5q2 2 5 6q3 5 4 6l3 6t4 7q1 4 2 6q0 2 2 7q1 5 2 8t1 6q1 3 1 8q1 5 1 8v6t-1 8
q0 5 -1 8q0 3 -1 6t-2 8q-2 5 -2 7q-1 2 -2 6q-2 3 -4 7q-2 5 -3 6q-1 2 -4 6q-3 5 -5 6q-1 2 -3 5q-2 2 -5 6q-1 0 -2 1l-2 2l-0.5 0.5l-0.5 0.5l-5 5q-5 3 -7 4l-4 4q-4 1 -8 4q-3 2 -5 3t-7 3q-5 1 -8 2t-5 2q-2 0 -8 2q-6 1 -8 1t-6 1h-8h-8q-3 -1 -6 -1t-8 -1
q-6 -2 -8 -2q-3 -1 -5 -2q-3 -1 -8 -2q-5 -2 -7 -3l-6 -3q-3 -3 -7 -4l-4 -4q-2 -1 -7 -4l-5 -5l-0.5 -0.5l-0.5 -0.5l-2 -2t-2 -1q-3 -4 -5 -6q-2 -3 -4 -5q0 -1 -4 -6q-3 -5 -4 -6l-3 -6t-4 -7q-1 -4 -2 -6t-2 -7t-2 -8q-1 -2 -1 -6q-1 -2 -1 -8q-1 -5 -1 -8v-6t1 -8
q0 -6 1 -8q0 -3 1 -6t2 -8t2 -7t2 -6q2 -3 4 -7l3 -6q1 -1 4 -6t4 -6q2 -2 4 -5q2 -2 5 -6l1.5 -1t2.5 -2l1 -1l5 -5q5 -3 7 -4l4 -4q4 -1 7 -4l6 -3t7 -3q5 -1 8 -2t5 -2q2 0 8 -2q5 -1 8 -1q2 0 6 -1h8h8q3 1 6 1t8 1q5 2 8 2q2 1 5 2t8 2z" />
    <glyph glyph-name="O" unicode="o" 
d="M691 156q-6 -9 -12 -17q-6 -9 -14 -17q-5 -7 -10 -12l-2 -2t-2 -1q-4 -5 -6 -7q-4 -4 -9 -8l-1 -1q-7 -7 -15 -13q-8 -7 -16 -12q-9 -7 -19 -13q-8 -6 -17 -10q-10 -6 -20 -10q-9 -5 -20 -8q-9 -5 -19 -7q-10 -4 -22 -7q-10 -3 -21 -4q-10 -3 -21 -4q-11 -2 -23 -2
q-11 -1 -22 -1t-22 1q-12 0 -23 2q-11 1 -21 4q-11 1 -21 4q-12 3 -22 7q-10 2 -19 7q-11 3 -20 8q-10 4 -20 10q-9 4 -17 10q-10 6 -19 13q-8 5 -16 12q-8 6 -15 13l-1 1q-5 4 -9 8q-2 2 -6 7l-1.5 1t-2.5 2q-5 5 -10 12q-8 8 -14 17q-6 8 -12 17q-6 8 -11 17q-6 9 -10 20
q-5 8 -9 18q-5 10 -8 21q-4 9 -7 20q-3 10 -5 20q-3 11 -4 23q-3 11 -3 21q-2 11 -1 22q-2 12 0 24q-1 11 1 22q0 10 3 21q1 12 4 23q2 10 5 20q3 11 7 20q3 11 8 21q4 10 9 18q4 11 10 20q5 9 11 17q6 9 12 17q6 9 14 17q5 7 10 12q1 1 2.5 2l1.5 1q4 4 6 7q4 4 9 8l1 1
q7 7 15 13q8 7 16 12q9 7 19 13q8 6 17 10q10 6 20 10q9 5 20 8q9 5 19 7q10 4 22 7q10 3 21 4q10 3 21 4q11 2 23 2q11 1 22 1t22 -1q12 0 23 -2q11 -1 21 -4q11 -1 21 -4q12 -3 22 -7q10 -2 19 -7q11 -3 20 -8q10 -4 20 -10q9 -5 17 -10q10 -6 19 -13q8 -5 16 -12
q8 -6 15 -13l1 -1q5 -4 9 -8q2 -2 6 -7l1.5 -1t2.5 -2q5 -5 10 -12q8 -8 14 -17q6 -8 11 -17q7 -8 12 -17q6 -9 10 -20q5 -8 9 -18q5 -10 8 -21q4 -9 7 -20q3 -10 5 -20q3 -11 4 -23q3 -11 3 -21q2 -11 1 -22q2 -12 0 -24q1 -11 -1 -22q0 -11 -3 -21q-1 -12 -4 -23
q-2 -10 -5 -20q-3 -11 -7 -20q-3 -11 -8 -21q-4 -10 -9 -18q-4 -11 -10 -20q-5 -9 -11 -17zM443 241q5 3 7 3q2 1 5 3q4 3 7 4q4 3 5 4q2 1 7 4l5 5l0.5 0.5l0.5 0.5l2 2t2 1q3 4 5 6q2 3 3 5q2 2 5 6q3 5 4 6l3 6t4 7q1 4 2 6q0 2 2 7q1 5 2 8t1 6q1 3 1 8q1 5 1 8v6t-1 8
q0 5 -1 8q0 3 -1 6t-2 8q-2 5 -2 7q-1 2 -2 6q-2 3 -4 7q-2 5 -3 6q-1 2 -4 6q-3 5 -5 6q-1 2 -3 5q-2 2 -5 6q-1 0 -2 1l-2 2l-0.5 0.5l-0.5 0.5l-5 5q-5 3 -7 4l-4 4q-4 1 -8 4q-3 2 -5 3t-7 3q-5 1 -8 2t-5 2q-2 0 -8 2q-6 1 -8 1t-6 1h-8h-8q-3 -1 -6 -1t-8 -1
q-6 -2 -8 -2q-3 -1 -5 -2q-3 -1 -8 -2q-5 -2 -7 -3l-6 -3q-3 -3 -7 -4l-4 -4q-2 -1 -7 -4l-5 -5l-0.5 -0.5l-0.5 -0.5l-2 -2t-2 -1q-3 -4 -5 -6q-2 -3 -4 -5q0 -1 -4 -6q-3 -5 -4 -6l-3 -6t-4 -7q-1 -4 -2 -6t-2 -7t-2 -8q-1 -2 -1 -6q-1 -2 -1 -8q-1 -5 -1 -8v-6t1 -8
q0 -6 1 -8q0 -3 1 -6t2 -8t2 -7t2 -6q2 -3 4 -7l3 -6q1 -1 4 -6t4 -6q2 -2 4 -5q2 -2 5 -6l1.5 -1t2.5 -2l1 -1l5 -5q5 -3 7 -4l4 -4q4 -1 7 -4l6 -3t7 -3q5 -1 8 -2t5 -2q2 0 8 -2q5 -1 8 -1q2 0 6 -1h8h8q3 1 6 1t8 1q5 2 8 2q2 1 5 2t8 2z" />
    <glyph glyph-name="P" unicode="P" horiz-adv-x="683" 
d="M617 382q-5 -17 -15 -31q-7 -15 -18 -27q-10 -15 -23 -26q-11 -12 -25 -20q-14 -12 -30 -18q-14 -9 -30 -13q-16 -7 -34 -9q-15 -4 -29 -4h-2.5h-1.5q-7 -1 -14 -1q-3 0 -8 1q-6 -1 -9 -1t-9 1q-5 -1 -8 -1t-9 1q-5 -1 -8 -1t-9 1q-5 -1 -8 -1t-9 1q-6 -1 -8.5 -1t-8.5 1
q-6 -1 -8.5 -1t-8.5 1h-1v-6v-8.5v-8.5v-9v-8v-9v-8v-9v-9v-8v-9v-8v-9v-8q0 -49 -34 -83t-82.5 -34t-82.5 34t-34 83v8v9v8v9v8v9v9v8v9v8v9v8.5v8.5v8.5v8.5v8.5v8.5v8.5v8.5v8.5v8.5v9v8v9v8v9v3v2.5v2.5v3v9v8v9v8v9v8.5v8.5v8.5v8.5v8.5v8.5v8.5v8.5v8.5v8.5v9v8v9v8v9
v9v8v9v8v9v8q0 34 18 63q15 29 43 47t62 18h8h9h8h9h9h8h9h8h9h8.5h8.5h8.5h8.5h8.5h8.5h8.5h8.5h9h8h9h8h9h8h9h9h8q6 0 14 -1h1.5h2.5q14 0 29 -3q18 -2 34 -10q16 -4 30 -12q16 -7 30 -19q14 -8 25 -20q13 -11 23 -26q11 -12 18 -26q10 -15 15 -32q7 -15 10 -31
q5 -18 5 -36v0q1 -10 1 -17.5t-1 -16.5v-1q0 -18 -5 -35q-3 -17 -10 -32zM318 466q6 1 8.5 1t8.5 -1q6 1 8.5 1t8.5 -1q6 1 9 1t8 -1q6 1 9 1t9 -1q6 1 8 1h2h2h1v0v0h-1h-2h-2h-8h-9h-9h-8h-9h-8.5h-8.5h-8.5h-8.5h-8.5h-8.5h-8.5h-8.5h-1v-1h1q6 1 8.5 1t8.5 -1q6 1 8.5 1
t8.5 -1z" />
    <glyph glyph-name="P" unicode="p" horiz-adv-x="683" 
d="M617 382q-5 -17 -15 -31q-7 -15 -18 -27q-10 -15 -23 -26q-11 -12 -25 -20q-14 -12 -30 -18q-14 -9 -30 -13q-16 -7 -34 -9q-15 -4 -29 -4h-2.5h-1.5q-7 -1 -14 -1q-3 0 -8 1q-6 -1 -9 -1t-9 1q-5 -1 -8 -1t-9 1q-5 -1 -8 -1t-9 1q-5 -1 -8 -1t-9 1q-6 -1 -8.5 -1t-8.5 1
q-6 -1 -8.5 -1t-8.5 1h-1v-6v-8.5v-8.5v-9v-8v-9v-8v-9v-9v-8v-9v-8v-9v-8q0 -49 -34 -83t-82.5 -34t-82.5 34t-34 83v8v9v8v9v8v9v9v8v9v8v9v8.5v8.5v8.5v8.5v8.5v8.5v8.5v8.5v8.5v8.5v9v8v9v8v9v3v2.5v2.5v3v9v8v9v8v9v8.5v8.5v8.5v8.5v8.5v8.5v8.5v8.5v8.5v8.5v9v8v9v8v9
v9v8v9v8v9v8q0 34 18 63q15 29 43 47t62 18h8h9h8h9h9h8h9h8h9h8.5h8.5h8.5h8.5h8.5h8.5h8.5h8.5h9h8h9h8h9h8h9h9h8q6 0 14 -1h1.5h2.5q14 0 29 -3q18 -2 34 -10q16 -4 30 -12q16 -7 30 -19q14 -8 25 -20q13 -11 23 -26q11 -12 18 -26q10 -15 15 -32q7 -15 10 -31
q5 -18 5 -36v0q1 -10 1 -17.5t-1 -16.5v-1q0 -18 -5 -35q-3 -17 -10 -32zM318 466q6 1 8.5 1t8.5 -1q6 1 8.5 1t8.5 -1q6 1 9 1t8 -1q6 1 9 1t9 -1q6 1 8 1h2h2h1v0v0h-1h-2h-2h-8h-9h-9h-8h-9h-8.5h-8.5h-8.5h-8.5h-8.5h-8.5h-8.5h-8.5h-1v-1h1q6 1 8.5 1t8.5 -1q6 1 8.5 1
t8.5 -1z" />
    <glyph glyph-name="Q" unicode="Q" horiz-adv-x="829" 
d="M737 207q42 -35 42 -90q0 -49 -34 -83t-82.5 -34t-82.5 34l-8 8q-5 3 -9 8q-4 3 -8 7l-6 -3q-7 -4 -15 -7q-9 -4 -16 -6q-7 -3 -16 -5q-9 -3 -16 -5q-8 -2 -16 -3q-9 -3 -17 -3q-7 -2 -16 -2q-9 -2 -17 -2h-12h-2.5h-2.5l-6 -1q-4 0 -10 1h-0.5h-1.5q-7 0 -15 1
q-9 0 -17 2q-8 0 -16 2q-9 2 -17 4q-8 1 -16 4q-8 2 -16 5q-8 2 -16 6q-8 3 -15 6q-8 3 -16 8q-8 3 -15 8q-8 4 -14 9q-8 4 -15 10q-7 4 -14 10q-7 5 -14 12q-6 5 -12 11q-8 7 -13 13q-6 6 -12 13q-6 8 -11 14l-10 14q-6 8 -10 15q-4 6 -8 15q-5 8 -8 15q-4 7 -7 15
q-4 9 -6 16q-3 7 -6 16t-4 16q-3 7 -4 17q-2 8 -3 16q-2 7 -2 17q-2 8 -2 16q-1 7 -1 13v2v2v8v8v1.5v1.5q0 6 1 14q1 9 2 17l2 16q1 9 4 17q1 8 4 16q1 8 5 16q2 9 5 16q3 8 7 16q3 8 7 15q3 7 8 15q4 8 8 15l10 14q5 8 10 14q5 8 12 14q5 7 11 13l12 12t11 10q5 5 12 10
q6 5 12 9q5 4 11 8q7 5 12 8q6 4 14 8q6 4 12 6q6 4 14 7q6 3 12 5q8 4 15 6q5 2 12 4q7 3 13 4q7 2 15 4q6 1 13 2q8 2 16 3q6 1 13 1q6 1 13 1q7 1 13 1h1h1h7h7h1h1q7 0 13 -1q7 0 13 -1q7 0 14 -1t15 -3q7 -1 13 -2q8 -2 15 -4q6 -1 13 -4l12 -4q7 -2 15 -6q7 -2 12 -5
q8 -3 14 -7q6 -2 12 -6q8 -4 14 -8q6 -3 12 -8q6 -4 11 -8q6 -4 12 -9q7 -5 12 -10q5 -4 11 -10q6 -5 10 -11q6 -5 11 -11q5 -5 9 -11q6 -7 10 -12l8 -12l8 -12t7 -13q4 -6 7 -12q4 -7 7 -14q3 -6 5 -13q4 -7 6 -14q2 -6 4 -13q2 -6 4 -13t3 -15q2 -6 3 -13q2 -8 2 -15
q2 -6 2 -13q1 -7 1 -13q1 -7 1 -13v-2v-1v-7v-6v-2v-1q0 -6 -1 -13q0 -6 -1 -13q0 -7 -2 -13q0 -7 -2 -15q-1 -7 -3 -13q-1 -9 -3 -15q-2 -7 -4 -13q-2 -7 -4 -13q-2 -7 -6 -14q-2 -7 -5 -13l-0.5 -1l-0.5 -1l0.5 -1t1.5 -1l8 -8q5 -3 9 -7zM395 254h0.5h1.5h2h2h5h4h2
l2.5 0.5t3.5 0.5t3 1h2q5 1 6 1t5 2q4 1 5.5 1.5t5.5 1.5q4 3 5 3t5 2l5 3l5 3l4 3q1 1 4 3l1 1l2 1.5t3 2.5q0 1 1 1.5l1 0.5l3.5 3.5l3.5 3.5t3 4t3 4l3 4t3 5t2 3q2 3 3 5q0 2 1 4t2 5t2 3q0 1 2 5q1 5 1 5.5t1 3.5q0 3 1 6q0 2 0.5 3t0.5 6q1 4 1 5v4v1v1.5v1.5v1.5v1.5
v1q0 1 -1 6q0 4 -0.5 5.5t-0.5 3.5q-1 3 -1 6q-1 2 -1 3t-1 5q-2 5 -2 6q-1 0 -2 3t-2 5q-1 3 -2 4q0 1 -2 5l-1 1t-1 2q-1 1 -2 2.5t-1 2.5q-3 3 -3 4l-3 4l-3.5 3.5t-2.5 3.5l-4 4q-2 1 -4 3l-4 4q-3 2 -3.5 2t-4.5 3l-4 3q-1 1 -4 2l-4.5 3t-3.5 2q-2 0 -5 2q-3 1 -3.5 1
t-5.5 2l-5 1q-1 1 -4 1q-3 1 -5 1q-3 1 -4 1l-5 1h-6h-3h-1.5h-1.5h-1.5h-1.5h-3h-6q-4 -1 -5 -1t-4 -1q-2 0 -5 -1q-3 0 -4 -0.5t-5 -1.5l-5 -2q-1 0 -2.5 -0.5l-1.5 -0.5q-3 -2 -5 -2q-2 -2 -3 -2q-2 -1 -5 -3l-1.5 -0.5t-2 -1t-4.5 -3.5t-4.5 -3t-3.5 -2l-4 -4
q-2 -1 -4 -3l-4 -4q-1 -2 -4 -5q-2 -2 -3 -4q-1 -1 -4 -5q-2 -3 -3 -5q-1 -1 -3 -5q-2 -3 -2.5 -4.5t-2.5 -5.5t-2.5 -5.5l-1.5 -4.5q-1 -4 -1.5 -5.5t-1.5 -5.5q-1 -3 -1 -6q0 -2 -1 -5v-6q-1 -3 -1 -5v-1v-1v-2.5v-1.5q0 -3 0.5 -5t0.5 -6q1 -4 1 -5t1 -6q1 -4 1 -5t2 -6
l1 -5q1 -1 1.5 -3l0.5 -2l1.5 -2.5t1.5 -3.5l2 -5l3 -5q1 -1 2 -2.5l1 -1.5q4 -5 4 -5.5t3 -4.5q4 -3 5 -4l4 -4t4 -5q2 -1 5 -3l4 -4q2 -1 5 -3q2 -1 5 -3t5 -3t5 -2t5 -2l6 -2q2 -1 5 -2t5 -1q4 -1 6 -2h5q2 -1 6 -1h5z" />
    <glyph glyph-name="Q" unicode="q" horiz-adv-x="829" 
d="M737 207q42 -35 42 -90q0 -49 -34 -83t-82.5 -34t-82.5 34l-8 8q-5 3 -9 8q-4 3 -8 7l-6 -3q-7 -4 -15 -7q-9 -4 -16 -6q-7 -3 -16 -5q-9 -3 -16 -5q-8 -2 -16 -3q-9 -3 -17 -3q-7 -2 -16 -2q-9 -2 -17 -2h-12h-2.5h-2.5l-6 -1q-4 0 -10 1h-0.5h-1.5q-7 0 -15 1
q-9 0 -17 2q-8 0 -16 2q-9 2 -17 4q-8 1 -16 4q-8 2 -16 5q-8 2 -16 6q-8 3 -15 6q-8 3 -16 8q-8 3 -15 8q-8 4 -14 9q-8 4 -15 10q-7 4 -14 10q-7 5 -14 12q-6 5 -12 11q-8 7 -13 13q-6 6 -12 13q-6 8 -11 14l-10 14q-6 8 -10 15q-4 6 -8 15q-5 8 -8 15q-4 7 -7 15
q-4 9 -6 16q-3 7 -6 16t-4 16q-3 7 -4 17q-2 8 -3 16q-2 7 -2 17q-2 8 -2 16q-1 7 -1 13v2v2v8v8v1.5v1.5q0 6 1 14q1 9 2 17l2 16q1 9 4 17q1 8 4 16q1 8 5 16q2 9 5 16q3 8 7 16q3 8 7 15q3 7 8 15q4 8 8 15l10 14q5 8 10 14q5 8 12 14q5 7 11 13l12 12t11 10q5 5 12 10
q6 5 12 9q5 4 11 8q7 5 12 8q6 4 14 8q6 4 12 6q6 4 14 7q6 3 12 5q8 4 15 6q5 2 12 4q7 3 13 4q7 2 15 4q6 1 13 2q8 2 16 3q6 1 13 1q6 1 13 1q7 1 13 1h1h1h7h7h1h1q7 0 13 -1q7 0 13 -1q7 0 14 -1t15 -3q7 -1 13 -2q8 -2 15 -4q6 -1 13 -4l12 -4q7 -2 15 -6q7 -2 12 -5
q8 -3 14 -7q6 -2 12 -6q8 -4 14 -8q6 -3 12 -8q6 -4 11 -8q6 -4 12 -9q7 -5 12 -10q5 -4 11 -10q6 -5 10 -11q6 -5 11 -11q5 -5 9 -11q6 -7 10 -12l8 -12l8 -12t7 -13q4 -6 7 -12q4 -7 7 -14q3 -6 5 -13q4 -7 6 -14q2 -6 4 -13q2 -6 4 -13t3 -15q2 -6 3 -13q2 -8 2 -15
q2 -6 2 -13q1 -7 1 -13q1 -7 1 -13v-2v-1v-7v-6v-2v-1q0 -6 -1 -13q0 -6 -1 -13q0 -7 -2 -13q0 -7 -2 -15q-1 -7 -3 -13q-1 -9 -3 -15q-2 -7 -4 -13q-2 -7 -4 -13q-2 -7 -6 -14q-2 -7 -5 -13l-0.5 -1l-0.5 -1l0.5 -1t1.5 -1l8 -8q5 -3 9 -7zM395 254h0.5h1.5h2h2h5h4h2
l2.5 0.5t3.5 0.5t3 1h2q5 1 6 1t5 2q4 1 5.5 1.5t5.5 1.5q4 3 5 3t5 2l5 3l5 3l4 3q1 1 4 3l1 1l2 1.5t3 2.5q0 1 1 1.5l1 0.5l3.5 3.5l3.5 3.5t3 4t3 4l3 4t3 5t2 3q2 3 3 5q0 2 1 4t2 5t2 3q0 1 2 5q1 5 1 5.5t1 3.5q0 3 1 6q0 2 0.5 3t0.5 6q1 4 1 5v4v1v1.5v1.5v1.5v1.5
v1q0 1 -1 6q0 4 -0.5 5.5t-0.5 3.5q-1 3 -1 6q-1 2 -1 3t-1 5q-2 5 -2 6q-1 0 -2 3t-2 5q-1 3 -2 4q0 1 -2 5l-1 1t-1 2q-1 1 -2 2.5t-1 2.5q-3 3 -3 4l-3 4l-3.5 3.5t-2.5 3.5l-4 4q-2 1 -4 3l-4 4q-3 2 -3.5 2t-4.5 3l-4 3q-1 1 -4 2l-4.5 3t-3.5 2q-2 0 -5 2q-3 1 -3.5 1
t-5.5 2l-5 1q-1 1 -4 1q-3 1 -5 1q-3 1 -4 1l-5 1h-6h-3h-1.5h-1.5h-1.5h-1.5h-3h-6q-4 -1 -5 -1t-4 -1q-2 0 -5 -1q-3 0 -4 -0.5t-5 -1.5l-5 -2q-1 0 -2.5 -0.5l-1.5 -0.5q-3 -2 -5 -2q-2 -2 -3 -2q-2 -1 -5 -3l-1.5 -0.5t-2 -1t-4.5 -3.5t-4.5 -3t-3.5 -2l-4 -4
q-2 -1 -4 -3l-4 -4q-1 -2 -4 -5q-2 -2 -3 -4q-1 -1 -4 -5q-2 -3 -3 -5q-1 -1 -3 -5q-2 -3 -2.5 -4.5t-2.5 -5.5t-2.5 -5.5l-1.5 -4.5q-1 -4 -1.5 -5.5t-1.5 -5.5q-1 -3 -1 -6q0 -2 -1 -5v-6q-1 -3 -1 -5v-1v-1v-2.5v-1.5q0 -3 0.5 -5t0.5 -6q1 -4 1 -5t1 -6q1 -4 1 -5t2 -6
l1 -5q1 -1 1.5 -3l0.5 -2l1.5 -2.5t1.5 -3.5l2 -5l3 -5q1 -1 2 -2.5l1 -1.5q4 -5 4 -5.5t3 -4.5q4 -3 5 -4l4 -4t4 -5q2 -1 5 -3l4 -4q2 -1 5 -3q2 -1 5 -3t5 -3t5 -2t5 -2l6 -2q2 -1 5 -2t5 -1q4 -1 6 -2h5q2 -1 6 -1h5z" />
    <glyph glyph-name="R" unicode="R" horiz-adv-x="683" 
d="M578 216q26 -16 40.5 -42.5t14.5 -56.5q0 -49 -34 -83t-82 -34q-38 0 -68 22l-6 4q-4 2 -6 4l-6 4q-4 2 -6 4l-6 4q-4 2 -6 4l-6 4l-6 4l-6 4q-4 2 -6 4l-6 4l-6 4l-6 4q-4 2 -6 4q-4 2 -6 4l-6 4q-4 2 -6 4q-4 2 -6 4q-4 2 -6 4l-6 4l-6 4q-4 2 -6 4l-6 4q-4 2 -6 4
l-6 4q-4 2 -6 4l-6 4q-1 0 -2 1t-2 1v-1v-1v-1v-0.5v-1.5v-2.5v-2v-2v-2.5q0 -48 -34 -82t-82.5 -34t-82.5 34t-34 82v2.5v2v2v2.5v1.5v0.5v1v1v2.5v2v2v2.5v1v1.5v0.5v2.5v2v2v2.5v1v1v0.5v1.5v2.5v2v2v2.5v1.5v1v0.5v2.5v2v2v2.5v0.5v1v1.5v2.5v2v2.5v2v1.5v0.5v1v1v2.5v2
v2v2.5v0.5v1.5v1v2.5v2v2v2.5v1v1v0.5v1.5v2.5v2v2v2.5v1v1.5v0.5v2.5v2v2v2.5v1v1v0.5v1.5v2v2v2v2v1.5v0.5v1v1v2.5v2v2v2.5v0.5v1.5v1v2.5v2v2v2.5v1.5v0.5v0.5v1.5v2.5v2v2v2.5v1v1.5v0.5v2.5v2v2v2.5v1v1v0.5v1.5v2v2.5v2v1.5v1.5v1v1v0.5v2.5v2v2v2.5v0.5v1v1.5v2.5v2
v2v2.5v1.5v0.5v1v1v2.5v2v2v2.5v1v1.5v0.5v2.5v2v2v2.5v1v1v0.5v1.5v2.5v2v2v2.5v1.5v1v0.5v2.5v2v2v2.5v4v2v6v4v3v6v6v2v4.5v3.5v2.5v1.5v4.5v4.5v2v6v6v2v4.5v4.5v1.5v2.5v3.5v4.5v2v2v4.5v3.5v2.5v1.5v5v6v2v4v4v2v6v5v2v6v4v2v2v4v6v3v3.5v4.5v2v6q0 22 8 42
q11 37 42 60.5t70 23.5h4h2h2h4.5h3.5h2h7h6h2h4h4h2h6h5h1.5h2.5h4h6h2h4h7h2h3.5h4.5h2h6h6h2h4.5h4.5h1.5h2.5h4h4h2h6h4h2.5h2.5h3.5h4.5h2h2h4.5h3.5h2h7h4h1.5h2.5h4h6h2h4.5h4.5h2h6h4h2h6h8h2h3q9 0 19 -2q13 0 25 -4q12 -2 24 -6t23 -9q12 -5 22 -12q11 -6 20 -13
q10 -7 18 -15q9 -8 17 -17t15 -19q8 -10 13 -21q7 -10 11 -22q6 -11 9 -23q4 -12 6 -24q4 -13 4 -25q1 -10 1 -17v-9v-2v-2q0 -11 -2 -22q-1 -13 -5 -25q-2 -12 -7 -24q-3 -11 -9 -22q-5 -11 -12 -21q-6 -11 -14 -20q-7 -10 -16 -18q-8 -10 -18 -17q-8 -8 -16 -13
q-4 -3 -9 -6q-6 -4 -14 -8l-1 -1q1 0 1.5 -0.5l0.5 -0.5l6 -4q4 -2 6 -4q4 -2 6 -4q4 -3 6 -4q4 -2 6 -4q4 -3 6 -4q4 -3 6 -4q4 -3 6 -4q4 -3 6 -4q4 -3 6 -4q4 -3 6 -4zM294 467h-6h-2.5h-2.5l1 -1l1.5 0.5t2 0.5t2 -0.5t2 -0.5t1.5 0.5t2 0.5t2 -0.5t1.5 -0.5t1.5 0.5
t2 0.5t2 -0.5t1.5 -0.5t2 0.5t2 0.5t2 -0.5l1.5 -0.5l1.5 0.5t2 0.5t2 -0.5l1.5 -0.5l1.5 0.5t2.5 0.5t2 -0.5t1.5 -0.5t1.5 0.5t2 0.5t2 -0.5t1.5 -0.5t2 0.5t2 0.5t2 -0.5l1.5 -0.5l1.5 0.5t2 0.5t2 -0.5l1.5 -0.5l1.5 0.5t2 0.5t2 -0.5t2 -0.5t1.5 0.5t2 0.5t2 -0.5
t1.5 -0.5t1.5 0.5t2 0.5t2.5 -0.5l1.5 -0.5l1.5 0.5t2 0.5t2 -0.5l1.5 -0.5l1.5 0.5t2 0.5t2 -0.5l1.5 -0.5l1.5 0.5t2.5 0.5t2 -0.5t1.5 -0.5t1.5 0.5t2 0.5h1.5h1.5h1v0h-2h-2h-3h-6h-6h-6h-7h-6h-6h-6h-6h-7h-6h-6h-6h-6h-7h-6h-6z" />
    <glyph glyph-name="R" unicode="r" horiz-adv-x="683" 
d="M578 216q26 -16 40.5 -42.5t14.5 -56.5q0 -49 -34 -83t-82 -34q-38 0 -68 22l-6 4q-4 2 -6 4l-6 4q-4 2 -6 4l-6 4q-4 2 -6 4l-6 4l-6 4l-6 4q-4 2 -6 4l-6 4l-6 4l-6 4q-4 2 -6 4q-4 2 -6 4l-6 4q-4 2 -6 4q-4 2 -6 4q-4 2 -6 4l-6 4l-6 4q-4 2 -6 4l-6 4q-4 2 -6 4
l-6 4q-4 2 -6 4l-6 4q-1 0 -2 1t-2 1v-1v-1v-1v-0.5v-1.5v-2.5v-2v-2v-2.5q0 -48 -34 -82t-82.5 -34t-82.5 34t-34 82v2.5v2v2v2.5v1.5v0.5v1v1v2.5v2v2v2.5v1v1.5v0.5v2.5v2v2v2.5v1v1v0.5v1.5v2.5v2v2v2.5v1.5v1v0.5v2.5v2v2v2.5v0.5v1v1.5v2.5v2v2.5v2v1.5v0.5v1v1v2.5v2
v2v2.5v0.5v1.5v1v2.5v2v2v2.5v1v1v0.5v1.5v2.5v2v2v2.5v1v1.5v0.5v2.5v2v2v2.5v1v1v0.5v1.5v2v2v2v2v1.5v0.5v1v1v2.5v2v2v2.5v0.5v1.5v1v2.5v2v2v2.5v1.5v0.5v0.5v1.5v2.5v2v2v2.5v1v1.5v0.5v2.5v2v2v2.5v1v1v0.5v1.5v2v2.5v2v1.5v1.5v1v1v0.5v2.5v2v2v2.5v0.5v1v1.5v2.5v2
v2v2.5v1.5v0.5v1v1v2.5v2v2v2.5v1v1.5v0.5v2.5v2v2v2.5v1v1v0.5v1.5v2.5v2v2v2.5v1.5v1v0.5v2.5v2v2v2.5v4v2v6v4v3v6v6v2v4.5v3.5v2.5v1.5v4.5v4.5v2v6v6v2v4.5v4.5v1.5v2.5v3.5v4.5v2v2v4.5v3.5v2.5v1.5v5v6v2v4v4v2v6v5v2v6v4v2v2v4v6v3v3.5v4.5v2v6q0 22 8 42
q11 37 42 60.5t70 23.5h4h2h2h4.5h3.5h2h7h6h2h4h4h2h6h5h1.5h2.5h4h6h2h4h7h2h3.5h4.5h2h6h6h2h4.5h4.5h1.5h2.5h4h4h2h6h4h2.5h2.5h3.5h4.5h2h2h4.5h3.5h2h7h4h1.5h2.5h4h6h2h4.5h4.5h2h6h4h2h6h8h2h3q9 0 19 -2q13 0 25 -4q12 -2 24 -6t23 -9q12 -5 22 -12q11 -6 20 -13
q10 -7 18 -15q9 -8 17 -17t15 -19q8 -10 13 -21q7 -10 11 -22q6 -11 9 -23q4 -12 6 -24q4 -13 4 -25q1 -10 1 -17v-9v-2v-2q0 -11 -2 -22q-1 -13 -5 -25q-2 -12 -7 -24q-3 -11 -9 -22q-5 -11 -12 -21q-6 -11 -14 -20q-7 -10 -16 -18q-8 -10 -18 -17q-8 -8 -16 -13
q-4 -3 -9 -6q-6 -4 -14 -8l-1 -1q1 0 1.5 -0.5l0.5 -0.5l6 -4q4 -2 6 -4q4 -2 6 -4q4 -3 6 -4q4 -2 6 -4q4 -3 6 -4q4 -3 6 -4q4 -3 6 -4q4 -3 6 -4q4 -3 6 -4q4 -3 6 -4zM294 467h-6h-2.5h-2.5l1 -1l1.5 0.5t2 0.5t2 -0.5t2 -0.5t1.5 0.5t2 0.5t2 -0.5t1.5 -0.5t1.5 0.5
t2 0.5t2 -0.5t1.5 -0.5t2 0.5t2 0.5t2 -0.5l1.5 -0.5l1.5 0.5t2 0.5t2 -0.5l1.5 -0.5l1.5 0.5t2.5 0.5t2 -0.5t1.5 -0.5t1.5 0.5t2 0.5t2 -0.5t1.5 -0.5t2 0.5t2 0.5t2 -0.5l1.5 -0.5l1.5 0.5t2 0.5t2 -0.5l1.5 -0.5l1.5 0.5t2 0.5t2 -0.5t2 -0.5t1.5 0.5t2 0.5t2 -0.5
t1.5 -0.5t1.5 0.5t2 0.5t2.5 -0.5l1.5 -0.5l1.5 0.5t2 0.5t2 -0.5l1.5 -0.5l1.5 0.5t2 0.5t2 -0.5l1.5 -0.5l1.5 0.5t2.5 0.5t2 -0.5t1.5 -0.5t1.5 0.5t2 0.5h1.5h1.5h1v0h-2h-2h-3h-6h-6h-6h-7h-6h-6h-6h-6h-7h-6h-6h-6h-6h-7h-6h-6z" />
    <glyph glyph-name="S" unicode="S" horiz-adv-x="713" 
d="M624 105q-3 -4 -6 -9q-4 -5 -10 -12q-5 -6 -10 -11q-3 -4 -7 -8l-12 -10q-4 -4 -8 -7q-6 -4 -13 -9q-6 -5 -13 -8q-5 -3 -10 -5q-6 -4 -14 -7q-8 -4 -14 -6q-5 -1 -11 -3q-7 -3 -15 -4q-6 -1 -11 -2q-7 -2 -16 -2q-9 -2 -16 -2h-7h-2h-1.5h-1.5h-2h-2h-1.5h-1.5h-2h-2
h-1.5h-1.5h-2h-2h-1.5h-1.5h-2h-2h-1.5h-1.5h-2h-2h-1.5h-1.5h-2h-2h-1.5h-1.5h-2h-2h-1.5h-1.5h-1.5h-2h-2h-1.5h-1.5h-2h-2h-1.5h-1.5h-2h-2h-1.5h-1.5h-2h-2h-1.5h-1.5h-2h-2h-1.5h-1.5h-2h-2h-1.5h-1.5h-2h-1.5h-1.5h-2h-2h-1.5h-1.5h-2h-1.5h-1.5h-2h-2h-1.5h-1.5h-2
h-2h-1.5h-1.5h-2h-2h-1.5h-1.5h-2h-2h-1.5h-1.5h-2h-2h-1.5h-1.5h-1.5h-2h-2h-1.5h-1.5h-2h-2h-1.5h-1.5h-2h-2h-1.5h-1.5h-2h-2h-1.5h-1.5h-2h-2h-1.5h-1.5h-2h-2h-1.5h-1.5h-2h-2h-1.5h-1.5h-1.5h-2h-2h-1.5h-1.5h-2h-2h-1.5h-1.5h-2h-2h-1.5h-1.5h-2h-2h-1.5h-1.5h-2h-2
h-1.5h-1.5h-2h-1.5h-1.5h-2h-2h-1.5h-1.5h-2h-2h-1.5h-1.5h-2h-1.5h-1.5h-2h-1.5q-49 0 -83 34t-34 82.5t34 82.5t83 34h1.5h2h1.5h1.5h2h2h1.5h1.5h1.5h1.5h2h2h1.5h1.5h2h2h1.5h1.5h2h2h1.5h1.5h2h2h1.5h1.5h2h2h1.5h1.5h2h2h1.5h1.5h2h2h1.5h1.5h2h2h1.5h1.5h1.5h2h2h1.5
h1.5h2h2h1.5h1.5h2h2h1.5h1.5h2h2h1.5h1.5h2h2h1.5h1.5h1.5h2h2h1.5h1.5h2h2h1.5h1.5h2h2h1.5h1.5h2h2h1.5h1.5h2h2h1.5h1.5h2h2h1.5h1.5h2h2h1.5h1.5h1.5h1.5h2h2h1.5h1.5h2h2h1.5h1.5h2h2h1.5h1.5h2h2h1.5h1.5h2h2h1.5h1.5h2h2h1.5h1.5h2h2h1.5h1.5h1.5h2h2h1.5h1.5h2h2
h1.5h1.5h2h2h1.5h1.5h2h2h1.5h1.5h2h2h1.5h1.5h2h2h1.5h1.5h1.5h2h1.5h0.5h1.5v0v0h-1h-1h-1h-2h-1.5h-2h-2h-1.5h-1.5h-1.5h-2h-2h-1.5h-1.5h-2h-2h-1.5h-1.5h-2h-2h-1.5h-1.5h-2h-2h-1.5h-1.5h-2h-2h-1.5h-1.5h-2h-2h-1.5h-1.5h-2h-2h-1.5h-1.5h-1.5h-2h-2h-1.5h-1.5h-2
h-2h-1.5h-1.5h-1.5h-1.5h-1.5h-2h-2h-1.5h-1.5h-1.5h-2h-2h-1.5h-1.5h-1.5h-1.5h-1.5h-2h-2h-1.5h-1.5h-1.5h-2h-2h-1.5h-1.5h-1.5h-1.5h-1.5h-2h-2h-1.5h-1.5h-1.5h-2h-2h-1.5h-1.5h-1.5h-1.5h-1.5h-2l-6 1h-1q-7 0 -15 1q-5 0 -10 1q-7 1 -16 3q-8 1 -15 3q-5 2 -10 3
q-7 2 -14 6q-5 1 -10 4q-6 2 -13 6q-8 4 -13 8q-5 3 -9 6q-6 4 -12 9q-4 2 -8 6q-6 5 -11 10q-4 4 -7 8q-5 4 -10 11q-5 6 -9 12l-6 8q-4 7 -8 13q-2 5 -5 9l-6 14q-4 8 -6 14q-2 5 -3 10q-3 8 -4 15q-1 5 -2 11q-2 7 -2 15q-1 6 -1 11q-1 6 -1 12v2.5v2v1.5v1q0 7 1 13
q0 6 1 11q0 8 2 15q1 6 2 11q2 7 4 15q3 8 5 14l4 10q3 7 7 14q2 4 5 9q3 6 7 13l6 8q4 6 9 12q6 6 10 11l8 8q5 5 11 10q3 3 8 6q5 5 12 9l8 6q6 3 13 7t14 7q5 2 9 4q7 3 15 5q5 2 10 3q7 3 15 4q8 2 15 3q6 0 11 1q8 1 14 1h1.5h0.5h2h3h2h1.5h2h2h1.5h1.5h1.5h1.5h2h2
h1.5h1.5h1.5h1.5h2h2h1.5h1.5h1.5h1.5h2h2h1.5h1.5h1.5h1.5h2h2h1.5h1.5h1.5h1.5h2h2h1.5h1.5h1.5h1.5h1.5h2h2h1.5h1.5h1.5h2h2h1.5h1.5h1.5h1.5h1.5h2h2h1.5h1.5h1.5h2h2h1.5h1.5h1.5h1.5h1.5h2h2h1.5h1.5h1.5h2h2h1.5h1.5h1.5h1.5h1.5h2h2h1.5h1.5h1.5h2h2h1.5h1.5h1.5
h1.5h1.5h2h2h1.5h1.5h1.5h2h2h1.5h1.5h1.5h1.5h1.5h2h2h1.5h1.5h1.5h2h2h1.5h1.5h1.5h1.5h1.5h2h2h1.5h1.5h1.5h2h1.5h1.5h2h1.5h1.5h1.5h2h2h1.5h1.5h1.5h2h1.5h1.5h2h1.5h1.5h1.5h2h2h1.5h1.5h2q48 0 82 -34t34 -82.5t-34 -82.5t-82 -34h-2h-1.5h-1.5h-2h-2h-1.5h-1.5
h-1.5h-1.5h-1.5h-2h-2h-1.5h-1.5h-1.5h-2h-2h-1.5h-1.5h-1.5h-1.5h-1.5h-2h-2h-1.5h-1.5h-1.5h-2h-2h-1.5h-1.5h-1.5h-1.5h-1.5h-2h-2h-1.5h-1.5h-1.5h-2h-2h-1.5h-1.5h-1.5h-1.5h-1.5h-2h-2h-1.5h-1.5h-1.5h-2h-2h-1.5h-1.5h-1.5h-1.5h-1.5h-2h-2h-1.5h-1.5h-1.5h-2h-2
h-1.5h-1.5h-1.5h-1.5h-1.5h-2h-2h-1.5h-1.5h-1.5h-2h-2h-1.5h-1.5h-1.5h-1.5h-1.5h-2h-2h-1.5h-1.5h-1.5h-1.5h-2h-2h-1.5h-1.5h-1.5h-1.5h-2h-2h-1.5h-1.5h-1.5h-1.5h-2h-2h-1.5h-1.5h-1.5h-1.5h-2h-2h-1.5h-1.5h-1.5h-1.5h-2h-2h-1.5h-1.5h-1.5h-1.5h-2h-2h-1.5h-1.5h-1.5
h-1.5h-2h-2h-1.5h-1.5h-1.5h-1.5h-2h-2h-1.5h-1.5h-1.5h-1.5h-2h-2h-1.5h-2v0h2h1.5h1.5h1.5h1.5h1.5h2h2h1.5h1.5h1.5h2h2h1.5h1.5h1.5h1.5h1.5h2h2h1.5h1.5h1.5h2h2h1.5h1.5h1.5h1.5h1.5h2h2h1.5h1.5h1.5h2h2h1.5h1.5h1.5h1.5h1.5h2h2h1.5h1.5h2h2h1.5h1.5h1.5h2h2h1.5
h1.5h2h2h1.5h1.5h2h2h1.5h1.5h2h2h1.5h1.5h2h2h1.5h1.5h2h2h1.5h1.5h2h2h1.5h1.5h1.5h2h2h1.5h2t2.5 -0.5l1.5 -0.5l1 0.5t2 0.5q6 0 13 -1q5 0 11 -1q8 -1 16 -3q6 -1 11 -2q7 -1 15 -4q8 -2 15 -5q5 -2 10 -5l14 -6l10 -6q6 -3 13 -8q6 -4 12 -9q4 -3 8 -7l12 -10
q4 -4 7 -8q5 -5 10 -12l10 -12q3 -4 6 -9q4 -6 8 -13l7 -14l4 -10q3 -8 5 -15q2 -5 4 -11q2 -7 3 -15q2 -9 3 -16q1 -6 1 -11q1 -8 1 -14v-1.5v-1t0.5 -2.5t0.5 -3l-1 -6v-1q0 -7 -1 -15q-1 -9 -2 -16q-1 -6 -2 -11l-4 -16l-4 -10q-2 -7 -5 -15t-7 -14q-2 -5 -5 -10
q-3 -6 -8 -13z" />
    <glyph glyph-name="S" unicode="s" horiz-adv-x="713" 
d="M624 105q-3 -4 -6 -9q-4 -5 -10 -12q-5 -6 -10 -11q-3 -4 -7 -8l-12 -10q-4 -4 -8 -7q-6 -4 -13 -9q-6 -5 -13 -8q-5 -3 -10 -5q-6 -4 -14 -7q-8 -4 -14 -6q-5 -1 -11 -3q-7 -3 -15 -4q-6 -1 -11 -2q-7 -2 -16 -2q-9 -2 -16 -2h-7h-2h-1.5h-1.5h-2h-2h-1.5h-1.5h-2h-2
h-1.5h-1.5h-2h-2h-1.5h-1.5h-2h-2h-1.5h-1.5h-2h-2h-1.5h-1.5h-2h-2h-1.5h-1.5h-2h-2h-1.5h-1.5h-1.5h-2h-2h-1.5h-1.5h-2h-2h-1.5h-1.5h-2h-2h-1.5h-1.5h-2h-2h-1.5h-1.5h-2h-2h-1.5h-1.5h-2h-2h-1.5h-1.5h-2h-1.5h-1.5h-2h-2h-1.5h-1.5h-2h-1.5h-1.5h-2h-2h-1.5h-1.5h-2
h-2h-1.5h-1.5h-2h-2h-1.5h-1.5h-2h-2h-1.5h-1.5h-2h-2h-1.5h-1.5h-1.5h-2h-2h-1.5h-1.5h-2h-2h-1.5h-1.5h-2h-2h-1.5h-1.5h-2h-2h-1.5h-1.5h-2h-2h-1.5h-1.5h-2h-2h-1.5h-1.5h-2h-2h-1.5h-1.5h-1.5h-2h-2h-1.5h-1.5h-2h-2h-1.5h-1.5h-2h-2h-1.5h-1.5h-2h-2h-1.5h-1.5h-2h-2
h-1.5h-1.5h-2h-1.5h-1.5h-2h-2h-1.5h-1.5h-2h-2h-1.5h-1.5h-2h-1.5h-1.5h-2h-1.5q-49 0 -83 34t-34 82.5t34 82.5t83 34h1.5h2h1.5h1.5h2h2h1.5h1.5h1.5h1.5h2h2h1.5h1.5h2h2h1.5h1.5h2h2h1.5h1.5h2h2h1.5h1.5h2h2h1.5h1.5h2h2h1.5h1.5h2h2h1.5h1.5h2h2h1.5h1.5h1.5h2h2h1.5
h1.5h2h2h1.5h1.5h2h2h1.5h1.5h2h2h1.5h1.5h2h2h1.5h1.5h1.5h2h2h1.5h1.5h2h2h1.5h1.5h2h2h1.5h1.5h2h2h1.5h1.5h2h2h1.5h1.5h2h2h1.5h1.5h2h2h1.5h1.5h1.5h1.5h2h2h1.5h1.5h2h2h1.5h1.5h2h2h1.5h1.5h2h2h1.5h1.5h2h2h1.5h1.5h2h2h1.5h1.5h2h2h1.5h1.5h1.5h2h2h1.5h1.5h2h2
h1.5h1.5h2h2h1.5h1.5h2h2h1.5h1.5h2h2h1.5h1.5h2h2h1.5h1.5h1.5h2h1.5h0.5h1.5v0v0h-1h-1h-1h-2h-1.5h-2h-2h-1.5h-1.5h-1.5h-2h-2h-1.5h-1.5h-2h-2h-1.5h-1.5h-2h-2h-1.5h-1.5h-2h-2h-1.5h-1.5h-2h-2h-1.5h-1.5h-2h-2h-1.5h-1.5h-2h-2h-1.5h-1.5h-1.5h-2h-2h-1.5h-1.5h-2
h-2h-1.5h-1.5h-1.5h-1.5h-1.5h-2h-2h-1.5h-1.5h-1.5h-2h-2h-1.5h-1.5h-1.5h-1.5h-1.5h-2h-2h-1.5h-1.5h-1.5h-2h-2h-1.5h-1.5h-1.5h-1.5h-1.5h-2h-2h-1.5h-1.5h-1.5h-2h-2h-1.5h-1.5h-1.5h-1.5h-1.5h-2l-6 1h-1q-7 0 -15 1q-5 0 -10 1q-7 1 -16 3q-8 1 -15 3q-5 2 -10 3
q-7 2 -14 6q-5 1 -10 4q-6 2 -13 6q-8 4 -13 8q-5 3 -9 6q-6 4 -12 9q-4 2 -8 6q-6 5 -11 10q-4 4 -7 8q-5 4 -10 11q-5 6 -9 12l-6 8q-4 7 -8 13q-2 5 -5 9l-6 14q-4 8 -6 14q-2 5 -3 10q-3 8 -4 15q-1 5 -2 11q-2 7 -2 15q-1 6 -1 11q-1 6 -1 12v2.5v2v1.5v1q0 7 1 13
q0 6 1 11q0 8 2 15q1 6 2 11q2 7 4 15q3 8 5 14l4 10q3 7 7 14q2 4 5 9q3 6 7 13l6 8q4 6 9 12q6 6 10 11l8 8q5 5 11 10q3 3 8 6q5 5 12 9l8 6q6 3 13 7t14 7q5 2 9 4q7 3 15 5q5 2 10 3q7 3 15 4q8 2 15 3q6 0 11 1q8 1 14 1h1.5h0.5h2h3h2h1.5h2h2h1.5h1.5h1.5h1.5h2h2
h1.5h1.5h1.5h1.5h2h2h1.5h1.5h1.5h1.5h2h2h1.5h1.5h1.5h1.5h2h2h1.5h1.5h1.5h1.5h2h2h1.5h1.5h1.5h1.5h1.5h2h2h1.5h1.5h1.5h2h2h1.5h1.5h1.5h1.5h1.5h2h2h1.5h1.5h1.5h2h2h1.5h1.5h1.5h1.5h1.5h2h2h1.5h1.5h1.5h2h2h1.5h1.5h1.5h1.5h1.5h2h2h1.5h1.5h1.5h2h2h1.5h1.5h1.5
h1.5h1.5h2h2h1.5h1.5h1.5h2h2h1.5h1.5h1.5h1.5h1.5h2h2h1.5h1.5h1.5h2h2h1.5h1.5h1.5h1.5h1.5h2h2h1.5h1.5h1.5h2h1.5h1.5h2h1.5h1.5h1.5h2h2h1.5h1.5h1.5h2h1.5h1.5h2h1.5h1.5h1.5h2h2h1.5h1.5h2q48 0 82 -34t34 -82.5t-34 -82.5t-82 -34h-2h-1.5h-1.5h-2h-2h-1.5h-1.5
h-1.5h-1.5h-1.5h-2h-2h-1.5h-1.5h-1.5h-2h-2h-1.5h-1.5h-1.5h-1.5h-1.5h-2h-2h-1.5h-1.5h-1.5h-2h-2h-1.5h-1.5h-1.5h-1.5h-1.5h-2h-2h-1.5h-1.5h-1.5h-2h-2h-1.5h-1.5h-1.5h-1.5h-1.5h-2h-2h-1.5h-1.5h-1.5h-2h-2h-1.5h-1.5h-1.5h-1.5h-1.5h-2h-2h-1.5h-1.5h-1.5h-2h-2
h-1.5h-1.5h-1.5h-1.5h-1.5h-2h-2h-1.5h-1.5h-1.5h-2h-2h-1.5h-1.5h-1.5h-1.5h-1.5h-2h-2h-1.5h-1.5h-1.5h-1.5h-2h-2h-1.5h-1.5h-1.5h-1.5h-2h-2h-1.5h-1.5h-1.5h-1.5h-2h-2h-1.5h-1.5h-1.5h-1.5h-2h-2h-1.5h-1.5h-1.5h-1.5h-2h-2h-1.5h-1.5h-1.5h-1.5h-2h-2h-1.5h-1.5h-1.5
h-1.5h-2h-2h-1.5h-1.5h-1.5h-1.5h-2h-2h-1.5h-1.5h-1.5h-1.5h-2h-2h-1.5h-2v0h2h1.5h1.5h1.5h1.5h1.5h2h2h1.5h1.5h1.5h2h2h1.5h1.5h1.5h1.5h1.5h2h2h1.5h1.5h1.5h2h2h1.5h1.5h1.5h1.5h1.5h2h2h1.5h1.5h1.5h2h2h1.5h1.5h1.5h1.5h1.5h2h2h1.5h1.5h2h2h1.5h1.5h1.5h2h2h1.5
h1.5h2h2h1.5h1.5h2h2h1.5h1.5h2h2h1.5h1.5h2h2h1.5h1.5h2h2h1.5h1.5h2h2h1.5h1.5h1.5h2h2h1.5h2t2.5 -0.5l1.5 -0.5l1 0.5t2 0.5q6 0 13 -1q5 0 11 -1q8 -1 16 -3q6 -1 11 -2q7 -1 15 -4q8 -2 15 -5q5 -2 10 -5l14 -6l10 -6q6 -3 13 -8q6 -4 12 -9q4 -3 8 -7l12 -10
q4 -4 7 -8q5 -5 10 -12l10 -12q3 -4 6 -9q4 -6 8 -13l7 -14l4 -10q3 -8 5 -15q2 -5 4 -11q2 -7 3 -15q2 -9 3 -16q1 -6 1 -11q1 -8 1 -14v-1.5v-1t0.5 -2.5t0.5 -3l-1 -6v-1q0 -7 -1 -15q-1 -9 -2 -16q-1 -6 -2 -11l-4 -16l-4 -10q-2 -7 -5 -15t-7 -14q-2 -5 -5 -10
q-3 -6 -8 -13z" />
    <glyph glyph-name="T" unicode="T" 
d="M633 700q49 0 83 -34t34 -82.5t-34 -82.5t-83 -34h-1h-1h-1h-1.5h-1h-1h-1h-1h-1.5h-1h-1h-1.5h-1h-1h-1.5h-1h-1h-1.5h-1h-1h-1h-1h-1.5h-1.5h-1h-1h-1h-1h-1.5h-1h-1h-1.5h-1h-1h-1h-1h-1.5h-1h-1h-1.5h-1h-1h-1.5h-1h-1h-1.5h-1h-1h-1h-1h-1.5h-1.5h-1h-1h-1h-1h-1.5
h-1h-1h-1.5h-1h-1h-1h-1h-1.5h-1.5h-1h-1h-1h-1h-1.5h-1h-1h-1.5h-1h-1h-1.5h-1h-1h-1.5h-1h-1h-1h-1h-1.5h-1h-1h-1.5h-1h-1h-1h-1h-1.5h-1.5h-1h-1h-1h-1h-1.5h-1h-1h-1h-1q1 -6 1 -7t-1 -7q1 -5 1 -7q0 -1 -1 -7q1 -5 1 -7q0 -1 -1 -7q1 -5 1 -6q0 -2 -1 -7q1 -6 1 -7
t-1 -7q1 -5 1 -7q0 -1 -1 -7q1 -5 1 -7l-1 -6q1 -6 1 -7t-1 -7q1 -5 1 -6.5t-1 -7.5q1 -5 1 -7q0 -1 -1 -7q1 -5 1 -7l-1 -6q1 -6 1 -7t-1 -7q1 -5 1 -7q0 -1 -1 -7q1 -5 1 -7q0 -1 -1 -7q1 -5 1 -6t-1 -7q1 -6 1 -7t-1 -7q1 -5 1 -7q0 -1 -1 -7q1 -5 1 -7l-1 -6q1 -6 1 -7
t-1 -7q1 -5 1 -7q0 -1 -1 -7q1 -5 1 -7q0 -1 -1 -7q1 -5 1 -6t-1 -7q1 -6 1 -7t-1 -7q1 -5 1 -7q0 -1 -1 -7q1 -5 1 -7l-1 -6q1 -6 1 -7q0 -49 -34.5 -83t-82.5 -34t-82.5 34t-34.5 83q0 1 1 7q-1 5 -1 6q0 2 1 7q-1 6 -1 7t1 7q-1 5 -1 7q0 1 1 7q-1 5 -1 7q0 1 1 6
q-1 6 -1 7t1 7q-1 6 -1 7t1 7q-1 5 -1 7q0 1 1 7q-1 5 -1 6.5t1 6.5q-1 6 -1 7t1 7q-1 5 -1 7q0 1 1 7q-1 5 -1 6.5t1 7.5q-1 5 -1 6.5t1 6.5q-1 6 -1 7t1 7q-1 5 -1 6.5t1 7.5q-1 5 -1 6.5t1 6.5q-1 6 -1 7t1 7q-1 6 -1 7t1 7q-1 5 -1 7q0 1 1 7q-1 5 -1 6q0 2 1 7
q-1 6 -1 7t1 7q-1 5 -1 7q0 1 1 7q-1 5 -1 7q0 1 1 7q-1 5 -1 6t1 7q-1 6 -1 7t1 7q-1 5 -1 6.5t0.5 4t0.5 3.5h-1h-7h-6h-7h-7h-7h-7h-7h-7h-6h-7h-7h-7h-7h-7h-7h-6h-7q-49 0 -83 34t-34 82.5t34 82.5t83 34h7h6.5h6.5h7h7h7h7h6.5h6.5h7.5h6.5h7h7h7h7h6.5h6.5h7h7h7h7
h6.5h7.5h6.5h6.5h7h7h7h7h6.5h6.5h7h7h7h1h1.5h1h1h1.5h1h1h1.5h1h1h1h1h1.5h1h1h1.5h1h1h1h1h1.5h1h1h1.5h1h1h1.5h1h1h1.5h1h1h1.5h1h1h1.5h1h1h1h1h1.5h1h1h1.5h1h1h1h1h1.5h1.5h1h1h1h1h1.5h1h1h1.5h1h1h1.5h1h1h1.5h1h1h1h1h1.5h1h1h1.5h1h1h1.5h1h1h1.5h1h1h1h1h1.5
h1.5h1h1h1h1h1.5h1h1h1.5h1h1h1h1h1.5h1h1h1.5h1h1h1.5h1h1h1.5h1h1h1h1h1.5h1.5h1h1h1h1h1.5h1h1h1.5h1h1h1h1h1.5h1h1h1.5h1h1h1.5h1h1h1.5h1h1h1.5h1h1h1.5h1h1h1h1h1.5h1h1h1.5h1h1h1h1h1.5h1h1h1.5h1h1h1.5h1h1h1.5h1h1h1.5h1h1h1.5h1h1h1h1h1.5h1h1h1.5h1h1h1h1h1.5
h1.5h1h1h1h1h1.5h1h1h1.5h1h1h1.5h1h1h1.5h1h1h1h1h1.5h1h1h1z" />
    <glyph glyph-name="T" unicode="t" 
d="M633 700q49 0 83 -34t34 -82.5t-34 -82.5t-83 -34h-1h-1h-1h-1.5h-1h-1h-1h-1h-1.5h-1h-1h-1.5h-1h-1h-1.5h-1h-1h-1.5h-1h-1h-1h-1h-1.5h-1.5h-1h-1h-1h-1h-1.5h-1h-1h-1.5h-1h-1h-1h-1h-1.5h-1h-1h-1.5h-1h-1h-1.5h-1h-1h-1.5h-1h-1h-1h-1h-1.5h-1.5h-1h-1h-1h-1h-1.5
h-1h-1h-1.5h-1h-1h-1h-1h-1.5h-1.5h-1h-1h-1h-1h-1.5h-1h-1h-1.5h-1h-1h-1.5h-1h-1h-1.5h-1h-1h-1h-1h-1.5h-1h-1h-1.5h-1h-1h-1h-1h-1.5h-1.5h-1h-1h-1h-1h-1.5h-1h-1h-1h-1q1 -6 1 -7t-1 -7q1 -5 1 -7q0 -1 -1 -7q1 -5 1 -7q0 -1 -1 -7q1 -5 1 -6q0 -2 -1 -7q1 -6 1 -7
t-1 -7q1 -5 1 -7q0 -1 -1 -7q1 -5 1 -7l-1 -6q1 -6 1 -7t-1 -7q1 -5 1 -6.5t-1 -7.5q1 -5 1 -7q0 -1 -1 -7q1 -5 1 -7l-1 -6q1 -6 1 -7t-1 -7q1 -5 1 -7q0 -1 -1 -7q1 -5 1 -7q0 -1 -1 -7q1 -5 1 -6t-1 -7q1 -6 1 -7t-1 -7q1 -5 1 -7q0 -1 -1 -7q1 -5 1 -7l-1 -6q1 -6 1 -7
t-1 -7q1 -5 1 -7q0 -1 -1 -7q1 -5 1 -7q0 -1 -1 -7q1 -5 1 -6t-1 -7q1 -6 1 -7t-1 -7q1 -5 1 -7q0 -1 -1 -7q1 -5 1 -7l-1 -6q1 -6 1 -7q0 -49 -34.5 -83t-82.5 -34t-82.5 34t-34.5 83q0 1 1 7q-1 5 -1 6q0 2 1 7q-1 6 -1 7t1 7q-1 5 -1 7q0 1 1 7q-1 5 -1 7q0 1 1 6
q-1 6 -1 7t1 7q-1 6 -1 7t1 7q-1 5 -1 7q0 1 1 7q-1 5 -1 6.5t1 6.5q-1 6 -1 7t1 7q-1 5 -1 7q0 1 1 7q-1 5 -1 6.5t1 7.5q-1 5 -1 6.5t1 6.5q-1 6 -1 7t1 7q-1 5 -1 6.5t1 7.5q-1 5 -1 6.5t1 6.5q-1 6 -1 7t1 7q-1 6 -1 7t1 7q-1 5 -1 7q0 1 1 7q-1 5 -1 6q0 2 1 7
q-1 6 -1 7t1 7q-1 5 -1 7q0 1 1 7q-1 5 -1 7q0 1 1 7q-1 5 -1 6t1 7q-1 6 -1 7t1 7q-1 5 -1 6.5t0.5 4t0.5 3.5h-1h-7h-6h-7h-7h-7h-7h-7h-7h-6h-7h-7h-7h-7h-7h-7h-6h-7q-49 0 -83 34t-34 82.5t34 82.5t83 34h7h6.5h6.5h7h7h7h7h6.5h6.5h7.5h6.5h7h7h7h7h6.5h6.5h7h7h7h7
h6.5h7.5h6.5h6.5h7h7h7h7h6.5h6.5h7h7h7h1h1.5h1h1h1.5h1h1h1.5h1h1h1h1h1.5h1h1h1.5h1h1h1h1h1.5h1h1h1.5h1h1h1.5h1h1h1.5h1h1h1.5h1h1h1.5h1h1h1h1h1.5h1h1h1.5h1h1h1h1h1.5h1.5h1h1h1h1h1.5h1h1h1.5h1h1h1.5h1h1h1.5h1h1h1h1h1.5h1h1h1.5h1h1h1.5h1h1h1.5h1h1h1h1h1.5
h1.5h1h1h1h1h1.5h1h1h1.5h1h1h1h1h1.5h1h1h1.5h1h1h1.5h1h1h1.5h1h1h1h1h1.5h1.5h1h1h1h1h1.5h1h1h1.5h1h1h1h1h1.5h1h1h1.5h1h1h1.5h1h1h1.5h1h1h1.5h1h1h1.5h1h1h1h1h1.5h1h1h1.5h1h1h1h1h1.5h1h1h1.5h1h1h1.5h1h1h1.5h1h1h1.5h1h1h1.5h1h1h1h1h1.5h1h1h1.5h1h1h1h1h1.5
h1.5h1h1h1h1h1.5h1h1h1.5h1h1h1.5h1h1h1.5h1h1h1h1h1.5h1h1h1z" />
    <glyph glyph-name="U" unicode="U" horiz-adv-x="771" 
d="M720 578q1 -6 0 -12q1 -6 0 -12q1 -6 0 -11q1 -6 0 -12q1 -6 0 -12q1 -5 0 -11q1 -6 0 -12q1 -6 0 -11q1 -6 0 -12q1 -6 0 -12q1 -5 0 -11q1 -6 0 -12q1 -6 0 -11q1 -6 0 -12q1 -6 0 -12q1 -5 0 -11q1 -6 0 -12q1 -6 0 -11q1 -6 0 -12q1 -6 0 -12q1 -6 0 -13q1 -9 0 -17
q0 -9 -2 -19q0 -9 -2 -18l-4 -18q-2 -8 -4 -17q-3 -9 -6 -17q-2 -8 -6 -17q-3 -9 -7 -16q-3 -7 -8 -15q-4 -9 -9 -16q-3 -7 -9 -14q-5 -8 -10 -14q-5 -7 -11 -14q-5 -7 -10 -12l-0.5 -0.5t-1.5 -0.5q-4 -5 -6 -7q-1 -1 -6 -5q0 -1 -1 -2l-1 -1q-4 -5 -11 -9q-6 -6 -13 -11
q-7 -6 -14 -11q-6 -5 -14 -9q-7 -5 -15 -9q-8 -5 -16 -8q-7 -5 -16 -8q-8 -4 -16 -6q-8 -4 -17 -6q-9 -3 -17 -5t-18 -4q-9 -2 -17 -3q-9 -1 -19 -2q-9 -1 -18 -1h-19t-18 1q-10 1 -19 2q-8 1 -18 3q-9 2 -17 4t-17 5q-9 2 -17 6q-8 2 -17 6q-8 3 -16 8q-8 3 -15 8
q-8 4 -15 9q-8 4 -15 9t-14 11q-7 5 -13 11q-6 4 -10 9q-1 0 -1.5 1t-1.5 2l-5 5q-3 2 -7 7l-1 1q-5 5 -11 12t-10 14q-6 6 -10 14q-6 8 -10 15q-4 6 -8 15q-5 8 -8 15q-4 8 -7 17q-4 8 -7 16t-5 17q-3 9 -4 17q-3 9 -4 18q-2 9 -2 18q-2 10 -2 19q-1 8 -1 17v14v11v12v11
v12v12v11v12v11v12v12v11v12v11v12v12v11v12v11v12v12q-2 51 34 88q34 34 82.5 34t82.5 -34q37 -37 34 -88v-12v-12v-11v-12v-11v-12v-12v-11v-12v-11v-12v-12v-11v-12v-11v-12v-12v-11v-12v-11v-11v-6t1 -5q0 -3 1 -6q0 -4 1 -5q0 -2 1 -6l2 -5l1 -5q2 -4 3 -5q0 -1 1 -3
q1 -1 1 -2q2 -4 3 -4q0 -1 3 -5q2 -3 3 -4q0 -1 3 -4t3 -4q1 0 1 -0.5t1 -0.5q0 -1 1 -2l1 -1q3 -2 4 -3l4 -4q3 -2 4 -3q2 -1 5 -3t4 -3q3 -1 5 -2t5 -3q3 -1 5 -1q1 -1 5 -2l2 -0.5t3 -1.5l6 -1q5 -1 6 -1h5q3 -1 6 -1h5q2 0 6 1h5q1 0 6 1l5 1q1 1 4 1l1 1q4 1 6 2
q1 0 4 1q3 2 5 3q3 1 5 2q2 2 5 3q2 2 4 3t4 3q3 2 5 4q1 0 3 3q1 0 1.5 1t1.5 2l0.5 0.5l0.5 0.5l4 4q2 3 3 4t3 4q2 4 3 5q0 1 3 4l2 5l2 5l2 5q0 1 1 4q0 1 1 1q1 4 1 6q0 1 1 5q0 3 1 6v5q0 2 1 6q-1 5 0 11q-1 5 0 11q-1 6 0 12q-1 6 0 11q-1 6 0 12q-1 6 0 12
q-1 5 0 11q-1 6 0 12q-1 6 0 11q-1 6 0 12q-1 6 0 12q-1 5 0 11q-1 6 0 12q-1 6 0 11q-1 6 0 12q-1 6 0 12q-1 5 0 11q-1 6 0 12q-1 6 0 11q-1 6 0 12q-1 6 0 12q-3 51 34 88q34 34 82 34t83 -34q36 -37 33 -88z" />
    <glyph glyph-name="U" unicode="u" horiz-adv-x="771" 
d="M720 578q1 -6 0 -12q1 -6 0 -12q1 -6 0 -11q1 -6 0 -12q1 -6 0 -12q1 -5 0 -11q1 -6 0 -12q1 -6 0 -11q1 -6 0 -12q1 -6 0 -12q1 -5 0 -11q1 -6 0 -12q1 -6 0 -11q1 -6 0 -12q1 -6 0 -12q1 -5 0 -11q1 -6 0 -12q1 -6 0 -11q1 -6 0 -12q1 -6 0 -12q1 -6 0 -13q1 -9 0 -17
q0 -9 -2 -19q0 -9 -2 -18l-4 -18q-2 -8 -4 -17q-3 -9 -6 -17q-2 -8 -6 -17q-3 -9 -7 -16q-3 -7 -8 -15q-4 -9 -9 -16q-3 -7 -9 -14q-5 -8 -10 -14q-5 -7 -11 -14q-5 -7 -10 -12l-0.5 -0.5t-1.5 -0.5q-4 -5 -6 -7q-1 -1 -6 -5q0 -1 -1 -2l-1 -1q-4 -5 -11 -9q-6 -6 -13 -11
q-7 -6 -14 -11q-6 -5 -14 -9q-7 -5 -15 -9q-8 -5 -16 -8q-7 -5 -16 -8q-8 -4 -16 -6q-8 -4 -17 -6q-9 -3 -17 -5t-18 -4q-9 -2 -17 -3q-9 -1 -19 -2q-9 -1 -18 -1h-19t-18 1q-10 1 -19 2q-8 1 -18 3q-9 2 -17 4t-17 5q-9 2 -17 6q-8 2 -17 6q-8 3 -16 8q-8 3 -15 8
q-8 4 -15 9q-8 4 -15 9t-14 11q-7 5 -13 11q-6 4 -10 9q-1 0 -1.5 1t-1.5 2l-5 5q-3 2 -7 7l-1 1q-5 5 -11 12t-10 14q-6 6 -10 14q-6 8 -10 15q-4 6 -8 15q-5 8 -8 15q-4 8 -7 17q-4 8 -7 16t-5 17q-3 9 -4 17q-3 9 -4 18q-2 9 -2 18q-2 10 -2 19q-1 8 -1 17v14v11v12v11
v12v12v11v12v11v12v12v11v12v11v12v12v11v12v11v12v12q-2 51 34 88q34 34 82.5 34t82.5 -34q37 -37 34 -88v-12v-12v-11v-12v-11v-12v-12v-11v-12v-11v-12v-12v-11v-12v-11v-12v-12v-11v-12v-11v-11v-6t1 -5q0 -3 1 -6q0 -4 1 -5q0 -2 1 -6l2 -5l1 -5q2 -4 3 -5q0 -1 1 -3
q1 -1 1 -2q2 -4 3 -4q0 -1 3 -5q2 -3 3 -4q0 -1 3 -4t3 -4q1 0 1 -0.5t1 -0.5q0 -1 1 -2l1 -1q3 -2 4 -3l4 -4q3 -2 4 -3q2 -1 5 -3t4 -3q3 -1 5 -2t5 -3q3 -1 5 -1q1 -1 5 -2l2 -0.5t3 -1.5l6 -1q5 -1 6 -1h5q3 -1 6 -1h5q2 0 6 1h5q1 0 6 1l5 1q1 1 4 1l1 1q4 1 6 2
q1 0 4 1q3 2 5 3q3 1 5 2q2 2 5 3q2 2 4 3t4 3q3 2 5 4q1 0 3 3q1 0 1.5 1t1.5 2l0.5 0.5l0.5 0.5l4 4q2 3 3 4t3 4q2 4 3 5q0 1 3 4l2 5l2 5l2 5q0 1 1 4q0 1 1 1q1 4 1 6q0 1 1 5q0 3 1 6v5q0 2 1 6q-1 5 0 11q-1 5 0 11q-1 6 0 12q-1 6 0 11q-1 6 0 12q-1 6 0 12
q-1 5 0 11q-1 6 0 12q-1 6 0 11q-1 6 0 12q-1 6 0 12q-1 5 0 11q-1 6 0 12q-1 6 0 11q-1 6 0 12q-1 6 0 12q-1 5 0 11q-1 6 0 12q-1 6 0 11q-1 6 0 12q-1 6 0 12q-3 51 34 88q34 34 82 34t83 -34q36 -37 33 -88z" />
    <glyph glyph-name="V" unicode="V" 
d="M511 78q-2 -5 -5 -9q-14 -31 -42.5 -50t-63.5 -19t-63.5 19t-42.5 50q-3 4 -5 9q-2 4 -5 9q-2 5 -4 9q-3 5 -5 10q-2 4 -4 9q-3 4 -5 9q-2 4 -4 9q-3 4 -5 9t-5 9q-2 5 -4 9l-5 10q-2 4 -4 9q-3 4 -5 9q-2 4 -4 9q-3 4 -5 9t-5 9l-4 10q-3 4 -5 9q-2 4 -4 9q-3 4 -5 9
q-2 4 -4 9q-3 4 -5 9t-5 9l-4 10q-3 4 -5 9q-2 4 -4 9q-3 4 -5 9q-2 4 -5 9q-2 4 -4 9t-5 9l-4 10q-3 4 -5 9q-2 4 -4 9q-3 4 -5 9q-2 4 -5 9q-2 4 -4 9t-5 9l-4 10q-3 4 -5 9q-2 4 -4 9q-3 4 -5 9q-2 4 -5 9q-2 4 -4 9t-5 10q-2 4 -4 9q-3 4 -5 9q-2 4 -4 9q-3 4 -5 9
q-2 4 -5 9q-2 5 -4 9q-15 27 -15 57q0 49 34 83t83 34q35 0 63.5 -19t42.5 -50q2 -4 5 -9q2 -4 4 -9q3 -5 5 -9q2 -5 4 -9q3 -4 5 -10q2 -4 5 -9q2 -4 4 -9q3 -4 5 -9q2 -4 4 -9q3 -5 5 -9t4 -10q3 -4 5 -9q2 -4 5 -9q2 -4 4 -9q2 -4 5 -9q2 -4 4 -9q3 -5 5 -9l4 -10
q3 -4 5 -9q2 -4 5 -9q2 -4 4 -9q2 -4 5 -9q2 -5 4 -9q3 -4 5 -9l4 -10q3 -4 5 -9q2 -4 5 -9q1 -2 3 -7q2 5 4 7q2 5 4 9q2 5 5 9q2 6 4 10q2 5 5 9q2 5 4 9q3 5 5 9q2 5 5 9q2 5 4 9q2 5 5 9l4 10t5 9q2 5 4 9q3 5 5 9q2 5 5 9q2 5 4 9q2 5 5 9l4 10q3 5 5 9q2 5 4 9
q3 5 5 9q2 5 5 9q2 5 4 9q2 5 5 10q2 5 4 9q2 5 5 9q2 5 4 9q3 5 5 9q14 31 42.5 50t63.5 19q49 0 83 -34t34 -83q0 -30 -15 -57q-2 -5 -5 -9q-2 -5 -4 -9q-2 -5 -5 -9q-2 -5 -4 -9q-2 -5 -5 -9q-2 -6 -4 -10q-3 -5 -5 -9q-2 -5 -5 -9q-2 -5 -4 -9q-2 -5 -5 -9q-2 -5 -4 -9
q-3 -5 -5 -9q-2 -6 -4 -10q-3 -5 -5 -9q-2 -5 -5 -9q-2 -5 -4 -9q-2 -5 -5 -9q-2 -5 -4 -9q-3 -5 -5 -10t-4 -9q-3 -5 -5 -9q-2 -5 -5 -9q-2 -5 -4 -9q-3 -5 -5 -9q-2 -5 -4 -9q-3 -5 -5 -10t-4 -9q-3 -5 -5 -9q-2 -5 -5 -9q-2 -5 -4 -9q-2 -5 -5 -9q-2 -5 -4 -9
q-3 -5 -5 -10t-4 -9q-3 -5 -5 -9q-2 -5 -5 -9q-2 -5 -4 -9q-2 -5 -5 -9q-2 -6 -4 -9q-3 -5 -5 -10t-4 -9q-3 -5 -5 -9q-2 -5 -5 -9q-2 -5 -4 -9q-3 -5 -5 -9l-4 -10q-3 -5 -5 -9q-2 -5 -4 -9q-3 -5 -5 -9z" />
    <glyph glyph-name="V" unicode="v" 
d="M511 78q-2 -5 -5 -9q-14 -31 -42.5 -50t-63.5 -19t-63.5 19t-42.5 50q-3 4 -5 9q-2 4 -5 9q-2 5 -4 9q-3 5 -5 10q-2 4 -4 9q-3 4 -5 9q-2 4 -4 9q-3 4 -5 9t-5 9q-2 5 -4 9l-5 10q-2 4 -4 9q-3 4 -5 9q-2 4 -4 9q-3 4 -5 9t-5 9l-4 10q-3 4 -5 9q-2 4 -4 9q-3 4 -5 9
q-2 4 -4 9q-3 4 -5 9t-5 9l-4 10q-3 4 -5 9q-2 4 -4 9q-3 4 -5 9q-2 4 -5 9q-2 4 -4 9t-5 9l-4 10q-3 4 -5 9q-2 4 -4 9q-3 4 -5 9q-2 4 -5 9q-2 4 -4 9t-5 9l-4 10q-3 4 -5 9q-2 4 -4 9q-3 4 -5 9q-2 4 -5 9q-2 4 -4 9t-5 10q-2 4 -4 9q-3 4 -5 9q-2 4 -4 9q-3 4 -5 9
q-2 4 -5 9q-2 5 -4 9q-15 27 -15 57q0 49 34 83t83 34q35 0 63.5 -19t42.5 -50q2 -4 5 -9q2 -4 4 -9q3 -5 5 -9q2 -5 4 -9q3 -4 5 -10q2 -4 5 -9q2 -4 4 -9q3 -4 5 -9q2 -4 4 -9q3 -5 5 -9t4 -10q3 -4 5 -9q2 -4 5 -9q2 -4 4 -9q2 -4 5 -9q2 -4 4 -9q3 -5 5 -9l4 -10
q3 -4 5 -9q2 -4 5 -9q2 -4 4 -9q2 -4 5 -9q2 -5 4 -9q3 -4 5 -9l4 -10q3 -4 5 -9q2 -4 5 -9q1 -2 3 -7q2 5 4 7q2 5 4 9q2 5 5 9q2 6 4 10q2 5 5 9q2 5 4 9q3 5 5 9q2 5 5 9q2 5 4 9q2 5 5 9l4 10t5 9q2 5 4 9q3 5 5 9q2 5 5 9q2 5 4 9q2 5 5 9l4 10q3 5 5 9q2 5 4 9
q3 5 5 9q2 5 5 9q2 5 4 9q2 5 5 10q2 5 4 9q2 5 5 9q2 5 4 9q3 5 5 9q14 31 42.5 50t63.5 19q49 0 83 -34t34 -83q0 -30 -15 -57q-2 -5 -5 -9q-2 -5 -4 -9q-2 -5 -5 -9q-2 -5 -4 -9q-2 -5 -5 -9q-2 -6 -4 -10q-3 -5 -5 -9q-2 -5 -5 -9q-2 -5 -4 -9q-2 -5 -5 -9q-2 -5 -4 -9
q-3 -5 -5 -9q-2 -6 -4 -10q-3 -5 -5 -9q-2 -5 -5 -9q-2 -5 -4 -9q-2 -5 -5 -9q-2 -5 -4 -9q-3 -5 -5 -10t-4 -9q-3 -5 -5 -9q-2 -5 -5 -9q-2 -5 -4 -9q-3 -5 -5 -9q-2 -5 -4 -9q-3 -5 -5 -10t-4 -9q-3 -5 -5 -9q-2 -5 -5 -9q-2 -5 -4 -9q-2 -5 -5 -9q-2 -5 -4 -9
q-3 -5 -5 -10t-4 -9q-3 -5 -5 -9q-2 -5 -5 -9q-2 -5 -4 -9q-2 -5 -5 -9q-2 -6 -4 -9q-3 -5 -5 -10t-4 -9q-3 -5 -5 -9q-2 -5 -5 -9q-2 -5 -4 -9q-3 -5 -5 -9l-4 -10q-3 -5 -5 -9q-2 -5 -4 -9q-3 -5 -5 -9z" />
    <glyph glyph-name="W" unicode="W" horiz-adv-x="1092" 
d="M864 89l-3 -9q-12 -35 -42.5 -57.5t-68.5 -22.5q-37 0 -66.5 20.5t-42.5 54.5q-2 4 -4 9t-4 9q-2 5 -4 9q-2 5 -4 9q-2 5 -4 9l-4 10q-2 4 -4 9q-2 4 -4 9t-4 9q-2 5 -4 9q-2 5 -4 9l-4 10q-2 4 -4 9q-2 4 -4 9q-2 4 -4 9t-4 9q-2 5 -4 9q-2 5 -4 9l-4 10q-2 4 -4 9
q-2 4 -4 9t-4 9q-2 5 -4 9t-3 7q-1 -3 -3 -7t-4 -9q-2 -4 -4 -9t-4 -9q-2 -5 -4 -9l-4 -10q-2 -4 -5 -9q-1 -4 -4 -9q-1 -4 -4 -9q-1 -5 -4 -9q-1 -5 -4 -9q-1 -5 -4 -9q-1 -5 -4 -10q-1 -4 -4 -9q-1 -4 -4 -9q-1 -4 -4 -9q-1 -5 -4 -9q-1 -5 -4 -9q-1 -5 -4 -10
q-1 -4 -4 -9q-1 -4 -4 -9q-1 -4 -4 -9q-1 -5 -4 -9q-1 -5 -4 -9q-12 -34 -42 -54.5t-66 -20.5q-38 0 -68.5 22.5t-42.5 57.5q-2 4 -3 9q-2 4 -4 9q-1 4 -3 9q-2 4 -4 9q-1 4 -3 9q-2 4 -4 10l-3 9q-2 4 -3 9q-2 3 -4 9q-1 4 -3 9q-2 4 -4 9q-1 4 -3 10q-2 3 -4 9l-3 9
q-2 3 -3 9q-2 4 -4 9q-1 4 -3 9q-2 4 -4 9q-1 4 -3 10q-2 3 -4 9l-3 9q-2 3 -3 9q-2 4 -4 9q-1 4 -3 9q-2 4 -4 9q-1 4 -3 10q-2 3 -4 9l-3 9q-2 4 -3 9q-2 4 -4 9q-1 4 -3 9q-2 4 -4 9q-1 4 -3 10q-2 3 -4 9l-3 9q-2 4 -3 9q-2 4 -4 9q-2 4 -3 9q-2 4 -4 10l-3 9q-2 3 -4 9
q-1 4 -3 9q-2 4 -3 9q-2 4 -4 9q-2 4 -3 9q-2 4 -4 10l-3 9q-2 3 -4 9q-1 4 -3 9q-2 4 -3 9q-10 22 -10 46q0 49 34 83t83 34q38 0 68.5 -22t41.5 -58q2 -3 4 -9q1 -4 3 -9q2 -4 4 -9q1 -4 3 -9q2 -4 3 -9q2 -4 4 -10q2 -3 3 -9q2 -4 4 -9q1 -4 3 -9q2 -4 4 -9q1 -4 3 -9
q2 -4 3 -9q2 -4 4 -10q2 -3 3 -9q2 -4 4 -9q1 -4 3 -9q2 -4 4 -9q1 -4 3 -9q2 -4 3 -9q2 -4 4 -10q2 -3 3 -9q1 0 1 -1l3 6q2 5 4 9q2 5 4 9l4 10q2 4 4 9q2 4 4 9q2 4 4 9t4 9q2 5 4 9q2 5 4 9l4 10q2 4 4 9q2 4 4 9q2 4 4 9t4 9q2 5 4 9l4 10q2 4 4 9q2 4 4 9q2 4 4 9
q2 4 4 9t4 9q13 34 42.5 54.5t66.5 20.5t66.5 -20.5t42.5 -54.5q2 -5 4 -9q2 -5 4 -9q2 -5 4 -9q2 -5 4 -9l4 -10q2 -4 4 -9q2 -4 4 -9q2 -4 4 -9t4 -9q2 -5 4 -9q2 -5 4 -9l4 -10q2 -4 4 -9q2 -4 4 -9q2 -4 4 -9t4 -9q2 -5 4 -9q2 -5 4 -9l4 -10q2 -4 4 -9q2 -4 4 -9t3 -6
v1q2 6 4 9l3 9q2 6 4 10q2 5 3 9q2 5 4 9q1 5 3 9q2 5 3 9q2 5 4 9q2 6 3 10q2 5 4 9q2 5 3 9q2 5 4 9q1 5 3 9l3 9q2 6 4 9q2 6 3 10q2 5 4 9q2 5 3 9q2 5 4 9q1 6 3 9q2 5 3 9q12 35 42.5 57.5t68.5 22.5q48 0 82.5 -34t34.5 -83q0 -24 -10 -46q-2 -5 -3 -9q-2 -5 -4 -9
l-3 -9q-2 -6 -4 -9q-1 -6 -3 -10q-2 -5 -3 -9q-2 -5 -4 -9q-2 -5 -3 -9q-2 -5 -4 -9l-3 -9q-2 -6 -4 -10q-1 -5 -3 -9q-2 -5 -3 -9q-2 -5 -4 -9q-2 -5 -3 -9q-2 -6 -4 -9q-2 -5 -3 -9q-2 -6 -4 -10q-1 -5 -3 -9q-2 -5 -3 -9q-2 -5 -4 -9q-2 -5 -3 -9q-2 -5 -4 -9l-3 -9
q-2 -6 -4 -10q-1 -5 -3 -9q-2 -5 -4 -9q-1 -5 -3 -9q-2 -5 -3 -9q-2 -5 -4 -9l-3 -9q-2 -6 -4 -10q-1 -5 -3 -9q-2 -5 -4 -9q-1 -5 -3 -9q-2 -5 -3 -9q-2 -5 -4 -9q-2 -6 -3 -10q-2 -5 -4 -9q-2 -5 -3 -9q-2 -5 -4 -9q-1 -5 -3 -9q-2 -5 -3 -9q-2 -6 -4 -9q-2 -6 -3 -10
q-2 -5 -4 -9q-2 -5 -3 -9q-2 -5 -4 -9q-1 -5 -3 -9z" />
    <glyph glyph-name="W" unicode="w" horiz-adv-x="1092" 
d="M864 89l-3 -9q-12 -35 -42.5 -57.5t-68.5 -22.5q-37 0 -66.5 20.5t-42.5 54.5q-2 4 -4 9t-4 9q-2 5 -4 9q-2 5 -4 9q-2 5 -4 9l-4 10q-2 4 -4 9q-2 4 -4 9t-4 9q-2 5 -4 9q-2 5 -4 9l-4 10q-2 4 -4 9q-2 4 -4 9q-2 4 -4 9t-4 9q-2 5 -4 9q-2 5 -4 9l-4 10q-2 4 -4 9
q-2 4 -4 9t-4 9q-2 5 -4 9t-3 7q-1 -3 -3 -7t-4 -9q-2 -4 -4 -9t-4 -9q-2 -5 -4 -9l-4 -10q-2 -4 -5 -9q-1 -4 -4 -9q-1 -4 -4 -9q-1 -5 -4 -9q-1 -5 -4 -9q-1 -5 -4 -9q-1 -5 -4 -10q-1 -4 -4 -9q-1 -4 -4 -9q-1 -4 -4 -9q-1 -5 -4 -9q-1 -5 -4 -9q-1 -5 -4 -10
q-1 -4 -4 -9q-1 -4 -4 -9q-1 -4 -4 -9q-1 -5 -4 -9q-1 -5 -4 -9q-12 -34 -42 -54.5t-66 -20.5q-38 0 -68.5 22.5t-42.5 57.5q-2 4 -3 9q-2 4 -4 9q-1 4 -3 9q-2 4 -4 9q-1 4 -3 9q-2 4 -4 10l-3 9q-2 4 -3 9q-2 3 -4 9q-1 4 -3 9q-2 4 -4 9q-1 4 -3 10q-2 3 -4 9l-3 9
q-2 3 -3 9q-2 4 -4 9q-1 4 -3 9q-2 4 -4 9q-1 4 -3 10q-2 3 -4 9l-3 9q-2 3 -3 9q-2 4 -4 9q-1 4 -3 9q-2 4 -4 9q-1 4 -3 10q-2 3 -4 9l-3 9q-2 4 -3 9q-2 4 -4 9q-1 4 -3 9q-2 4 -4 9q-1 4 -3 10q-2 3 -4 9l-3 9q-2 4 -3 9q-2 4 -4 9q-2 4 -3 9q-2 4 -4 10l-3 9q-2 3 -4 9
q-1 4 -3 9q-2 4 -3 9q-2 4 -4 9q-2 4 -3 9q-2 4 -4 10l-3 9q-2 3 -4 9q-1 4 -3 9q-2 4 -3 9q-10 22 -10 46q0 49 34 83t83 34q38 0 68.5 -22t41.5 -58q2 -3 4 -9q1 -4 3 -9q2 -4 4 -9q1 -4 3 -9q2 -4 3 -9q2 -4 4 -10q2 -3 3 -9q2 -4 4 -9q1 -4 3 -9q2 -4 4 -9q1 -4 3 -9
q2 -4 3 -9q2 -4 4 -10q2 -3 3 -9q2 -4 4 -9q1 -4 3 -9q2 -4 4 -9q1 -4 3 -9q2 -4 3 -9q2 -4 4 -10q2 -3 3 -9q1 0 1 -1l3 6q2 5 4 9q2 5 4 9l4 10q2 4 4 9q2 4 4 9q2 4 4 9t4 9q2 5 4 9q2 5 4 9l4 10q2 4 4 9q2 4 4 9q2 4 4 9t4 9q2 5 4 9l4 10q2 4 4 9q2 4 4 9q2 4 4 9
q2 4 4 9t4 9q13 34 42.5 54.5t66.5 20.5t66.5 -20.5t42.5 -54.5q2 -5 4 -9q2 -5 4 -9q2 -5 4 -9q2 -5 4 -9l4 -10q2 -4 4 -9q2 -4 4 -9q2 -4 4 -9t4 -9q2 -5 4 -9q2 -5 4 -9l4 -10q2 -4 4 -9q2 -4 4 -9q2 -4 4 -9t4 -9q2 -5 4 -9q2 -5 4 -9l4 -10q2 -4 4 -9q2 -4 4 -9t3 -6
v1q2 6 4 9l3 9q2 6 4 10q2 5 3 9q2 5 4 9q1 5 3 9q2 5 3 9q2 5 4 9q2 6 3 10q2 5 4 9q2 5 3 9q2 5 4 9q1 5 3 9l3 9q2 6 4 9q2 6 3 10q2 5 4 9q2 5 3 9q2 5 4 9q1 6 3 9q2 5 3 9q12 35 42.5 57.5t68.5 22.5q48 0 82.5 -34t34.5 -83q0 -24 -10 -46q-2 -5 -3 -9q-2 -5 -4 -9
l-3 -9q-2 -6 -4 -9q-1 -6 -3 -10q-2 -5 -3 -9q-2 -5 -4 -9q-2 -5 -3 -9q-2 -5 -4 -9l-3 -9q-2 -6 -4 -10q-1 -5 -3 -9q-2 -5 -3 -9q-2 -5 -4 -9q-2 -5 -3 -9q-2 -6 -4 -9q-2 -5 -3 -9q-2 -6 -4 -10q-1 -5 -3 -9q-2 -5 -3 -9q-2 -5 -4 -9q-2 -5 -3 -9q-2 -5 -4 -9l-3 -9
q-2 -6 -4 -10q-1 -5 -3 -9q-2 -5 -4 -9q-1 -5 -3 -9q-2 -5 -3 -9q-2 -5 -4 -9l-3 -9q-2 -6 -4 -10q-1 -5 -3 -9q-2 -5 -4 -9q-1 -5 -3 -9q-2 -5 -3 -9q-2 -5 -4 -9q-2 -6 -3 -10q-2 -5 -4 -9q-2 -5 -3 -9q-2 -5 -4 -9q-1 -5 -3 -9q-2 -5 -3 -9q-2 -6 -4 -9q-2 -6 -3 -10
q-2 -5 -4 -9q-2 -5 -3 -9q-2 -5 -4 -9q-1 -5 -3 -9z" />
    <glyph glyph-name="X" unicode="X" 
d="M711 203q39 -35 39 -86q0 -49 -34 -83t-83 -34q-51 0 -86 39q-5 4 -9 8l-9 9t-8 9q-5 4 -9 9q-5 4 -9 8t-8 9q-5 4 -9 9q-5 4 -9 8l-9 9q-4 4 -8 9q-5 4 -9 8l-9 9t-8 9q-5 4 -9 8l-9 9t-8 9q-5 4 -8 7q-4 -3 -8 -7q-4 -5 -8 -9q-4 -5 -9 -9q-4 -4 -9 -8q-4 -5 -8 -9
l-9 -9q-4 -4 -9 -8q-4 -5 -8 -9l-9 -9t-9 -8q-4 -5 -9 -9q-4 -5 -8 -9t-9 -8q-4 -5 -9 -9q-4 -5 -8 -9l-9 -9t-9 -8q-35 -39 -86 -39q-49 0 -83 34t-34 83q0 51 39 86q4 5 8 9l9 9t9 8q4 5 8 9l9 9q4 5 9 9q4 4 9 8q4 5 8 9l9 9q4 4 9 8q4 5 8 9l9 9t9 8q4 5 8 9l9 9
q4 4 9 8q3 4 7 8q-4 4 -7 8q-5 4 -9 9q-5 4 -10 9l-9 9q-5 5 -9 10q-5 4 -9 9q-5 4 -10 9l-9 9q-5 5 -9 10q-5 4 -9 9q-5 4 -10 9l-9 9t-9 10q-5 4 -9 9q-5 4 -10 9q-5 4 -9 9q-39 35 -39 87q0 49 34 83t83 34q52 0 87 -39l9 -9q5 -4 9 -9q5 -5 9 -10q5 -4 10 -9q5 -4 9 -9
q5 -5 9 -10q5 -4 9 -9q5 -4 10 -9l9 -9t9 -10q5 -4 9 -9q5 -4 10 -9q5 -4 9 -9q5 -5 9 -10q5 -4 9 -9q5 -4 8 -7q4 4 8 7q4 5 9 9q4 5 9 10l9 9t10 9q4 5 9 9q4 5 9 10l9 9q5 5 10 9q4 5 9 9q4 5 9 10q4 5 9 9q5 5 10 9q4 5 9 9q4 5 9 10l9 9q35 39 87 39q49 0 83 -34
t34 -83q0 -52 -39 -87l-9 -9t-10 -9q-4 -5 -9 -9q-4 -5 -9 -10l-9 -9t-10 -9q-4 -5 -9 -9q-4 -5 -9 -10q-4 -5 -9 -9q-5 -5 -10 -9q-4 -5 -9 -9q-4 -5 -9 -10l-9 -9t-10 -9q-4 -5 -9 -9q-4 -5 -7 -8q4 -4 7 -8q5 -4 9 -8q5 -4 9 -9q4 -4 8 -9q5 -4 9 -8l9 -9t8 -9q5 -4 9 -8
l9 -9t8 -9q5 -4 9 -9q5 -4 9 -8q5 -4 8 -9q5 -4 9 -9q5 -4 9 -8l9 -9q4 -4 8 -9z" />
    <glyph glyph-name="X" unicode="x" 
d="M711 203q39 -35 39 -86q0 -49 -34 -83t-83 -34q-51 0 -86 39q-5 4 -9 8l-9 9t-8 9q-5 4 -9 9q-5 4 -9 8t-8 9q-5 4 -9 9q-5 4 -9 8l-9 9q-4 4 -8 9q-5 4 -9 8l-9 9t-8 9q-5 4 -9 8l-9 9t-8 9q-5 4 -8 7q-4 -3 -8 -7q-4 -5 -8 -9q-4 -5 -9 -9q-4 -4 -9 -8q-4 -5 -8 -9
l-9 -9q-4 -4 -9 -8q-4 -5 -8 -9l-9 -9t-9 -8q-4 -5 -9 -9q-4 -5 -8 -9t-9 -8q-4 -5 -9 -9q-4 -5 -8 -9l-9 -9t-9 -8q-35 -39 -86 -39q-49 0 -83 34t-34 83q0 51 39 86q4 5 8 9l9 9t9 8q4 5 8 9l9 9q4 5 9 9q4 4 9 8q4 5 8 9l9 9q4 4 9 8q4 5 8 9l9 9t9 8q4 5 8 9l9 9
q4 4 9 8q3 4 7 8q-4 4 -7 8q-5 4 -9 9q-5 4 -10 9l-9 9q-5 5 -9 10q-5 4 -9 9q-5 4 -10 9l-9 9q-5 5 -9 10q-5 4 -9 9q-5 4 -10 9l-9 9t-9 10q-5 4 -9 9q-5 4 -10 9q-5 4 -9 9q-39 35 -39 87q0 49 34 83t83 34q52 0 87 -39l9 -9q5 -4 9 -9q5 -5 9 -10q5 -4 10 -9q5 -4 9 -9
q5 -5 9 -10q5 -4 9 -9q5 -4 10 -9l9 -9t9 -10q5 -4 9 -9q5 -4 10 -9q5 -4 9 -9q5 -5 9 -10q5 -4 9 -9q5 -4 8 -7q4 4 8 7q4 5 9 9q4 5 9 10l9 9t10 9q4 5 9 9q4 5 9 10l9 9q5 5 10 9q4 5 9 9q4 5 9 10q4 5 9 9q5 5 10 9q4 5 9 9q4 5 9 10l9 9q35 39 87 39q49 0 83 -34
t34 -83q0 -52 -39 -87l-9 -9t-10 -9q-4 -5 -9 -9q-4 -5 -9 -10l-9 -9t-10 -9q-4 -5 -9 -9q-4 -5 -9 -10q-4 -5 -9 -9q-5 -5 -10 -9q-4 -5 -9 -9q-4 -5 -9 -10l-9 -9t-10 -9q-4 -5 -9 -9q-4 -5 -7 -8q4 -4 7 -8q5 -4 9 -8q5 -4 9 -9q4 -4 8 -9q5 -4 9 -8l9 -9t8 -9q5 -4 9 -8
l9 -9t8 -9q5 -4 9 -9q5 -4 9 -8q5 -4 8 -9q5 -4 9 -9q5 -4 9 -8l9 -9q4 -4 8 -9z" />
    <glyph glyph-name="Y" unicode="Y" 
d="M515 271.5v-1v-0.5v-4v-2v-1v-3.5v-2.5v-0.5v-1.5v-3v-2.5v-1v-0.5l-1 -6v-1v-6v-1v-4v-2v-0.5v-1v-6.5v-1l-1 -6l1 -1q0 -1 -1 -6v-0.5v-1v-5.5v-1.5v-0.5v-6v-1v-6v-0.5v-1.5l-1 -5v-1.5v-0.5v-6v-1v-4v-2v-0.5v-1.5v-5v-1v-1v-6v-1l-1 -6v-1v-6v-0.5v-1v-5.5v-1.5
v-0.5v-4v-2v-1q0 -49 -34.5 -83t-82.5 -34t-82.5 34t-34.5 83q0 1 1 3v3v1v3v3v1v4v2v0.5v1.5v3v2.5v1v0.5q0 1 0.5 3t0.5 2.5v1.5v6v0.5v1.5v3v2v1.5v0.5v4v2v1v4v2v0.5v1.5t1 3v2v1.5v0.5v3v3v1v3v2.5v1.5v4v2v0.5v1.5v3t1 2q0 1 -0.5 1.5l-0.5 0.5q0 1 0.5 3t0.5 2.5v1.5
v4v2v0.5v1.5v3v2v1.5v0.5v4v2v1v4q1 1 1 2l-0.5 0.5t-0.5 1.5t1 3v2v1.5v0.5v3v3v1v3v2.5v1.5v1v0q0 1 -1 2l-2 2l-1.5 1t-1.5 2l-1.5 1.5t-1.5 2.5l-3 3l-1.5 1.5l-1.5 1.5q-3 3 -3 4l-3 3l-4 4l-3 3q0 1 -1 2l-2 2l-3 3l-1 1.5t-2 2.5l-1 1l-2 2l-3 4l-1 1l-2 2l-1.5 1.5
l-1.5 1.5l-3 4q-1 0 -2 1.5l-1 1.5q0 1 -1.5 2t-1.5 2l-1.5 1.5l-1.5 1.5q-3 3 -3 4q-1 0 -2 1t-1 2l-3.5 3.5l-1.5 1.5l-2 2l-1 1.5t-2 2.5l-3 3l-1 1q-1 2 -2 2l-3 4l-3 3q-3 3 -3 3.5t-1.5 2l-1.5 1.5q0 1 -1.5 2t-1.5 2l-1.5 1t-1.5 2l-1.5 1.5t-1.5 2.5q-1 0 -2 1t-1 2
l-3.5 3.5l-1.5 1.5l-2 2q-3 3 -3 3.5t-1 1.5l-2 2l-1 1.5t-2 1.5l-3 4q-3 3 -3 3.5t-1 1.5l-2 2l-3 3q-3 3 -3 3.5t-1.5 1.5t-1.5 2l-1.5 1.5l-1.5 1.5l-3 4l-1.5 1.5l-1.5 1.5l-2 2t-1 2q-1 0 -2 1.5t-2 1.5l-1 1.5t-2 2.5l-1 1l-2 2q0 1 -1 2l-2 2l-1 1l-2 2l-1 1.5
t-2 2.5l-3 3l-1 1.5t-2 1.5q0 1 -1.5 2t-1.5 2l-1.5 1.5l-1.5 1.5l-3 4q-1 0 -2 1.5l-1 1.5l-3 4l-3 3l-4 4l-3 3q-29 33 -29 77q0 49 34 83t83 34q55 0 90 -43l1 -1.5t2 -1.5q0 -1 1.5 -2t1.5 -2l1.5 -1.5l1.5 -1.5l1.5 -1.5t1.5 -2.5l3 -3q3 -3 3 -4q3 -2 3 -3l3.5 -3.5
l1.5 -1.5l2 -2l1 -1.5t2 -1.5q0 -1 1 -2l2 -2l3 -3l3 -4l3 -3l1.5 -1.5t1.5 -2.5l3 -3l1.5 -1.5t1.5 -2.5q1 0 2 -1t1 -2q1 0 2 -1.5t1 -2.5q3 -3 3.5 -3t1.5 -1.5t2 -1.5l3 -4l1 -1.5t2 -1.5q0 -1 1 -2l2 -2l1 -1.5t2 -1.5l3 -4l3 -3l3 -4l3 -3l1.5 -1.5t1.5 -2.5l3 -3
l1.5 -1.5l1.5 -1.5l2 -2t1 -2l1.5 -1.5l1.5 -1.5l4 -4l1 -1.5t2 -1.5q0 -1 1 -2l2 -2l3 -3l1 -1.5t2 -2.5l1 -1l2 -2l1 -1.5t2 -2.5l1 -1l2 -2l1 -1.5t2 -1.5q3 -3 3 -4l3 -3l3 -4l1 -0.5t1 -1.5l2 2t5 6q1 2 5 5q1 2 5 6q1 1 4 5q2 2 5 6l5 5q1 2 5 6l5 5q1 2 5 6l5 5
q1 2 4 6q2 1 5 5l5 5q2 2 5 6q1 2 5 5q1 2 5 6q1 2 5 5q1 2 4 6l5 5q2 2 5 6l5 5q1 2 5 6l5 5q1 2 5 6q1 1 4 5l5 5q1 2 5 6l5 5q2 2 5 6q35 43 90 43q49 0 83 -34t34 -83q0 -45 -31 -79l-5 -5q-1 -2 -5 -6l-5 -5q-1 -2 -4 -5q-2 -2 -5 -6l-5 -5q-2 -2 -5 -6l-5 -5
q-1 -2 -5 -6q-1 -2 -5 -5q-1 -2 -4 -6l-5 -5q-2 -2 -5 -6l-5 -5q-1 -2 -5 -6l-5 -5q-1 -2 -5 -5q-1 -3 -4 -6l-5 -5q-2 -2 -5 -6l-5 -5q-1 -2 -5 -6q-1 -2 -5 -5q-1 -2 -5 -6q-1 -1 -4 -5q-2 -2 -5 -6q-2 -1 -5 -5q-1 -2 -5 -6l-5 -5q-1 -2 -5 -6l-5 -5q-1 -2 -4 -5
q-2 -2 -5 -6l-5 -5q-2 -2 -5 -6l-5 -5q-1 -2 -5 -6q-1 -2 -5 -5q-1 -2 -4 -6q-2 -1 -5 -5q-2 -2 -5 -6l-5 -5v-2v-1.5z" />
    <glyph glyph-name="Y" unicode="y" 
d="M515 271.5v-1v-0.5v-4v-2v-1v-3.5v-2.5v-0.5v-1.5v-3v-2.5v-1v-0.5l-1 -6v-1v-6v-1v-4v-2v-0.5v-1v-6.5v-1l-1 -6l1 -1q0 -1 -1 -6v-0.5v-1v-5.5v-1.5v-0.5v-6v-1v-6v-0.5v-1.5l-1 -5v-1.5v-0.5v-6v-1v-4v-2v-0.5v-1.5v-5v-1v-1v-6v-1l-1 -6v-1v-6v-0.5v-1v-5.5v-1.5
v-0.5v-4v-2v-1q0 -49 -34.5 -83t-82.5 -34t-82.5 34t-34.5 83q0 1 1 3v3v1v3v3v1v4v2v0.5v1.5v3v2.5v1v0.5q0 1 0.5 3t0.5 2.5v1.5v6v0.5v1.5v3v2v1.5v0.5v4v2v1v4v2v0.5v1.5t1 3v2v1.5v0.5v3v3v1v3v2.5v1.5v4v2v0.5v1.5v3t1 2q0 1 -0.5 1.5l-0.5 0.5q0 1 0.5 3t0.5 2.5v1.5
v4v2v0.5v1.5v3v2v1.5v0.5v4v2v1v4q1 1 1 2l-0.5 0.5t-0.5 1.5t1 3v2v1.5v0.5v3v3v1v3v2.5v1.5v1v0q0 1 -1 2l-2 2l-1.5 1t-1.5 2l-1.5 1.5t-1.5 2.5l-3 3l-1.5 1.5l-1.5 1.5q-3 3 -3 4l-3 3l-4 4l-3 3q0 1 -1 2l-2 2l-3 3l-1 1.5t-2 2.5l-1 1l-2 2l-3 4l-1 1l-2 2l-1.5 1.5
l-1.5 1.5l-3 4q-1 0 -2 1.5l-1 1.5q0 1 -1.5 2t-1.5 2l-1.5 1.5l-1.5 1.5q-3 3 -3 4q-1 0 -2 1t-1 2l-3.5 3.5l-1.5 1.5l-2 2l-1 1.5t-2 2.5l-3 3l-1 1q-1 2 -2 2l-3 4l-3 3q-3 3 -3 3.5t-1.5 2l-1.5 1.5q0 1 -1.5 2t-1.5 2l-1.5 1t-1.5 2l-1.5 1.5t-1.5 2.5q-1 0 -2 1t-1 2
l-3.5 3.5l-1.5 1.5l-2 2q-3 3 -3 3.5t-1 1.5l-2 2l-1 1.5t-2 1.5l-3 4q-3 3 -3 3.5t-1 1.5l-2 2l-3 3q-3 3 -3 3.5t-1.5 1.5t-1.5 2l-1.5 1.5l-1.5 1.5l-3 4l-1.5 1.5l-1.5 1.5l-2 2t-1 2q-1 0 -2 1.5t-2 1.5l-1 1.5t-2 2.5l-1 1l-2 2q0 1 -1 2l-2 2l-1 1l-2 2l-1 1.5
t-2 2.5l-3 3l-1 1.5t-2 1.5q0 1 -1.5 2t-1.5 2l-1.5 1.5l-1.5 1.5l-3 4q-1 0 -2 1.5l-1 1.5l-3 4l-3 3l-4 4l-3 3q-29 33 -29 77q0 49 34 83t83 34q55 0 90 -43l1 -1.5t2 -1.5q0 -1 1.5 -2t1.5 -2l1.5 -1.5l1.5 -1.5l1.5 -1.5t1.5 -2.5l3 -3q3 -3 3 -4q3 -2 3 -3l3.5 -3.5
l1.5 -1.5l2 -2l1 -1.5t2 -1.5q0 -1 1 -2l2 -2l3 -3l3 -4l3 -3l1.5 -1.5t1.5 -2.5l3 -3l1.5 -1.5t1.5 -2.5q1 0 2 -1t1 -2q1 0 2 -1.5t1 -2.5q3 -3 3.5 -3t1.5 -1.5t2 -1.5l3 -4l1 -1.5t2 -1.5q0 -1 1 -2l2 -2l1 -1.5t2 -1.5l3 -4l3 -3l3 -4l3 -3l1.5 -1.5t1.5 -2.5l3 -3
l1.5 -1.5l1.5 -1.5l2 -2t1 -2l1.5 -1.5l1.5 -1.5l4 -4l1 -1.5t2 -1.5q0 -1 1 -2l2 -2l3 -3l1 -1.5t2 -2.5l1 -1l2 -2l1 -1.5t2 -2.5l1 -1l2 -2l1 -1.5t2 -1.5q3 -3 3 -4l3 -3l3 -4l1 -0.5t1 -1.5l2 2t5 6q1 2 5 5q1 2 5 6q1 1 4 5q2 2 5 6l5 5q1 2 5 6l5 5q1 2 5 6l5 5
q1 2 4 6q2 1 5 5l5 5q2 2 5 6q1 2 5 5q1 2 5 6q1 2 5 5q1 2 4 6l5 5q2 2 5 6l5 5q1 2 5 6l5 5q1 2 5 6q1 1 4 5l5 5q1 2 5 6l5 5q2 2 5 6q35 43 90 43q49 0 83 -34t34 -83q0 -45 -31 -79l-5 -5q-1 -2 -5 -6l-5 -5q-1 -2 -4 -5q-2 -2 -5 -6l-5 -5q-2 -2 -5 -6l-5 -5
q-1 -2 -5 -6q-1 -2 -5 -5q-1 -2 -4 -6l-5 -5q-2 -2 -5 -6l-5 -5q-1 -2 -5 -6l-5 -5q-1 -2 -5 -5q-1 -3 -4 -6l-5 -5q-2 -2 -5 -6l-5 -5q-1 -2 -5 -6q-1 -2 -5 -5q-1 -2 -5 -6q-1 -1 -4 -5q-2 -2 -5 -6q-2 -1 -5 -5q-1 -2 -5 -6l-5 -5q-1 -2 -5 -6l-5 -5q-1 -2 -4 -5
q-2 -2 -5 -6l-5 -5q-2 -2 -5 -6l-5 -5q-1 -2 -5 -6q-1 -2 -5 -5q-1 -2 -4 -6q-2 -1 -5 -5q-2 -2 -5 -6l-5 -5v-2v-1.5z" />
    <glyph glyph-name="Z" unicode="Z" horiz-adv-x="732" 
d="M563 233q48 0 82 -34t34 -82.5t-34 -82.5t-82 -34q-6 0 -14 1q-8 -1 -14 -1t-14 1q-7 -1 -13 -1t-14 1q-8 -1 -14 -1t-13 1q-8 -1 -14 -1t-14 1q-8 -1 -14 -1t-13 1q-8 -1 -14 -1t-14 1q-8 -1 -14 -1t-13 1q-8 -1 -14 -1t-14 1q-7 -1 -13.5 -1t-13.5 1q-8 -1 -14 -1
t-14 1q-7 -1 -13.5 -1t-13.5 1q-8 -1 -14 -1t-14 1q-7 -1 -13.5 -1t-13.5 1q-8 -1 -14 -1q-38 0 -69 23q-27 15 -43 42t-16 59q0 51 38 86q8 11 18 21q8 11 18 21q8 11 19 20q7 11 18 21q7 11 18 21q7 11 18 20q7 11 18 21q7 11 18 21q7 11 18 20q8 11 18 21q8 11 18 21
q8 11 18 20q4 5 7 9h-13t-13 1q-8 -1 -14 -1t-14 1q-7 -1 -13.5 -1t-13.5 1q-8 -1 -14 -1t-14 1q-7 -1 -14 -1q-48 0 -82 34t-34 82.5t34 82.5t82 34q7 0 14 -1q8 1 14 1t14 -1q7 1 13.5 1t13.5 -1q8 1 14 1t14 -1q7 1 13 1t14 -1q8 1 14 1t14 -1q7 1 13 1t14 -1q8 1 14 1
t14 -1q7 1 13 1t14 -1q8 1 14 1t14 -1q7 1 13 1t14 -1q8 1 14 1t13 -1q8 1 14 1t14 -1q8 1 14 1q18 0 36 -6q42 -6 70 -38.5t28 -76.5q0 -51 -38 -86q-7 -11 -18 -21q-7 -11 -18 -20q-7 -11 -18 -21q-7 -11 -18 -21q-8 -11 -18 -21q-8 -10 -18 -20q-8 -11 -18 -21
q-8 -11 -19 -21q-7 -11 -18 -20q-7 -11 -18 -21q-7 -11 -18 -21q-7 -11 -18 -20q-3 -6 -9 -12h8q6 0 14 -1q8 1 14 1t14 -1q7 1 13 1t14 -1q8 1 14 1t13 -1q8 1 14 1t14 -1q8 1 14 1z" />
    <glyph glyph-name="Z" unicode="z" horiz-adv-x="732" 
d="M563 233q48 0 82 -34t34 -82.5t-34 -82.5t-82 -34q-6 0 -14 1q-8 -1 -14 -1t-14 1q-7 -1 -13 -1t-14 1q-8 -1 -14 -1t-13 1q-8 -1 -14 -1t-14 1q-8 -1 -14 -1t-13 1q-8 -1 -14 -1t-14 1q-8 -1 -14 -1t-13 1q-8 -1 -14 -1t-14 1q-7 -1 -13.5 -1t-13.5 1q-8 -1 -14 -1
t-14 1q-7 -1 -13.5 -1t-13.5 1q-8 -1 -14 -1t-14 1q-7 -1 -13.5 -1t-13.5 1q-8 -1 -14 -1q-38 0 -69 23q-27 15 -43 42t-16 59q0 51 38 86q8 11 18 21q8 11 18 21q8 11 19 20q7 11 18 21q7 11 18 21q7 11 18 20q7 11 18 21q7 11 18 21q7 11 18 20q8 11 18 21q8 11 18 21
q8 11 18 20q4 5 7 9h-13t-13 1q-8 -1 -14 -1t-14 1q-7 -1 -13.5 -1t-13.5 1q-8 -1 -14 -1t-14 1q-7 -1 -14 -1q-48 0 -82 34t-34 82.5t34 82.5t82 34q7 0 14 -1q8 1 14 1t14 -1q7 1 13.5 1t13.5 -1q8 1 14 1t14 -1q7 1 13 1t14 -1q8 1 14 1t14 -1q7 1 13 1t14 -1q8 1 14 1
t14 -1q7 1 13 1t14 -1q8 1 14 1t14 -1q7 1 13 1t14 -1q8 1 14 1t13 -1q8 1 14 1t14 -1q8 1 14 1q18 0 36 -6q42 -6 70 -38.5t28 -76.5q0 -51 -38 -86q-7 -11 -18 -21q-7 -11 -18 -20q-7 -11 -18 -21q-7 -11 -18 -21q-8 -11 -18 -21q-8 -10 -18 -20q-8 -11 -18 -21
q-8 -11 -19 -21q-7 -11 -18 -20q-7 -11 -18 -21q-7 -11 -18 -21q-7 -11 -18 -20q-3 -6 -9 -12h8q6 0 14 -1q8 1 14 1t14 -1q7 1 13 1t14 -1q8 1 14 1t13 -1q8 1 14 1t14 -1q8 1 14 1z" />
    <glyph glyph-name="bracketleft" unicode="[" horiz-adv-x="450" 
d="M227 582h-1h-1v-7v-7v-7v-7v-7v-7v-8v-7v-7v-7v-7v-7v-7v-7v-7v-7v-8v-7v-7v-7v-7v-7v-7v-7v-7v-7v-8v-7v-7v-7v-7v-7v-7v-7v-7v-7v-8v-7v-7v-7v-7v-7v-7v-7v-7v-7v-8v-7v-7v-7v-7v-7v-7v-7v-7v-7v-8v-7v-7v-7v-7v-7v-7v-7v-7v-7v-8v-7v-7v-7v-7v-7v-7v-7v-7v-7v-8v-7v-7
v-7v-7v-7v-1h0.5h1.5h7h6.5h7.5h7h7h7.5h6.5h7q37 0 62.5 -25.5t25.5 -62t-25.5 -62t-62.5 -25.5h-7h-6.5h-7.5h-7h-7h-7.5h-6.5h-7.5h-7.5h-6.5h-7.5h-7h-7h-7h-7h-7.5h-6.5h-7.5h-7.5h-7q-29 0 -52 17.5t-31 44.5q-8 17 -8 36v7v7v7v7v7v7.5v7.5v6.5v7.5v7v7v7v7v7v7v7.5
v7.5v6.5v7.5v7v7v7v7v7v7v7.5v7.5v6.5v7.5v7v7v7v7v7v7v7.5v7.5v6.5v7.5v7v7v7v7v7v7v7.5v7.5v6.5v7.5v7v7v7v7v7v7v7.5v7.5v6.5v7.5v7v7v7v7v7v7v7.5v7.5v6.5v7.5v7v7v7v7v7v7v7.5v7.5v6.5v7.5v7v7v7v7v7v7v7.5v7.5v6.5v7.5v7v7v7v7v7v7v7.5v7.5v7v7v7v7v7v7v7q0 23 11 43
q10 24 32 39t49 15h7h7.5h6.5h7.5h7.5h6.5h7.5h7h7h7h7h7.5h6.5h7.5h7.5h6.5h7.5h7h7h7h7h7.5h6.5h7q37 0 62.5 -25.5t25.5 -61.5t-25.5 -62t-62.5 -26q-2 0 -7 1q-4 -1 -6.5 -1t-7.5 1q-4 -1 -6.5 -1t-7.5 1q-5 -1 -7.5 -1t-6.5 1q-5 -1 -7.5 -1t-6.5 1q-5 -1 -7.5 -1
t-7.5 1q-4 -1 -7 -1z" />
    <glyph glyph-name="backslash" unicode="\" horiz-adv-x="683" 
d="M618 175q24 -41 11.5 -88t-54.5 -71q-42 -25 -88.5 -12.5t-71.5 54.5q0 1 -0.5 2t-0.5 1.5t-1 1.5t-1 1.5t-0.5 1.5t-1 1.5t-1 1.5t-1 1.5t-1 1.5t-0.5 1.5t-0.5 1.5t-1 1.5t-1 1.5t-1 1.5t-1 1.5t-1 1.5t-1 1.5t-0.5 1.5t-0.5 1.5t-1 1.5t-1 1.5t-1 1.5t-1 1.5t-0.5 1.5
t-1 1.5t-1 1.5t-0.5 1.5t-1 1.5t-1 1.5t-0.5 1.5t-1 1.5t-1 1.5t-0.5 1.5t-1 1.5t-1 1.5t-1 1.5t-1 1.5t-0.5 1.5t-1 1.5t-1 1.5t-0.5 1.5t-1 1.5t-1 1.5t-1 1.5t-1 1.5t-0.5 1.5t-0.5 1.5t-1 1.5t-1 1.5t-1 1.5t-1 1.5t-0.5 1.5t-1 1.5t-1 1.5t-0.5 1.5t-1 1.5t-1 1.5
t-0.5 1.5t-1 1.5t-1 1.5t-0.5 1.5t-1 1.5t-1 1.5t-1 1.5t-1 1.5t-0.5 1.5t-1 1.5t-1 1.5t-0.5 1.5t-1 1.5t-1 1.5t-1 1.5t-1 1.5t-0.5 1.5t-0.5 1.5t-1 1.5t-1 1.5t-1 1.5t-1 1.5t-0.5 1.5t-1 1.5t-1 1.5t-0.5 1.5t-1 1.5t-1 1.5t-0.5 1.5t-1 1.5t-1 1.5t-0.5 2t-1 1.5t-1 1
t-1 1.5t-1 1.5t-0.5 1.5t-1 1.5t-1 1.5t-0.5 1.5t-1 1.5t-1 1.5t-1 1.5t-1 1.5t-0.5 1.5t-0.5 1.5t-1 1.5t-1 2t-1 1.5t-1 1t-0.5 1.5t-1 2l-1 1.5l-0.5 1t-1 1.5t-1 2t-1 1.5t-1 1t-0.5 1.5t-0.5 2t-1 1.5t-1 1t-1 1.5t-1 2l-0.5 1.5l-1 1t-1 1.5t-0.5 2t-1 1.5t-1 1
t-1 1.5t-1 2l-0.5 1.5l-0.5 1t-1 1.5t-1 2t-1 1.5t-1 1t-0.5 1.5t-1 2l-1 1.5l-0.5 1t-1 1.5t-1 2t-1 1.5t-1 1t-0.5 1.5t-0.5 2t-1 1.5t-1 1t-1 1.5t-1 2l-0.5 1.5l-1 1t-1 1.5t-0.5 2t-1 1.5t-1 1t-1 1.5t-1 2l-0.5 1.5l-0.5 1t-1 1.5t-1 2t-1 1.5t-1 1t-0.5 1.5t-1 2
l-1 1.5l-0.5 1t-1 1.5t-1 2t-1 1.5t-1 1t-0.5 1.5t-0.5 2t-1 1.5t-1 1t-1 1.5t-1 2l-0.5 1.5l-1 1t-1 1.5t-0.5 2t-1 1.5t-1 1t-1 1.5t-1 2l-0.5 1.5l-0.5 1t-1 1.5t-1 2t-1 2l-1 1l-1 1t-1 2t-0.5 2t-0.5 1l-1 1t-1 2t-1 2l-1 1t-0.5 1t-0.5 2t-1 2l-1 1l-1 1t-1 2t-0.5 2
t-1 1t-1 1t-0.5 2t-1 2l-1 1l-1 1t-1 2t-0.5 2t-0.5 1l-1 1t-1 2t-1 2l-1 1l-1 1t-1 2t-0.5 2t-0.5 1l-1 1t-1 2t-1 2l-1 1t-0.5 1t-0.5 2t-1 2l-1 1l-1 1t-1 2t-0.5 2t-1 1t-1 1t-0.5 2t-1 2l-1 1l-1 1t-1 2t-0.5 2t-0.5 1l-1 1t-1 2t-1 2l-1 1l-1 1t-1 2t-0.5 2t-0.5 1
t-1 1.5l-1 2t-1 1.5l-1 1t-0.5 1.5t-1 2t-1 1.5t-0.5 1t-1 1.5l-1 2t-0.5 1.5t-1 1t-1 1.5t-0.5 2t-1 1.5l-1 1t-1 1.5l-1 2t-0.5 1.5t-0.5 1t-1 1.5l-1 2t-1 1.5l-1 1t-1 1.5l-1 2t-0.5 1.5t-0.5 1t-1 1.5l-1 2t-1 1.5l-1 1t-0.5 1.5t-1 2t-1 1.5t-0.5 1t-1 1.5l-1 2
t-0.5 1.5t-1 1t-1 1.5t-0.5 2t-1 1.5t-1 1.5t-1 1.5t-1 1.5t-0.5 1.5t-0.5 1t-1 1.5l-1 2t-1 1.5t-1 1.5t-1 1.5t-1 1.5t-0.5 1.5t-0.5 1.5t-1 1.5t-1 1.5t-1 1.5t-1 1.5t-0.5 1.5t-1 1.5t-1 1.5t-0.5 1.5t-1 1.5t-1 1.5t-0.5 1.5t-1 1.5t-1 1.5t-0.5 1.5t-1 1.5t-1 1.5
t-1 1.5t-1 1.5t-0.5 1.5t-0.5 1.5t-1 1.5t-1 1.5t-1 1.5t-1 1.5t-1 1.5t-1 1.5t-0.5 1.5t-0.5 1.5t-1 1.5t-1 1.5t-1 1.5t-1 1.5t-0.5 1.5t-1 1.5t-1 1.5t-0.5 1.5t-1 1.5t-1 1.5t-0.5 1.5t-1 1.5t-1 1.5t-0.5 1.5t-1 1.5t-1 1.5t-1 1.5t-1 1.5t-0.5 1.5t-0.5 1.5t-1 1.5
t-1 1.5t-1 1.5t-1 1.5t-1 1.5t-1 1.5t-0.5 1.5t-0.5 1.5t-1 1.5t-1 1.5t-1 1.5t-1 1.5t-0.5 1.5t-1 1.5t-1 1.5t-0.5 1.5t-1 1.5t-1 1.5t-0.5 1.5t-1 1.5t-1 1.5t-0.5 1.5t-1 1.5t-1 1.5t-1 1.5t-1 1.5t-0.5 1.5t-1 1.5t-1 1.5t-0.5 1.5t-1 1.5t-1 1.5t-1 1.5t-1 1.5
t-0.5 1.5t-0.5 1.5t-1 1.5t-1 1.5t-1 1.5t-1 1.5t-0.5 1.5t-1 1.5t-1 1.5t-0.5 1.5t-1 1.5t-1 1.5t-1 1.5t-1 1.5t-0.5 1.5t-0.5 1.5t-1 1.5t-1 1.5l-0.5 1q-25 42 -12.5 88.5t54.5 71t89 12t71 -54.5l0.5 -1.5t1 -1.5t1 -1t1 -1.5t1 -2l0.5 -1.5l0.5 -1t1 -1.5t1 -2t1 -1.5
t1 -1t0.5 -1.5t1 -2l1 -1.5l0.5 -1t1 -1.5t1 -2l0.5 -1.5l1 -1t1 -1.5t0.5 -2t1 -1.5t1 -1t1 -1.5t1 -2l0.5 -1.5l1 -1t1 -1.5t0.5 -2t1 -1.5t1 -1t1 -1.5t1 -2t0.5 -2t0.5 -1l1 -1t1 -2t1 -1.5t1 -1t0.5 -1.5t1 -2t1 -2t0.5 -1l1 -1t1 -2t1 -2l1 -1t0.5 -1t0.5 -2t1 -1.5
t1 -1t1 -1.5t1 -2t0.5 -2t1 -1t1 -1t0.5 -2t1 -2l1 -1l1 -1t1 -2t0.5 -2t0.5 -1l1 -1t1 -2t1 -2l1 -1t0.5 -1t1 -2t1 -2t0.5 -1l1 -1t1 -2t1 -2l1 -1t0.5 -1t0.5 -2t1 -2l1 -1l1 -1t1 -2t0.5 -2t1 -1t1 -1t0.5 -2t1 -2l1 -1l1 -1t1 -2t0.5 -2t0.5 -1l1 -1t1 -2t1 -2l1 -1
t0.5 -1t1 -2t1 -2t0.5 -1l1 -1t1 -2t1 -2l1 -1t0.5 -1.5t0.5 -2t1 -1.5l1 -1t1 -1.5l1 -2t0.5 -1.5t1 -1t1 -1.5t0.5 -2t1 -1.5l1 -1t1 -1.5l1 -2t0.5 -1.5t0.5 -1t1 -1.5l1 -2t1 -1.5l1 -1t1 -1.5l1 -2t0.5 -1.5t0.5 -1t1 -1.5l1 -2t1 -1.5l1 -1t0.5 -1.5t0.5 -2t1 -1.5
l1 -1t1 -1.5l1 -2t0.5 -1.5t1 -1t1 -1.5t0.5 -2t1 -1.5l1 -1t1 -1.5l1 -2t0.5 -1.5t0.5 -1.5t1 -1.5t1 -1.5t1 -1.5t1 -1.5t1 -1.5t1 -1.5t0.5 -1.5t0.5 -1.5t1 -1.5t1 -1.5t1 -1.5t1 -1.5t0.5 -1.5t0.5 -1.5t1 -1.5t1 -1.5t1 -1.5t1 -1.5t0.5 -1.5t1 -1.5t1 -1.5t0.5 -1.5
t1 -1.5t1 -1.5t1 -1.5t1 -1.5t0.5 -1.5t0.5 -1.5t1 -1.5t1 -1.5t1 -1.5t1 -1.5t1 -1.5t1 -1.5t0.5 -1.5t0.5 -1.5t1 -1.5t1 -1.5t1 -1.5t1 -1.5t0.5 -1.5t1 -1.5t1 -1.5t0.5 -1.5t1 -1.5t1 -1.5t0.5 -1.5t1 -1.5t1 -1.5t0.5 -1.5t1 -1.5t1 -1.5t1 -1.5t1 -1.5t0.5 -1.5
t0.5 -1.5t1 -1.5t1 -1.5t1 -1.5t1 -1.5t1 -1.5t1 -1.5t0.5 -1.5t0.5 -1.5t1 -1.5t1 -1.5t1 -1.5t1 -1.5t0.5 -1.5t1 -1.5t1 -1.5t0.5 -1.5t1 -1.5t1 -1.5t0.5 -1.5t1 -1.5t1 -1.5t0.5 -1.5t1 -1.5t1 -1.5t1 -1.5t1 -1.5t0.5 -1.5t0.5 -1.5t1 -1.5t1 -1.5t1 -1.5t1 -1.5
t1 -1.5t1 -1.5t0.5 -1.5t0.5 -1.5t1 -1.5t1 -1.5t1 -1.5t1 -1.5t0.5 -1.5t1 -1.5t1 -1.5t0.5 -1.5t1 -1.5t1 -1.5t0.5 -1.5t1 -1.5t1 -1.5t0.5 -1.5t1 -1.5t1 -1.5t1 -1.5t1 -1.5t0.5 -1.5t1 -1.5t1 -1.5t0.5 -1.5t1 -1.5t1 -1.5t1 -1.5t1 -1.5t0.5 -1.5t0.5 -1.5t1 -1.5
t1 -1.5t1 -1.5t1 -1.5t0.5 -1.5t1 -1.5t1 -1.5t0.5 -1.5t1 -1.5t1 -1.5t0.5 -1.5t1 -1.5t1 -1.5t0.5 -1.5t1 -1.5t1 -1.5t1 -1.5t1 -1.5t0.5 -1.5t1 -1.5t1 -1.5t0.5 -1.5t1 -1.5t1 -1.5t1 -1.5t1 -1.5t0.5 -1.5t0.5 -1.5t1 -1.5t1 -1.5t1 -1.5t1 -1.5t0.5 -1.5t1 -1.5
t1 -1.5t0.5 -1.5t1 -1.5t1 -1.5t0.5 -1.5t1 -1.5t1 -1.5t0.5 -1.5t1 -1.5t1 -1.5t1 -1.5t1 -1.5t0.5 -1.5t1 -1.5t1 -1.5t0.5 -1.5t1 -1.5t1 -1.5t1 -1.5t1 -1.5t0.5 -1.5t0.5 -1.5t1 -1.5t1 -1.5t1 -1.5t1 -1.5t0.5 -1.5t1 -1.5t1 -1.5t0.5 -1.5t1 -1.5t1 -1.5t0.5 -1.5
t1 -1.5t1 -1.5t0.5 -1.5t1 -1.5t1 -1.5t1 -1.5t1 -1.5t0.5 -1.5t1 -1.5t1 -1.5t0.5 -1.5t1 -1.5t1 -1.5t1 -1.5t1 -1.5t0.5 -1.5t0.5 -1.5t1 -1.5t1 -1.5t1 -1.5t1 -1.5t0.5 -1.5t1 -1.5t1 -1.5t0.5 -1.5t1 -1.5t1 -1.5t0.5 -1.5t1 -1.5t1 -1.5t0.5 -1.5t1 -1.5t1 -1.5
t1 -1.5t1 -1.5t0.5 -1.5t1 -1.5t1 -1.5t0.5 -1.5t1 -1.5t1 -1.5t1 -1.5t1 -1.5t0.5 -1.5t0.5 -1.5t1 -1.5t1 -1.5t1 -1.5t1 -1.5t0.5 -1.5t1 -1.5t1 -1.5t0.5 -1.5t1 -1.5t1 -1.5t1 -1.5t1 -1.5t0.5 -1.5t0.5 -1.5t1 -1.5t1 -1.5t1 -1.5t1 -1.5t0.5 -1.5t1 -1.5t1 -1.5
t0.5 -1.5t1 -1.5t1 -1.5t1 -1.5t1 -1.5t0.5 -1.5t0.5 -1.5t1.5 -2z" />
    <glyph glyph-name="bracketright" unicode="]" horiz-adv-x="450" 
d="M400 650v-7v-7v-7v-7v-7.5v-6.5v-7.5v-7.5v-7v-7v-7v-7v-7v-7v-7.5v-6.5v-7.5v-7.5v-7v-7v-7v-7v-7v-7v-7.5v-6.5v-7.5v-7.5v-7v-7v-7v-7v-7v-7v-7.5v-6.5v-7.5v-7.5v-7v-7v-7v-7v-7v-7v-7.5v-6.5v-7.5v-7.5v-7v-7v-7v-7v-7v-7v-7.5v-6.5v-7.5v-7.5v-7v-7v-7v-7v-7v-7
v-7.5v-6.5v-7.5v-7.5v-7v-7v-7v-7v-7v-7v-7.5v-6.5v-7.5v-7.5v-7v-7v-7v-7v-7v-7v-7.5v-6.5v-7.5v-7.5v-7v-7v-7v-7v-7v-7v-7.5v-6.5v-7.5v-7.5v-7v-7v-7v-7v-7q0 -19 -8 -36q-8 -27 -31 -44.5t-52 -17.5h-7h-7.5h-7.5h-6.5h-7.5h-7h-7h-7h-7h-7.5h-6.5h-7.5h-7.5h-6.5h-7.5
h-7h-7h-7.5h-6.5h-7q-37 0 -62.5 25.5t-25.5 62t25.5 62t62.5 25.5h7h6.5h7.5h7h7h7.5h6.5h7h1.5h0.5v1v7v7v7v7v7.5v7.5v6.5v7.5v7v7v7v7v7v7v7.5v7.5v6.5v7.5v7v7v7v7v7v7v7.5v7.5v6.5v7.5v7v7v7v7v7v7v7.5v7.5v6.5v7.5v7v7v7v7v7v7v7.5v7.5v6.5v7.5v7v7v7v7v7v7v7.5v7.5
v6.5v7.5v7v7v7v7v7v7v7.5v7.5v6.5v7.5v7v7v7v7v7v7v7.5v7.5v6.5v7.5v7v7v7v7h-1h-1q-3 0 -7 1q-5 -1 -7.5 -1t-7.5 1q-4 -1 -6.5 -1t-7.5 1q-4 -1 -6.5 -1t-7.5 1q-5 -1 -7.5 -1t-6.5 1q-5 -1 -7.5 -1t-6.5 1q-5 -1 -8 -1q-36 0 -61.5 26t-25.5 62t25.5 61.5t61.5 25.5h8
h6.5h7.5h7h7h7h7h7.5h6.5h7.5h7.5h6.5h7.5h7h7h7h7h7.5h6.5h7.5h7.5h6.5h7.5h7q27 0 49 -15t32 -39q11 -20 11 -43v-7z" />
    <glyph glyph-name="underscore" unicode="_" 
d="M663 -1q36 0 61.5 -25.5t25.5 -62t-25.5 -62t-61.5 -25.5h-6h-5h-5h-5h-5h-5.5h-5.5h-4.5h-5.5h-5h-5h-5h-5h-5.5h-5.5h-5h-5h-5h-5h-5.5h-5.5h-5h-5h-5h-5h-5.5h-4.5h-5.5h-5.5h-5h-5h-5h-5h-5.5h-5.5h-5h-5h-5h-5h-5.5h-5.5h-4.5h-5.5h-5h-5h-5h-5h-5.5h-5.5h-5h-5h-5
h-5h-5.5h-5.5h-5h-5h-5h-5h-5.5h-4.5h-5.5h-5.5h-5h-5h-5h-5h-5.5h-5.5h-5h-5h-5h-5h-5.5h-5.5h-4.5h-5.5h-5h-5h-5h-5h-5.5h-5.5h-5h-5h-5h-5h-5.5h-5.5h-5h-5h-5h-5h-5.5h-4.5h-5.5h-5.5h-5h-5h-5h-5h-6q-36 0 -61.5 25.5t-25.5 62t25.5 62t61.5 25.5h6h4.5h5.5h5.5h4.5
h5.5h5.5h4.5h5.5h4.5h5.5h5.5h4.5h5.5h5.5h4.5h5.5h5.5h4.5h5.5h5.5h4.5h5.5h5.5h4.5h5.5h4.5h5.5h5.5h4.5h5.5h5.5h4.5h5.5h5.5h4.5h5.5h5.5h4.5h5.5h5.5h4.5h5.5h4.5h5.5h5.5h4.5h5.5h5.5h4.5h5.5h5.5h4.5h5.5h5.5h4.5h5.5h5.5h4.5h5.5h4.5h5.5h5.5h4.5h5.5h5.5h4.5h5.5
h5.5h4.5h5.5h5.5h4.5h5.5h5.5h4.5h5.5h4.5h5.5h5.5h4.5h5.5h5.5h4.5h5.5h5.5h4.5h5.5h5.5h4.5h5.5h5.5h4.5h5.5h4.5h5.5h5.5h4.5h5.5h5.5h4.5h6z" />
    <glyph glyph-name="braceleft" unicode="{" horiz-adv-x="538" 
d="M402 0q35 -1 60 -26.5t25 -61.5t-25.5 -61.5t-61.5 -25.5q-5 0 -10 1q-10 0 -21 2q-9 1 -19 5q-9 2 -18 7q-8 3 -16 8q-8 4 -15 9q-8 5 -14 11q-7 5 -13 11q-6 5 -12 12q-6 6 -11 13q-5 6 -9 13q-5 6 -9 13t-8 15q-4 6 -6 14q-4 7 -7 15q-3 7 -5 15q-3 7 -4 15
q-3 8 -4 16l-2 16t-1 14v1.5v0.5v8v5v5v6v5v5v5v5v5v5v6v5v5v5v2v3v5v5v6v2v3v5v5v5v5v1l-0.5 0.5t-0.5 1t-1 1t-1 1t-1 1.5l-1 1q-2 1 -3 2q0 1 -3 3t-5 4l-4 2q-1 1 -4 3l-6 3l-4 2q-2 0 -6 2q-4 1 -5 1t-4 1t-5 1h-1.5h-1.5h-1h-1q-36 0 -61.5 25.5t-25.5 62t25.5 62
t61.5 25.5h1h1h1.5h1.5q3 1 5 1q3 1 4 1t5 1q4 2 6 2q2 2 4 2l6 3q3 2 4 3l4 2q2 2 5 4t3.5 3t2.5 2l2 3l0.5 1t1 1t1 1l0.5 1v0v5v5v6v5v5v5v5v5v5v6v5v5v5v5v5v5v6v5v5v5v5v5v8v1v1q0 7 1 14l2 16q1 9 4 17q1 7 4 15q2 7 5 14q3 8 7 16q2 7 6 13q4 8 8 15t9 13q4 7 9 13
q5 7 11 13q6 7 12 12q6 7 13 11q6 6 14 11q6 5 15 9q7 5 16 9t18 6q10 4 19 5q11 3 21 3h10q36 0 61.5 -25.5t25.5 -61.5t-25 -61.5t-60 -26.5h-1l-0.5 -0.5l-0.5 -0.5q-1 -1 -3 -2t-3 -2q-1 -2 -2 -3l-3 -3q-1 -2 -3 -5t-3 -4q-1 -2 -3 -5q-1 -3 -3 -6q0 -2 -1 -4t-2 -5
q-1 -5 -2 -6v-3q-1 -1 -1 -5v-1.5v-2.5v-0.5v-1.5v-5v-5v-5v-5v-5v-6v-5v-5v-5v-5v-5v-6v-5v-5v-5v-5v-5v-5v-5v-6v-5v-5q0 -4 -1 -9v-1q0 -9 -2 -19q-1 -9 -4 -19q-2 -9 -7 -18q-3 -9 -8 -17q-3 -8 -9 -15q-4 -8 -10 -14q-2 -4 -4 -6l4 -6q6 -7 10 -14q6 -8 9 -16
q5 -8 8 -16q5 -9 7 -19q3 -9 4 -19q2 -10 2 -19v-1q1 -4 1 -9v-5v-5v-5v-5v-5v-6v-5v-5v-5v-5v-5v-5v-6v-5v-5v-5v-5v-5v-5v-6v-5v-4.5v-1.5v-1v-2.5v-1.5l1 -4v-4q1 -1 2 -5t2 -6q0 -1 2 -4l2 -6q2 -3 3 -5q1 -1 3 -4t3 -5l3 -3l2 -3q1 0 3 -2q2 -1 3 -2l1 -1h1z" />
    <glyph glyph-name="bar" unicode="|" horiz-adv-x="275" 
d="M225 662.5v-2v-2v-2v-2v-1.5v-2v-2v-1.5v-2v-2v-2v-2v-1.5v-2v-2v-1.5v-2v-2v-2v-1.5v-1.5v-2v-2v-2v-1.5v-2v-2.5v-1.5v-1.5v-2v-2v-2v-1.5v-2v-2v-1.5v-2v-2v-2v-2v-1.5v-2v-2v-1.5v-2v-2v-2v-2v-1.5v-2v-2v-1.5v-2v-2v-2v-1.5v-1.5v-2v-2v-2v-1.5v-2v-2v-1.5v-2v-2v-2
v-2v-1.5v-2v-2v-1.5v-2v-2v-2v-2v-1.5v-2v-2v-1.5v-2v-2v-2v-1.5v-1.5v-2v-2v-2v-1.5v-2v-2v-1.5v-2v-2v-2v-2v-1.5v-2v-2v-1.5v-2v-2v-2v-2v-1.5v-2v-2v-1.5v-2v-2v-2v-1.5v-1.5v-2v-2v-2v-2v-2v-2v-1.5v-1.5v-2v-2v-2v-1.5v-2v-2v-1.5v-2v-2v-2v-2v-1.5v-2v-2v-1.5v-2v-2
v-2v-2v-1.5v-2v-2v-1.5v-2v-2v-2v-1.5v-1.5v-2v-2v-2v-1.5v-2v-2v-1.5v-2v-2v-2v-2v-1.5v-2v-2v-1.5v-2v-2v-2v-2v-1.5v-2v-2v-1.5v-2v-2v-2v-1.5v-1.5v-2v-2v-2v-1.5v-2v-2v-1.5v-2v-2v-2v-2v-1.5v-2v-2v-1.5v-2v-2v-2v-2v-1.5v-2v-2v-1.5v-2v-2v-2v-1.5v-1.5v-2.5v-2v-1.5
v-1.5v-2v-2.5v-1.5v-1.5v-2v-2v-2v-1.5v-2v-2v-1.5v-2v-2v-2v-2v-1.5v-2v-2v-1.5v-2v-2v-2v-2v-1.5v-2v-2v-1.5v-2v-2v-2v-1.5v-1.5v-2v-2v-2v-1.5v-2v-2v-1.5v-2v-2v-2v-2v-1.5v-2v-2v-1.5v-2v-2v-2v-2v-1.5v-2v-2v-1.5v-2v-2v-2v-1.5v-1.5v-2v-2v-2v-1.5v-2v-2v-1.5v-2v-2
v-2v-2v-1.5v-2v-2v-1.5v-2v-2v-2v-2v-1.5v-2v-2v-1.5v-2v-2v-2v-1.5v-1.5v-2v-2v-2v-2v-2v-2v-1.5v-1.5v-2v-2v-2v-1.5v-2v-2v-1.5v-2v-2v-2v-2v-1.5v-2v-2v-1.5v-2v-2v-2v-2v-1.5v-2v-2v-1.5v-2v-2v-2v-1.5v-1.5v-2v-2v-2v-1.5v-2v-2v-1.5v-2v-2v-2v-2v-1.5v-2v-2v-1.5v-2
v-2v-2v-2v-1.5v-2v-2v-1.5v-2v-2v-2v-1.5v-1.5v-2v-2v-2v-1.5v-2v-2v-1.5v-2v-2v-2v-2v-1.5v-2v-2v-1.5v-2v-2v-2v-2v-1.5v-2v-2v-1.5v-2v-2v-2v-1.5v-1.5v-2.5v-2v-1.5v-1.5v-2v-2.5v-1.5v-1.5v-2v-2v-2v-1.5v-2v-2v-1.5v-2v-2.5q0 -36 -25.5 -61.5t-62 -25.5t-62 25.5
t-25.5 61.5v2.5v2v1.5v2v2v1.5v2v2v2v1.5v1.5v2v2v2v1.5v2v2.5v1.5v1.5v2v2v2v1.5v2v2v1.5v2v2v2v2v1.5v2v2v1.5v2v2v2v2v1.5v2v2v1.5v2v2v2v1.5v1.5v2v2v2v1.5v2v2v1.5v2v2v2v2v1.5v2v2v1.5v2v2v2v2v1.5v2v2v1.5v2v2v2v1.5v1.5v2v2v2v1.5v2v2v1.5v2v2v2v2v1.5v2v2v1.5v2v2
v2v2v1.5v2v2v1.5v2v2v2v1.5v1.5v2v2v2v1.5v2v2.5v1.5v1.5v2v2v2v1.5v2v2v1.5v2v2v2v2v1.5v2v2v1.5v2v2v2v2v1.5v2v2v1.5v2v2v2v1.5v1.5v2v2v2v1.5v2v2v1.5v2v2v2v2v1.5v2v2v1.5v2v2v2v2v1.5v2v2v1.5v2v2v2v1.5v1.5v2v2v2v1.5v2v2v1.5v2v2v2v2v1.5v2v2v1.5v2v2v2v2v1.5v2v2
v1.5v2v2v2v1.5v1.5v2v2v2v2v2v2v1.5v1.5v2v2v2v1.5v2v2v1.5v2v2v2v2v1.5v2v2v1.5v2v2v2v2v1.5v2v2v1.5v2v2v2v1.5v1.5v2v2v2v1.5v2v2v1.5v2v2v2v2v1.5v2v2v1.5v2v2v2v2v1.5v2v2v1.5v2v2v2v1.5v1.5v2v2v2v1.5v2v2v1.5v2v2v2v2v1.5v2v2v1.5v2v2v2v2v1.5v2v2v1.5v2v2v2v1.5v1.5
v2v2v2v2v2v2v1.5v1.5v2v2v2v1.5v2v2v1.5v2v2v2v2v1.5v2v2v1.5v2v2v2v2v1.5v2v2v1.5v2v2v2v1.5v1.5v2v2v2v1.5v2v2v1.5v2v2v2v2v1.5v2v2v1.5v2v2v2v2v1.5v2v2v1.5v2v2v2v1.5v1.5v2v2v2v1.5v2v2v1.5v2v2v2v2v1.5v2v2v1.5v2v2v2v2v1.5v2v2v1.5v2v2v2v1.5v1.5v2.5v2v1.5v2v2v2
v1.5v1.5v2v2v2v1.5v2v2v1.5v2v2v2v2v1.5v2v2v1.5v2v2v2v2v1.5v2q0 36 25.5 61.5t62 25.5t62 -25.5t25.5 -61.5v-2v-1.5z" />
    <glyph glyph-name="braceright" unicode="}" horiz-adv-x="538" 
d="M400 379q36 0 62 -25.5t26 -62t-26 -62t-62 -25.5h-1h-2h-2q-2 0 -4 -1l-4 -1q-1 0 -5 -1q-4 -2 -6 -2q-3 -1 -4 -2l-6 -3l-5 -2.5t-4 -2.5q-2 -2 -5 -4l-3 -3l-2 -2q-1 0 -1.5 -1t-1.5 -2l-1 -1v-1l-1 -1v-1l-1 -5l1 -5l-1 -5l1 -5l-1 -5l1 -6l-1 -5l1 -5l-1 -5l1 -5
l-1 -5l1 -5l-1 -6l1 -5l-1 -5l1 -5l-1 -5l1 -5l-1 -5l1 -6l-1 -5l1 -5q0 -3 -1 -8v-0.5v-1.5q0 -6 -1 -14q0 -8 -2 -16q-1 -8 -3 -16t-5 -15q-2 -8 -5 -15q-2 -8 -6 -15q-3 -8 -7 -14q-3 -8 -8 -14q-3 -8 -9 -14q-4 -7 -9 -13q-5 -7 -11 -13q-5 -7 -12 -12q-6 -6 -12 -11
q-7 -6 -14 -11t-15 -9q-8 -5 -17 -8q-8 -5 -18 -7q-9 -4 -19 -5q-10 -2 -20 -2q-6 -1 -11 -1q-36 0 -61.5 25.5t-25.5 62.5q0 35 25 60.5t61 26.5q1 0 2 1l2 2l3 2q2 3 3 3q0 1 2 3q1 2 4 5q2 3 2.5 4.5t2.5 4.5t3 6l1.5 4.5t2.5 5.5q1 4 1 5q0 2 1 4q0 1 1 4v4v1v1.5v4.5
v5.5v5.5v4.5v5.5v4.5v5.5v5.5v4.5v5.5v5.5v4.5v5.5v5.5v4.5v5.5v5.5v4.5v5.5v5v5v5v9v1q0 9 2 19q1 10 5 19q2 10 6 19q3 8 8 16q4 9 9 16l10 14q3 3 5 6q-2 2 -5 6q-5 6 -10 14q-5 7 -9 15q-5 8 -8 17q-4 9 -6 18q-4 10 -5 19q-2 10 -2 19v1v9v5v5.5v5.5v4.5v5.5v4.5v5.5
v5.5v4.5v5.5v5.5v4.5v5.5v5.5v4.5v5.5v5.5v4.5v5.5v5v5v5.5v1v1.5v3q-1 4 -1 5q-1 2 -1 3t-1 6q-2 3 -2 5q-1 1 -2 4t-3 6q-2 4 -2 5q-1 1 -3 4q-3 3 -4 5q-2 2 -2 3q-1 0 -3 3l-3 2q0 1 -2 2l-2 1q-36 1 -61 26.5t-25 61.5t25.5 61.5t61.5 25.5h11q10 0 20 -3q10 -1 19 -5
q10 -2 18 -6q9 -4 17 -9q8 -4 15 -9t14 -11q6 -4 12 -11q7 -5 12 -12q6 -6 11 -13q5 -6 9 -13q6 -6 9 -13q5 -7 8 -15q4 -6 7 -13q4 -8 6 -16q3 -7 5 -14q3 -8 5 -15q2 -8 3 -17q2 -8 2 -16q1 -7 1 -14v-1v-1q1 -5 1 -8v-3q-1 -1 -1 -2l1 -5l-1 -5l1 -5l-1 -5l1 -6v-3
q-1 -1 -1 -2l1 -5l-1 -5l0.5 -2t0.5 -3l-1 -5q1 -5 1 -5.5t-1 -5.5l0.5 -2t0.5 -3l-1 -5l0.5 -2t0.5 -3l-1 -5l1 -5l-1 -5l0.5 -2.5t0.5 -3.5t-0.5 -2.5t-0.5 -2t0.5 -2.5t0.5 -3v0q0 -1 1 -2l1 -2q1 0 1.5 -1t1.5 -2l2 -2q1 0 3 -3q3 -2 5 -4q3 -1 4 -2t5 -3l6 -3q1 0 4 -2
q2 0 6 -2q3 -1 5 -1l4 -1q1 0 4 -1h2h2h1z" />
    <glyph glyph-name="nonbreakingspace" unicode="&#xa0;" horiz-adv-x="315" 
 />
    <glyph glyph-name="Aacute" unicode="&#xc1;" 
d="M397 749q-25 -21 -59 -19.5t-58 25.5q-26 25 -26 61.5t26 62.5q5 5 12 9q2 2 5 4q2 2 6 5q2 1 5 4q2 2 6 4q2 2 5 4l6 4q2 2 5 4t6 5q2 1 6 4q1 1 5 4q2 2 6 4q1 2 5 4q2 2 6 4l5 5q2 1 6 4q2 1 5 4q2 2 6 4q2 2 6 4q2 2 5 4q2 2 6 5q25 21 59 19.5t58 -25.5
q26 -26 26 -62t-26 -62q-5 -5 -11 -9q-3 -2 -6 -5q-2 -1 -6 -4q-2 -2 -5 -4q-2 -2 -6 -4q-2 -2 -5 -4q-2 -2 -6 -4l-5 -5q-3 -1 -6 -4q-2 -2 -5 -4l-6 -4q-2 -2 -6 -4q-1 -2 -5 -4q-2 -2 -6 -5q-2 -1 -5 -4q-2 -1 -6 -4q-2 -2 -5 -4l-6 -4q-2 -2 -6 -4l-5 -5q-2 -1 -6 -4z
M735 174q15 -27 15 -57q0 -49 -34 -83t-83 -34q-35 0 -63.5 19t-42.5 50q-2 4 -5 9q-2 4 -4 9q-3 4 -5 9l-4 10q-3 4 -5 9q-1 1 -1 2h-2h-1.5h-2h-1.5h-1.5h-2h-1.5h-1.5h-2h-2h-1.5h-1.5h-2h-2h-1.5h-1.5h-1.5h-2h-2h-1.5h-1.5h-2h-2h-1.5h-1.5h-1.5h-2h-2h-1.5h-1.5h-2
h-1.5h-1.5h-2h-1.5h-1.5h-2h-2h-1.5h-1.5h-2h-2h-1.5h-1.5h-1.5h-2h-2h-1.5h-1.5h-2h-2h-1.5h-1.5h-1.5h-2h-2h-1.5h-1.5h-2h-2h-1.5h-1.5h-1.5h-1.5h-2h-2h-1.5h-1.5h-2h-2h-1.5h-1.5h-1.5h-2h-2h-1.5h-1.5h-2h-2h-1.5h-1.5h-1.5h-2h-2h-1.5h-1.5h-2h-2h-1.5h-1.5h-1.5
h-1.5h-2h-2h-1.5h-1.5h-2h-2h-1.5h-1.5h-1.5h-2h-2h-1.5h-1.5h-2h-2h-1.5h-1.5h-1.5h-2h-2h-1.5h-1.5h-2h-2h-1.5h-1.5h-1.5h-2q0 -1 -0.5 -1.5l-0.5 -0.5q-2 -5 -5 -9q-2 -6 -4 -10q-3 -5 -5 -9q-2 -5 -4 -9q-3 -5 -5 -9q-14 -31 -42.5 -50t-63.5 -19q-49 0 -83 34t-34 83
q0 30 15 57q2 5 4 9q3 5 5 9q2 5 5 9q2 5 4 9q3 5 5 9l4 10q3 5 5 9q2 5 5 9q2 5 4 9q2 5 5 9q2 5 4 9q3 5 5 9q2 5 3 6q1 3 1 4q3 4 5 9t5 9q2 5 4 9q2 5 5 9q2 5 4 9q2 5 5 9q2 6 4 10q3 5 5 9q2 5 5 9q2 5 4 9q2 5 5 9q2 5 4 9q2 5 5 10q2 5 4 9q3 5 5 9q2 5 5 9q2 5 4 9
q2 5 5 9q2 5 4 9q2 5 5 10q2 5 4 9q3 5 5 9q2 5 5 9q2 5 4 9q2 5 5 9q2 5 4 9l5 10q2 5 5 9q2 5 4 9q2 5 5 9q2 5 4 9q3 5 5 9q2 6 4 10q3 5 5 9q2 5 5 9q2 5 4 9q2 5 5 9q14 31 42.5 50t63.5 19t64 -19t42 -50q3 -4 5 -9q2 -4 5 -9q2 -4 4 -9q3 -5 5 -9l4 -10q3 -4 5 -9
q2 -4 4 -9q3 -4 5 -9q2 -4 5 -9q2 -5 4 -9l5 -10q2 -4 4 -9q3 -4 5 -9q2 -4 4 -9q3 -4 5 -9q2 -4 5 -9q2 -4 4 -9l5 -10q2 -4 4 -9q3 -4 5 -9q2 -4 4 -9q3 -4 5 -9q2 -4 5 -9q2 -5 4 -9q3 -5 5 -10q2 -4 4 -9q3 -4 5 -9q2 -4 4 -9q3 -4 5 -9t5 -9l4 -10q3 -4 5 -9q2 -4 4 -9
q3 -4 5 -9q2 -4 5 -9q2 -4 4 -9q3 -5 5 -9q0 -2 1 -4q1 -1 3 -6q2 -3 5 -9q2 -4 4 -9q3 -4 5 -9q2 -4 5 -9q2 -4 4 -9q2 -4 5 -9l4 -10q3 -4 5 -9q2 -4 4 -9q3 -4 5 -9q2 -4 5 -9q2 -4 4 -9z" />
    <glyph glyph-name="Aacute" unicode="&#xe1;" 
d="M397 749q-25 -21 -59 -19.5t-58 25.5q-26 25 -26 61.5t26 62.5q5 5 12 9q2 2 5 4q2 2 6 5q2 1 5 4q2 2 6 4q2 2 5 4l6 4q2 2 5 4t6 5q2 1 6 4q1 1 5 4q2 2 6 4q1 2 5 4q2 2 6 4l5 5q2 1 6 4q2 1 5 4q2 2 6 4q2 2 6 4q2 2 5 4q2 2 6 5q25 21 59 19.5t58 -25.5
q26 -26 26 -62t-26 -62q-5 -5 -11 -9q-3 -2 -6 -5q-2 -1 -6 -4q-2 -2 -5 -4q-2 -2 -6 -4q-2 -2 -5 -4q-2 -2 -6 -4l-5 -5q-3 -1 -6 -4q-2 -2 -5 -4l-6 -4q-2 -2 -6 -4q-1 -2 -5 -4q-2 -2 -6 -5q-2 -1 -5 -4q-2 -1 -6 -4q-2 -2 -5 -4l-6 -4q-2 -2 -6 -4l-5 -5q-2 -1 -6 -4z
M735 174q15 -27 15 -57q0 -49 -34 -83t-83 -34q-35 0 -63.5 19t-42.5 50q-2 4 -5 9q-2 4 -4 9q-3 4 -5 9l-4 10q-3 4 -5 9q-1 1 -1 2h-2h-1.5h-2h-1.5h-1.5h-2h-1.5h-1.5h-2h-2h-1.5h-1.5h-2h-2h-1.5h-1.5h-1.5h-2h-2h-1.5h-1.5h-2h-2h-1.5h-1.5h-1.5h-2h-2h-1.5h-1.5h-2
h-1.5h-1.5h-2h-1.5h-1.5h-2h-2h-1.5h-1.5h-2h-2h-1.5h-1.5h-1.5h-2h-2h-1.5h-1.5h-2h-2h-1.5h-1.5h-1.5h-2h-2h-1.5h-1.5h-2h-2h-1.5h-1.5h-1.5h-1.5h-2h-2h-1.5h-1.5h-2h-2h-1.5h-1.5h-1.5h-2h-2h-1.5h-1.5h-2h-2h-1.5h-1.5h-1.5h-2h-2h-1.5h-1.5h-2h-2h-1.5h-1.5h-1.5
h-1.5h-2h-2h-1.5h-1.5h-2h-2h-1.5h-1.5h-1.5h-2h-2h-1.5h-1.5h-2h-2h-1.5h-1.5h-1.5h-2h-2h-1.5h-1.5h-2h-2h-1.5h-1.5h-1.5h-2q0 -1 -0.5 -1.5l-0.5 -0.5q-2 -5 -5 -9q-2 -6 -4 -10q-3 -5 -5 -9q-2 -5 -4 -9q-3 -5 -5 -9q-14 -31 -42.5 -50t-63.5 -19q-49 0 -83 34t-34 83
q0 30 15 57q2 5 4 9q3 5 5 9q2 5 5 9q2 5 4 9q3 5 5 9l4 10q3 5 5 9q2 5 5 9q2 5 4 9q2 5 5 9q2 5 4 9q3 5 5 9q2 5 3 6q1 3 1 4q3 4 5 9t5 9q2 5 4 9q2 5 5 9q2 5 4 9q2 5 5 9q2 6 4 10q3 5 5 9q2 5 5 9q2 5 4 9q2 5 5 9q2 5 4 9q2 5 5 10q2 5 4 9q3 5 5 9q2 5 5 9q2 5 4 9
q2 5 5 9q2 5 4 9q2 5 5 10q2 5 4 9q3 5 5 9q2 5 5 9q2 5 4 9q2 5 5 9q2 5 4 9l5 10q2 5 5 9q2 5 4 9q2 5 5 9q2 5 4 9q3 5 5 9q2 6 4 10q3 5 5 9q2 5 5 9q2 5 4 9q2 5 5 9q14 31 42.5 50t63.5 19t64 -19t42 -50q3 -4 5 -9q2 -4 5 -9q2 -4 4 -9q3 -5 5 -9l4 -10q3 -4 5 -9
q2 -4 4 -9q3 -4 5 -9q2 -4 5 -9q2 -5 4 -9l5 -10q2 -4 4 -9q3 -4 5 -9q2 -4 4 -9q3 -4 5 -9q2 -4 5 -9q2 -4 4 -9l5 -10q2 -4 4 -9q3 -4 5 -9q2 -4 4 -9q3 -4 5 -9q2 -4 5 -9q2 -5 4 -9q3 -5 5 -10q2 -4 4 -9q3 -4 5 -9q2 -4 4 -9q3 -4 5 -9t5 -9l4 -10q3 -4 5 -9q2 -4 4 -9
q3 -4 5 -9q2 -4 5 -9q2 -4 4 -9q3 -5 5 -9q0 -2 1 -4q1 -1 3 -6q2 -3 5 -9q2 -4 4 -9q3 -4 5 -9q2 -4 5 -9q2 -4 4 -9q2 -4 5 -9l4 -10q3 -4 5 -9q2 -4 4 -9q3 -4 5 -9q2 -4 5 -9q2 -4 4 -9z" />
    <glyph glyph-name="Acircumflex" unicode="&#xc2;" 
d="M374 755q-25 -26 -61.5 -26t-62 25.5t-25.5 62t26 62.5l1 1t2 1l2 3l2 2t1.5 1t1.5 1.5t1.5 2l1.5 1.5l1 1l3 3q1 1 2 1.5t1 1.5l3 3q1 0 2 1.5l1 1.5l1 1l1.5 1.5t2 1.5l1.5 1q3 3 3 4l1 1t2 1l2 3l2 2t2 1l1 1.5t1.5 2l1.5 1.5l1 1l3 3l2 2l1 1l3 3q1 0 2 1t1 2l3 3
l1 1t2 1q2 3 3 4l1 1t2 1l2 3l2 2t2 1l2 3l2 2l1 1l3 3q26 26 62 26t62 -26q0 -1 1 -2t1.5 -1t1.5 -1l1.5 -1.5t1.5 -2l1 -1.5q3 -2 4 -3l1 -1t1 -2l3 -2l2 -2t1 -1.5t1.5 -1.5t2 -1.5l1.5 -1.5l1 -1l3 -3q1 -1 1.5 -2t1.5 -1l3 -3q0 -1 1 -2t1.5 -1t1.5 -1l1.5 -1.5t1.5 -2
l1 -1.5l1.5 -1t2 -1.5l1.5 -1.5t1 -2l3 -2l2 -2t1 -2l3 -2l2 -2l1 -1l3 -3l2 -2l1 -1l3 -3q0 -1 1 -2t2 -1l3 -3l1 -1.5l1 -1.5q1 0 2 -1l1.5 -1.5l1.5 -1.5t1 -2l3 -2q26 -26 26 -62.5t-25.5 -62t-62 -25.5t-61.5 26q-1 0 -2 1.5l-1 1.5l-3 3q-1 0 -2 1t-1 2l-3 2l-2 2
t-1 2l-3 2q0 1 -1 2t-2 1q-2 3 -2.5 3.5t-1.5 1t-1 1.5q0 -1 -1 -1.5t-1.5 -1l-1.5 -1.5t-1 -2l-3 -3q-1 0 -2 -1l-1 -1q-3 -3 -3 -4q-1 0 -2 -1l-1 -1l-3 -3q0 -1 -1.5 -2l-1.5 -1l-1 -1.5t-2 -1.5zM735 174q15 -27 15 -57q0 -49 -34 -83t-83 -34q-35 0 -63.5 19t-42.5 50
q-2 4 -5 9q-2 4 -4 9q-2 4 -5 9l-4 10q-3 4 -5 9l-1 2h-2h-1.5h-1.5h-1.5h-2h-2h-1.5h-1.5h-2h-2h-1.5h-1.5h-1.5h-2h-2h-1.5h-1.5h-2h-2h-1.5h-1.5h-1.5h-2h-2h-1.5h-1.5h-2h-2h-1.5h-1.5h-2h-1.5h-1.5h-2h-1.5h-1.5h-2h-2h-1.5h-1.5h-1.5h-2h-2h-1.5h-1.5h-2h-2h-1.5h-1.5
h-1.5h-2h-2h-1.5h-1.5h-2h-2h-1.5h-1.5h-2h-1.5h-1.5h-2h-1.5h-1.5h-2h-2h-1.5h-1.5h-2h-2h-1.5h-1.5h-1.5h-2h-2h-1.5h-1.5h-2h-2h-1.5h-1.5h-1.5h-2h-2h-1.5h-1.5h-2h-2h-1.5h-1.5h-1.5h-1.5h-2h-2h-1.5h-1.5h-2h-2h-1.5h-1.5h-1.5h-2h-2h-1.5h-1.5h-2h-2h-1.5h-1.5h-1.5
h-2h-2h-1.5h-1.5h-2h-2h-1.5h-1.5h-1.5h-2q0 -1 -0.5 -1.5l-0.5 -0.5q-2 -5 -5 -9q-2 -6 -4 -10q-3 -5 -5 -9q-2 -5 -4 -9q-3 -5 -5 -9q-14 -31 -42.5 -50t-63.5 -19q-49 0 -83 34t-34 83q0 30 15 57q2 5 4 9q3 5 5 9q2 5 5 9q2 5 4 9q2 5 5 9q2 6 4 10q3 5 5 9q2 5 4 9
q3 5 5 9q2 5 5 9q2 5 4 9q2 5 5 9q2 5 3 6q1 2 1 4q3 5 5 9q2 5 5 9q2 5 4 9q2 5 5 9q2 5 4 9q2 5 5 9q2 6 4 10q3 5 5 9q2 5 5 9q2 5 4 9q2 5 5 9q2 5 4 9q3 5 5 10t4 9q3 5 5 9q2 5 5 9q2 5 4 9q2 5 5 9q2 5 4 9l5 10q2 5 4 9q3 5 5 9q2 5 5 9q2 5 4 9q2 5 5 9q2 5 4 9
l5 10q2 5 4 9q3 5 5 9q2 5 5 9q2 5 4 9q3 5 5 9q2 6 4 10q3 5 5 9q2 5 4 9q3 5 5 9q2 5 5 9q14 31 42.5 50t63.5 19t63.5 -19t42.5 -50q3 -4 5 -9q2 -4 5 -9q2 -4 4 -9q3 -5 5 -9l4 -10q3 -4 5 -9q2 -4 4 -9q3 -4 5 -9q2 -4 5 -9q2 -4 4 -9l5 -10q2 -4 4 -9q3 -4 5 -9
q2 -4 4 -9q3 -4 5 -9q3 -5 5 -9t4 -9l5 -10q2 -4 4 -9q3 -4 5 -9q2 -4 4 -9q3 -4 5 -9t5 -9q2 -5 4 -9q3 -5 5 -10q2 -4 4 -9q3 -4 5 -9q2 -4 4 -9q3 -4 5 -9q3 -5 5 -9l4 -10q3 -4 5 -9q2 -4 4 -9q3 -4 5 -9q2 -4 5 -9q2 -4 4 -9q3 -5 5 -9q0 -2 1 -4q1 -1 3 -6q2 -3 5 -9
q2 -4 4 -9q3 -4 5 -9q2 -4 5 -9q2 -5 4 -9t5 -9l4 -10q3 -4 5 -9q2 -4 4 -9q3 -4 5 -9q2 -4 5 -9q2 -5 4 -9z" />
    <glyph glyph-name="Acircumflex" unicode="&#xe2;" 
d="M374 755q-25 -26 -61.5 -26t-62 25.5t-25.5 62t26 62.5l1 1t2 1l2 3l2 2t1.5 1t1.5 1.5t1.5 2l1.5 1.5l1 1l3 3q1 1 2 1.5t1 1.5l3 3q1 0 2 1.5l1 1.5l1 1l1.5 1.5t2 1.5l1.5 1q3 3 3 4l1 1t2 1l2 3l2 2t2 1l1 1.5t1.5 2l1.5 1.5l1 1l3 3l2 2l1 1l3 3q1 0 2 1t1 2l3 3
l1 1t2 1q2 3 3 4l1 1t2 1l2 3l2 2t2 1l2 3l2 2l1 1l3 3q26 26 62 26t62 -26q0 -1 1 -2t1.5 -1t1.5 -1l1.5 -1.5t1.5 -2l1 -1.5q3 -2 4 -3l1 -1t1 -2l3 -2l2 -2t1 -1.5t1.5 -1.5t2 -1.5l1.5 -1.5l1 -1l3 -3q1 -1 1.5 -2t1.5 -1l3 -3q0 -1 1 -2t1.5 -1t1.5 -1l1.5 -1.5t1.5 -2
l1 -1.5l1.5 -1t2 -1.5l1.5 -1.5t1 -2l3 -2l2 -2t1 -2l3 -2l2 -2l1 -1l3 -3l2 -2l1 -1l3 -3q0 -1 1 -2t2 -1l3 -3l1 -1.5l1 -1.5q1 0 2 -1l1.5 -1.5l1.5 -1.5t1 -2l3 -2q26 -26 26 -62.5t-25.5 -62t-62 -25.5t-61.5 26q-1 0 -2 1.5l-1 1.5l-3 3q-1 0 -2 1t-1 2l-3 2l-2 2
t-1 2l-3 2q0 1 -1 2t-2 1q-2 3 -2.5 3.5t-1.5 1t-1 1.5q0 -1 -1 -1.5t-1.5 -1l-1.5 -1.5t-1 -2l-3 -3q-1 0 -2 -1l-1 -1q-3 -3 -3 -4q-1 0 -2 -1l-1 -1l-3 -3q0 -1 -1.5 -2l-1.5 -1l-1 -1.5t-2 -1.5zM735 174q15 -27 15 -57q0 -49 -34 -83t-83 -34q-35 0 -63.5 19t-42.5 50
q-2 4 -5 9q-2 4 -4 9q-2 4 -5 9l-4 10q-3 4 -5 9l-1 2h-2h-1.5h-1.5h-1.5h-2h-2h-1.5h-1.5h-2h-2h-1.5h-1.5h-1.5h-2h-2h-1.5h-1.5h-2h-2h-1.5h-1.5h-1.5h-2h-2h-1.5h-1.5h-2h-2h-1.5h-1.5h-2h-1.5h-1.5h-2h-1.5h-1.5h-2h-2h-1.5h-1.5h-1.5h-2h-2h-1.5h-1.5h-2h-2h-1.5h-1.5
h-1.5h-2h-2h-1.5h-1.5h-2h-2h-1.5h-1.5h-2h-1.5h-1.5h-2h-1.5h-1.5h-2h-2h-1.5h-1.5h-2h-2h-1.5h-1.5h-1.5h-2h-2h-1.5h-1.5h-2h-2h-1.5h-1.5h-1.5h-2h-2h-1.5h-1.5h-2h-2h-1.5h-1.5h-1.5h-1.5h-2h-2h-1.5h-1.5h-2h-2h-1.5h-1.5h-1.5h-2h-2h-1.5h-1.5h-2h-2h-1.5h-1.5h-1.5
h-2h-2h-1.5h-1.5h-2h-2h-1.5h-1.5h-1.5h-2q0 -1 -0.5 -1.5l-0.5 -0.5q-2 -5 -5 -9q-2 -6 -4 -10q-3 -5 -5 -9q-2 -5 -4 -9q-3 -5 -5 -9q-14 -31 -42.5 -50t-63.5 -19q-49 0 -83 34t-34 83q0 30 15 57q2 5 4 9q3 5 5 9q2 5 5 9q2 5 4 9q2 5 5 9q2 6 4 10q3 5 5 9q2 5 4 9
q3 5 5 9q2 5 5 9q2 5 4 9q2 5 5 9q2 5 3 6q1 2 1 4q3 5 5 9q2 5 5 9q2 5 4 9q2 5 5 9q2 5 4 9q2 5 5 9q2 6 4 10q3 5 5 9q2 5 5 9q2 5 4 9q2 5 5 9q2 5 4 9q3 5 5 10t4 9q3 5 5 9q2 5 5 9q2 5 4 9q2 5 5 9q2 5 4 9l5 10q2 5 4 9q3 5 5 9q2 5 5 9q2 5 4 9q2 5 5 9q2 5 4 9
l5 10q2 5 4 9q3 5 5 9q2 5 5 9q2 5 4 9q3 5 5 9q2 6 4 10q3 5 5 9q2 5 4 9q3 5 5 9q2 5 5 9q14 31 42.5 50t63.5 19t63.5 -19t42.5 -50q3 -4 5 -9q2 -4 5 -9q2 -4 4 -9q3 -5 5 -9l4 -10q3 -4 5 -9q2 -4 4 -9q3 -4 5 -9q2 -4 5 -9q2 -4 4 -9l5 -10q2 -4 4 -9q3 -4 5 -9
q2 -4 4 -9q3 -4 5 -9q3 -5 5 -9t4 -9l5 -10q2 -4 4 -9q3 -4 5 -9q2 -4 4 -9q3 -4 5 -9t5 -9q2 -5 4 -9q3 -5 5 -10q2 -4 4 -9q3 -4 5 -9q2 -4 4 -9q3 -4 5 -9q3 -5 5 -9l4 -10q3 -4 5 -9q2 -4 4 -9q3 -4 5 -9q2 -4 5 -9q2 -4 4 -9q3 -5 5 -9q0 -2 1 -4q1 -1 3 -6q2 -3 5 -9
q2 -4 4 -9q3 -4 5 -9q2 -4 5 -9q2 -5 4 -9t5 -9l4 -10q3 -4 5 -9q2 -4 4 -9q3 -4 5 -9q2 -4 5 -9q2 -5 4 -9z" />
    <glyph glyph-name="Atilde" unicode="&#xc3;" 
d="M312 772q-30 -19 -65.5 -11t-55 38.5t-11.5 66t39 54.5l4 3l4 2q1 1 4 3q4 2 4 3q1 0 5 2l1.5 1t2.5 2l4 2l4 3q2 2 6 4q1 0 1.5 0.5l0.5 0.5q9 5 18 9q12 6 24 8q12 3 24 3q12 1 24 -1q12 -1 23 -4q13 -3 24 -9q10 -4 19 -11q4 -3 9 -6l8 -6q4 -2 8 -6q4 -2 8 -5
q5 -3 8 -6q4 -2 9 -5l1 -1l1.5 1.5t2.5 1.5t4 2l4 3q1 1 5 3q3 2 4 3q30 19 65.5 11t55 -38.5t11.5 -66t-39 -54.5l-4 -3l-4 -3l-4 -2l-4 -3q-1 0 -5 -2q-3 -3 -3.5 -3t-4.5 -3l-4 -2q-2 -2 -6 -4l-1 -0.5l-1 -0.5q-9 -6 -18 -9q-12 -6 -24 -8q-12 -3 -24 -3q-12 -1 -24 1
q-12 0 -23 4q-13 3 -24 9q-10 4 -19 11q-4 3 -9 6l-8 6q-4 2 -8 5l-8 6q-4 2 -8 6q-4 2 -9 5l-1 1l-1.5 -1.5t-2.5 -1.5t-4 -3q-4 -2 -4.5 -2.5t-4.5 -2.5q-3 -2 -4 -3zM735 174q15 -27 15 -57q0 -49 -34 -83t-83 -34q-35 0 -63.5 19t-42.5 50q-2 4 -5 9q-2 5 -4 9
q-3 4 -5 9l-4 10q-3 4 -5 9q-1 1 -1 2h-2h-1.5h-2h-1.5h-1.5h-2h-1.5h-1.5h-2h-2h-1.5h-1.5h-2h-2h-1.5h-1.5h-1.5h-2h-2h-1.5h-1.5h-2h-2h-1.5h-1.5h-1.5h-2h-2h-1.5h-1.5h-2h-1.5h-1.5h-2h-1.5h-1.5h-2h-2h-1.5h-1.5h-2h-2h-1.5h-1.5h-1.5h-2h-2h-1.5h-1.5h-2h-2h-1.5
h-1.5h-1.5h-2h-2h-1.5h-1.5h-2h-1.5h-1.5h-2h-1.5h-1.5h-2h-2h-1.5h-1.5h-2h-2h-1.5h-1.5h-1.5h-2h-2h-1.5h-1.5h-2h-2h-1.5h-1.5h-1.5h-2h-2h-1.5h-1.5h-2h-2h-1.5h-1.5h-1.5h-1.5h-2h-2h-1.5h-1.5h-2h-2h-1.5h-1.5h-1.5h-2h-2h-1.5h-1.5h-2h-2h-1.5h-1.5h-1.5h-2h-2h-1.5
h-1.5h-2h-2h-1.5h-1.5h-1.5h-2l-0.5 -1l-0.5 -1q-2 -5 -5 -9l-4 -10q-3 -5 -5 -9q-2 -5 -4 -9q-3 -5 -5 -9q-14 -31 -42.5 -50t-63.5 -19q-49 0 -83 34t-34 83q0 30 15 57q2 5 4 9q3 5 5 9q2 5 5 9q2 5 4 9q2 5 5 9q2 6 4 10q3 5 5 9q2 5 4 9q3 5 5 9q2 5 5 9q2 5 4 9
q2 5 5 9q2 5 3 6q1 3 1 4q3 5 5 9q2 5 5 9q2 5 4 9q2 5 5 9q2 6 4 9l5 10q2 5 5 9q2 5 4 9q2 5 5 9q2 5 4 9q3 5 5 9q2 5 4 9l5 10q2 5 5 9q2 5 4 9q2 5 5 9q2 5 4 9q3 5 5 9l4 10q3 4 5 9t5 9q2 5 4 9q2 5 5 9q2 5 4 9q3 5 5 9q2 6 4 10q3 5 5 9q2 5 5 9q2 5 4 9q2 5 5 9
q2 5 4 9q3 5 5 9q2 6 4 10q3 5 5 9q2 5 5 9q2 5 4 9q2 5 5 9q14 31 42.5 50t63.5 19t64 -19t42 -50q3 -4 5 -9q2 -4 5 -9q2 -4 4 -9q3 -5 5 -9l4 -10q3 -4 5 -9q2 -4 4 -9q3 -4 5 -9q2 -4 5 -9q2 -4 4 -9q2 -4 5 -9l4 -10q3 -4 5 -9q2 -4 4 -9q3 -4 5 -9q2 -4 5 -9
q2 -4 4 -9q3 -5 5 -9l4 -10q3 -4 5 -9q2 -4 4 -9q3 -4 5 -9q2 -4 5 -9q2 -5 4 -9q3 -5 5 -10q2 -4 4 -9q3 -4 5 -9q2 -4 4 -9q3 -4 5 -9q2 -4 5 -9q2 -5 4 -9q3 -5 5 -10q2 -4 4 -9q3 -4 5 -9q2 -4 5 -9q2 -4 4 -9q3 -5 5 -9q1 -2 1 -4q1 -1 3 -6q2 -3 5 -9q2 -4 4 -9
q3 -4 5 -9q2 -4 5 -9q2 -4 4 -9q2 -4 5 -9l4 -10q3 -4 5 -9q2 -4 4 -9q3 -4 5 -9q2 -4 5 -9q2 -4 4 -9z" />
    </font>
</defs>
</svg>
